<svg xmlns="http://www.w3.org/2000/svg" viewBox="0 0 402 479.76"><title>klock_final</title><circle cx="201" cy="201" r="185" style="fill:#fff"/><path d="M255,45A169,169,0,0,1,374.5,333.5a169,169,0,1,1-239-239A167.89,167.89,0,0,1,255,45m0-32C144,13,54,103,54,214s90,201,201,201,201-90,201-201S366,13,255,13Z" transform="translate(-54 -13)"/><path d="M251.84,87.87l-4.32-7.48c-1.76-2.87-2.86-4.73-3.92-6.69h-.1c-.95,2-1.91,3.77-3.67,6.74l-4.07,7.43h-5l10.35-17.13L231.14,54h5.08L240.69,62c1.25,2.21,2.21,3.92,3.11,5.72H244c1-2,1.81-3.56,3.07-5.72L251.64,54h5l-10.3,16.48,10.55,17.38Z" transform="translate(-54 -13)"/><path d="M266.37,54V87.87H262V54Z" transform="translate(-54 -13)"/><path d="M278.38,54V87.87H274V54Z" transform="translate(-54 -13)"/><path d="M386.84,193.83V227.7h-4.37V193.83Z" transform="translate(-54 -13)"/><path d="M398.85,193.83V227.7h-4.37V193.83Z" transform="translate(-54 -13)"/><path d="M410.86,193.83V227.7h-4.37V193.83Z" transform="translate(-54 -13)"/><path d="M251.73,377.16l-11-33.87h4.72L250.67,360c1.46,4.58,2.72,8.7,3.62,12.67h.1c1-3.92,2.36-8.19,3.87-12.62L264,343.29h4.67l-12.11,33.87Z" transform="translate(-54 -13)"/><path d="M276.7,343.29v33.87h-4.37V343.29Z" transform="translate(-54 -13)"/><path d="M101.43,189.12V223H97.05V189.12Z" transform="translate(-54 -13)"/><path d="M127.61,223l-4.32-7.49c-1.76-2.86-2.87-4.72-3.92-6.68h-.11c-1,2-1.9,3.77-3.66,6.73L111.53,223h-5l10.35-17.14-9.95-16.73H112l4.47,7.94c1.26,2.21,2.21,3.92,3.12,5.73h.15c1-2,1.81-3.57,3.06-5.73l4.63-7.94h5l-10.3,16.48L132.68,223Z" transform="translate(-54 -13)"/><line x1="202" y1="104" x2="201.8" y2="201.21" style="fill:none;stroke:#0071bc;stroke-linecap:round;stroke-linejoin:round;stroke-width:48px"/><line x1="298" y1="291" x2="201.39" y2="199.82" style="fill:none;stroke:#0071bc;stroke-linecap:round;stroke-miterlimit:10;stroke-width:48px"/><line x1="202.01" y1="302" x2="201.79" y2="205" style="fill:none;stroke:#f7931e;stroke-linecap:round;stroke-miterlimit:10;stroke-width:48px"/><line x1="301.5" y1="120.13" x2="201.79" y2="201" style="fill:none;stroke:#f7931e;stroke-linecap:round;stroke-linejoin:round;stroke-width:48px"/><line x1="139.05" y1="100.86" x2="113.03" y2="66.95" style="fill:none;stroke:#0071bc;stroke-miterlimit:10;stroke-width:16px"/><line x1="92.8" y1="147.68" x2="62.61" y2="119.33" style="fill:none;stroke:#0071bc;stroke-miterlimit:10;stroke-width:16px"/><line x1="55.82" y1="264.74" x2="88.8" y2="240.4" style="fill:none;stroke:#0071bc;stroke-miterlimit:10;stroke-width:16px"/><line x1="106" y1="326.63" x2="131.91" y2="291.29" style="fill:none;stroke:#0071bc;stroke-miterlimit:10;stroke-width:16px"/><path d="M129.73,434.62c0-1.84.92-2.86,2.67-2.86h.82c1.84,0,2.76,1,2.76,2.86v25.85l27.24-26.77c1.65-1.66,2.48-1.94,3.58-1.94a3,3,0,0,1,3.13,3.32l-27.05,26,27.7,27.69a3.14,3.14,0,0,1-3.41,3.22,4.33,4.33,0,0,1-3.4-1.47L136,461.94v27.23c0,1.93-.92,2.85-2.76,2.85h-.82c-1.75,0-2.67-.92-2.67-2.85Z" transform="translate(-54 -13)"/><path d="M180.88,434.62c0-1.94.92-2.86,2.67-2.86h.83c1.84,0,2.76.92,2.76,2.86v51.24h28.7c1.84,0,2.85.92,2.85,2.66V489a2.52,2.52,0,0,1-2.85,2.67H184.38a3.5,3.5,0,0,1-3.5-3.49Z" transform="translate(-54 -13)"/><path d="M251.35,431c17.48,0,29.53,12.6,29.53,30.82s-12.23,30.91-29.71,30.91S221.64,480.25,221.64,462,234,431,251.35,431Zm0,56.3c13.53,0,23.09-10.4,23.09-25.3s-9.75-25.57-23.27-25.57-23.09,10.48-23.09,25.39S237.83,487.33,251.35,487.33Z" transform="translate(-54 -13)"/><path d="M319.89,431c14.26,0,22.17,8.28,22.17,11.77,0,3.22-3.49,4.05-3.68,3.77-3.77-6.53-11.5-10.11-18.67-10.11-13.62,0-23.19,10.48-23.19,25.39s9.85,25.48,23.37,25.48c8.83,0,16.47-4.51,19.23-11.68.09-.37,4.05.46,4.05,3.68,0,3.86-8.19,13.43-23.55,13.43-17.39,0-29.54-12.61-29.54-30.73S302.32,431,319.89,431Z" transform="translate(-54 -13)"/><path d="M353.29,434.62c0-1.84.92-2.86,2.67-2.86h.82c1.84,0,2.76,1,2.76,2.86v25.85l27.23-26.77c1.66-1.66,2.49-1.94,3.59-1.94a3,3,0,0,1,3.13,3.32l-27.05,26,27.69,27.69a3.12,3.12,0,0,1-3.4,3.22,4.33,4.33,0,0,1-3.4-1.47l-27.79-28.61v27.23c0,1.93-.92,2.85-2.76,2.85H356c-1.75,0-2.67-.92-2.67-2.85Z" transform="translate(-54 -13)"/></svg>