<?xml version="1.0" encoding="utf-8"?>
<!-- Generator: Adobe Illustrator 16.0.0, SVG Export Plug-In . SVG Version: 6.00 Build 0)  -->
<!DOCTYPE svg PUBLIC "-//W3C//DTD SVG 1.1//EN" "http://www.w3.org/Graphics/SVG/1.1/DTD/svg11.dtd">
<svg version="1.1" xmlns="http://www.w3.org/2000/svg" xmlns:xlink="http://www.w3.org/1999/xlink" x="0px" y="0px" width="2585px"
	 height="595.28px" viewBox="0 0 2585 595.28" enable-background="new 0 0 2585 595.28" xml:space="preserve">
<g id="Layer_1">
	<g>
		<defs>
			<polygon id="SVGID_1_" points="498.807,188.771 451.644,188.771 365.177,322.401 365.177,188.771 318.014,188.771 
				318.014,401.007 365.177,401.007 451.644,267.378 451.644,471.753 129.358,472.001 129.358,448.172 105.511,472.019 
				82.194,495.335 105.776,518.917 129.528,542.67 129.528,518.917 498.807,518.917 			"/>
		</defs>
		<linearGradient id="SVGID_2_" gradientUnits="userSpaceOnUse" x1="82.1943" y1="365.7207" x2="498.8066" y2="365.7207">
			<stop  offset="0" style="stop-color:#596DCD"/>
			<stop  offset="1" style="stop-color:#3548B6"/>
		</linearGradient>
		<use xlink:href="#SVGID_1_"  overflow="visible" fill="url(#SVGID_2_)"/>
		<clipPath id="SVGID_3_">
			<use xlink:href="#SVGID_1_"  overflow="visible"/>
		</clipPath>
		
			<linearGradient id="SVGID_4_" gradientUnits="userSpaceOnUse" x1="-0.0483" y1="595.2002" x2="0.8251" y2="595.2002" gradientTransform="matrix(111.8606 128.5456 128.5456 -111.8606 -76212.1563 66954.0625)">
			<stop  offset="0" style="stop-color:#596DCD"/>
			<stop  offset="1" style="stop-color:#3548B6"/>
		</linearGradient>
		<polygon clip-path="url(#SVGID_3_)" fill="url(#SVGID_4_)" points="319.275,-17.538 674.06,390.164 261.725,748.979 
			-93.058,341.277 		"/>
	</g>
	<g>
		<defs>
			<polygon id="SVGID_5_" points="475.225,71.033 475.039,70.847 451.473,47.28 451.473,70.831 82.194,70.586 82.194,118.026 
				207.964,118.302 207.964,353.844 129.297,353.844 129.297,275.238 82.194,275.238 82.194,401.007 255.128,401.007 
				255.128,118.302 451.644,118.302 451.644,141.778 475.119,118.302 475.489,117.931 498.807,94.614 			"/>
		</defs>
		<linearGradient id="SVGID_6_" gradientUnits="userSpaceOnUse" x1="82.1943" y1="224.1436" x2="498.8066" y2="224.1436">
			<stop  offset="0" style="stop-color:#CD6D59"/>
			<stop  offset="1" style="stop-color:#C24535"/>
		</linearGradient>
		<use xlink:href="#SVGID_5_"  overflow="visible" fill="url(#SVGID_6_)"/>
		<clipPath id="SVGID_7_">
			<use xlink:href="#SVGID_5_"  overflow="visible"/>
		</clipPath>
		<linearGradient id="SVGID_8_" gradientUnits="userSpaceOnUse" x1="-91.3359" y1="224.1445" x2="672.3369" y2="224.1445">
			<stop  offset="0" style="stop-color:#CD6D59"/>
			<stop  offset="1" style="stop-color:#C24535"/>
		</linearGradient>
		<polygon clip-path="url(#SVGID_7_)" fill="url(#SVGID_8_)" points="250.25,605.389 -91.336,189.969 330.751,-157.1 
			672.337,258.32 		"/>
	</g>
</g>
<g id="Layer_2">
	<g>
		<g>
			<path fill="#800000018000000180000001" d="M917.309,138.347c0.586,0.138,0.879,0.548,0.879,1.23v291.621
				c0,0.82-0.293,1.23-0.879,1.23H670.189c-0.685,0-1.025-0.41-1.025-1.23v-77.725c0.096-0.82,0.439-1.23,1.025-1.23h184.57V139.577
				c0.096-0.82,0.439-1.23,1.025-1.23H917.309z"/>
			<path fill="#800000018000000180000001" d="M1023.656,220.583h-89.795c-0.685,0-1.025-0.41-1.025-1.23v-79.775
				c0.096-0.82,0.439-1.23,1.025-1.23h247.119c0.586,0.138,0.879,0.548,0.879,1.23v79.775c0,0.82-0.293,1.23-0.879,1.23H1090.6
				v210.615c0,0.82-0.344,1.23-1.025,1.23h-64.893c-0.685,0-1.025-0.41-1.025-1.23V220.583z"/>
		</g>
		<g>
			<path fill="#303485" d="M917.309,138.347c0.586,0.138,0.879,0.548,0.879,1.23v291.621c0,0.82-0.293,1.23-0.879,1.23H670.189
				c-0.685,0-1.025-0.41-1.025-1.23v-77.725c0.096-0.82,0.439-1.23,1.025-1.23h184.57V139.577c0.096-0.82,0.439-1.23,1.025-1.23
				H917.309z"/>
			<path fill="#303485" d="M1023.656,220.583h-89.795c-0.685,0-1.025-0.41-1.025-1.23v-79.775c0.096-0.82,0.439-1.23,1.025-1.23
				h247.119c0.586,0.138,0.879,0.548,0.879,1.23v79.775c0,0.82-0.293,1.23-0.879,1.23H1090.6v210.615c0,0.82-0.344,1.23-1.025,1.23
				h-64.893c-0.685,0-1.025-0.41-1.025-1.23V220.583z"/>
		</g>
	</g>
	<g>
		<g>
			<path fill="#303485" d="M1191.289,137.576c0.096-0.82,0.439-1.23,1.025-1.23h246.973c0.682,0.138,1.025,0.548,1.025,1.23v184.98
				c0,0.82-0.344,1.23-1.025,1.23h-80.566v0.82c52.636,42.794,79.834,65.353,81.592,67.676v36.914c0,0.82-0.344,1.23-1.025,1.23
				h-60.645c-0.978,0-23.683-19.072-68.115-57.217c-35.742-31.034-54.346-46.825-55.811-47.373v103.359
				c0,0.82-0.293,1.23-0.879,1.23h-61.523c-0.685,0-1.025-0.41-1.025-1.23V137.576z M1254.717,243.602h122.021v-27.07h-122.021
				V243.602z"/>
			<path fill="#303485" d="M1518.389,323.787v105.41c0,0.82-0.293,1.23-0.879,1.23h-61.523c-0.685,0-1.025-0.41-1.025-1.23V137.576
				c0.096-0.82,0.439-1.23,1.025-1.23h246.973c0.682,0.138,1.025,0.548,1.025,1.23v291.621c0,0.82-0.344,1.23-1.025,1.23h-61.523
				c-0.586,0-0.879-0.41-0.879-1.23v-105.41H1518.389z M1518.389,243.602h122.168v-27.07h-122.168V243.602z"/>
			<path fill="#303485" d="M1966.631,136.346c0.682,0.138,1.025,0.615,1.025,1.436v291.416c0,0.82-0.344,1.23-1.025,1.23h-61.523
				c-0.586,0-0.879-0.41-0.879-1.23V217.352h-122.168v211.846c0,0.82-0.293,1.23-0.879,1.23h-61.523c-0.685,0-1.025-0.41-1.025-1.23
				V137.781c0.096-0.955,0.439-1.436,1.025-1.436H1966.631z"/>
			<path fill="#303485" d="M2230.303,136.346c0.682,0.138,1.025,0.548,1.025,1.23v77.725c0,0.82-0.344,1.23-1.025,1.23h-184.57
				v26.25h184.57c0.682,0.138,1.025,0.615,1.025,1.436v184.98c0,0.82-0.344,1.23-1.025,1.23H1983.33c-0.685,0-1.025-0.41-1.025-1.23
				v-77.725c0.096-0.82,0.439-1.23,1.025-1.23h184.57v-26.455h-184.57c-0.685,0-1.025-0.41-1.025-1.23v-184.98
				c0.096-0.82,0.439-1.23,1.025-1.23H2230.303z"/>
			<path fill="#303485" d="M2245.977,137.576c0.096-0.82,0.439-1.23,1.025-1.23h247.119c0.586,0.138,0.879,0.548,0.879,1.23v77.725
				c0,0.82-0.293,1.23-0.879,1.23h-184.57v133.711h184.57c0.586,0.138,0.879,0.548,0.879,1.23v77.725c0,0.82-0.293,1.23-0.879,1.23
				h-247.119c-0.685,0-1.025-0.41-1.025-1.23V137.576z"/>
		</g>
	</g>
</g>
</svg>
