<?xml version="1.0" encoding="UTF-8" standalone="no"?>
<!DOCTYPE svg PUBLIC "-//W3C//DTD SVG 1.1//EN" "http://www.w3.org/Graphics/SVG/1.1/DTD/svg11.dtd">
<svg width="100%" height="100%" viewBox="0 0 512 512" version="1.1" xmlns="http://www.w3.org/2000/svg" xmlns:xlink="http://www.w3.org/1999/xlink" xml:space="preserve" xmlns:serif="http://www.serif.com/" style="fill-rule:evenodd;clip-rule:evenodd;">
    <g transform="matrix(0.796574,0,0,0.796574,52.0771,52.0771)">
        <g>
            <g>
                <g>
                    <path d="M480,468C480,474.6 474.6,480 468,480L44,480C37.4,480 32,474.6 32,468L32,44C32,37.4 37.4,32 44,32L468,32C474.6,32 480,37.4 480,44L480,468Z" style="fill:white;fill-rule:nonzero;"/>
                    <path d="M470.5,468L489.5,468C489.5,479.9 479.9,489.5 468,489.5L44,489.5C32.1,489.5 22.5,479.9 22.5,468L22.5,44C22.5,32.1 32.2,22.5 44,22.5L468,22.5C479.9,22.5 489.5,32.1 489.5,44L489.5,468L470.5,468L470.5,44C470.5,42.6 469.4,41.5 468,41.5L44,41.5C42.6,41.5 41.5,42.6 41.5,44L41.5,468C41.5,469.4 42.6,470.5 44,470.5L468,470.5C469.4,470.5 470.5,469.4 470.5,468Z" style="fill:url(#_Linear1);fill-rule:nonzero;"/>
                </g>
                <g>
                    <path d="M68.3,59.9L86.5,59.9L86.5,95.9L86.9,95.9C88.7,92.8 90.6,89.9 92.5,87L111,60L133.6,60L106.7,94.7L135.1,141.4L113.6,141.4L93.7,106.3L86.7,114.9L86.7,141.5L68.3,141.5L68.3,59.9Z" style="fill-rule:nonzero;"/>
                    <path d="M213.1,99.7C213.1,126.4 196.9,142.6 173.1,142.6C148.9,142.6 134.8,124.4 134.8,101.2C134.8,76.8 150.4,58.6 174.4,58.6C199.4,58.5 213.1,77.3 213.1,99.7ZM154.3,100.8C154.3,116.7 161.8,128 174.1,128C186.5,128 193.7,116.2 193.7,100.3C193.7,85.7 186.7,73.1 174,73.1C161.5,73.2 154.3,85 154.3,100.8Z" style="fill-rule:nonzero;"/>
                    <path d="M225.2,61C231.1,60 239.9,59.3 249.7,59.3C261.8,59.3 270.2,61.1 276,65.7C280.8,69.6 283.5,75.2 283.5,82.7C283.5,93.1 276.1,100.2 269.1,102.7L269.1,103.1C274.8,105.4 277.9,110.8 280,118.3C282.5,127.5 285.1,138.1 286.6,141.2L267.8,141.2C266.5,138.9 264.5,132.3 262.1,122.2C259.9,112.1 256.4,109.3 248.9,109.2L243.3,109.2L243.3,141.2L225.1,141.2L225.1,61L225.2,61ZM243.4,96L250.6,96C259.8,96 265.2,91.4 265.2,84.3C265.2,76.8 260.1,73.1 251.7,72.9C247.2,72.9 244.7,73.3 243.4,73.5L243.4,96Z" style="fill-rule:nonzero;"/>
                </g>
                <g>
                    <clipPath id="_clip2">
                        <path d="M110.9,59.9L92.5,86.9C90.7,89.8 88.8,92.7 86.9,95.8L86.5,95.8L86.5,59.8L68.3,59.8L68.3,141.2L86.5,141.2L86.5,114.6L93.5,106L113.4,141.1L135,141.1L106.6,94.4L133.5,59.7L110.9,59.7L110.9,59.9Z"/>
                    </clipPath>
                    <g clip-path="url(#_clip2)">
                        <rect x="68.3" y="59.9" width="66.7" height="81.4" style="fill:url(#_Linear3);"/>
                    </g>
                </g>
                <g>
                    <clipPath id="_clip4">
                        <path d="M154.2,100.8C154.2,85 161.4,73.1 173.9,73.1C186.6,73.1 193.6,85.7 193.6,100.3C193.6,116.1 186.5,128 174,128C161.6,128 154.2,116.7 154.2,100.8M134.7,101.2C134.7,124.4 148.8,142.6 173,142.6C196.8,142.6 213,126.4 213,99.7C213,77.2 199.4,58.5 174.4,58.5C150.3,58.5 134.7,76.8 134.7,101.2"/>
                    </clipPath>
                    <g clip-path="url(#_clip4)">
                        <rect x="134.7" y="58.5" width="78.3" height="84" style="fill:url(#_Linear5);"/>
                    </g>
                </g>
                <g>
                    <clipPath id="_clip6">
                        <path d="M243.3,73.5C244.6,73.3 247.2,72.9 251.6,72.9C260.1,73 265.1,76.8 265.1,84.2C265.1,91.3 259.7,95.9 250.5,95.9L243.3,95.9L243.3,73.5ZM225.1,61L225.1,141.3L243.3,141.3L243.3,109.3L248.9,109.3C256.4,109.4 259.9,112.2 262.1,122.3C264.5,132.3 266.4,139 267.8,141.3L286.6,141.3C285,138.2 282.5,127.5 280,118.4C277.9,110.9 274.8,105.5 269.1,103.2L269.1,102.8C276.1,100.3 283.5,93.1 283.5,82.8C283.5,75.3 280.8,69.6 276,65.8C270.2,61.2 261.8,59.4 249.7,59.4C239.8,59.3 231,60 225.1,61"/>
                    </clipPath>
                    <g clip-path="url(#_clip6)">
                        <rect x="225.1" y="59.3" width="61.5" height="82" style="fill:url(#_Linear7);"/>
                    </g>
                </g>
            </g>
        </g>
        <path id="path5608" d="M140.1,185.6C104,188.1 78.9,229.1 78.9,237.2C67,304.9 57,360.4 55.4,375.1C54.1,421.1 78.9,435.8 100.7,434.9C105.9,434.7 104,434.6 101.7,434.6C153.7,434.6 158.6,397.5 187,350.2C224.7,349.8 268.3,350.2 319.5,350.2C347.9,397.5 352.7,434.6 404.6,434.6C402.3,434.6 400.4,434.7 405.6,434.9C427.3,435.8 452.2,421 450.9,375.1C449.2,360.4 439.2,304.9 427.4,237.2C427.4,228.9 400.6,185.6 362.7,185.6C357.3,185.6 364.4,185.6 355.8,185.6C314.8,185.6 295.7,208.6 295.7,213.7C267.4,213.4 237.8,213.7 210.7,213.7C210.7,208.7 191.6,185.6 150.6,185.6C142,185.6 149.1,185.6 143.7,185.6C142.5,185.6 141.3,185.5 140.1,185.6Z" style="fill:url(#_Linear8);fill-rule:nonzero;"/>
        <g>
            <path d="M175.2,239.1L175.2,255.4C163.3,249.9 152.2,247.2 141.9,247.2C130,247.2 120.1,251.6 112.4,260.3C104.7,269.1 100.8,280.2 100.8,293.8C100.8,307.4 105.1,318.6 113.8,327.3C122.5,336 133.6,340.4 147.1,340.4C150.2,340.4 154.1,340 158.8,339.3L158.8,308.8L137.1,308.8L137.1,295.5L176.5,295.5L176.5,349.1C164.4,352.9 153,354.9 142.2,354.9C124.3,354.9 109.8,349.4 98.6,338.3C87.6,327.2 82,312.7 82,295C82,276.8 87.6,262.1 98.7,250.8C109.9,239.5 124.4,233.9 142.4,233.9C152.6,233.9 163.6,235.6 175.2,239.1Z" style="fill:white;fill-rule:nonzero;"/>
        </g>
        <g>
            <path d="M342.6,349.6L342.6,238.5L417.7,238.5L417.7,251.3L359.7,251.3L359.7,285L408.9,285L408.9,297.8L359.7,297.8L359.7,336.8L421.7,336.8L421.7,349.6L342.6,349.6Z" style="fill:white;fill-rule:nonzero;"/>
        </g>
        <path d="M211.1,301.3L197.9,301.3L197.9,327.6L184.8,327.6L184.8,288.1L197.9,288.1L197.9,274.9L211.1,274.9L211.1,261.7L224.2,261.7L224.2,248.5L211.2,248.5L211.2,235.4L224.2,235.4L224.2,248.4L237.4,248.4L237.4,261.6L277.1,261.6L277.1,248.5L290.3,248.5L290.3,235.3L303.4,235.3L303.4,248.4L290.4,248.4L290.4,261.6L303.5,261.6L303.5,274.8L316.7,274.8L316.7,288L329.8,288L329.8,327.6L316.8,327.6L316.8,301.4L303.6,301.4L303.6,327.7L290.4,327.7L290.4,340.9L264,340.9L264,327.8L290.2,327.8L290.2,314.7L224.3,314.7L224.3,327.7L250.5,327.7L250.5,340.8L224.2,340.8L224.2,327.8L211,327.8C211.1,318.9 211.1,310.2 211.1,301.3ZM237.4,275L224.4,275L224.4,287.9L237.4,287.9L237.4,275ZM277.2,287.9L290.2,287.9L290.2,274.9L277.2,274.9L277.2,287.9Z" style="fill:url(#_Linear9);stroke:url(#_Linear10);stroke-width:1px;"/>
    </g>
    <defs>
        <linearGradient id="_Linear1" x1="0" y1="0" x2="1" y2="0" gradientUnits="userSpaceOnUse" gradientTransform="matrix(468.14,0,0,468.14,21.829,256.014)"><stop offset="0" style="stop-color:rgb(58,0,143);stop-opacity:1"/><stop offset="1" style="stop-color:rgb(40,0,104);stop-opacity:1"/></linearGradient>
        <linearGradient id="_Linear3" x1="0" y1="0" x2="1" y2="0" gradientUnits="userSpaceOnUse" gradientTransform="matrix(218.066,0,0,218.066,68.405,100.567)"><stop offset="0" style="stop-color:rgb(58,0,143);stop-opacity:1"/><stop offset="1" style="stop-color:rgb(40,0,104);stop-opacity:1"/></linearGradient>
        <linearGradient id="_Linear5" x1="0" y1="0" x2="1" y2="0" gradientUnits="userSpaceOnUse" gradientTransform="matrix(218.35,0,0,218.35,68.2958,100.567)"><stop offset="0" style="stop-color:rgb(58,0,143);stop-opacity:1"/><stop offset="1" style="stop-color:rgb(40,0,104);stop-opacity:1"/></linearGradient>
        <linearGradient id="_Linear7" x1="0" y1="0" x2="1" y2="0" gradientUnits="userSpaceOnUse" gradientTransform="matrix(218.547,0,0,218.547,68.0776,100.261)"><stop offset="0" style="stop-color:rgb(58,0,143);stop-opacity:1"/><stop offset="1" style="stop-color:rgb(40,0,104);stop-opacity:1"/></linearGradient>
        <linearGradient id="_Linear8" x1="0" y1="0" x2="1" y2="0" gradientUnits="userSpaceOnUse" gradientTransform="matrix(201.02,195.019,-195.019,201.02,140.483,219.504)"><stop offset="0" style="stop-color:rgb(120,109,200);stop-opacity:1"/><stop offset="1" style="stop-color:rgb(99,73,177);stop-opacity:1"/></linearGradient>
        <linearGradient id="_Linear9" x1="0" y1="0" x2="1" y2="0" gradientUnits="userSpaceOnUse" gradientTransform="matrix(6.46521e-15,-105.585,105.585,6.46521e-15,257.257,340.84)"><stop offset="0" style="stop-color:rgb(50,0,163);stop-opacity:1"/><stop offset="1" style="stop-color:rgb(38,0,104);stop-opacity:1"/></linearGradient>
        <linearGradient id="_Linear10" x1="0" y1="0" x2="1" y2="0" gradientUnits="userSpaceOnUse" gradientTransform="matrix(146.133,0,0,146.133,184.19,288.047)"><stop offset="0" style="stop-color:rgb(120,109,200);stop-opacity:1"/><stop offset="1" style="stop-color:rgb(99,73,177);stop-opacity:1"/></linearGradient>
    </defs>
</svg>
