<svg id="Capa_1" data-name="Capa 1" xmlns="http://www.w3.org/2000/svg" xmlns:xlink="http://www.w3.org/1999/xlink" viewBox="0 0 467 467"><defs><style>.cls-1{fill:none;}.cls-2{clip-path:url(#clip-path);}.cls-3{fill:#fff;}.cls-4{fill:url(#linear-gradient);}.cls-5{clip-path:url(#clip-path-3);}.cls-6{fill:url(#linear-gradient-2);}.cls-7{clip-path:url(#clip-path-4);}.cls-8{fill:url(#linear-gradient-3);}.cls-9{clip-path:url(#clip-path-5);}.cls-10{fill:url(#linear-gradient-4);}.cls-11{fill:#427577;}.cls-12{fill:#9e0079;}</style><clipPath id="clip-path" transform="translate(-22.5 -22.5)"><rect class="cls-1" width="512" height="512"/></clipPath><linearGradient id="linear-gradient" y1="-1.09" x2="1" y2="-1.09" gradientTransform="matrix(468, 0, 0, -468, 21.89, -255.89)" gradientUnits="userSpaceOnUse"><stop offset="0" stop-color="#3a008f"/><stop offset="1" stop-color="#280068"/></linearGradient><clipPath id="clip-path-3" transform="translate(-22.5 -22.5)"><path class="cls-1" d="M110.93,59.87,92.45,86.92c-1.81,2.9-3.74,5.79-5.56,8.94h-.36v-36H68.3v81.39H86.53V114.69l7-8.57,19.92,35.14H135L106.58,94.52l26.93-34.66Z"/></clipPath><linearGradient id="linear-gradient-2" x1="0" y1="-2.34" x2="1" y2="-2.34" gradientTransform="matrix(218.22, 0, 0, -218.22, 45.39, -433.55)" xlink:href="#linear-gradient"/><clipPath id="clip-path-4" transform="translate(-22.5 -22.5)"><path class="cls-1" d="M154.16,100.8c0-15.82,7.25-27.65,19.68-27.65,12.68,0,19.68,12.56,19.68,27.17,0,15.82-7.12,27.65-19.56,27.65s-19.8-11.23-19.8-27.17m-19.44.36c0,23.19,14.13,41.42,38.28,41.42,23.79,0,40-16.18,40-42.87,0-22.46-13.64-41.18-38.64-41.18-24,0-39.61,18.23-39.61,42.63"/></clipPath><linearGradient id="linear-gradient-3" x1="0" y1="-2.34" x2="1" y2="-2.34" gradientTransform="matrix(218.22, 0, 0, -218.22, 45.39, -433.55)" xlink:href="#linear-gradient"/><clipPath id="clip-path-5" transform="translate(-22.5 -22.5)"><path class="cls-1" d="M243.29,73.51a45.9,45.9,0,0,1,8.33-.6c8.45.12,13.53,3.86,13.53,11.35,0,7.13-5.43,11.71-14.61,11.71h-7.25ZM225.05,61v80.3h18.23v-32h5.55c7.49.12,11,2.9,13.16,13,2.42,10,4.35,16.67,5.68,19h18.84c-1.57-3.14-4.11-13.77-6.64-22.94-2.05-7.49-5.19-12.92-10.87-15.21v-.36c7-2.54,14.37-9.66,14.37-20,0-7.49-2.66-13.16-7.49-17-5.8-4.59-14.25-6.4-26.32-6.4A161.91,161.91,0,0,0,225.05,61"/></clipPath><linearGradient id="linear-gradient-4" x1="0" y1="-2.34" x2="1" y2="-2.34" gradientTransform="matrix(218.22, 0, 0, -218.22, 45.39, -433.55)" xlink:href="#linear-gradient"/></defs><title>korma</title><g class="cls-2"><g class="cls-2"><path class="cls-3" d="M480,468a12,12,0,0,1-12,12H44a12,12,0,0,1-12-12V44A12,12,0,0,1,44,32H468a12,12,0,0,1,12,12Z" transform="translate(-22.5 -22.5)"/><path class="cls-4" d="M480,468h9.5A21.52,21.52,0,0,1,468,489.5H44A21.52,21.52,0,0,1,22.5,468V44A21.52,21.52,0,0,1,44,22.5H468A21.52,21.52,0,0,1,489.5,44V468h-19V44A2.52,2.52,0,0,0,468,41.5H44A2.52,2.52,0,0,0,41.5,44V468A2.52,2.52,0,0,0,44,470.5H468a2.52,2.52,0,0,0,2.53-2.5Z" transform="translate(-22.5 -22.5)"/></g><path d="M68.3,59.87H86.53v36h.36c1.81-3.14,3.74-6,5.55-8.94l18.48-27h22.58L106.58,94.52,135,141.26H113.46L93.54,106.12l-7,8.57v26.57H68.3Z" transform="translate(-22.5 -22.5)"/><path d="M213.09,99.72c0,26.69-16.18,42.87-40,42.87-24.15,0-38.28-18.23-38.28-41.42,0-24.39,15.58-42.63,39.61-42.63C199.45,58.54,213.09,77.26,213.09,99.72Zm-58.81,1.09c0,15.94,7.49,27.17,19.8,27.17s19.56-11.83,19.56-27.65c0-14.61-7-27.17-19.68-27.17C161.53,73.15,154.28,85,154.28,100.8Z" transform="translate(-22.5 -22.5)"/><path d="M225.17,61a161.76,161.76,0,0,1,24.51-1.69c12.08,0,20.53,1.81,26.33,6.4,4.83,3.86,7.49,9.54,7.49,17,0,10.39-7.37,17.51-14.37,20v.36c5.68,2.29,8.82,7.73,10.87,15.22,2.54,9.18,5.07,19.8,6.64,22.94H267.8c-1.33-2.29-3.26-8.94-5.68-19-2.17-10.14-5.68-12.92-13.16-13h-5.55v32H225.17Zm18.23,35h7.25c9.18,0,14.61-4.59,14.61-11.71,0-7.49-5.07-11.23-13.52-11.35a45.92,45.92,0,0,0-8.33.6Z" transform="translate(-22.5 -22.5)"/><g class="cls-5"><rect class="cls-6" x="45.8" y="37.37" width="66.66" height="81.39"/></g><g class="cls-7"><rect class="cls-8" x="112.22" y="36.04" width="78.25" height="84.05"/></g><g class="cls-9"><rect class="cls-10" x="202.55" y="36.76" width="61.47" height="81.99"/></g></g><path class="cls-11" d="M120.07,409.26h-55V185.13h55V195H83.82v204.5h36.25Z" transform="translate(-22.5 -22.5)"/><path class="cls-11" d="M394.7,185.13h55V409.38h-55v-9.87h36.25V195H394.7Z" transform="translate(-22.5 -22.5)"/><path class="cls-12" d="M279,334.38h15.92l-9.65,43.37q-2.81,12.36-3.84,15.17,3.75,17.24,10.87,17.23,8.43,0,8.71-11.61h3.37q-.28,10.87-4,17.56t-9.7,6.7a8.07,8.07,0,0,1-7.4-4q-2.44-4-5.25-16.49-9.74,20.51-31.85,20.51-15.08,0-24-11.76t-8.9-33.67q0-21.54,9.74-33.53t23.42-12a20.39,20.39,0,0,1,15.83,6.84q6.18,6.84,11,22.29Zm-8.24,36.72q-4.4-15.08-9.84-23.56t-13-8.48q-17.14,0-17.14,40.09,0,38,16.39,38,14.24,0,21.08-33.53Z" transform="translate(-22.5 -22.5)"/><path class="cls-12" d="M169.18,314.56v-123h3.46L257,254.24l83.08-62.66h3.47V311.28L312,313.81v-3.75q12.93-1.5,18.45-7.26T336,286.74V217.42l-70.91,52.64-79.34-58.92v76.62a46.62,46.62,0,0,0,2.53,14.33,17.72,17.72,0,0,0,6.23,8.85q4.54,3.51,14.28,5.85l-.75,3.75Z" transform="translate(-22.5 -22.5)"/></svg>