<svg xmlns="http://www.w3.org/2000/svg" viewBox="0 0 150 66">
  <circle r="3" cx="63" cy="9"/>
  <circle r="3" cx="87" cy="9"/>
  <path d="M50,28s7-4,14-3l0,0s1,3,0,6l-2,0s-2-3-4-1l0,2s4,0,5,1l-1,5l-4-1l-1,5l-6-1z"/>
  <path d="M65,38s0,4,2,8l6,0s15-5,3-14l0,0s-7-3,0-4l2,3s9,2,2-8l-6-1s-12,3-6,12l2,1s9,4-1,4z"/>
  <path d="M84,45s-2-10,3-19l1-1s3,0,4,6l3-4l4,0s5,6,3,12l-4,1l-2-6s-3,8-7,0l-1,10z"/>
  <g stroke="#000" stroke-width="3" fill="none" stroke-linecap="round">
    <circle r="6" cx="63" cy="9"/>
    <circle r="6" cx="87" cy="9"/>
    <path d="M36,34S75,00,114,34m0,0S75,68,36,34"/>
    <path d="M64,15l2,4M85,15l-1,4"/>

    <path d="M36,34c-18-14-18-3-17-1s2,6-8,2c-6-4-6-2-9-2"/>
    <path d="M42,39c-10,2-11,0-12,9c0,2,0,8-10,6c-4-2-8-2-9,2"/>
    <path d="M50,45c-5,4-5,4-3,12c0,3,0,6-12,6"/>
    <path d="M114,34c6-5,18-8,15,1c0,8,10,0,12,0s3-1,6,0"/>
    <path d="M107,40c6,0,10,0,12,10c2,6,4,5,10,4s6-1,9,2"/>
    <path d="M97,45s6,4,6,9s-5,10,11,10"/>
  </g>
</svg>
