<svg xmlns="http://www.w3.org/2000/svg" viewBox="0 5 110 90">
<path d="M90,18c-90-45-115,102,0,69v-21l4-3h-23l-8,4h16v19c-80,15-65-106,2-63l-4,5l4-1z" fill="#CCC" stroke="#DDD" stroke-width="2" stroke-linejoin="round"/>
<path d="M87,15c-90-45-115,102,0,69v-21l4-3h-23l-8,4h16v19c-80,15-65-106,2-63l-4,5l4-1z" fill="#00F"/>
<path d="M30,76q6-14,13-26q6-12,14-23q8-12,13-17q3-4,6-6q1-1,5-2q8-1,12-1q1,0,1,1q0,1-1,2q-13,11-27,33q-14,21-24,44q-4,9-5,11q-1,2-9,2q-5,0-6-1q-1-1-5-6q-5-8-12-15q-3-4-3-6q0-2,4-5q3-2,6-2q3,0,8,3q5,4,10,14z" fill="green" transform="translate(70,10) scale(0.4)"/>
</svg>
