<?xml version="1.0" encoding="UTF-8"?>
<!DOCTYPE svg PUBLIC "-//W3C//DTD SVG 1.1//EN" "http://www.w3.org/Graphics/SVG/1.1/DTD/svg11.dtd">
<svg version="1.1" xmlns="http://www.w3.org/2000/svg" xmlns:xlink="http://www.w3.org/1999/xlink" x="0" y="0" width="512" height="512" viewBox="0, 0, 512, 512">
  <defs>
    <linearGradient id="Gradient_1" gradientUnits="userSpaceOnUse" x1="84.72" y1="478.56" x2="84.72" y2="364.32">
      <stop offset="0" stop-color="#47873B"/>
      <stop offset="1" stop-color="#5F8D70"/>
    </linearGradient>
    <linearGradient id="Gradient_2" gradientUnits="userSpaceOnUse" x1="194.8" y1="476" x2="194.8" y2="361.76">
      <stop offset="0" stop-color="#47873B"/>
      <stop offset="1" stop-color="#5F8D70"/>
    </linearGradient>
    <linearGradient id="Gradient_3" gradientUnits="userSpaceOnUse" x1="300.48" y1="478.56" x2="300.48" y2="359.04">
      <stop offset="0" stop-color="#47873B"/>
      <stop offset="1" stop-color="#5F8D70"/>
    </linearGradient>
    <linearGradient id="Gradient_4" gradientUnits="userSpaceOnUse" x1="421.84" y1="478.56" x2="421.84" y2="359.04">
      <stop offset="0" stop-color="#47873B"/>
      <stop offset="1" stop-color="#5F8D70"/>
    </linearGradient>
    <linearGradient id="Gradient_5" gradientUnits="userSpaceOnUse" x1="250.974" y1="32.038" x2="261.026" y2="335.962">
      <stop offset="0" stop-color="#3B3C87"/>
      <stop offset="1" stop-color="#55569B" stop-opacity="0.96"/>
    </linearGradient>
  </defs>
  <g id="Layer_2">
    <path d="M32,364.32 L32,478.56 L57.12,478.56 L57.12,441.76 L71.52,427.2 L105.92,478.56 L137.44,478.56 L88.48,409.44 L133.12,364.32 L101.76,364.32 L57.12,411.68 L57.12,364.32 z" fill="url(#Gradient_1)"/>
    <path d="M154.4,361.76 L154.4,476 L235.2,476 L235.2,454.88 L179.52,454.88 L179.52,361.76 z" fill="url(#Gradient_2)"/>
    <path d="M269.44,419.36 Q269.44,411.84 271.12,404.8 Q272.8,397.76 276.48,392.24 Q280.16,386.72 286.08,383.44 Q292,380.16 300.48,380.16 Q308.96,380.16 314.88,383.44 Q320.8,386.72 324.48,392.24 Q328.16,397.76 329.84,404.8 Q331.52,411.84 331.52,419.36 Q331.52,426.56 329.84,433.36 Q328.16,440.16 324.48,445.6 Q320.8,451.04 314.88,454.32 Q308.96,457.6 300.48,457.6 Q292,457.6 286.08,454.32 Q280.16,451.04 276.48,445.6 Q272.8,440.16 271.12,433.36 Q269.44,426.56 269.44,419.36 z M244.32,419.36 Q244.32,431.84 248.16,442.64 Q252,453.44 259.2,461.44 Q266.4,469.44 276.88,474 Q287.36,478.56 300.48,478.56 Q313.76,478.56 324.16,474 Q334.56,469.44 341.76,461.44 Q348.96,453.44 352.8,442.64 Q356.64,431.84 356.64,419.36 Q356.64,406.56 352.8,395.6 Q348.96,384.64 341.76,376.48 Q334.56,368.32 324.16,363.68 Q313.76,359.04 300.48,359.04 Q287.36,359.04 276.88,363.68 Q266.4,368.32 259.2,376.48 Q252,384.64 248.16,395.6 Q244.32,406.56 244.32,419.36 z" fill="url(#Gradient_3)"/>
    <path d="M456.32,463.04 L458.88,476 L474.88,476 L474.88,414.24 L426.88,414.24 L426.88,432.96 L452.16,432.96 Q451.04,444.96 444.24,451.28 Q437.44,457.6 424.96,457.6 Q416.48,457.6 410.56,454.32 Q404.64,451.04 400.96,445.6 Q397.28,440.16 395.6,433.36 Q393.92,426.56 393.92,419.36 Q393.92,411.84 395.6,404.8 Q397.28,397.76 400.96,392.24 Q404.64,386.72 410.56,383.44 Q416.48,380.16 424.96,380.16 Q434.08,380.16 440.48,384.96 Q446.88,389.76 449.12,399.36 L473.12,399.36 Q472.16,389.6 467.84,382.08 Q463.52,374.56 456.88,369.44 Q450.24,364.32 442,361.68 Q433.76,359.04 424.96,359.04 Q411.84,359.04 401.36,363.68 Q390.88,368.32 383.68,376.48 Q376.48,384.64 372.64,395.6 Q368.8,406.56 368.8,419.36 Q368.8,431.84 372.64,442.64 Q376.48,453.44 383.68,461.44 Q390.88,469.44 401.36,474 Q411.84,478.56 424.96,478.56 Q433.28,478.56 441.44,475.12 Q449.6,471.68 456.32,463.04 z" fill="url(#Gradient_4)"/>
    <path d="M480,32 L480,336 L32,336 L32,32 L480,32 z M448,288 L64,288 L64,304 L448,304 L448,288 z M448,240 L64,240 L64,256 L448,256 L448,240 z M448,192 L64,192 L64,208 L448,208 L448,192 z M448,144 L64,144 L64,160 L448,160 L448,144 z M448,64 L64,64 L256,128 L448,64 z" fill="url(#Gradient_5)"/>
  </g>
  <g id="Layer_1"/>
</svg>
