<svg clip-rule="evenodd" fill-rule="evenodd" stroke-linecap="round" stroke-linejoin="round" stroke-miterlimit="1.5" viewBox="0 0 512 512" xmlns="http://www.w3.org/2000/svg"><g transform="matrix(.565685 -.565685 .565685 .565685 240 240)"><g stroke="#000" transform="translate(0 40)"><circle cx="-100" cy="-150" r="72" stroke-width="70"/><circle cx="100" cy="-150" r="72" stroke-width="70"/><path d="m-220 0h440zm220 0-160 200zm0 0 160 200z" fill="none" stroke-width="100"/></g><circle cx="-100" cy="-150" fill="#fff" r="72" stroke="#fff" stroke-width="70"/><circle cx="-100" cy="-150" fill="none" r="72" stroke="#47009c" stroke-width="30"/><circle cx="-100" cy="-122" fill="#5800c3" r="32"/><circle cx="100" cy="-150" fill="#fff" r="72" stroke="#fff" stroke-width="70"/><circle cx="100" cy="-150" fill="#fff" r="72" stroke="#47009c" stroke-width="30"/><circle cx="100" cy="-122" fill="#5800c3" r="32"/><path d="m-220 0h440zm220 0-160 200zm0 0 160 200z" fill="none" stroke="#fff" stroke-width="120"/><path d="m169 167 10 75 61-62z" fill="#fff" transform="matrix(.883883 .883883 -.883883 .883883 0 -424.264)"/><path d="m-220 0h440zm220 0-160 200zm0 0 160 200z" fill="none" stroke="#47009c" stroke-width="60"/></g></svg>