<svg enable-background="new 0 0 512 512" viewBox="0 0 512 512" xmlns="http://www.w3.org/2000/svg" xmlns:xlink="http://www.w3.org/1999/xlink"><clipPath id="a"><path d="m0 0h512v512h-512z"/></clipPath><clipPath id="b"><path d="m0 0h512v512h-512z"/></clipPath><linearGradient id="c"><stop offset="0" stop-color="#3a008f"/><stop offset="1" stop-color="#280068"/></linearGradient><linearGradient id="d" gradientTransform="matrix(468 0 0 -468 -318939.125 179840.1094)" gradientUnits="userSpaceOnUse" x1="681.5405" x2="682.5408" xlink:href="#c" y1="383.7267" y2="383.7267"/><clipPath id="e"><path d="m110.9 59.9-18.4 27c-1.8 2.9-3.7 5.8-5.6 8.9h-.4v-36h-18.2v81.4h18.2v-26.6l7-8.6 19.9 35.1h21.6l-28.4-46.7 26.9-34.7h-22.6z"/></clipPath><linearGradient id="f" gradientTransform="matrix(218.2192 0 0 -218.2192 -148292.8281 83769.125)" gradientUnits="userSpaceOnUse" x1="679.8725" x2="680.8718" xlink:href="#c" y1="383.4152" y2="383.4152"/><clipPath id="g"><path d="m154.2 100.8c0-15.8 7.2-27.7 19.7-27.7 12.7 0 19.7 12.6 19.7 27.2 0 15.8-7.1 27.7-19.6 27.7-12.4 0-19.8-11.3-19.8-27.2m-19.5.4c0 23.2 14.1 41.4 38.3 41.4 23.8 0 40-16.2 40-42.9 0-22.5-13.6-41.2-38.6-41.2-24.1 0-39.7 18.3-39.7 42.7"/></clipPath><linearGradient id="h" gradientTransform="matrix(218.2192 0 0 -218.2192 -148292.8281 83769.125)" gradientUnits="userSpaceOnUse" x1="679.872" x2="680.8726" xlink:href="#c" y1="383.4152" y2="383.4152"/><clipPath id="i"><path d="m243.3 73.5c1.3-.2 3.9-.6 8.3-.6 8.5.1 13.5 3.9 13.5 11.3 0 7.1-5.4 11.7-14.6 11.7h-7.2zm-18.2-12.5v80.3h18.2v-32h5.6c7.5.1 11 2.9 13.2 13 2.4 10 4.3 16.7 5.7 19h18.8c-1.6-3.1-4.1-13.8-6.6-22.9-2.1-7.5-5.2-12.9-10.9-15.2v-.4c7-2.5 14.4-9.7 14.4-20 0-7.5-2.7-13.2-7.5-17-5.8-4.6-14.2-6.4-26.3-6.4-9.9-.1-18.7.6-24.6 1.6"/></clipPath><linearGradient id="j" gradientTransform="matrix(218.2192 0 0 -218.2192 -148292.8281 83769.125)" gradientUnits="userSpaceOnUse" x1="679.871" x2="680.8725" xlink:href="#c" y1="383.4166" y2="383.4166"/><linearGradient id="k"><stop offset="0" stop-color="#786dc8"/><stop offset="1" stop-color="#6349b1"/></linearGradient><linearGradient id="l" gradientUnits="userSpaceOnUse" x1="140.4829" x2="341.5033" xlink:href="#k" y1="219.5037" y2="414.5231"/><linearGradient id="m" gradientUnits="userSpaceOnUse" x1="257.2568" x2="257.2568" y1="340.8398" y2="235.2549"><stop offset="0" stop-color="#3200a3"/><stop offset="1" stop-color="#260068"/></linearGradient><linearGradient id="n" gradientUnits="userSpaceOnUse" x1="184.1904" x2="330.3232" xlink:href="#k" y1="288.0474" y2="288.0474"/><g clip-path="url(#a)"><path clip-path="url(#b)" d="m480 468c0 6.6-5.4 12-12 12h-424c-6.6 0-12-5.4-12-12v-424c0-6.6 5.4-12 12-12h424c6.6 0 12 5.4 12 12z" fill="#fff"/><path clip-path="url(#b)" d="m480 468h9.5c0 11.9-9.6 21.5-21.5 21.5h-424c-11.9 0-21.5-9.6-21.5-21.5v-424c0-11.9 9.7-21.5 21.5-21.5h424c11.9 0 21.5 9.6 21.5 21.5v424h-9.5-9.5v-424c0-1.4-1.1-2.5-2.5-2.5h-424c-1.4 0-2.5 1.1-2.5 2.5v424c0 1.4 1.1 2.5 2.5 2.5h424c1.4 0 2.5-1.1 2.5-2.5z" fill="url(#d)"/></g><g clip-path="url(#a)"><path d="m68.3 59.9h18.2v36h.4c1.8-3.1 3.7-6 5.6-8.9l18.5-27h22.6l-26.9 34.7 28.4 46.7h-21.5l-19.9-35.1-7 8.6v26.6h-18.4z"/><path d="m213.1 99.7c0 26.7-16.2 42.9-40 42.9-24.2 0-38.3-18.2-38.3-41.4 0-24.4 15.6-42.6 39.6-42.6 25-.1 38.7 18.7 38.7 41.1zm-58.8 1.1c0 15.9 7.5 27.2 19.8 27.2 12.4 0 19.6-11.8 19.6-27.7 0-14.6-7-27.2-19.7-27.2-12.5.1-19.7 11.9-19.7 27.7z"/><path d="m225.2 61c5.9-1 14.7-1.7 24.5-1.7 12.1 0 20.5 1.8 26.3 6.4 4.8 3.9 7.5 9.5 7.5 17 0 10.4-7.4 17.5-14.4 20v.4c5.7 2.3 8.8 7.7 10.9 15.2 2.5 9.2 5.1 19.8 6.6 22.9h-18.8c-1.3-2.3-3.3-8.9-5.7-19-2.2-10.1-5.7-12.9-13.2-13h-5.6v32h-18.2v-80.2zm18.2 35h7.2c9.2 0 14.6-4.6 14.6-11.7 0-7.5-5.1-11.2-13.5-11.4-4.5 0-7 .4-8.3.6z"/></g><g clip-path="url(#a)"><path clip-path="url(#e)" d="m68.3 59.9h66.7v81.4h-66.7z" fill="url(#f)"/></g><g clip-path="url(#a)"><path clip-path="url(#g)" d="m134.7 58.5h78.3v84h-78.3z" fill="url(#h)"/></g><g clip-path="url(#a)"><path clip-path="url(#i)" d="m225.1 59.3h61.5v82h-61.5z" fill="url(#j)"/></g><path d="m140.1 185.6c-36.1 2.5-61.2 43.5-61.2 51.6-11.9 67.7-21.9 123.2-23.5 137.9-1.3 46 23.5 60.7 45.3 59.8 5.2-.2 3.3-.3 1-.3 52 0 56.9-37.1 85.3-84.4 37.7-.4 81.3 0 132.5 0 28.4 47.3 33.2 84.4 85.1 84.4-2.3 0-4.2.1 1 .3 21.7.9 46.6-13.9 45.3-59.8-1.7-14.7-11.7-70.2-23.5-137.9 0-8.3-26.8-51.6-64.7-51.6-5.4 0 1.7 0-6.9 0-41 0-60.1 23-60.1 28.1-28.3-.3-57.9 0-85 0 0-5-19.1-28.1-60.1-28.1-8.6 0-1.5 0-6.9 0-1.2 0-2.4-.1-3.6 0z" fill="url(#l)"/><path d="m175.2 239.1v16.3c-11.9-5.5-23-8.2-33.3-8.2-11.9 0-21.8 4.4-29.5 13.1-7.7 8.8-11.6 19.9-11.6 33.5s4.3 24.8 13 33.5 19.8 13.1 33.3 13.1c3.1 0 7-.4 11.7-1.1v-30.5h-21.7v-13.3h39.4v53.6c-12.1 3.8-23.5 5.8-34.3 5.8-17.9 0-32.4-5.5-43.6-16.6-11-11.1-16.6-25.6-16.6-43.3 0-18.2 5.6-32.9 16.7-44.2 11.2-11.3 25.7-16.9 43.7-16.9 10.2 0 21.2 1.7 32.8 5.2z" fill="#fff"/><path d="m342.6 349.6v-111.1h75.1v12.8h-58v33.7h49.2v12.8h-49.2v39h62v12.8z" fill="#fff"/><path clip-rule="evenodd" d="m211.1 301.3c-4.6 0-8.8 0-13.2 0v26.3c-4.5 0-8.8 0-13.1 0 0-13.1 0-26.3 0-39.5h13.1c0-4.5 0-8.8 0-13.2h13.2c0-4.5 0-8.8 0-13.2h13.1c0-4.4 0-8.7 0-13.2-4.3 0-8.6 0-13 0 0-4.5 0-8.7 0-13.1h13v13h13.2v13.2h39.7c0-4.3 0-8.6 0-13.1h13.2c0-4.5 0-8.8 0-13.2h13.1v13.1c-4.3 0-8.6 0-13 0v13.2h13.1v13.2h13.2v13.2h13.1v39.6c-4.3 0-8.5 0-13 0 0-8.7 0-17.4 0-26.2-4.5 0-8.7 0-13.2 0v26.3c-4.5 0-8.7 0-13.2 0v13.2c-8.9 0-17.6 0-26.4 0 0-4.3 0-8.7 0-13.1h26.2c0-4.4 0-8.7 0-13.1-21.9 0-43.8 0-65.9 0v13h26.2v13.1c-8.7 0-17.4 0-26.3 0 0-4.3 0-8.6 0-13-4.5 0-8.7 0-13.2 0 .1-8.9.1-17.6.1-26.5zm26.3-26.3c-4.5 0-8.8 0-13 0v12.9h13c0-4.4 0-8.6 0-12.9zm39.8 12.9h13c0-4.4 0-8.7 0-13-4.4 0-8.6 0-13 0z" fill="url(#m)" fill-rule="evenodd" stroke="url(#n)"/></svg>