<svg xmlns="http://www.w3.org/2000/svg" viewBox="0 0 102 136">
<path d="M63,47a10,5 30,0,1 10,10" fill="none" stroke="#BBB" stroke-width="2"/>
<a xmlns:xlink="http://www.w3.org/1999/xlink" xlink:href="http://intertwingly.net/svg/dukechain.svg" xlink:title="J2SE">
<path d="M1190 2982 c-38-31-31-179 17-347 14-49-50 34-89 115-59 126
-75 138-139 104-89-45-31-286 106-438 37-41 37-56 2-56-64-1-147
-63-147-111 0-68 36-95 107-78 72 17 110 12 162-18 59-36 99-53 121
-53 70 0 98-274 36-339-77-80-124-64-211 69-235 363-871 1021-794
823 6-16 15-109 21-208 8-154 7-237-7-510-1-22-5-71-9-110-3
-38-8-99-11-135-16-193-59-311-172-463-89-120-103-199-62-333
46-147 32-217-65-342-86-110-34-240 74-182 15 8 16-2 16-118-1
-208 99-262 252-137 459 378 583 383 820 37 106-155 165-182 267-123 179
103 150 755-55 1272-72 180-71 272 6 419 l38 71-1 147 c0 177 4 192 76
262 82 80 99 158 65 300-25 105-22 166 16 269 47 130 23 186-68 161-65
-17-142-154-142-253 0-42-37 30-49 96-23 120-43 186-61 202-30 27
-91 31-120 7z m-342-1094 c74-22 122-90 122-170 0-77-7-87-54-86-83
2-183-78-173-139 14-82-172-40-237 54-127 183 105 413 342 341z m315
-214 c237-426 341-786 342-1179 0-460-61-531-239-277-251 358-453
367-824 35-124-110-190-136-208-80-7 22-7 235 0 272 2 11 7 45 10 75
4 30 8 66 11 80 2 14 9 52 14 85 109 661 160 849 214 789 199-228 612 2 545
303-6 28-4 32 15 36 38 7 40 4 120-139z m-900-522 c3-4-5-61-18-127
-13-66-25-131-27-145-6-36-39 38-46 101-7 76 66 213 91 171z"
transform="translate(0,136) scale(0.045181,-0.045181)"/>
<ellipse rx="12" ry="10" transform="rotate(-24) translate(5.4,68.3)"
fill="#F00" opacity="0.7"/>
<ellipse rx="3.5" ry="2" transform="rotate(-33) translate(-9,61)" fill="#FFF"
opacity="0.7"/>
</a>
<a xmlns:xlink="http://www.w3.org/1999/xlink" xlink:href="http://sun.com/" xlink:title="Sun">
  <path d="M63,47a10,5 30,1,0 10,10M74,55a10,5 50,1,0 10,10M74,55a10,5 50,0,1 10,10M80,70a10,5 70,1,0 10,10M80,70a10,5 70,0,1 10,10M83,91a10,5 90,1,0 10,10M83,91a10,5 90,0,1 10,10M84,108a11,5 80,1,0 10,10M84,108a11,5 80,0,1 10,10" fill="none" stroke="#BBB" stroke-width="2"/>
  <path d="M78,125l12,12l12-12l-12-12zM81,117h18v16h-18zM86,114l15,7l-7,15l-15-7zM94,114l7,15l-15,7l-7-15z" fill="#FF0"/>
  <circle r="10" cx="90" cy="125" fill="#FD0"/>
</a>
</svg>
