<!-- Created with Inkscape (http://www.inkscape.org/) -->
<svg
   xmlns:dc="http://purl.org/dc/elements/1.1/"
   xmlns:cc="http://web.resource.org/cc/"
   xmlns:rdf="http://www.w3.org/1999/02/22-rdf-syntax-ns#"
   xmlns:svg="http://www.w3.org/2000/svg"
   xmlns="http://www.w3.org/2000/svg"
   xmlns:sodipodi="http://inkscape.sourceforge.net/DTD/sodipodi-0.dtd"
   xmlns:inkscape="http://www.inkscape.org/namespaces/inkscape"
   width="148"
   height="200"
   id="svg2"
   style="float: right"
   viewBox="60 500 654 400"
   sodipodi:version="0.32"
   inkscape:version="0.43"
   sodipodi:docbase="/home/rubys"
   sodipodi:docname="art.svg">
  <sodipodi:namedview
     id="base"
     pagecolor="#ffffff"
     bordercolor="#666666"
     borderopacity="1.0"
     inkscape:pageopacity="0.0"
     inkscape:pageshadow="2"
     inkscape:zoom="0.35"
     inkscape:cx="375"
     inkscape:cy="520"
     inkscape:document-units="px"
     inkscape:current-layer="layer1"
     inkscape:window-width="1003"
     inkscape:window-height="671"
     inkscape:window-x="15"
     inkscape:window-y="97" />
  <metadata
     id="metadata7">
    <rdf:RDF>
      <cc:Work
         rdf:about="">
        <dc:format>image/svg+xml</dc:format>
        <dc:type
           rdf:resource="http://purl.org/dc/dcmitype/StillImage" />
      </cc:Work>
    </rdf:RDF>
  </metadata>
  <g
     inkscape:label="Layer 1"
     inkscape:groupmode="layer"
     id="layer1">
    <path
       sodipodi:type="arc"
       style="fill:#ff0000;fill-opacity:0.75;fill-rule:evenodd;stroke:#000000;stroke-width:1px;stroke-linecap:butt;stroke-linejoin:miter;stroke-opacity:1"
       id="path1307"
       sodipodi:cx="311.42856"
       sodipodi:cy="423.79074"
       sodipodi:rx="65.714287"
       sodipodi:ry="48.57143"
       d="M 377.14285 423.79074 A 65.714287 48.57143 0 1 1  245.71427,423.79074 A 65.714287 48.57143 0 1 1  377.14285 423.79074 z" />
    <path
       sodipodi:type="arc"
       style="fill:#ff0000;fill-opacity:0.75;fill-rule:evenodd;stroke:#000000;stroke-width:1px;stroke-linecap:butt;stroke-linejoin:miter;stroke-opacity:1"
       id="path1309"
       sodipodi:cx="311.42856"
       sodipodi:cy="423.79074"
       sodipodi:rx="65.714287"
       sodipodi:ry="48.57143"
       d="M 377.14285 423.79074 A 65.714287 48.57143 0 1 1  245.71427,423.79074 A 65.714287 48.57143 0 1 1  377.14285 423.79074 z"
       transform="translate(317.1429,302.8572)" />
    <path
       style="fill:none;fill-opacity:0.75;fill-rule:evenodd;stroke:#000000;stroke-width:5px;stroke-linecap:butt;stroke-linejoin:miter;stroke-opacity:1"
       d="M 180,332.36218 C 291.42857,260.93361 382.85714,320.93361 382.85714,320.93361 L 437.14286,369.50504 L 417.14286,438.07647 L 440,503.79075 L 294.28571,260.93361"
       id="path1319" />
    <path
       style="fill:#000000;fill-opacity:1;fill-rule:nonzero;stroke:none;stroke-width:1px;stroke-linecap:butt;stroke-linejoin:miter;stroke-opacity:1"
       id="path1321"
       d="M 151.91019,283.72382 C 147.71506,299.35817 141.28857,315.6802 135.43393,331.24571 C 125.903,367.00016 118.36037,403.56784 116.96665,440.62686 C 118.71211,481.38228 120.41488,525.80614 154.64222,552.22261 C 172.58131,564.57016 191.49378,563.63895 211.93858,562.25282 C 244.88606,557.98784 278.32212,555.96606 311.16784,550.90895 C 333.25932,546.67419 354.59411,545.05535 376.30851,550.8429 C 398.27082,557.62202 406.38812,579.5993 413.67806,599.59256 C 421.32692,623.91756 421.10279,649.06036 416.26847,673.82447 C 409.75425,726.48071 368.42084,744.10017 325.43923,767.73192 C 293.77419,780.13968 260.86854,789.02715 228.01356,797.66209 C 203.83977,804.79204 180.19784,808.7291 155.22371,807.06566 C 111.77058,818.26969 179.06338,769.17881 153.59577,808.68341 C 145.60757,824.785 141.00281,842.34346 137.18651,859.84402 C 133.06163,874.72152 136.48584,885.19895 147.46763,895.04797 C 167.1835,905.45804 189.29328,911.48946 210.49758,918.43951 C 232.44917,925.34271 254.93746,930.47197 277.51451,934.90557 C 310.81923,948.553 363.81233,920.74795 308.20551,952.41236 C 328.45665,939.63529 344.50641,921.37219 359.52283,902.9603 C 369.52726,890.11281 377.44688,880.27542 365.74112,868.59975 C 343.26495,857.69098 299.78318,889.9478 359.24659,855.92693 L 323.0963,870.15057 C 348.26694,855.28284 369.38295,834.31629 398.2795,847.13472 C 412.46474,860.59932 406.73482,872.88098 394.86002,887.8255 C 380.15666,906.42163 363.97703,924.82598 344.38108,938.30031 C 305.27033,961.079 289.549,968.81217 246.57399,956.5629 C 223.71862,952.21537 200.75205,947.9385 178.85132,939.87803 C 157.30633,932.53833 134.48836,927.22615 114.61678,916.04004 C 103.08196,904.85194 97.951573,893.10394 102.31082,876.6497 C 106.2107,858.88732 110.68742,841.16144 118.20002,824.53203 C 132.11721,800.47242 157.89631,780.63262 186.72918,784.46778 C 211.19998,786.1261 234.69096,781.2251 258.30601,774.51871 C 290.94109,766.00853 323.59967,756.9645 354.91029,744.33237 C 319.12007,766.95159 377.20425,738.20499 382.1418,690.42227 C 386.21184,666.27277 387.68779,641.79151 379.9454,618.10334 C 373.30657,599.02323 365.54369,578.48945 344.43926,572.65838 C 323.24854,567.92974 302.16634,569.81945 280.81334,573.69324 C 247.78431,578.44862 214.29814,580.55426 181.20533,584.91993 C 159.94227,587.41666 140.38229,585.51494 122.27964,572.7255 C 87.924192,543.97284 87.112353,500.07471 83.341043,457.64467 C 84.588908,420.22101 92.092325,383.67193 101.06767,347.34465 C 105.98063,333.00173 112.7394,313.58165 116.66123,301.68407 L 151.91019,283.72382 z " />
  </g>
</svg>
