<svg xmlns="http://www.w3.org/2000/svg" viewBox="0 0 120 80">
  <path fill="#000" d="M4,70v-1c0-1,4-4,6-4c1-1,2-1,2-3c1-1,1-3,1-4c1-1,1-3,2-4c0-1,1-4,1-7c1-9,2-11,4-15c1-3,2-4,1-5v-1l-1-2c0,0-1-2-1-6c0-3,2-6,5-8c2-1,3-1,6,1c2,1,2,1,5,0c3,0,3,0,3,1c0,1,0,2-1,3l-1,2c1,1,1,2,2,3c0,0,1,2,1,3l2,2c0,1-2,3-3,3l-1,1c0,0,2,1,4,2c3,1,4,2,5,3l2,2c3,1,6,3,9,5l2,1l2-1c10-7,13-7,18-1c1,1,5,5,9,9c8,8,11,9,17,10c5,1,6,1,6,2c0,1-2,2-6,2c-1,1-3,1-4,2c-1,1-2,1-3,1c0,0-2-1-3-3c-1-1-8-5-10-5c0,0-2-1-3-1c-3-2-6-5-9-8l-1-1l-5,7c-7,11-12,15-18,15c-6,0-10-3-14-11c-2-4-4-6-5-8c-3-4-3-4-6,1c-2,3-4,8-7,11c-2,3-2,4-1,5v2c-1,1-2,0-3-1c0-1-2-1-6,0c-1,1-2,1-3,1z"/>
</svg>
