<svg xmlns="http://www.w3.org/2000/svg" viewBox="0 0 100 100">
  <path d="M10,90.1v-2h80V90.1zM10,70.1v-2h80V70.1zM10,50.1v-2h80V50.1zM10,30.1v-2h80V30.1zM10,10.1v-2h80V10.1z"/>
  <path d="M44.4,20.8c1.5,1.6,13,15.7,13,15.7s-6.4,6.1-6.4,12.5c0,7.5,8.6,14.3,8.6,14.3l-0.9,1.1c-3.3-1.9-8.9-2.1-11.4,0.8c-3.1,3.6,3.9,9.1,3.9,9.1l-0.8,1.1c-2.4-1.8-12.6-11.4-8.3-16.1c2.6-2.9,5.8-3.8,10.3-1.4l-12.1-12.5c7-8.6,8.2-11.1,8.2-13.4c0-4.8-3.4-8.2-5.1-10.4c-0.6-0.9-1.7-1.6-1-2.2C43.1,18.9,43.5,19.7,44.4,20.8z" fill="#F33"/>
</svg>
