<?xml version="1.0" encoding="UTF-8" standalone="no"?>
<svg onload="loaded()" xmlns="http://www.w3.org/2000/svg"  width="1000" height="600">

<title>The United States of America</title>
<desc>
A simple game to help people learn the locations of US states.
Created by Jon Relf (http://my.opera.com/orinoco/blog/find-the-country)

Original map from Wikimedia Commons (http://commons.wikimedia.org/)

Code help and suggestions from johnnysaucepn (http://touchthe.net/) 
and Jeff_Schiller (http://blog.codedread.com/)

Both this and the original map are subject to the GNU Free Documentation License 
(http://www.gnu.org/licenses/fdl.txt). The added ecmascript code is similarly 
granted under the GNU GPL (http://www.gnu.org/licenses/gpl.txt)
</desc>

<script type="text/ecmascript">
<![CDATA[

var Selected='Splash';
var ToFind='';
var History=new Array("","","","","");
var NodeList;
var SelectedNode=null;
var CorrectNode=null;
var Feedback;
var Score=0;
var TopScore=0;

function loaded() {
  // change onloadFunc to point to your real onload function that you
  // want called when the page is truly ready
  var onloadFunc = Init;
  
  if (top.svgweb != undefined) {
    top.svgweb.addOnLoad(onloadFunc, true, window);
  } else {
    onloadFunc();
  }
}

function Init()
  {
    NodeList=document.getElementsByTagName('path');
    Feedback=document.getElementById('Feedback').firstChild;
    ScoreBoard=document.getElementById('Score').firstChild;
    TopScoreBoard=document.getElementById('TopScore').firstChild;
  }

function BgnClick()
  {
    var a=document.getElementById('Splash');
    a.parentNode.removeChild(a);
    Selected='none';
    NewNode();
    ScoreBoard.nodeValue='Score: 0';
    TopScoreBoard.nodeValue='Top Score: 0';
  }

function BgnOn() 
  {
    var a=document.getElementById('BgnText');
    a.setAttribute('fill','#f66');
  }

function BgnOff() 
  {
    var a=document.getElementById('BgnText');
    a.setAttribute('fill','#66f');
  }

function NewNode()
  {
//    var a=Math.round(Math.random()*NodeList.length);
    var a=Math.round(Math.random()*49);

// Store last 5 Nodes in History array, use to ensure that the same
// Node isn't randomly chosen again for the next 5 turns
    var HistoryString=History.toString();
    while(HistoryString.indexOf(NodeList.item(a).id)!=-1)
      { 
        a++; 
        if(a==50)
          a=1;
      }

    ToFind=NodeList.item(a).id;

    Feedback.nodeValue='Find '+ToFind;
    History.pop();
    History.unshift(ToFind);
  }

function UpdateScore() 
  {
    if(Score>TopScore)
      {
        TopScore=Score;
        TopScoreBoard.nodeValue='Top Score: '+TopScore;
      }
    Score=0;
    ScoreBoard.nodeValue='Score: 0';
    if(SelectedNode)
      {
        SelectedNode.setAttribute('fill','#ccc');
        SelectedNode=null;
      }
    if(CorrectNode)
      {
        CorrectNode.setAttribute('fill','#ccc');
        CorrectNode=null;
      }
    NewNode();
    Selected='none';
  }

function Check(a) 
  {
    if(Selected!='Splash')
      {
        if(a.target.id==ToFind)
          {
            Feedback.nodeValue='Correct!';
            Score++;
            ScoreBoard.nodeValue='Score: '+Score;
            window.setTimeout("NewNode(); Selected='none';", 1000);
          }
        else
          {
            SelectedNode=a.target;
            Selected=a.target.id;
            CorrectNode=document.getElementById(ToFind);
            CorrectNode.setAttribute('fill','#6c6'); // highlight correct answer        
            Feedback.nodeValue='Wrong. You selected '+Selected;
            
            window.setTimeout("UpdateScore()", 2000);
          }
      }
  }

function On(a) 
  {
    if(Selected=='none')
      a.target.setAttribute('fill','#f66');
  }

function Off(a) 
  {
    if(a.target.id!=Selected)
      a.target.setAttribute('fill','#ccc');
  }

]]>
</script>

<g style="fill:#ccc" transform="matrix(1.034627,0.000000,0.000000,1.034627,-18.28697,-156.9153)" id="States">

<path id="Hawaii" onclick="Check(evt)" onmouseover="On(evt)" onmouseout="Off(evt)" d="M 242.96145,653.59282 L 244.83646,650.15530 L 247.02397,649.84280 L 247.33647,650.62405 L 245.30521,653.59282 L 242.96145,653.59282 z M 252.80525,649.99905 L 258.74278,652.49906 L 260.77404,652.18656 L 262.33654,648.43654 L 261.71154,645.15528 L 257.64902,644.68653 L 253.74275,646.40528 L 252.80525,649.99905 z M 282.49289,659.68660 L 286.08665,664.99912 L 288.43041,664.68662 L 289.52417,664.21787 L 290.93042,665.46787 L 294.52419,665.31162 L 295.46170,663.90537 L 292.64918,662.18661 L 290.77417,658.59284 L 288.74291,655.15533 L 283.11789,657.96784 L 282.49289,659.68660 z M 302.02423,668.28039 L 303.27423,666.40538 L 307.80550,667.34288 L 308.43051,666.87413 L 314.36803,667.49913 L 314.05553,668.74914 L 311.55552,670.15539 L 307.33675,669.84289 L 302.02423,668.28039 z M 307.18050,673.28041 L 309.05551,677.03043 L 312.02427,675.93667 L 312.33677,674.37416 L 310.77427,672.34290 L 307.18050,672.03040 L 307.18050,673.28041 z M 313.89928,672.18665 L 316.08679,669.37414 L 320.61806,671.71790 L 324.83683,672.81166 L 329.05560,675.46792 L 329.05560,677.34293 L 325.61809,679.06169 L 320.93056,679.99919 L 318.58680,678.59293 L 313.89928,672.18665 z M 329.99311,687.18672 L 331.55561,685.93672 L 334.83688,687.49923 L 342.18066,690.93674 L 345.46193,692.96800 L 347.02443,695.31176 L 348.89944,699.53053 L 352.80571,702.03054 L 352.49321,703.28055 L 348.74319,706.40556 L 344.68067,707.81182 L 343.27442,707.18682 L 340.30565,708.90557 L 337.96189,712.03059 L 335.77438,714.84310 L 334.05562,714.68685 L 330.61811,712.18684 L 330.30561,707.81182 L 330.93061,705.46806 L 329.36810,699.99928 L 327.33684,698.28052 L 327.18059,695.78051 L 329.36810,694.84301 L 331.39936,691.87425 L 331.86811,690.93674 L 330.30561,689.21798 L 329.99311,687.18672 z" />
<path id="Alaska" onclick="Check(evt)" onmouseover="On(evt)" onmouseout="Off(evt)" d="M 170.46112,590.15502 L 170.14862,672.65541 L 171.71112,673.59291 L 174.67989,673.74916 L 176.08614,672.65541 L 178.58615,672.65541 L 178.74241,675.46792 L 185.46119,682.03045 L 185.92994,684.53046 L 189.21120,682.65545 L 189.83621,682.49920 L 190.14871,679.53044 L 191.55496,677.96793 L 192.64872,677.81168 L 194.52373,676.40542 L 197.49249,678.43668 L 198.11750,681.24920 L 199.99250,682.34295 L 201.08626,684.68671 L 204.83628,686.40547 L 208.11754,692.18675 L 210.77380,695.93676 L 212.96131,698.59303 L 214.36757,702.18679 L 219.21134,703.90555 L 224.21137,705.93681 L 225.14887,710.15558 L 225.61762,713.12434 L 224.68012,716.40561 L 222.96136,718.59312 L 221.39885,717.81187 L 219.99260,714.84310 L 217.33633,713.43685 L 215.61758,712.34309 L 214.83632,713.12434 L 216.24258,715.78061 L 216.39883,719.37437 L 215.30507,719.84312 L 213.43007,717.96812 L 211.39881,716.71811 L 211.86756,718.28062 L 213.11756,719.99938 L 212.33631,720.78063 C 212.33631,720.78063 211.55506,720.46813 211.08631,719.84312 C 210.61755,719.21812 209.05505,716.56186 209.05505,716.56186 L 208.11754,714.37435 C 208.11754,714.37435 207.80504,715.62436 207.18004,715.31185 C 206.55503,714.99935 205.93003,713.90560 205.93003,713.90560 L 207.64879,712.03059 L 206.24253,710.62433 L 206.24253,705.78056 L 205.46128,705.78056 L 204.68003,709.06182 L 203.58627,709.53058 L 202.64877,705.93681 L 202.02376,702.34304 L 201.24251,701.87429 L 201.55501,707.34307 L 201.55501,708.43682 L 200.14875,707.18682 L 196.71124,701.40554 L 194.67998,700.93679 L 194.05498,697.34302 L 192.49247,694.53051 L 190.92996,693.43675 L 190.92996,691.24924 L 192.96122,689.99924 L 192.49247,689.68674 L 189.99246,690.31174 L 186.71119,687.96798 L 184.21118,685.15546 L 179.52366,682.65545 L 175.61739,680.15544 L 176.86740,677.03043 L 176.86740,675.46792 L 175.14864,677.03043 L 172.33613,678.12418 L 168.74236,677.03043 L 163.27358,674.68667 L 157.96106,674.68667 L 157.33606,675.15542 L 151.08603,671.40540 L 149.05477,671.09290 L 146.39851,665.46787 L 142.96099,665.78037 L 139.52347,667.18663 L 139.99223,671.56165 L 141.08598,668.74914 L 142.02349,669.06164 L 140.61723,673.28041 L 143.74224,670.62415 L 144.36725,672.18665 L 140.61723,676.40542 L 139.36722,676.09292 L 138.89847,674.21791 L 137.64847,673.43666 L 136.39846,674.53042 L 133.74220,672.81166 L 130.77343,674.84292 L 129.05468,676.87418 L 125.77341,678.90544 L 121.24214,678.74918 L 120.77339,676.71793 L 124.36715,676.09292 L 124.36715,674.84292 L 122.17964,674.21791 L 123.11715,671.87415 L 125.30466,668.12414 L 125.30466,666.40538 L 125.46091,665.62412 L 129.67968,663.43661 L 130.61718,664.68662 L 133.27345,664.68662 L 132.02344,662.18661 L 128.42967,661.87411 L 123.58590,664.53037 L 121.24214,667.81163 L 119.52338,670.31165 L 118.42963,672.49916 L 114.36711,673.90541 L 111.39834,676.40542 L 111.08584,677.96793 L 113.27335,678.90544 L 114.05461,680.93669 L 111.39834,684.06171 L 105.14832,688.12423 L 97.648277,692.18675 L 95.617017,693.28050 L 90.460745,694.37426 L 85.304465,696.56177 L 87.023225,697.81177 L 85.616965,699.21803 L 85.148215,700.31178 L 82.491955,699.37428 L 79.366945,699.53053 L 78.585685,701.71804 L 77.648185,701.71804 L 77.960685,699.37428 L 74.523165,700.62429 L 71.710655,701.56179 L 68.429390,700.31178 L 65.616877,702.18679 L 62.491863,702.18679 L 60.460603,703.43680 L 58.898096,704.21805 L 56.866837,703.90555 L 54.366825,702.81180 L 52.179315,703.43680 L 51.241811,704.37430 L 49.679303,703.28055 L 49.679303,701.40554 L 52.648067,700.15553 L 58.741845,700.78054 L 62.960615,699.21803 L 64.991874,697.18677 L 67.804387,696.56177 L 69.523145,695.78051 L 72.179408,695.93676 L 73.741915,697.18677 L 74.679415,696.87427 L 76.866925,694.21801 L 79.835695,693.28050 L 83.116955,692.65550 L 84.366965,692.34300 L 84.991965,692.81175 L 85.773225,692.81175 L 87.023225,689.21798 L 90.929495,687.81173 L 92.804505,684.21796 L 94.992017,679.84294 L 96.554527,678.43668 L 96.867027,675.93667 L 95.304517,677.18668 L 92.023245,677.81168 L 91.398245,675.46792 L 90.148245,675.15542 L 89.210735,676.09292 L 89.054485,678.90544 L 87.648225,678.74918 L 86.241975,673.12416 L 84.991965,674.37416 L 83.898215,673.90541 L 83.585715,672.03040 L 79.679445,672.18665 L 77.648185,673.28041 L 75.148175,672.96791 L 76.554425,671.56165 L 77.023175,669.06164 L 76.398175,667.18663 L 77.804435,666.24913 L 79.054435,666.09288 L 78.429435,664.37412 L 78.429435,660.15535 L 77.491935,659.21784 L 76.710675,660.62410 L 70.773151,660.62410 L 69.366895,659.37409 L 68.741892,655.62408 
L 66.710632,652.18656 L 66.710632,651.24906 L 68.741892,650.46780 L 68.898142,648.43654 L 69.991897,647.34279 L 69.210644,646.87404 L 67.960638,647.34279 L 66.866883,644.68653 L 67.804387,639.84275 L 72.179408,636.71774 L 74.679415,635.15523 L 76.554425,631.56147 L 79.210695,630.31146 L 81.710705,631.40522 L 82.023205,633.74898 L 84.366965,633.43647 L 87.491975,631.09271 L 89.054485,631.71772 L 89.991985,632.34272 L 91.554495,632.34272 L 93.742007,631.09271 L 94.523267,626.87394 C 94.523267,626.87394 94.835767,624.06143 95.460767,623.59268 C 96.085767,623.12393 96.398267,622.65518 96.398267,622.65518 L 95.304517,620.78017 L 92.804505,621.56142 L 89.679485,622.34267 L 87.804475,621.87392 L 84.366965,620.15516 L 79.523195,619.99891 L 76.085675,616.40515 L 76.554425,612.65513 L 77.179435,610.31137 L 75.148175,608.59261 L 73.273163,604.99884 L 73.741915,604.21759 L 80.304445,603.74884 L 82.335705,603.74884 L 83.273205,604.68634 L 83.898215,604.68634 L 83.741965,603.12383 L 87.491975,602.49883 L 89.991985,602.81133 L 91.398245,603.90509 L 89.991985,605.93635 L 89.523235,607.34260 L 92.179505,608.90511 L 97.023277,610.62387 L 98.742037,609.68637 L 96.554527,605.46760 L 95.617017,602.34258 L 96.554527,601.56133 L 93.273257,599.68632 L 92.804505,598.59256 L 93.273257,597.03006 L 92.492005,593.28004 L 89.679485,588.74877 L 87.335725,584.68625 L 90.148245,582.81124 L 93.273257,582.81124 L 94.992017,583.43624 L 99.054537,583.27999 L 102.64830,579.84248 L 103.74206,576.87371 L 107.33583,574.52995 L 108.89833,575.46746 L 111.55459,574.84245 L 115.14836,572.81119 L 116.24212,572.65494 L 117.17962,573.43620 L 121.55464,573.27995 L 124.21090,570.31118 L 125.30466,570.31118 L 128.74217,572.65494 L 130.61718,574.68620 L 130.14843,575.77996 L 130.77343,576.87371 L 132.33594,575.31121 L 136.08596,575.62371 L 136.39846,579.21747 L 138.27347,580.62373 L 145.14850,581.24873 L 151.24228,585.31125 L 152.64853,584.37375 L 157.64856,586.87376 L 159.67982,586.24876 L 161.55483,585.46750 L 166.24235,587.34251 L 170.46112,590.15502 z M 59.210598,618.12390 L 61.241857,623.28018 L 61.085606,624.21768 L 58.273093,623.90518 L 56.554335,619.99891 L 54.835577,618.59266 L 52.491816,618.59266 L 52.335566,616.09264 L 54.054324,613.74888 L 55.148079,616.09264 L 56.554335,617.49890 L 59.210598,618.12390 z M 56.710586,650.46780 L 60.304353,651.24906 L 63.898119,652.18656 L 64.679373,653.12407 L 63.116866,656.71783 L 60.148102,656.56158 L 56.866837,653.12407 L 56.710586,650.46780 z M 36.710493,636.87399 L 37.804249,639.37400 L 38.898004,640.93651 L 37.804249,641.71776 L 35.772989,638.74900 L 35.772989,636.87399 L 36.710493,636.87399 z M 23.429182,707.49932 L 26.710447,705.31181 L 29.991712,704.37430 L 32.491724,704.68680 L 32.960476,706.24931 L 34.835485,706.71806 L 36.710493,704.84306 L 36.397992,703.28055 L 39.054254,702.65555 L 41.866767,705.15556 L 40.773012,706.87431 L 36.554243,707.96807 L 33.897980,707.49932 L 30.304214,706.40556 L 26.085444,707.81182 L 24.522937,708.12432 L 23.429182,707.49932 z M 70.773151,703.12430 L 72.335658,704.99931 L 74.366915,703.43680 L 72.960661,702.18679 L 70.773151,703.12430 z M 73.585664,706.09306 L 74.679415,703.90555 L 76.710675,704.21805 L 75.929425,706.09306 L 73.585664,706.09306 z M 96.398267,704.21805 L 97.804527,705.93681 L 98.742037,704.84306 L 97.960777,702.96805 L 96.398267,704.21805 z M 104.83581,692.18675 L 105.92957,697.81177 L 108.74208,698.59303 L 113.58585,695.78051 L 117.80462,693.28050 L 116.24212,690.93674 L 116.71087,688.59298 L 114.67961,689.84299 L 111.86710,689.06173 L 113.42960,687.96798 L 115.30461,688.74923 L 119.05463,687.03047 L 119.52338,685.62422 L 117.17962,684.84296 L 117.96087,682.96795 L 115.30461,684.84296 L 110.77334,688.28048 L 106.08582,691.09299 L 104.83581,692.18675 z M 145.77350,672.96791 L 148.11726,671.56165 L 147.17976,669.84289 L 145.46100,670.78040 L 145.77350,672.96791 z" />
<path id="Washington" onclick="Check(evt)" onmouseover="On(evt)" onmouseout="Off(evt)" d="M 108.11646,157.8125 L 112.33521,159.21875 L 121.71021,161.875 L 129.99146,163.75 L 149.36646,169.21875 L 171.55396,174.6875 L 186.20718,177.96856 L 185.23652,181.72262 L 181.28029,195.07011 L 176.97136,215.17847 L 173.90114,230.77818 L 173.56135,239.84306 L 160.82136,236.07935 L 145.77196,232.8094 L 132.56258,233.3852 L 131.0349,231.90428 L 125.8867,233.73791 L 122.04308,233.49569 L 119.41267,231.79379 L 117.88712,232.3016 L 113.82254,232.08062 L 112.01015,230.7548 L 107.39313,229.07627 L 105.99931,228.87655 L 101.18043,227.59534 L 99.457285,229.05289 L 93.956383,228.72144 L 89.296884,225.05418 L 89.494475,224.28078 L 89.560339,216.61265 L 87.505735,212.85615 L 83.528255,212.14861 L 83.175558,209.87304 L 80.745302,209.26698 L 77.960205,208.75 L 76.241455,209.6875 L 74.053955,206.875 L 74.366455,204.0625 L 77.022705,203.75 L 78.585205,199.84375 L 76.085205,198.75 L 76.241455,195.15625 L 80.460205,194.53125 L 77.803955,191.875 L 76.397705,185 L 77.022705,182.1875 L 77.022705,174.53125 L 75.303955,171.40625 L 77.491455,162.34375 L 79.522705,162.8125 L 81.866455,165.625 L 84.522705,168.125 L 87.647705,170 L 92.022705,172.03125 L 94.991457,172.65625 L 97.803957,174.0625 L 101.08521,175 L 103.27271,174.84375 L 103.27271,172.5 L 104.52271,171.40625 L 106.55396,170.15625 L 106.86646,171.25 L 107.17896,172.96875 L 104.99146,173.4375 L 104.67896,175.46875 L 106.39771,176.875 L 107.49146,179.21875 L 108.11646,181.09375 L 109.52271,180.9375 L 109.67896,179.6875 L 108.74146,178.4375 L 108.27271,175.3125 L 109.05396,173.59375 L 108.42896,172.1875 L 108.42896,170 L 110.14771,166.5625 L 109.05396,164.0625 L 106.71021,159.375 L 107.02271,158.59375 L 108.11646,157.8125 z M 98.976267,163.59136 L 100.9294,163.43511 L 101.39815,164.76324 L 102.88253,163.20073 L 105.14816,163.20073 L 105.92941,164.68511 L 104.44503,166.32574 L 105.07004,167.107 L 104.36691,169.06013 L 103.03878,169.45075 C 103.03878,169.45075 102.1794,169.52888 102.1794,169.21638 C 102.1794,168.90388 103.58566,166.71637 103.58566,166.71637 L 101.94503,166.16949 L 101.63253,167.57575 L 100.9294,168.20075 L 99.445017,166.01324 L 98.976267,163.59136 z" />
<path id="Oregon" onclick="Check(evt)" onmouseover="On(evt)" onmouseout="Off(evt)" d="M 153.28498,322.43652 L 157.4388,305.13492 L 161.94746,287.85456 L 162.96308,283.76659 L 165.23865,278.33156 L 164.64374,277.2076 L 162.21305,277.16297 L 160.97434,275.54818 L 161.41628,274.13311 L 161.90284,270.9949 L 166.21178,265.69159 L 167.97955,264.62922 L 169.0844,263.52437 L 170.52071,260.07808 L 174.43232,254.59842 L 177.87862,250.86529 L 178.09959,247.52948 L 174.94013,245.14342 L 173.7717,240.78432 L 160.97647,237.16509 L 146.39238,233.74004 L 131.47684,233.85052 L 131.0349,232.5247 L 125.73159,234.51344 L 121.42266,233.96101 L 119.10246,232.41421 L 117.88712,233.07713 L 113.35722,232.85615 L 111.69994,231.53033 L 106.6176,229.54159 L 105.8442,229.65208 L 101.64575,228.21576 L 99.767497,229.98353 L 93.801277,229.65208 L 88.056035,225.6746 L 88.718945,224.9012 L 88.939915,217.38818 L 86.730205,213.63168 L 82.752725,213.07925 L 82.089815,210.64857 L 79.814665,210.19762 L 74.210205,212.1875 L 72.022705,218.4375 L 68.897705,228.125 L 65.772705,234.375 L 60.928955,247.96875 L 54.678955,261.09375 L 46.866455,273.28125 L 44.991455,276.09375 L 44.210205,284.375 L 42.960205,290.15625 L 45.577759,293.56562 L 52.082384,295.7415 L 63.28604,298.92433 L 70.888295,301.37839 L 82.886593,304.89055 L 95.768779,308.36023 L 108.49586,311.80651" />
<path id="Idaho" onclick="Check(evt)" onmouseover="On(evt)" onmouseout="Off(evt)" d="M 153.93546,322.36183 L 158.21433,305.44513 L 162.41278,288.31988 L 163.73861,284.23191 L 166.16929,278.48667 L 164.95395,276.27696 L 162.52326,276.38744 L 161.74987,275.39307 L 162.19181,274.28822 L 162.52326,271.30511 L 166.8322,266.0018 L 168.59997,265.55986 L 169.70482,264.45501 L 170.25725,261.36141 L 171.14113,260.6985 L 174.89764,255.06374 L 178.65415,250.86529 L 178.87512,247.21927 L 175.56055,244.6781 L 174.28997,240.42441 L 174.67667,231.08839 L 178.21221,215.17847 L 182.52114,195.07011 L 186.16716,182.03283 L 186.90359,178.35693 L 199.46477,180.80043 L 195.44586,201.58861 L 198.29511,209.03576 L 197.27949,213.45518 L 199.20237,217.8746 L 202.29597,219.51064 L 206.60703,228.98902 L 209.21193,232.67966 L 209.80898,233.78452 L 213.12355,234.88938 L 213.56549,237.34342 L 206.8705,253.58267 L 207.18071,256.78888 L 209.76649,259.57226 L 211.58101,260.03758 L 216.2214,256.54454 L 216.57411,256.0601 L 216.72495,256.87813 L 216.96929,260.87471 L 219.46585,273.33834 L 222.80378,275.92412 L 223.22235,276.74214 L 225.30033,279.10695 L 224.54818,281.8011 L 225.21109,285.42587 L 227.09148,286.30976 L 229.14608,284.72048 L 231.64262,284.25516 L 234.89133,285.80196 L 237.32201,285.22828 L 240.98928,285.07317 L 244.83502,286.61997 L 247.48668,286.33314 L 248.39394,284.08093 L 250.80124,282.48739 L 251.50665,284.12343 L 252.10369,286.28638 L 254.33465,288.74044 L 250.68863,311.91902 L 245.71674,339.95691 L 241.69674,339.64888 L 233.78641,338.16795 L 224.30804,336.40018 L 212.55195,334.10123 L 200.44316,331.68117 L 192.24386,329.90278 L 183.29454,328.29012 L 174.36859,326.56696 C 152.51445,322.36904 160.6948,323.81524 153.93546,322.36183 z" />
<path id="Montana" onclick="Check(evt)" onmouseover="On(evt)" onmouseout="Off(evt)" d="M 362.40849,269.84522 L 363.03463,259.06782 L 365.21753,235.11028 C 365.65948,230.24891 366.26497,226.92172 366.54336,220.21596 L 367.45167,206.15136 L 337.80396,203.4375 L 309.52271,200 L 281.24146,196.09375 L 249.99146,190.9375 L 232.17896,187.65625 L 200.55051,180.95554 L 196.22139,201.58861 L 199.53596,208.88065 L 198.21013,213.30007 L 199.9779,217.71949 L 203.0715,219.04532 L 207.53767,229.45434 L 210.14257,232.52455 L 210.58451,233.62941 L 213.89908,234.73427 L 214.34102,236.723 L 207.49092,253.73778 L 207.49092,256.16846 L 209.9216,259.26205 L 210.80548,259.26205 L 215.44587,256.38943 L 216.10879,255.28457 L 217.65559,255.94749 L 217.43461,261.02982 L 220.08627,273.18323 L 222.95889,275.61391 L 223.84277,276.27682 L 225.61054,278.48653 L 225.1686,281.8011 L 225.83151,285.11566 L 226.93637,285.99955 L 229.14608,283.78984 L 231.79773,283.78984 L 234.89133,285.33664 L 237.32201,284.45275 L 241.29949,284.45275 L 244.83502,285.99955 L 247.48668,285.55761 L 247.92862,282.68498 L 250.80124,282.02207 L 252.12707,283.3479 L 252.56901,286.44149 L 254.28888,287.76078 L 255.77096,276.58277 L 275.77097,279.45539 L 303.01627,283.27777 L 319.01544,285.1114 L 349.40908,288.45164 L 360.0314,289.9247 L 361.04817,275.01376 L 362.40849,269.84522 z" />
<path id="Wyoming" onclick="Check(evt)" onmouseover="On(evt)" onmouseout="Off(evt)" d="M 360.07049,290.62761 L 349.8744,289.84759 L 318.86033,286.66246 L 303.17138,284.67372 L 275.77097,280.69624 L 256.54649,277.82362 L 255.1749,288.62554 L 251.46416,312.07413 L 246.38182,341.46328 L 244.90206,351.6275 L 243.28823,363.11844 L 249.59376,364.01574 L 274.60698,366.43199 L 294.48769,368.66178 L 330.04033,372.63923 L 353.06413,375.40353 L 357.41769,332.69024 L 358.80937,308.16245 L 360.07049,290.62761 z" />
<path id="North Dakota" onclick="Check(evt)" onmouseover="On(evt)" onmouseout="Off(evt)" d="M 473.20653,275.05928 L 472.85383,267.81399 L 470.93096,260.74292 L 469.16319,247.55052 L 468.72125,238.04876 L 466.79837,235.0444 L 465.25157,229.87283 L 465.25157,219.92913 L 465.91448,216.17262 L 463.86993,210.85765 L 436.39771,210.3125 L 418.42896,209.6875 L 392.80396,208.4375 L 368.69252,206.61668 L 367.474,220.37107 L 366.14817,234.95517 L 363.96527,259.06782 L 363.49537,269.71921 L 418.40996,273.35738 L 473.20653,275.05928 z" />
<path id="South Dakota" onclick="Check(evt)" onmouseover="On(evt)" onmouseout="Off(evt)" d="M 474.64838,348.04446 L 473.7266,346.99977 L 472.25678,343.49446 L 474.02455,339.91643 L 475.04016,334.54726 L 472.54362,332.55852 L 472.25678,329.90687 L 472.83045,327.01086 L 474.90844,326.23533 L 475.19527,320.69194 L 475.12941,291.613 L 474.53236,288.74038 L 470.55488,285.27071 L 469.60513,283.34783 L 469.60513,281.49082 L 471.43876,280.25424 L 472.9197,278.46309 L 473.09605,275.83481 L 417.63443,274.28802 L 363.34027,270.53151 L 362.59923,275.63418 L 361.0402,290.97134 L 359.74001,308.31756 L 358.19322,332.09107 L 373.68457,333.08544 L 392.6647,334.19029 L 410.05556,335.45025 L 433.03655,336.71021 L 443.42219,335.95806 L 446.18646,338.16777 L 450.36153,341.0404 L 451.31128,341.76917 L 454.7342,340.90866 L 458.64582,340.62183 L 461.29747,340.55596 L 464.30609,341.72669 L 468.70213,343.11838 L 471.72985,344.82028 L 472.32691,346.67729 L 473.21079,348.51092 L 473.89282,348.0456 L 474.64838,348.04446 z" />
<path id="Nebraska" onclick="Check(evt)" onmouseover="On(evt)" onmouseout="Off(evt)" d="M 485.71264,390.38707 L 487.03847,392.97286 L 487.12771,395.02746 L 489.40328,398.62887 L 492.03156,401.67571 L 487.15108,401.67571 L 445.1238,400.76844 L 405.702,399.90794 L 385.21968,398.97944 L 386.25654,378.36539 L 353.99477,375.71374 L 358.19322,333.17681 L 373.21925,334.17118 L 392.6647,335.27603 L 409.90045,336.38089 L 432.88144,337.48574 L 443.26708,337.0438 L 445.25582,339.25351 L 449.89621,342.12614 L 451.00107,343.01002 L 455.19952,341.68419 L 458.95603,341.24225 L 461.60768,341.02128 L 463.37545,342.34711 L 468.23681,343.89391 L 471.10943,345.4407 L 471.55138,346.9875 L 472.43526,348.97624 L 474.20303,348.97624 L 474.9743,349.02086 L 475.92404,354.05857 L 478.5757,361.81594 L 479.7698,366.30122 L 481.8244,369.99187 L 482.3322,374.76399 L 483.7239,378.89657 L 484.25508,385.14964" />
<path id="Minnesota" onclick="Check(evt)" onmouseover="On(evt)" onmouseout="Off(evt)" d="M 473.76109,275.83481 L 473.31915,267.65888 L 471.55138,260.58781 L 469.78361,247.55052 L 469.34167,238.04876 L 467.5739,234.73419 L 466.0271,229.87283 L 466.0271,219.92913 L 466.69001,216.17262 L 464.93002,210.90341 L 494.05396,210.9375 L 494.36646,202.96875 L 494.99146,202.8125 L 497.17896,203.28125 L 499.05396,204.0625 L 499.83521,209.375 L 501.24146,215.3125 L 502.80396,216.875 L 507.49146,216.875 L 507.80396,218.28125 L 513.89771,218.59375 L 513.89771,220.625 L 518.58521,220.625 L 518.89771,219.375 L 519.99146,218.28125 L 522.17896,217.65625 L 523.42896,218.59375 L 526.24146,218.59375 L 529.99146,221.09375 L 535.14771,223.4375 L 537.49146,223.90625 L 537.96021,222.96875 L 539.36646,222.5 L 539.83521,225.3125 L 542.33521,226.5625 L 542.80396,226.09375 L 544.05396,226.25 L 544.05396,228.28125 L 546.55396,229.21875 L 549.52271,229.21875 L 551.08521,228.4375 L 554.21021,225.3125 L 556.71021,224.84375 L 557.49146,226.5625 L 557.96021,227.8125 L 558.89771,227.8125 L 559.83521,227.03125 L 568.42896,226.71875 L 570.14771,229.6875 L 570.77271,229.6875 L 571.46244,228.63951 L 575.75375,228.28125 L 575.16214,230.48442 L 571.35524,232.26006 L 562.4189,236.18527 L 557.80396,238.125 L 554.83521,240.625 L 552.49146,244.0625 L 550.30396,247.8125 L 548.58521,248.59375 L 544.21021,253.4375 L 542.96021,253.59375 L 539.24714,256.42946 L 536.52496,259.48458 L 536.30399,262.35558 L 536.52335,269.87345 L 534.97978,271.42025 L 529.89745,275.3961 L 528.12645,280.922 L 530.56036,284.44783 L 531.00392,286.88337 L 529.89421,289.75761 L 529.67485,293.29476 L 530.1168,300.14163 L 533.42813,304.11103 L 536.30399,304.11103 L 538.72982,306.3272 L 541.82503,307.64656 L 545.36219,312.51278 L 552.21229,317.36767 L 553.98167,319.36126 L 554.2075,324.67913 L 534.30878,325.34204 L 476.07644,325.7856 L 475.74983,291.30279 L 475.30789,288.43017 L 471.33041,285.1156 L 470.22555,283.34783 L 470.22555,281.80103 L 472.21429,280.25424 L 473.54012,278.92841 L 473.76109,275.83481 z" />
<path id="Iowa" onclick="Check(evt)" onmouseover="On(evt)" onmouseout="Off(evt)" d="M 565.30564,346.54395 L 565.47056,348.42139 L 567.68027,349.52301 L 568.7835,350.73753 L 569.11576,351.95692 L 572.87227,355.05214 L 573.53519,357.15217 L 572.7626,359.91836 L 571.32386,363.34421 L 570.55127,365.99424 L 568.45124,367.54266 L 566.79314,368.0959 L 561.49146,369.5314 L 560.82854,371.73788 L 560.05595,373.94597 L 560.60919,375.2718 L 562.26728,376.92828 L 562.26566,380.46704 L 560.16886,382.01384 L 559.72531,383.45096 L 559.72531,385.88326 L 558.28657,386.3252 L 556.63009,387.64941 L 556.18977,389.08492 L 556.63009,390.74463 L 555.30184,391.90877 L 553.08485,389.30751 L 551.65096,386.76877 L 543.58957,387.54135 L 533.75878,388.09297 L 509.56002,388.75751 L 496.96143,388.97848 L 487.90162,389.19945 L 486.62988,389.31664 L 485.03061,384.99453 L 484.80964,378.58636 L 483.26284,374.60888 L 482.59993,369.52655 L 480.39022,365.99101 L 479.50634,361.35062 L 476.85468,354.05857 L 475.74983,348.86575 L 474.424,346.76653 L 472.8772,344.11488 L 474.64497,339.91643 L 475.9708,334.39215 L 473.31915,332.40341 L 472.8772,329.75176 L 473.76109,327.32107 L 475.41838,327.32107 L 486.57741,327.32107 L 534.52813,326.65816 L 553.73968,325.99525 L 555.52847,328.65013 L 557.29948,331.18402 L 557.7398,331.96147 L 555.97041,334.61797 L 556.41074,338.69866 L 558.84143,342.45517 L 561.71081,344.21808 L 564.03505,344.44067 L 565.30564,346.54395 z" />
<path id="Wisconsin" onclick="Check(evt)" onmouseover="On(evt)" onmouseout="Off(evt)" d="M 610.10186,342.24552 L 610.46021,339.375 L 608.89771,335 L 608.27271,329.0625 L 607.17896,326.71875 L 608.11646,323.75 L 608.89771,320.9375 L 610.30396,318.4375 L 609.67896,315.15625 L 609.05396,311.71875 L 609.52271,310 L 611.39771,307.65625 L 611.55396,305 L 610.77271,303.75 L 611.39771,301.25 L 611.86646,298.125 L 614.52271,292.65625 L 617.33521,286.09375 L 617.49146,283.90625 L 617.17896,282.96875 L 616.39771,283.4375 L 612.33521,289.53125 L 609.67896,293.4375 L 607.80396,295.15625 L 607.02271,297.34375 L 605.61646,298.125 L 604.52271,300 L 603.11646,299.6875 L 602.96021,297.96875 L 604.21021,295.625 L 606.24146,291.09375 L 607.96021,289.53125 L 609.02467,287.31639 L 607.44859,286.44143 L 606.12276,285.1156 L 604.57596,275.1719 L 601.04043,274.06705 L 599.7146,271.85734 L 587.56119,269.20568 L 585.13051,268.10083 L 577.17555,265.89112 L 569.22059,264.78626 L 565.19067,259.56234 L 564.67896,260.78125 L 563.58521,260.625 L 562.96021,259.53125 L 560.30396,258.75 L 559.21021,258.90625 L 557.49146,259.84375 L 556.55396,259.21875 L 557.17896,257.34375 L 559.05396,254.375 L 560.14771,253.28125 L 558.27271,251.875 L 556.24146,252.65625 L 553.42896,254.53125 L 546.24146,257.65625 L 543.42896,258.28125 L 540.61646,257.8125 L 539.66759,256.96364 L 537.62173,259.70393 L 537.40076,262.35558 L 537.40076,270.53151 L 536.2959,272.07831 L 531.21357,275.83481 L 529.00386,281.58006 L 529.4458,281.80103 L 531.87648,283.78977 L 532.53939,286.88337 L 530.77162,289.97696 L 530.77162,293.73347 L 531.21357,300.14163 L 534.08619,303.01426 L 537.40076,303.01426 L 539.16853,306.10785 L 542.48309,306.54979 L 546.2396,312.07407 L 553.0897,316.05155 L 555.07844,318.7032 L 555.96233,325.88477 L 556.62524,329.08884 L 558.83495,330.63564 L 559.05592,331.96147 L 557.06718,335.27603 L 557.28815,338.36963 L 559.71884,342.12614 L 562.14952,343.23099 L 565.02214,343.67293 L 566.31955,345.00686 L 575.18603,345.00684 L 600.38075,343.56973 L 610.10186,342.24552 z" />
<path id="Michigan" onclick="Check(evt)" onmouseover="On(evt)" onmouseout="Off(evt)" d="M 579.82856,230.97629 L 581.59633,228.98755 L 583.69556,228.21415 L 588.88839,224.45763 L 591.0981,223.9052 L 591.54005,224.34715 L 586.56819,229.31901 L 583.3641,231.19726 L 581.37536,232.08115 L 579.82856,230.97629 z M 663.11884,262.0292 L 663.74384,264.45108 L 666.86885,264.60733 L 668.11886,263.43545 C 668.11886,263.43545 668.04073,262.0292 667.72823,261.87295 C 667.41573,261.7167 666.16573,260.07607 666.16573,260.07607 L 664.05635,260.31044 L 662.49384,260.46669 L 662.18134,261.56045 L 663.11884,262.0292 z M 692.17896,322.96875 L 689.05396,315 L 686.86646,306.25 L 684.52271,303.125 L 682.02271,301.40625 L 680.46021,302.5 L 676.71021,304.21875 L 674.83521,309.0625 L 672.17896,312.65625 L 671.08521,313.28125 L 669.67896,312.65625 C 669.67896,312.65625 667.17896,311.25 667.33521,310.625 C 667.49146,310 667.80396,305.78125 667.80396,305.78125 L 671.08521,304.53125 L 671.86646,301.25 L 672.49146,298.75 L 674.83521,297.1875 L 674.52271,287.5 L 672.96021,285.3125 L 671.71021,284.53125 L 670.92896,282.5 L 671.71021,281.71875 L 673.27271,282.03125 L 673.42896,280.46875 L 671.08521,278.28125 L 669.83521,275.78125 L 667.33521,275.78125 L 662.96021,274.375 L 657.64771,271.09375 L 654.99146,271.09375 L 654.36646,271.71875 L 653.42896,271.25 L 650.46021,269.0625 L 647.64771,270.78125 L 644.83521,272.96875 L 645.14771,276.40625 L 646.08521,276.71875 L 648.11646,277.1875 L 648.58521,277.96875 L 646.08521,278.75 L 643.58521,279.0625 L 642.17896,280.78125 L 641.86646,282.8125 L 642.17896,284.375 L 642.49146,289.6875 L 639.05396,291.71875 L 638.42896,291.5625 L 638.42896,287.5 L 639.67896,285.15625 L 640.30396,282.8125 L 639.52271,282.03125 L 637.64771,282.8125 L 636.71021,286.875 L 634.05396,287.96875 L 632.33521,289.84375 L 632.17896,290.78125 L 632.80396,291.5625 L 632.17896,294.0625 L 629.99146,294.53125 L 629.99146,295.625 L 630.77271,297.96875 L 629.67896,303.90625 L 628.11646,307.8125 L 628.74146,312.34375 L 629.21021,313.4375 L 628.42896,315.78125 L 628.11646,316.5625 L 627.80396,319.21875 L 631.24146,325 L 634.05396,331.25 L 635.46021,335.9375 L 634.67896,340.46875 L 633.74146,346.25 L 631.39771,351.25 L 631.08521,353.90625 L 627.93541,356.88814 L 632.19647,356.73152 L 652.89813,354.54401 L 659.93239,353.58999 L 660.02554,355.20057 L 666.64815,354.02869 L 676.60158,352.57587 L 680.32678,352.13038 L 680.46021,351.5625 L 680.61646,350.15625 L 682.64771,346.5625 L 684.58131,344.88281 L 684.36646,340 L 685.91,338.45646 L 686.96412,338.125 L 687.17896,334.6875 L 688.66333,331.75782 L 689.67896,332.34375 L 689.83521,332.96875 L 690.61646,333.125 L 692.49146,332.1875 L 692.17896,322.96875 z M 566.17415,259.15473 L 566.86646,258.59375 L 569.52271,257.8125 L 572.96021,255.625 L 572.96021,254.6875 L 573.58521,254.0625 L 579.36646,253.125 L 581.71021,251.25 L 585.92896,249.21875 L 586.08521,247.96875 L 587.96021,245.15625 L 589.67896,244.375 L 590.92896,242.65625 L 593.11646,240.46875 L 597.33521,238.125 L 601.86646,237.65625 L 602.96021,238.75 L 602.64771,239.6875 L 599.05396,240.625 L 597.64771,243.59375 L 595.46021,244.375 L 594.99146,246.71875 L 592.64771,249.84375 L 592.33521,252.34375 L 593.11646,252.8125 L 594.05396,251.71875 L 597.49146,248.90625 L 598.74146,250.15625 L 600.92896,250.15625 L 604.05396,251.09375 L 605.46021,252.1875 L 606.86646,255.15625 L 609.52271,257.8125 L 613.27271,257.65625 L 614.67896,256.71875 L 616.24146,257.96875 L 617.80396,258.4375 L 619.05396,257.65625 L 620.14771,257.65625 L 621.71021,256.71875 L 625.61646,253.28125 L 628.89771,252.1875 L 635.30396,251.875 L 639.67896,250 L 642.17896,248.75 L 643.58521,248.90625 L 643.58521,254.375 L 644.05396,254.6875 L 646.86646,255.46875 L 648.74146,255 L 654.67896,253.4375 L 655.77271,252.34375 L 657.17896,252.8125 L 657.17896,259.53125 L 660.30396,262.5 L 661.55396,263.125 L 662.80396,264.0625 L 661.55396,264.375 L 660.77271,264.0625 L 657.17896,263.59375 L 655.14771,264.21875 L 652.96021,264.0625 L 649.83521,265.46875 L 648.11646,265.46875 L 642.49146,264.21875 L 637.49146,264.375 L 635.61646,266.875 L 628.89771,267.5 L 626.55396,268.28125 L 625.46021,271.25 L 624.21021,272.34375 L 623.74146,272.1875 L 622.33521,270.625 L 617.96021,272.96875 L 617.33521,272.96875 L 616.24146,271.40625 L 615.46021,271.5625 L 613.58521,275.78125 L 612.64771,279.6875 L 609.57305,286.454 L 608.43568,285.45434 L 607.10985,284.45754 L 605.23402,274.51384 L 601.80817,273.18964 L 599.82428,270.97993 L 588.10957,268.32827 L 585.34986,267.33309 L 577.3949,265.23306 L 569.76897,264.1282 L 566.17415,259.15473 z" />
<path id="New York" onclick="Check(evt)" onmouseover="On(evt)" onmouseout="Off(evt)" d="M 818.55706,334.74642 L 817.46331,333.80892 L 814.9633,333.65267 L 812.7758,331.77767 L 811.19977,325.85367 L 807.85705,325.94118 L 805.49513,323.32362 L 786.7586,327.55891 L 745.19601,335.99643 L 737.91836,337.18332 L 737.20491,330.93147 L 738.58521,329.84375 L 739.83521,328.75 L 740.77271,327.1875 L 742.49146,326.09375 L 744.36646,324.375 L 744.83521,322.8125 L 746.86646,320.15625 L 747.96021,319.21875 L 747.80396,318.28125 L 746.55396,315.3125 L 744.83521,315.15625 L 742.96021,309.21875 L 745.77271,307.5 L 749.99146,306.09375 L 753.89771,304.84375 L 757.02271,304.375 L 763.11646,304.21875 L 764.99146,305.46875 L 766.55396,305.625 L 768.58521,304.375 L 771.08521,303.28125 L 776.08521,302.8125 L 778.11646,301.09375 L 779.83521,297.96875 L 781.39771,296.09375 L 783.42896,296.09375 L 785.30396,295 L 785.46021,292.8125 L 784.05396,290.78125 L 783.74146,289.375 L 784.83521,287.34375 L 784.83521,285.9375 L 783.11646,285.9375 L 781.39771,285.15625 L 780.61646,284.0625 L 780.46021,281.5625 L 786.08521,276.25 L 786.71021,275.46875 L 788.11646,272.65625 L 790.92896,268.28125 L 793.58521,264.6875 L 795.61646,262.34375 L 797.95073,260.57924 L 800.92896,259.375 L 806.24146,258.125 L 809.36646,258.28125 L 813.74146,256.875 L 821.05346,254.87315 L 821.55586,259.68616 L 823.89962,265.93618 L 824.68087,270.93619 L 823.74337,274.6862 L 826.24337,279.06121 L 827.02462,281.09246 L 826.24337,283.90497 L 829.05588,285.15497 L 829.68088,285.46747 L 832.64964,296.0925 L 832.1313,300.98283 L 831.66255,311.4516 L 832.4438,316.76411 L 833.22505,320.20162 L 834.6313,327.23289 L 834.6313,335.0454 L 833.53755,337.23291 L 835.31532,339.159 L 836.08521,340.78125 L 834.21021,342.5 L 834.52271,343.75 L 835.77271,343.4375 L 837.17896,342.1875 L 839.36646,339.6875 L 840.46021,339.0625 L 842.02271,339.6875 L 844.21021,339.84375 L 851.86646,336.09375 L 854.67896,333.4375 L 855.92896,332.03125 L 859.99146,333.59375 L 856.71021,337.03125 L 852.96021,339.84375 L 846.08521,345 L 843.58521,345.9375 L 837.96021,347.8125 L 834.05396,348.90625 L 832.91854,348.39116 L 832.68269,344.82608 L 833.15144,342.16982 L 832.99519,340.13857 L 830.27584,338.49643 L 825.90083,337.55893 L 822.15082,336.46518 L 818.55706,334.74642 z" />
<path id="Vermont" onclick="Check(evt)" onmouseover="On(evt)" onmouseout="Off(evt)" d="M 833.75992,300.24514 L 832.97867,294.77638 L 830.66797,285.13844 L 830.04297,284.82594 L 827.23046,283.57594 L 828.01171,280.76343 L 827.23046,278.73218 L 824.62078,274.24749 L 825.55828,270.49748 L 824.77703,265.49747 L 822.43327,259.24745 L 821.65466,254.48969 L 847.02369,247.96807 L 847.33717,253.5924 L 849.21217,256.24866 L 849.21217,260.15492 L 845.61841,264.06117 L 843.11841,265.15493 L 843.11841,266.24868 L 844.21216,267.96743 L 844.21216,276.2487 L 843.43091,285.15497 L 843.27466,289.84248 L 844.21216,291.09249 L 844.05591,295.46749 L 843.58716,297.18625 L 844.22567,298.70066 L 837.50691,300.0288 L 833.75992,300.24514 z" />
<path id="New Hampshire" onclick="Check(evt)" onmouseover="On(evt)" onmouseout="Off(evt)" d="M 868.99529,289.32172 L 869.83521,288.28125 L 870.88894,285.10037 L 868.43097,284.21747 L 867.96221,281.24871 L 864.21221,280.15496 L 863.89971,277.4987 L 856.86844,254.8424 L 852.42102,240.78614 L 851.55396,240.78125 L 850.92896,242.34375 L 850.30396,241.875 L 849.36646,240.9375 L 847.96021,242.8125 L 847.91336,247.67614 L 848.21458,253.15369 L 850.08958,255.80995 L 850.08958,259.71621 L 846.49582,264.60955 L 843.99582,265.70331 L 843.99582,266.79706 L 845.08957,268.51581 L 845.08957,276.79708 L 844.30832,285.70335 L 844.15207,290.39086 L 845.08957,291.64087 L 844.93332,296.01587 L 844.46457,297.73463 L 845.87082,298.59098 L 861.7122,294.05822 L 863.89971,293.43322 L 865.38258,290.96628 L 868.99529,289.32172 z" />
<path id="Maine" onclick="Check(evt)" onmouseover="On(evt)" onmouseout="Off(evt)" d="M 909.99146,226.40625 L 911.86646,228.4375 L 914.05396,232.03125 L 914.05396,233.90625 L 912.02271,238.4375 L 910.14771,239.0625 L 906.86646,242.03125 L 902.17896,247.34375 C 902.17896,247.34375 901.55396,247.34375 900.92896,247.34375 C 900.30396,247.34375 899.99146,245.3125 899.99146,245.3125 L 898.27271,245.46875 L 897.33521,246.875 L 894.99146,248.28125 L 894.05396,249.6875 L 895.61646,251.09375 L 895.14771,251.71875 L 894.67896,254.375 L 892.80396,254.21875 L 892.80396,252.65625 L 892.49146,251.40625 L 891.08521,251.71875 L 889.36646,248.59375 L 887.33521,249.84375 L 888.58521,251.25 L 888.89771,252.34375 L 888.11646,253.59375 L 888.42896,256.5625 L 888.58521,258.125 L 887.02271,260.625 L 884.21021,261.09375 L 883.89771,263.90625 L 878.74146,266.875 L 877.49146,267.34375 L 875.92896,265.9375 L 872.96021,269.375 L 873.89771,272.5 L 872.49146,273.75 L 872.33521,277.96875 L 871.24952,284.01862 L 868.86968,282.90135 L 868.40092,279.93259 L 864.65092,278.83884 L 864.33842,276.18258 L 857.30715,253.52628 L 853.24908,240.34303 L 854.62208,240.22882 L 856.08521,240.625 L 856.08521,238.125 L 856.86646,232.8125 L 859.36646,228.28125 L 860.77271,224.375 L 858.89771,222.03125 L 858.89771,216.25 L 859.67896,215.3125 L 860.46021,212.65625 L 860.30396,211.25 L 860.14771,206.5625 L 861.86646,201.875 L 864.67896,193.28125 L 866.71021,189.21875 L 867.96021,189.21875 L 869.21021,189.375 L 869.21021,190.46875 L 870.46021,192.65625 L 873.11646,193.28125 L 873.89771,192.5 L 873.89771,191.5625 L 877.80396,188.75 L 879.52271,187.03125 L 880.92896,187.1875 L 886.71021,189.53125 L 888.58521,190.46875 L 897.33521,219.375 L 903.11646,219.375 L 903.89771,221.25 L 904.05396,225.9375 L 906.86646,228.125 L 907.64771,228.125 L 907.80396,227.65625 L 907.33521,226.5625 L 909.99146,226.40625 z M 889.76025,255.5448 L 891.24463,254.06042 L 892.57276,255.07605 L 893.11964,257.41981 L 891.47901,258.27919 L 889.76025,255.5448 z M 896.24465,249.84166 L 897.9634,251.63854 C 897.9634,251.63854 899.21341,251.71666 899.21341,251.40416 C 899.21341,251.09166 899.44778,249.45103 899.44778,249.45103 L 900.30716,248.66978 L 899.52591,246.95102 L 897.57278,247.65415 L 896.24465,249.84166 z" />
<path id="Massachusetts" onclick="Check(evt)" onmouseover="On(evt)" onmouseout="Off(evt)" d="M 887.53146,319.69638 L 889.63069,319.03346 L 890.07264,317.37618 L 891.06701,317.48666 L 892.06138,319.69638 L 890.84604,320.13832 L 887.08952,320.24881 L 887.53146,319.69638 z M 878.47163,320.46978 L 880.68134,317.92861 L 882.22815,317.92861 L 883.99592,319.36492 L 881.67572,320.35929 L 879.57649,321.35366 L 878.47163,320.46978 z M 844.83716,299.2175 L 861.7122,295.15499 L 863.89971,294.52999 L 865.93096,291.40499 L 869.54267,289.79735 L 872.33521,294.0625 L 869.99146,299.0625 L 869.67896,300.46875 L 871.55396,302.96875 L 872.64771,302.1875 L 874.36646,302.1875 L 876.55396,304.6875 L 880.30396,310.46875 L 883.74146,310.9375 L 885.92896,310 L 887.64771,308.28125 L 886.86646,305.625 L 884.83521,304.0625 L 883.42896,304.84375 L 882.49146,303.59375 L 882.96021,303.125 L 884.99146,302.96875 L 886.71021,303.75 L 888.58521,306.09375 L 889.52271,308.90625 L 889.83521,311.25 L 885.77271,312.65625 L 882.02271,314.53125 L 878.27271,318.90625 L 876.39771,320.3125 L 876.39771,319.375 L 878.74146,317.96875 L 879.21021,316.25 L 878.42896,313.28125 L 875.61646,314.6875 L 874.83521,316.09375 L 875.30396,318.28125 L 873.30679,319.24819 L 870.65153,314.87258 L 867.37027,310.65382 L 865.36907,308.90201 L 859.05445,310.71542 L 854.13255,311.73104 L 833.03876,316.34042 L 832.64964,311.56128 L 833.27464,301.32689 L 838.27465,300.46751 L 844.83716,299.2175" />
<path id="Connecticut" onclick="Check(evt)" onmouseover="On(evt)" onmouseout="Off(evt)" d="M 861.64413,325.68808 L 861.03761,321.6244 L 860.25636,317.40564 L 858.69386,311.62438 L 854.68093,312.49878 L 833.58714,317.10816 L 834.21214,320.3113 L 835.61839,327.34257 L 835.61839,335.15508 L 834.52464,337.34259 L 836.29571,339.38112 L 841.08521,336.09375 L 844.52271,332.96875 L 846.39771,330.9375 L 847.17896,331.5625 L 849.83521,330.15625 L 854.83521,329.0625 L 861.64413,325.68808 z" />
<path id="Rhode Island" onclick="Check(evt)" onmouseover="On(evt)" onmouseout="Off(evt)" d="M 862.49149,325.46873 L 862.02470,321.40505 L 861.24345,317.18629 L 859.60283,311.48316 L 865.14971,309.99878 L 866.71221,311.09253 L 869.99347,315.31129 L 872.80498,319.60877 L 869.99146,321.09375 L 868.74146,320.93750 L 867.64771,322.65625 L 865.30396,324.53125 L 862.49149,325.46873 z" />
<path id="New Jersey" onclick="Check(evt)" onmouseover="On(evt)" onmouseout="Off(evt)" d="M 818.11835,335.62383 L 816.08710,337.96759 L 816.08710,340.93635 L 814.21209,343.90510 L 814.05584,345.46761 L 815.30585,346.71761 L 815.14960,349.06137 L 812.96209,350.15512 L 813.74334,352.81137 L 813.89959,353.90513 L 816.55585,354.21763 L 817.49335,356.71763 L 820.93086,359.06139 L 823.27461,360.62389 L 823.27461,361.40514 L 820.14961,364.37390 L 818.58710,366.56140 L 817.18085,369.21766 L 814.99335,370.46766 L 813.82147,371.17079 L 813.58709,372.34267 L 812.99825,374.86217 L 814.05396,377.03125 L 817.17896,379.84375 L 821.86646,382.03125 L 825.77271,382.65625 L 825.92896,384.06250 L 825.14771,385.00000 L 825.46021,387.65625 L 826.24146,387.65625 L 828.27271,385.31250 L 829.05396,380.62500 L 831.71021,376.71875 L 834.67896,370.46875 L 835.77271,365.15625 L 835.14771,364.06250 L 834.99146,355.00000 L 833.42896,351.71875 L 832.33521,352.50000 L 829.67896,352.81250 L 829.21021,352.34375 L 830.30396,351.40625 L 832.33521,349.53125 L 832.39616,348.47403 L 832.02463,345.15511 L 832.49338,342.49885 L 832.33713,340.46760 L 829.83713,339.37384 L 825.46212,338.43634 L 821.71211,337.34259 L 818.11835,335.62383 z" />
<path id="Maryland" onclick="Check(evt)" onmouseover="On(evt)" onmouseout="Off(evt)" d="M 826.61706,398.42399 L 820.68146,399.67297 L 815.06996,399.82922 L 813.2881,392.96771 L 811.25685,383.59269 L 809.06934,378.12393 L 807.82408,373.87281 L 800.56927,375.44087 L 786.19094,378.1697 L 749.99293,385.46788 L 751.08637,390.31181 L 752.02387,395.78056 L 752.33637,395.46806 L 754.36763,393.12431 L 756.55513,390.59426 L 758.89888,389.9993 L 760.30514,388.59305 L 762.02389,386.09305 L 763.27389,386.71805 L 766.08639,386.40555 L 768.5864,384.3743 L 770.52612,382.96967 L 772.3096,382.50092 L 773.89891,383.59305 L 776.71141,384.9993 L 778.58641,386.71805 L 779.75829,388.20243 L 783.74267,389.84305 L 783.74267,392.65556 L 789.05518,393.90556 L 790.16131,394.4294 L 791.52596,392.46897 L 794.31148,394.37319 L 793.07608,396.77205 L 792.33643,400.62432 L 790.61768,403.12432 L 790.61768,405.15558 L 791.24268,406.87433 L 796.13715,408.18465 L 800.30396,408.125 L 803.27271,409.0625 L 805.30396,409.375 L 806.24146,407.34375 L 804.83521,405.3125 L 804.83521,403.59375 L 802.49146,401.5625 L 800.46021,396.25 L 801.71021,391.09375 L 801.55396,389.0625 L 800.30396,387.8125 C 800.30396,387.8125 801.71021,386.25 801.71021,385.625 C 801.71021,385 802.17896,383.59375 802.17896,383.59375 L 804.05396,382.34375 L 805.92896,380.78125 L 806.39771,381.71875 L 804.99146,383.28125 L 803.74146,386.875 L 804.05396,387.96875 L 805.77271,388.28125 L 806.24146,393.59375 L 804.21021,394.53125 L 804.52271,397.96875 L 804.99146,397.8125 L 806.08521,395.9375 L 807.64771,397.65625 L 806.08521,398.90625 L 805.77271,402.1875 L 808.27271,405.46875 L 812.02271,405.9375 L 813.58521,405.15625 L 816.71344,409.19919 L 818.02633,409.71754 L 824.45732,407.0142 L 826.39771,403.125 L 826.61706,398.42399 z M 810.54123,407.10783 L 811.63498,409.52971 L 811.79123,411.24847 L 812.88498,413.04535 C 812.88498,413.04535 813.74436,412.18597 813.74436,411.87347 C 813.74436,411.56097 813.04124,408.90471 813.04124,408.90471 L 812.33811,406.63907 L 810.54123,407.10783 z" />
<path id="Delaware" onclick="Check(evt)" onmouseover="On(evt)" onmouseout="Off(evt)" d="M 812.50495,374.375 L 813.07451,372.34267 L 813.09531,371.17809 L 811.86834,371.09266 L 809.83708,372.65517 L 808.43083,374.06142 L 809.83708,378.12393 L 812.02459,383.59269 L 814.05584,392.96771 L 815.61835,399.06148 L 820.46211,398.90523 L 826.39866,397.73386 L 824.21021,390.625 L 823.27271,391.09375 L 819.83521,388.75 L 818.11646,384.21875 L 816.24146,380.78125 L 814.05396,379.84375 L 812.02271,376.40625 L 812.50495,374.375 z" />
<path id="Illinois" onclick="Check(evt)" onmouseover="On(evt)" onmouseout="Off(evt)" d="M 614.80311,443.17095 L 614.80311,439.68688 L 615.05251,434.98284 L 617.34968,431.95099 L 619.06844,428.31065 L 621.56844,424.57718 L 621.20937,419.50056 L 619.27127,416.07656 L 619.17812,412.84188 L 619.84969,407.74873 L 619.05191,400.81061 L 618.02126,385.5612 L 616.77126,371.04646 L 615.87985,359.79681 L 615.61646,358.90625 L 614.83521,356.40625 L 613.58521,352.8125 L 612.02271,351.09375 L 610.61646,348.59375 L 610.39071,343.2885 L 600.81946,344.55682 L 574.52391,346.2141 L 566.127,345.79979 L 566.34797,348.09236 L 568.55768,348.75527 L 569.44156,349.86012 L 569.8835,351.62789 L 573.64001,354.94246 L 574.30293,357.15217 L 573.64001,360.46674 L 571.87224,364.00227 L 571.20933,366.43295 L 568.99962,368.20072 L 567.23185,368.86364 L 562.14952,370.18946 L 561.4866,371.95723 L 560.82369,373.94597 L 561.4866,375.2718 L 563.25437,376.8186 L 563.0334,380.79607 L 561.26563,382.34287 L 560.60272,383.88967 L 560.60272,386.54132 L 558.83495,386.98326 L 557.28815,388.08812 L 557.06718,389.41395 L 557.28815,391.40269 L 555.63087,392.67326 L 554.6365,395.38017 L 555.07844,398.9157 L 557.28815,405.98678 L 564.35923,413.27882 L 569.66253,416.81436 L 569.44156,421.01281 L 570.32545,422.33864 L 576.51264,422.78058 L 579.16429,424.10641 L 578.50138,427.64194 L 576.29167,433.38719 L 575.62875,436.48079 L 577.83846,440.23729 L 584.02565,445.31963 L 588.44508,445.98254 L 590.43381,450.84391 L 592.42255,453.9375 L 591.53867,456.81012 L 593.08547,460.7876 L 594.85324,462.77634 L 596.73252,462.01056 L 597.39623,459.91978 L 599.36438,458.53006 L 602.4924,457.46635 L 605.47768,458.60667 L 608.25713,459.63732 L 609.02185,459.4345 L 608.95875,458.23409 L 607.9281,455.5613 L 608.35028,453.26412 L 610.55431,451.74819 L 612.83496,450.79416 L 613.95876,450.38852 L 613.39686,449.10846 L 612.66218,447.01411 L 613.86561,445.79415 L 614.80311,443.17095 z" />
<path id="Indiana" onclick="Check(evt)" onmouseover="On(evt)" onmouseout="Off(evt)" d="M 615.39807,442.44979 L 615.46117,439.68688 L 615.92992,435.31187 L 618.11742,432.49937 L 619.83618,428.74936 L 622.33618,424.68686 L 621.86743,419.06185 L 620.14868,416.40559 L 619.83618,413.28059 L 620.61743,407.96808 L 620.14868,401.24932 L 618.89867,385.78055 L 617.64867,370.93678 L 616.71068,359.60901 L 619.67896,360.46875 L 621.08521,361.40625 L 622.17896,361.09375 L 624.21021,359.21875 L 626.94508,357.65588 L 631.86744,357.49926 L 653.11748,355.31175 L 658.5066,354.79643 L 659.95943,370.21862 L 664.0685,405.82715 L 664.64693,411.40559 L 664.28786,413.59309 L 665.47475,415.32837 L 665.56791,416.65499 L 663.131,418.20097 L 659.71003,419.70036 L 656.61507,420.23222 L 656.03664,424.93626 L 651.61506,428.13787 L 648.91223,432.01409 L 649.22473,434.31127 L 648.66284,435.79413 L 645.4477,435.79413 L 643.91524,434.23163 L 641.50537,435.45159 L 638.91221,436.90442 L 639.06847,439.85664 L 637.91463,440.10604 L 637.46241,439.12197 L 635.36805,437.66914 L 632.22651,438.96572 L 630.72712,441.87136 L 629.3374,441.09011 L 627.93115,439.54414 L 623.61622,440.01289 L 618.21057,440.95039 L 615.39807,442.44979 z" />
<path id="Ohio" onclick="Check(evt)" onmouseover="On(evt)" onmouseout="Off(evt)" d="M 724.63106,340.14481 L 718.74146,344.0625 L 714.99146,346.25 L 711.71021,349.84375 L 707.80396,353.59375 L 704.67896,354.375 L 701.86646,354.84375 L 696.55396,357.34375 L 694.52271,357.5 L 691.24146,354.53125 L 686.24146,355.15625 L 683.74146,353.75 L 681.44008,352.44438 L 676.71126,353.12425 L 666.8675,354.68675 L 659.36748,355.85863 L 660.61749,369.99927 L 662.33624,383.28054 L 664.83624,405.93683 L 665.38312,410.60631 L 669.3675,410.4816 L 671.71125,409.70035 L 674.96247,411.15318 L 676.96367,415.37193 L 681.93062,415.3554 L 683.75905,417.40319 L 685.46127,417.34008 L 687.91471,416.04351 L 690.33507,416.40258 L 692.24313,417.80883 L 693.9123,415.74753 L 696.17944,414.49753 L 698.18064,413.83947 L 698.80564,416.49573 L 700.5244,417.43323 L 703.88377,419.69885 L 705.99315,419.62073 L 707.10042,418.51045 L 707.03732,417.17032 L 708.59982,415.76406 L 708.75607,410.92031 C 708.75607,410.92031 709.69357,407.1703 709.69357,407.1703 L 711.16293,405.77756 L 712.63228,406.65196 L 713.43007,407.82232 L 714.60044,407.65256 L 714.19178,405.32232 L 713.64641,404.70034 L 713.64641,402.35658 L 714.58391,401.10658 L 716.77141,397.82533 L 718.02141,396.41908 L 720.05267,396.88783 L 722.24017,395.32532 L 725.20892,392.04407 L 727.39643,388.29406 L 727.59925,383.04467 L 728.068,378.20091 L 728.068,373.66965 L 726.97425,370.7009 L 727.91175,369.29464 L 728.80145,368.37198 L 727.44356,358.85857 L 724.63106,340.14481 z" />
<path id="Pennsylvania" onclick="Check(evt)" onmouseover="On(evt)" onmouseout="Off(evt)" d="M 812.36412,370.54428 L 813.45788,369.91928 L 815.64538,369.32734 L 817.05163,366.67108 L 818.61414,364.48358 L 821.73914,361.51482 L 821.73914,360.73357 L 819.39539,359.17107 L 815.95788,356.82731 L 815.02038,354.32731 L 812.36412,354.01481 L 812.20787,352.92105 L 811.42662,350.2648 L 813.61413,349.17105 L 813.77038,346.82729 L 812.52037,345.57729 L 812.67662,344.01478 L 814.55163,341.04603 L 814.55163,338.07727 L 816.81726,335.73352 L 817.0246,334.68633 L 814.52459,334.53008 L 812.33709,332.65508 L 809.99333,327.49882 L 807.08931,326.59924 L 804.83707,324.53006 L 786.86828,328.43632 L 745.30569,336.87384 L 736.71192,338.28009 L 736.23284,331.43328 L 730.92896,336.875 L 729.67896,337.34375 L 725.61731,340.25194 L 728.43065,358.74889 L 730.82926,368.15263 L 734.28151,386.76947 L 737.44141,386.15314 L 748.98526,384.70095 L 785.64256,377.29229 L 800.02089,374.56346 L 808.04344,372.9954 L 808.30161,372.76485 L 810.33287,371.20234 L 812.36412,370.54428 z" />
<path id="Missouri" onclick="Check(evt)" onmouseover="On(evt)" onmouseout="Off(evt)" d="M 554.86232,392.83982 L 552.42679,389.85589 L 551.32193,387.64618 L 543.80892,388.30909 L 534.30716,388.75103 L 509.77937,389.63492 L 496.74208,389.85589 L 489.11861,389.96637 L 486.90887,390.07686 L 488.12421,392.50754 L 487.90324,394.71725 L 490.33392,398.47376 L 493.31702,402.45124 L 496.30014,405.10289 L 498.50985,405.32386 L 499.83567,406.20775 L 499.83567,409.08037 L 498.06791,410.62717 L 497.62596,412.83688 L 499.6147,416.15145 L 502.04539,419.02407 L 504.47607,420.79184 L 505.80189,432.06136 L 505.13898,466.2014 L 505.35995,470.7313 L 505.80189,475.93463 L 528.45062,475.82172 L 550.87999,475.15881 L 570.98836,474.3846 L 582.25303,474.16201 L 584.34983,477.47335 L 583.68854,480.67015 L 580.70461,482.99277 L 580.15138,484.76862 L 585.34986,485.21057 L 589.11446,484.54765 L 590.77417,479.23788 L 591.40379,473.57711 L 593.64518,471.62004 L 595.30003,470.18292 L 597.28877,469.18774 L 597.40006,466.42317 L 597.95492,464.76508 L 596.95812,463.07532 L 594.30486,463.21505 L 592.20806,460.67792 L 590.88061,456.59077 L 591.65481,454.15685 L 589.77575,450.84391 L 588.00637,446.42125 L 583.36759,445.64866 L 576.63202,440.23729 L 574.97069,436.26144 L 575.74329,433.16784 L 577.73364,427.31291 L 578.1772,424.54512 L 576.29329,423.54832 L 569.66739,422.77735 L 568.67382,421.12249 L 568.56576,417.03371 L 563.26246,413.71753 L 556.52041,406.20613 L 554.3107,399.13505 L 554.08812,395.05114 L 554.86232,392.83982 z" />
<path id="Kansas" onclick="Check(evt)" onmouseover="On(evt)" onmouseout="Off(evt)" d="M 504.20834,465.91243 L 492.01239,466.11002 L 447.46581,465.66809 L 404.39959,463.67933 L 380.59416,462.464 L 384.59926,399.91008 L 405.702,400.68347 L 444.81359,402.00929 L 487.46129,402.45124 L 492.38638,402.45124 L 495.52461,405.56821 L 498.19964,405.78918 L 499.06014,406.82817 L 499.06014,408.77016 L 497.29238,410.31696 L 496.85043,412.83688 L 498.99428,416.30656 L 501.42497,419.33428 L 503.85565,421.25716 L 504.87125,432.06136 L 504.20834,465.91243 z" />
<path id="Kentucky" onclick="Check(evt)" onmouseover="On(evt)" onmouseout="Off(evt)" d="M 715.30124,439.51411 L 713.05447,442.10725 L 708.99196,445.54476 L 704.8363,451.2494 L 703.11755,452.96815 L 703.11755,454.9994 L 699.36754,457.03065 L 693.89879,460.31191 L 690.49702,460.68368 L 640.36505,465.41858 L 625.13293,467.13733 L 620.66639,467.63288 L 616.92751,467.60608 L 616.70816,471.68512 L 608.8025,471.82484 L 602.08374,472.44984 L 592.00224,472.64856 L 593.851,472.43435 L 595.95809,470.7313 L 597.94683,469.62645 L 598.1678,466.53285 L 599.05169,464.76508 L 597.49864,462.31115 L 598.27364,460.46816 L 600.46115,458.74941 L 602.4924,458.12441 L 605.14865,459.37441 L 608.58616,460.62441 L 609.67991,460.31191 L 609.83616,458.12441 L 608.58616,455.78065 L 608.89866,453.59315 L 610.77366,452.1869 L 613.27367,451.5619 L 614.83617,450.9369 L 614.05492,449.21814 L 613.42992,447.34314 L 614.52367,446.56189 L 615.53929,443.35875 L 618.42992,441.71813 L 624.05493,440.78063 L 627.49244,440.31188 L 628.89869,442.18688 L 630.61744,442.96813 L 632.33619,439.84313 L 635.1487,438.43688 L 637.0237,439.99938 L 637.80495,441.09313 L 639.83621,440.62438 L 639.67995,437.34313 L 642.49246,435.78062 L 643.58621,434.99937 L 644.67996,436.56187 L 649.21122,436.56187 L 649.99247,434.53062 L 649.67997,432.34312 L 652.49247,428.90561 L 657.02373,425.15561 L 657.49248,420.7806 L 660.14874,420.4681 L 663.89874,418.74935 L 666.555,416.87434 L 666.24249,414.99934 L 664.83624,413.59309 L 665.38312,411.48372 L 669.3675,411.24934 L 671.71125,410.46809 L 674.52376,412.03059 L 676.08626,416.24934 L 681.71127,416.56184 L 683.43002,418.2806 L 685.46127,418.43685 L 687.80503,417.0306 L 690.77378,417.49935 L 692.02378,418.9056 L 694.68004,416.40559 L 696.39879,415.15559 L 697.96129,415.15559 L 698.58629,417.81185 L 700.30505,418.74935 L 702.64578,420.89028 L 702.80203,426.20279 L 703.58328,427.76529 L 706.08329,429.17154 L 706.70829,431.35905 L 709.52079,434.9528 L 712.02079,437.60906 L 715.30124,439.51411 z" />
<path id="West Virginia" onclick="Check(evt)" onmouseover="On(evt)" onmouseout="Off(evt)" d="M 748.91481,385.53277 L 749.9896,390.31181 L 751.03678,396.987 L 754.47731,394.33075 L 756.66481,391.36199 L 759.11823,390.76704 L 760.52449,389.36079 L 762.24324,386.86079 L 763.38357,387.48579 L 766.19607,387.17329 L 768.69608,385.14204 L 770.6358,383.73741 L 772.41928,383.26866 L 773.67956,384.25111 L 775.834,385.32833 L 777.709,387.04708 L 779.03713,388.29708 L 778.89892,392.81181 L 773.43015,389.84305 L 769.05515,388.1243 L 768.8989,393.28056 L 768.43015,395.31181 L 766.86765,397.96807 L 766.24264,399.53057 L 763.27389,401.87432 L 762.80514,404.06183 L 759.52388,404.37433 L 759.21138,407.34308 L 758.11763,412.65559 L 755.61763,412.65559 L 754.36763,411.87434 L 752.80512,409.21808 L 751.08637,409.37433 L 750.77387,413.59309 L 748.74262,419.99935 L 743.89886,430.46812 L 744.68011,431.71812 L 744.52386,434.37437 L 742.49261,436.24937 L 741.08636,435.93687 L 737.96135,438.28063 L 735.46135,437.34313 L 733.7426,441.87438 C 733.7426,441.87438 730.14884,442.65563 729.52384,442.81188 C 728.89884,442.96813 727.18009,441.56188 727.18009,441.56188 L 724.83633,443.74938 L 722.33633,444.37439 L 719.52382,443.59313 L 718.27382,442.34313 L 716.15497,439.42096 L 713.11756,437.49938 L 710.61756,434.84312 L 707.80506,431.24937 L 707.18006,429.06186 L 704.68005,427.65561 L 703.8988,426.09311 L 703.66442,421.01497 L 705.7738,420.93685 L 707.64881,420.1556 L 707.80506,417.49935 L 709.36756,416.09309 L 709.52381,411.24934 L 710.46131,407.49933 L 711.71131,406.87433 L 712.96131,407.96808 L 713.43007,409.68683 L 715.14882,408.74933 L 715.61757,407.18683 L 714.52382,405.46808 L 714.52382,403.12432 L 715.46132,401.87432 L 717.64882,398.59307 L 718.89882,397.18682 L 720.93008,397.65557 L 723.11758,396.09306 L 726.08633,392.81181 L 728.27384,389.0618 L 728.58634,383.59305 L 729.05509,378.74929 L 729.05509,374.21803 L 727.96134,371.24928 L 728.89884,369.84302 L 730.13936,368.59302 L 733.51377,387.75656 L 737.98979,387.03055 L 748.91481,385.53277 z" />
<path id="Virginia" onclick="Check(evt)" onmouseover="On(evt)" onmouseout="Off(evt)" d="M 818.83963,411.8982 L 818.70054,410.01633 L 824.93798,407.55179 L 824.19336,410.66194 L 821.37113,414.31457 L 820.96703,418.74691 L 821.41333,422.02388 L 819.64654,426.83543 L 817.5547,428.68744 L 816.13357,424.20195 L 816.56454,418.93521 L 818.09843,414.89214 L 818.83963,411.8982 z M 821.04287,439.25237 L 764.81567,451.40692 L 728.64131,456.50931 L 722.18649,456.14669 L 719.68776,458.0086 L 712.59426,458.2219 L 704.49268,459.16685 L 695.86521,460.08671 L 704.06206,455.30403 L 704.04938,453.29854 L 705.51856,451.22424 L 715.71912,440.10774 L 719.53375,444.43535 L 723.19015,445.36706 L 725.64849,444.26491 L 727.81083,442.99763 L 730.26255,444.29619 L 734.04572,442.91621 L 735.85964,438.51236 L 738.37351,439.03431 L 741.13319,436.97439 L 742.87224,437.45147 L 745.60483,433.89795 L 745.94143,431.88455 L 745.01002,430.65167 L 745.97923,428.84752 L 751.07698,416.98126 L 751.67311,411.43812 L 752.86087,410.9321 L 754.96649,413.29322 L 758.77062,413.00213 L 760.63526,405.68197 L 763.33574,405.13988 L 764.35036,402.49055 L 766.84384,400.22222 L 768.06937,397.95839 L 769.5229,394.71763 L 769.60499,389.81968 L 779.09779,393.51456 C 779.75585,393.84359 779.73193,388.89069 779.73193,388.89069 L 783.64669,390.22194 L 783.20015,392.76276 L 791.08329,395.60404 L 792.33289,397.33837 L 791.494,400.89728 L 790.27319,402.17873 L 789.7842,403.86633 L 790.26158,406.18864 L 792.155,407.42423 L 795.94196,408.82107 L 798.79194,409.75664 L 803.48587,410.66722 L 805.56615,412.68578 L 808.64981,413.07484 L 809.48883,414.2347 L 809.06405,418.76781 L 810.39277,419.83346 L 809.92985,421.69924 L 811.11811,422.46258 L 810.90374,423.80084 L 808.29991,423.70908 L 808.38589,425.27053 L 810.59054,426.76176 L 810.70801,428.12641 L 812.42178,429.85203 L 812.89711,432.29169 L 810.42952,433.62677 L 811.94912,435.07105 L 817.55599,433.44165 L 821.04287,439.25237 z" />
<path id="California" onclick="Check(evt)" onmouseover="On(evt)" onmouseout="Off(evt)" d="M 149.83979,525.47333 L 153.52718,525.00106 L 154.96349,523.05694 L 155.67103,521.18081 L 152.60082,521.09371 L 151.53844,519.38968 L 152.29061,517.7324 L 152.24598,511.78742 L 154.38983,510.50408 L 156.99686,508.00754 L 157.39418,503.25666 L 158.9856,499.87623 L 160.86385,497.84287 L 164.02331,496.18559 L 165.25989,495.48019 L 165.99081,494.04601 L 165.15154,493.18337 L 164.22304,491.72368 L 163.31791,486.55424 L 160.51115,481.49315 L 160.60496,478.80015 L 158.47779,475.66079 L 143.98082,453.20886 L 125.19828,425.45576 L 103.52188,393.52758 L 91.244552,374.6368 L 92.98113,367.66971 L 99.565647,342.5895 L 107.41012,312.20598 L 95.458567,308.98065 L 82.421275,305.66608 L 70.267871,301.6886 L 62.975828,299.69986 L 51.927278,296.82724 L 45.112441,294.49626 L 43.585205,299.0625 L 43.428955,306.25 L 38.428955,317.65625 L 35.460205,320.15625 L 35.147705,321.25 L 33.428955,322.03125 L 32.022705,326.09375 L 31.241455,329.21875 L 33.897705,333.28125 L 35.460205,337.34375 L 36.553955,340.78125 L 36.241455,347.03125 L 34.522705,350 L 33.897705,355.625 L 32.960205,359.21875 L 34.678955,362.96875 L 37.335205,367.34375 L 39.522705,372.03125 L 40.772705,375.9375 L 40.460205,379.0625 L 40.147705,379.53125 L 40.147705,381.5625 L 45.616455,387.65625 L 45.147705,390 L 44.522705,392.1875 L 43.897705,394.0625 L 44.053955,402.03125 L 46.085205,405.625 L 47.960205,408.125 L 50.616455,408.59375 L 51.553955,411.25 L 50.460205,414.6875 L 48.428955,416.25 L 47.335205,416.25 L 46.553955,420 L 47.022705,422.8125 L 50.147705,427.03125 L 51.710205,432.1875 L 53.116455,436.71875 L 54.366455,439.6875 L 57.647705,445.3125 L 59.053955,447.8125 L 59.522705,450.625 L 61.085205,451.5625 L 61.085205,453.90625 L 60.303955,455.78125 L 58.585205,462.65625 L 58.116455,464.53125 L 60.460205,467.1875 L 64.522705,467.65625 L 68.897705,469.375 L 72.647705,471.40625 L 75.460205,471.40625 L 78.272705,474.375 L 80.772705,479.0625 L 81.866455,481.25 L 85.616455,483.28125 L 90.303955,484.0625 L 91.710205,486.09375 L 92.335205,489.21875 L 90.928955,489.84375 L 91.241455,490.78125 L 94.366457,491.5625 L 97.022707,491.71875 L 99.835207,496.25 L 103.58521,500.3125 L 104.36646,502.5 L 106.86646,506.5625 L 107.17896,509.6875 L 107.17896,518.75 L 107.64771,520.46875 L 117.33521,521.875 L 136.39771,524.53125 L 149.83979,525.47333 z M 64.835518,477.42057 L 66.085522,478.90495 L 65.929272,480.15495 L 62.804261,480.07683 L 62.257384,478.90495 L 61.632382,477.49869 L 64.835518,477.42057 z M 66.710524,477.42057 L 67.882403,476.79557 L 71.319915,478.82682 L 74.288676,479.9987 L 73.429298,480.62371 L 69.054282,480.38933 L 67.491777,478.82682 L 66.710524,477.42057 z M 86.710595,496.56126 L 88.429345,498.82689 L 89.210605,499.7644 L 90.694985,500.31127 L 91.241855,498.90502 L 90.304355,497.18626 L 87.726225,495.23313 L 86.710595,495.38938 L 86.710595,496.56126 z M 85.304335,504.92066 L 87.023095,507.96755 L 88.194975,509.84256 L 86.788715,510.07693 L 85.538715,508.90505 C 85.538715,508.90505 84.835585,507.4988 84.835585,507.10817 C 84.835585,506.71755 84.835585,504.99879 84.835585,504.99879 L 85.304335,504.92066 z" />
<path id="Nevada" onclick="Check(evt)" onmouseover="On(evt)" onmouseout="Off(evt)" d="M 153.62525,323.29247 L 173.90327,327.65271 L 183.29454,329.53097 L 192.24386,331.29873 L 198.63714,332.87739 L 198.09746,338.54615 L 194.67241,355.29533 L 190.71618,374.60692 L 188.83793,384.00032 L 186.7387,396.83788 L 183.68972,412.70317 L 180.28592,427.86306 L 178.38341,437.7027 L 176.00036,453.91213 L 175.55842,454.9745 L 174.52156,457.36056 L 172.71131,457.25007 L 171.65107,454.59842 L 168.99942,454.11185 L 167.65022,453.16211 L 165.68059,453.47232 L 164.7967,454.17986 L 163.53888,455.48444 L 163.11819,462.22405 L 162.58699,463.88133 L 162.18968,475.56942 L 160.91183,477.22621 L 159.09821,475.04037 L 145.06656,453.05375 L 126.28402,424.99044 L 104.29741,392.28673 L 92.330295,374.32659 L 93.911767,367.97992 L 100.65139,342.89971 L 108.27489,312.60101 L 140.75763,320.47114 L 154.01589,323.34376" />
<path id="Utah" onclick="Check(evt)" onmouseover="On(evt)" onmouseout="Off(evt)" d="M 262.17912,450.61872 L 238.361,447.26166 L 212.68587,442.53203 L 179.99124,436.71356 L 181.52677,427.86306 L 184.62036,413.16849 L 187.82444,397.14809 L 189.92367,384.00032 L 191.80192,375.38245 L 195.44794,355.60554 L 198.87299,338.70126 L 199.95023,333.31509 L 212.24174,335.49718 L 223.84272,337.48592 L 233.78641,339.25369 L 241.85185,340.57952 L 245.40653,341.04265 L 243.97142,351.31729 L 241.73717,364.04908 L 249.28355,364.94638 L 265.14097,366.69077 L 273.07714,367.51777 L 271.01796,388.75109 L 267.92437,410.56136 L 264.2973,437.45625 L 262.68692,448.1923 L 262.17912,450.61872 z" />
<path id="Arizona" onclick="Check(evt)" onmouseover="On(evt)" onmouseout="Off(evt)" d="M 150.8118,526.19515 L 148.27271,528.28125 L 147.96021,529.6875 L 148.42896,530.625 L 166.71021,540.9375 L 178.42896,548.28125 L 192.64771,556.5625 L 208.89771,566.25 L 220.77271,568.59375 L 245.05967,571.20814 L 247.50579,559.11977 L 251.13286,532.7886 L 257.86462,481.67727 L 261.9794,451.74794 L 238.20589,448.1923 L 211.91034,443.77288 L 179.6,437.66664 L 176.77589,455.15298 L 176.33395,455.59492 L 174.67667,458.13609 L 172.24599,458.0256 L 171.03065,455.37395 L 168.379,455.04249 L 167.49511,453.93764 L 166.61123,453.93764 L 165.72734,454.49007 L 163.84909,455.48444 L 163.73861,462.22405 L 163.51763,463.88133 L 162.96521,476.03474 L 161.5289,478.13396 L 160.97647,481.33804 L 163.62812,486.08892 L 164.84346,491.72368 L 165.61686,492.71805 L 166.61123,493.27048 L 166.50074,495.48019 L 164.95395,496.80601 L 161.63938,498.46329 L 159.76113,500.34155 L 158.32482,503.87708 L 157.77239,508.62796 L 155.01025,511.27961 L 153.02151,511.94253 L 152.91103,517.57729 L 152.46908,519.23457 L 152.91103,520.00797 L 156.44656,520.56039 L 155.89413,523.21205 L 154.45782,525.31127 L 150.8118,526.19515 z" />
<path id="Colorado" onclick="Check(evt)" onmouseover="On(evt)" onmouseout="Off(evt)" d="M 383.624,399.86545 L 385.01569,379.29603 L 353.99477,376.33416 L 330.35054,373.72497 L 294.33258,369.74752 L 274.33468,367.31687 L 271.79349,388.75109 L 268.6999,410.40625 L 265.07283,437.45625 L 263.61756,448.1923 L 263.37535,450.86307 L 296.16617,454.53034 L 332.64377,458.65411 L 363.53472,461.71403 L 379.58708,462.53204 z" />
<path id="New Mexico" onclick="Check(evt)" onmouseover="On(evt)" onmouseout="Off(evt)" d="M 290.93695,568.28239 L 290.3083,562.36421 L 298.66279,562.87203 L 327.19136,565.83387 L 354.63426,567.22557 L 356.53376,545.64053 L 360.13513,491.63462 L 361.21664,472.89431 L 363.16289,473.23214 L 363.14908,462.5278 L 332.02335,460.20517 L 296.32128,455.92629 L 263.0099,451.94881 L 258.95036,481.67727 L 252.2186,533.09881 L 248.59153,559.11977 L 246.61073,571.98367 L 261.55396,573.90625 L 262.80396,564.21875 L 278.89771,566.71875 L 290.93695,568.28239 z" />
<path id="Texas" onclick="Check(evt)" onmouseover="On(evt)" onmouseout="Off(evt)" d="M 362.77836,473.88015 L 384.70974,474.92975 L 414.76181,476.03461 L 412.50534,498.70539 L 412.21851,516.25134 L 412.28437,518.26346 L 416.48282,521.9541 L 418.16135,522.74874 L 419.91001,522.99309 L 420.57292,521.77988 L 421.43344,522.61701 L 423.11196,523.08233 L 424.66302,522.37693 L 425.76361,522.77212 L 425.47678,526.06331 L 429.60937,527.05981 L 432.19515,527.85446 L 436.01753,528.36226 L 438.13799,530.13003 L 441.27834,528.60661 L 443.97249,528.95931 L 445.93785,531.65346 L 446.97683,531.96367 L 446.82173,533.86317 L 449.80697,534.99139 L 452.482,533.247 L 453.93955,533.5997 L 456.21513,533.75481 L 456.6337,535.56507 L 461.11898,537.48794 L 463.68566,537.29035 L 465.60854,533.31287 L 465.93786,533.31287 L 467.04272,535.1465 L 471.33041,536.11962 L 474.55573,537.29035 L 477.73857,538.01913 L 479.81655,537.29035 L 480.63457,534.85967 L 484.21259,534.85967 L 486.04623,535.58844 L 489.00809,534.06502 L 489.64763,534.06502 L 490.00033,535.1465 L 494.13292,535.1465 L 496.45525,533.93329 L 498.06791,534.22012 L 499.43623,536.03039 L 502.2196,537.64304 L 505.62342,538.68204 L 508.27507,540.05249 L 510.63988,541.62052 L 513.82271,540.76002 L 515.69884,541.70977 L 516.19284,551.51004 L 516.51686,560.8875 L 517.17977,570.10242 L 517.68758,574.01403 L 520.27337,578.45683 L 521.31236,582.38756 L 525.04549,588.46639 L 525.57667,591.24978 L 526.08448,592.2229 L 525.42156,599.4682 L 522.85916,603.70913 L 523.78553,606.4734 L 523.43282,608.90408 L 522.61481,615.97516 L 521.28898,618.60344 L 521.87299,622.84287 L 516.39771,624.375 L 506.86646,628.75 L 505.92896,630.625 L 503.42896,632.5 L 501.39771,633.90625 L 500.14771,634.6875 L 494.67896,639.84375 L 492.02271,641.875 L 486.86646,645 L 481.39771,647.34375 L 475.30396,650.625 L 473.58521,652.03125 L 467.96021,655.46875 L 464.67896,656.09375 L 460.92896,661.40625 L 457.02271,661.71875 L 456.08521,663.59375 L 458.27271,665.46875 L 456.86646,670.78125 L 455.61646,675.15625 L 454.52271,678.90625 L 453.74146,683.28125 L 454.52271,685.625 L 456.24146,692.34375 L 457.17896,698.28125 L 458.89771,700.9375 L 457.96021,702.34375 L 454.99146,704.21875 L 449.52271,700.46875 L 444.21021,699.375 L 442.96021,699.84375 L 439.83521,699.21875 L 435.77271,696.25 L 430.77271,695.15625 L 423.42896,691.875 L 421.39771,688.125 L 420.14771,681.875 L 417.02271,680 L 416.39771,677.8125 L 417.02271,677.1875 L 417.33521,673.90625 L 416.08521,673.28125 L 415.46021,672.34375 L 416.71021,668.125 L 415.14771,665.9375 L 412.02271,664.6875 L 408.74146,660.46875 L 405.30396,654.0625 L 401.24146,651.5625 L 401.39771,649.6875 L 396.24146,637.8125 L 395.46021,633.75 L 393.74146,631.875 L 393.58521,630.46875 L 387.80396,625.3125 L 385.30396,622.34375 L 385.30396,621.25 L 382.80396,619.21875 L 376.24146,618.125 L 369.05396,617.5 L 366.08521,615.3125 L 361.71021,617.03125 L 358.27271,618.4375 L 356.08521,621.5625 L 355.14771,625.15625 L 350.92896,631.09375 L 348.58521,633.4375 L 346.08521,632.5 L 344.36646,631.40625 L 342.49146,630.78125 L 338.74146,628.59375 L 338.74146,627.96875 L 337.02271,626.09375 L 332.02271,624.0625 L 324.83521,616.5625 L 322.64771,612.03125 L 322.64771,604.21875 L 319.52271,597.96875 L 319.05396,595.3125 L 317.49146,594.375 L 316.39771,592.34375 L 311.55396,590.3125 L 310.30396,588.75 L 303.42896,581.09375 L 302.17896,577.96875 L 297.6477,575.78124 L 296.24145,571.56246 L 293.74143,568.74997 L 291.86644,568.28125 L 291.23894,563.76016 L 298.973,564.42309 L 327.03625,567.07472 L 355.09958,568.62152 L 357.30929,545.64053 L 361.06577,491.94483 L 362.61259,473.82494 L 363.93842,473.85257 M 459.60251,699.99946 L 459.05564,693.12444 L 456.39938,686.17129 L 455.8525,679.37439 L 457.33688,671.40562 L 460.54002,664.76497 L 463.8994,659.53057 L 466.94629,656.09306 L 467.57129,656.32744 L 462.9619,662.73371 L 458.74314,669.06186 L 456.79,675.46813 L 456.4775,680.46815 L 457.33688,686.40567 L 459.83689,693.35882 L 460.30564,698.35883 L 460.46189,699.76509 L 459.60251,699.99946 z" />
<path id="Oklahoma" onclick="Check(evt)" onmouseover="On(evt)" onmouseout="Off(evt)" d="M 380.45605,463.43925 L 370.12561,462.99736 L 363.9108,462.5278 L 364.15939,462.72114 L 363.4795,472.79443 L 384.70974,474.15422 L 415.69245,475.41419 L 413.43598,499.0156 L 412.99404,516.25134 L 413.21501,517.79814 L 417.41346,521.33368 L 419.4022,522.43853 L 420.06512,522.21756 L 420.72803,520.22882 L 422.05386,521.99659 L 424.0426,521.99659 L 424.0426,520.67076 L 426.69425,521.99659 L 426.25231,525.7531 L 430.22979,525.97407 L 432.66047,527.07893 L 436.6375,527.74184 L 439.06863,529.50961 L 441.27834,527.52087 L 444.59291,528.18378 L 447.02359,531.49835 L 447.90747,531.49835 L 447.90747,533.70806 L 450.11718,534.37097 L 452.32689,532.16126 L 454.09466,532.82417 L 456.52534,532.82417 L 457.40923,535.25486 L 462.04962,537.02262 L 463.37545,536.35971 L 465.14322,532.38223 L 466.24807,532.38223 L 467.35293,534.37097 L 471.33041,535.03388 L 474.86594,536.35971 L 477.73857,537.2436 L 479.50634,536.35971 L 480.16925,533.92903 L 484.3677,533.92903 L 486.35644,534.81291 L 489.00809,532.82417 L 490.11295,532.82417 L 490.77586,534.37097 L 494.75334,534.37097 L 496.30014,532.38223 L 498.06791,532.82417 L 500.05665,535.25486 L 503.15024,537.02262 L 506.24384,537.90651 L 508.11996,538.98799 L 507.74388,503.01657 L 506.41804,492.40986 L 506.26295,483.83446 L 504.87125,477.51554 L 504.1191,470.57619 L 504.05324,466.88769 L 492.3226,467.19576 L 447.46581,466.75383 L 403.93427,464.76507 L 380.45605,463.43925 z" />
<path id="Arkansas" onclick="Check(evt)" onmouseover="On(evt)" onmouseout="Off(evt)" d="M 588.84904,485.07202 L 585.13051,485.97831 L 579.16429,485.53636 L 579.8272,482.66374 L 582.9208,480.01209 L 583.36274,477.80238 L 581.59497,474.92975 L 570.98836,475.37169 L 550.87999,476.25558 L 528.34094,476.91849 L 505.80189,477.36043 L 507.34869,483.98957 L 507.34868,491.94454 L 508.67452,502.55125 L 508.89549,539.12185 L 511.1052,541.0001 L 513.97782,539.67428 L 516.62948,540.77913 L 517.04542,550.75693 L 539.16529,550.61963 L 557.39783,549.84542 L 567.18065,549.6545 L 568.28793,547.63409 L 568.01091,544.20338 L 566.24638,541.33075 L 567.79156,539.89525 L 566.24638,537.4678 L 566.90768,535.04197 L 568.23027,529.62414 L 570.66418,527.63055 L 570.00127,525.42245 L 573.53681,520.23044 L 576.18846,518.90785 L 576.07878,517.46426 L 575.7449,515.69972 L 578.50623,510.28836 L 580.82885,509.07383 L 581.20012,505.76092 L 582.91153,504.56077 L 583.73935,500.46822 L 582.44278,496.592 L 586.34904,494.29483 L 586.88089,492.34321 L 588.07482,488.21846 L 588.84904,485.07202 z" />
<path id="Louisiana" onclick="Check(evt)" onmouseover="On(evt)" onmouseout="Off(evt)" d="M 599.72251,608.82814 L 598.72751,606.29948 L 597.62265,603.31071 L 594.41777,599.88809 L 595.30326,593.36377 L 595.18874,592.26054 L 593.96935,592.59119 L 586.01439,593.47345 L 561.82372,593.91702 L 561.16243,591.60248 L 562.04469,583.42978 L 565.24959,577.68292 L 570.11256,569.28278 L 569.55771,566.96501 L 570.77224,566.30695 L 571.21581,564.41981 L 569.00609,562.43268 L 568.89804,560.55524 L 567.12865,556.35517 L 566.68751,550.61315 L 557.28815,550.72283 L 538.72658,551.60672 L 517.26477,551.63434 L 517.29239,560.8875 L 517.9553,569.94731 L 518.61822,573.70382 L 521.0489,577.6813 L 521.93278,582.54267 L 526.13123,587.84597 L 526.3522,590.93957 L 527.01512,591.60248 L 526.3522,599.77841 L 523.47958,604.63977 L 525.02638,606.62851 L 524.36346,609.05919 L 523.70055,616.13027 L 522.37472,619.22386 L 522.49308,622.71927 L 527.02271,621.25 L 534.83521,620.9375 L 544.83521,624.375 L 551.08521,625.46875 L 554.67896,624.0625 L 557.80396,625.15625 L 560.92896,626.09375 L 561.71021,624.0625 L 558.58521,622.96875 L 556.08521,623.4375 L 553.42896,621.875 C 553.42896,621.875 553.58521,620.625 554.21021,620.46875 C 554.83521,620.3125 557.17896,619.53125 557.17896,619.53125 L 558.89771,620.9375 L 560.61646,620 L 563.74146,620.625 L 565.14771,622.96875 L 565.46021,625.15625 L 569.83521,625.46875 L 571.55396,627.1875 L 570.77271,628.75 L 569.52271,629.53125 L 571.08521,631.09375 L 579.21021,634.53125 L 582.64771,633.28125 L 583.58521,630.9375 L 586.08521,630.3125 L 587.80396,628.90625 L 589.05396,629.84375 L 589.83521,632.65625 L 587.64771,633.4375 L 588.27271,634.0625 L 591.55396,632.8125 L 593.74146,629.53125 L 594.52271,629.0625 L 592.49146,628.75 L 593.27271,627.1875 L 593.11646,625.78125 L 595.14771,625.3125 L 596.24146,624.0625 L 596.86646,624.84375 C 596.86646,624.84375 596.71021,627.8125 597.49146,627.8125 C 598.27271,627.8125 601.55396,628.4375 601.55396,628.4375 L 605.46021,630.3125 L 606.39771,631.71875 L 609.21021,631.71875 L 610.30396,632.65625 L 612.49146,629.6875 L 612.49146,628.28125 L 611.24146,628.28125 L 607.96021,625.625 L 602.33521,624.84375 L 599.21021,622.65625 L 600.30396,620 L 602.49146,620.3125 L 602.64771,619.6875 L 600.92896,618.75 L 600.92896,618.28125 L 604.05396,618.28125 L 605.77271,615.3125 L 604.52271,613.4375 L 604.21021,610.78125 L 602.80396,610.9375 L 600.92896,612.96875 L 600.30396,615.46875 L 597.33521,614.84375 L 596.39771,613.125 L 598.11646,611.25 L 600.06958,609.53126 L 599.72251,608.82814 z" />
<path id="Tennessee" onclick="Check(evt)" onmouseover="On(evt)" onmouseout="Off(evt)" d="M 691.39878,461.56191 L 641.24246,466.40567 L 626.01034,468.12442 L 621.5438,468.61997 L 617.80492,468.59317 L 617.80492,472.34318 L 609.67991,472.81193 L 602.96115,473.43693 L 592.23649,473.48807 L 591.98061,479.1282 L 589.914,485.19371 L 588.95223,488.10878 L 587.64863,492.34321 L 587.33613,494.84321 L 583.42987,497.03071 L 584.83612,500.46822 L 583.89862,504.68697 L 582.96265,505.4502 L 589.97585,505.26239 L 613.25714,503.38739 L 618.41344,503.23114 L 626.22591,502.76238 L 653.10095,500.26238 L 662.93131,499.48113 L 671.06972,498.54363 L 679.19473,497.44988 L 683.88224,496.66863 L 683.75603,492.31015 L 685.47478,490.9039 L 688.13104,490.2789 L 688.75604,486.68514 L 692.81855,484.02889 L 696.56855,482.62263 L 700.63106,479.18513 L 704.84981,477.15388 L 705.69416,473.74641 L 709.88288,469.99641 L 710.50788,469.84016 C 710.50788,469.84016 710.50788,470.93391 711.28913,470.93391 C 712.07038,470.93391 713.16414,471.24641 713.16414,471.24641 L 715.35164,467.8089 L 717.38289,467.1839 L 719.57039,467.4964 L 721.1329,464.0589 L 723.17766,461.88792 L 723.75609,460.95344 L 723.92656,457.15292 L 722.49258,456.8744 L 720.14883,458.74941 L 712.49256,458.90566 L 700.89869,460.74273 L 691.39878,461.56191 z" />
<path id="Mississippi" onclick="Check(evt)" onmouseover="On(evt)" onmouseout="Off(evt)" d="M 621.33096,603.00464 L 621.08521,604.21875 L 616.08521,604.21875 L 614.67896,603.4375 L 612.64771,603.125 L 606.08521,605 L 604.36646,604.21875 L 601.86646,608.28125 L 600.80082,609.03323 L 599.7146,606.62851 L 598.60974,602.872 L 595.29518,599.77841 L 596.40003,592.48636 L 595.73712,591.60248 L 593.96935,591.82345 L 586.01439,592.48636 L 562.59146,593.14928 L 562.14952,591.60248 L 562.81243,583.86849 L 566.127,577.90227 L 571.20933,569.06343 L 570.32545,567.07469 L 571.4303,567.07469 L 572.09322,563.9811 L 569.8835,562.21333 L 570.10448,560.44556 L 568.11574,556.02614 L 567.83952,550.86094 L 569.16534,548.29215 L 568.77865,544.0937 L 567.45282,541.22107 L 568.77865,539.89525 L 567.45282,537.90651 L 567.89477,536.13874 L 568.77865,530.17252 L 571.65127,527.52087 L 570.98836,525.53213 L 574.5239,520.44979 L 577.17555,519.56591 L 577.17555,517.13523 L 576.51264,515.8094 L 579.16429,510.72707 L 581.81594,509.62221 L 581.91978,506.32433 L 590.30488,506.24948 L 613.58617,504.37448 L 618.01345,504.15351 L 618.02126,510.31198 L 618.17751,526.40576 L 617.39626,556.4058 L 617.24001,569.99957 L 619.89627,588.1246 L 621.33096,603.00464 z" />
<path id="Alabama" onclick="Check(evt)" onmouseover="On(evt)" onmouseout="Off(evt)" d="M 622.33521,602.8125 L 620.77368,588.1246 L 618.11742,569.99957 L 618.27367,556.4058 L 619.05492,526.40576 L 618.89867,510.31198 L 619.05823,504.10775 L 626.55494,503.74947 L 653.42998,501.24947 L 662.0539,500.60944 L 661.91105,502.71882 L 662.0673,504.75008 L 662.6923,508.03133 L 665.97356,515.68759 L 668.31731,525.21886 L 669.72356,531.15637 L 671.28606,535.84387 L 672.69232,542.56263 L 674.72357,548.65639 L 677.22357,551.93765 L 677.69232,555.2189 L 679.56733,556.00015 L 679.72358,558.03141 L 678.00482,562.71891 L 677.53607,565.84392 L 677.37982,567.71892 L 678.94233,571.93768 L 679.25483,577.09393 L 678.47357,579.43769 L 679.09858,580.21894 L 680.50483,581.00019 L 681.50543,583.45061 L 675.41167,583.45061 L 668.84916,584.07561 L 644.16162,586.88811 L 634.09851,588.24779 L 634.00536,591.87461 L 635.72411,593.59336 L 638.22411,595.46836 L 638.78553,603.13821 L 633.42896,605.625 L 630.77271,605.3125 L 633.42896,603.4375 L 633.42896,602.5 L 630.46021,596.71875 L 628.27271,596.09375 L 626.86646,600.3125 L 625.61646,602.96875 L 624.99146,602.8125 L 622.33521,602.8125 z" />
<path id="Georgia" onclick="Check(evt)" onmouseover="On(evt)" onmouseout="Off(evt)" d="M 684.21127,497.65572 L 679.52376,498.43697 L 671.39875,499.53072 L 663.11749,500.39009 L 663.11749,502.49947 L 663.27374,504.53073 L 663.89874,507.81198 L 667.18,515.46824 L 669.52375,524.99951 L 670.93,530.93702 L 672.4925,535.62452 L 673.89876,542.34328 L 675.93001,548.43704 L 678.43001,551.7183 L 678.89876,554.99955 L 680.77377,555.7808 L 680.93002,557.81206 L 679.21126,562.49956 L 678.74251,565.62457 L 678.58626,567.49957 L 680.14877,571.71833 L 680.46127,576.87458 L 679.68001,579.21834 L 680.30502,579.99959 L 681.71127,580.78084 L 682.33627,584.06209 L 684.83627,587.8121 L 686.24252,589.21835 L 693.89879,589.3746 L 704.35642,588.7496 L 725.14883,587.4996 L 730.41229,586.8478 L 734.83635,586.8746 L 734.9926,589.6871 L 737.4926,590.46835 L 737.8051,586.2496 L 736.2426,581.87459 L 737.33635,580.31209 L 742.96136,581.09334 L 747.77218,581.40049 L 747.02271,575.3125 L 749.21021,565.625 L 750.61646,561.5625 L 750.14771,559.0625 L 753.37052,553.02719 L 752.8773,551.72075 L 751.02793,552.40174 L 748.52793,551.15173 L 747.90293,549.12048 L 746.65293,545.68298 L 744.46542,543.65172 L 741.96542,543.02672 L 740.40292,538.33922 L 737.5758,532.21624 L 733.5133,530.34123 L 731.48204,528.46623 L 730.23204,525.96623 L 728.20079,524.09122 L 726.01329,522.84122 L 723.82578,520.02872 L 720.85703,517.84122 L 716.48202,516.12246 L 716.01327,514.71621 L 713.66952,511.90371 L 713.20077,510.49745 L 709.91951,505.75374 L 706.63826,505.90999 L 702.64657,502.96822 L 701.39657,501.71822 L 701.08407,499.99947 L 701.86532,498.12447 L 704.13825,496.93067 L 703.04227,495.74936 L 703.11755,495.46821 L 697.49254,496.40571 L 690.77378,497.18696 L 684.21127,497.65572 z" />
<path id="North Carolina" onclick="Check(evt)" onmouseover="On(evt)" onmouseout="Off(evt)" d="M 821.93245,440.14615 L 823.58521,444.6875 L 827.02271,450.9375 L 829.36646,453.28125 L 829.99146,455.46875 L 827.64771,455.625 L 828.42896,456.25 L 828.11646,460.3125 L 825.61646,461.5625 L 824.99146,463.59375 L 823.74146,466.40625 L 820.14771,467.96875 L 817.80396,467.65625 L 816.39771,467.5 L 814.83521,466.25 L 815.14771,467.5 L 815.14771,468.4375 L 817.02271,468.4375 L 817.80396,469.6875 L 815.92896,475.78125 L 819.99146,475.78125 L 820.61646,477.34375 L 822.80396,475.15625 L 824.05396,474.6875 L 822.17896,478.125 L 819.21021,482.8125 L 817.96021,482.8125 L 816.86646,482.34375 L 814.21021,482.96875 L 809.21021,485.3125 L 802.96021,490.46875 L 799.67896,495 L 797.80396,501.25 L 797.33521,503.59375 L 792.80396,504.0625 L 787.53333,505.35442 L 777.91981,497.42642 L 765.73229,490.08266 L 762.91979,489.3014 L 750.73227,490.70766 L 746.59894,491.4327 L 745.03644,488.30769 L 742.1655,486.26183 L 726.22797,486.73058 L 719.19671,487.51183 L 710.4467,491.88684 L 704.50919,494.38684 L 702.94669,494.69934 L 697.32168,495.63684 L 690.60292,496.41809 L 684.04041,496.88685 L 684.52377,492.96821 L 686.24252,491.56196 L 688.89878,490.93696 L 689.52378,487.3432 L 693.58629,484.68695 L 697.33629,483.28069 L 701.3988,479.84319 L 705.61755,477.81194 L 706.24255,474.84318 L 709.99256,471.09318 L 710.61756,470.93693 C 710.61756,470.93693 710.61756,472.03068 711.39881,472.03068 C 712.18006,472.03068 713.27382,472.34318 713.27382,472.34318 L 715.46132,468.90567 L 717.49257,468.28067 L 719.68007,468.59317 L 721.24258,465.15567 L 724.05508,462.65566 L 724.52383,460.62441 L 724.52383,456.79628 L 728.89884,457.49941 L 735.7961,456.2494 L 751.08637,454.3744 L 767.6489,451.8744 L 786.90389,448.00769 L 805.97677,443.98226 L 816.96087,441.27942 L 821.93245,440.14615 z M 825.69753,472.02993 L 828.19754,469.60804 L 831.24442,467.10803 L 832.7288,466.48303 L 832.88505,464.5299 L 832.26005,458.59238 L 830.8538,456.32675 L 830.22879,454.52987 L 830.93192,454.29549 L 833.58818,459.60801 L 833.97881,463.9049 L 833.82256,467.18616 L 830.5413,468.67054 L 827.80691,471.0143 L 826.71316,472.18618 L 825.69753,472.02993 z" />
<path id="South Carolina" onclick="Check(evt)" onmouseover="On(evt)" onmouseout="Off(evt)" d="M 753.42896,550.78125 L 751.71137,551.71830 L 749.21137,550.46829 L 748.58637,548.43704 L 747.33637,544.99954 L 745.14886,542.96828 L 742.64886,542.34328 L 741.08636,537.65578 L 738.43010,531.87452 L 734.36760,529.99951 L 732.33634,528.12451 L 731.08634,525.62451 L 729.05509,523.74950 L 726.86759,522.49950 L 724.68008,519.68700 L 721.71133,517.49950 L 717.33632,515.78074 L 716.86757,514.37449 L 714.52382,511.56199 L 714.05507,510.15573 L 710.77381,505.15573 L 707.49256,505.31198 L 703.58630,502.96822 L 702.33630,501.71822 L 702.02380,499.99947 L 702.80505,498.12447 L 704.99255,497.18696 L 704.68005,495.15571 L 710.61756,492.65571 L 719.36757,488.28070 L 726.39883,487.49945 L 742.33636,487.03070 L 744.52386,488.90570 L 746.08636,492.03071 L 750.30512,491.56196 L 762.49264,490.15570 L 765.30514,490.93696 L 777.49266,498.28072 L 787.26244,506.13059 L 782.02271,511.40625 L 779.52271,517.34375 L 779.05396,523.43750 L 777.49146,524.21875 L 776.39771,526.87500 L 774.05396,527.50000 L 772.02271,530.93750 L 769.36646,533.59375 L 767.17896,536.87500 L 765.61646,537.65625 L 762.17896,540.93750 L 759.36646,541.09375 L 760.30396,544.21875 L 755.46021,549.53125 L 753.42896,550.78125 z" />
<path id="Florida" onclick="Check(evt)" onmouseover="On(evt)" onmouseout="Off(evt)" d="M 747.79051,582.26014 L 749.98034,589.3338 L 753.58521,598.75 L 758.74146,607.8125 L 762.33521,613.90625 L 767.02271,619.21875 L 770.92896,622.8125 L 772.49146,625.625 L 771.39771,626.875 L 770.61646,628.125 L 773.42896,635.3125 L 776.24146,638.125 L 778.74146,643.28125 L 782.17896,648.90625 L 786.55396,656.875 L 787.80396,664.21875 L 788.27271,675.78125 L 788.89771,677.5 L 788.58521,680.78125 L 786.24146,682.03125 L 786.55396,683.90625 L 785.92896,685.78125 L 786.24146,688.125 L 786.71021,690 L 784.05396,693.125 L 781.08521,694.53125 L 777.33521,694.6875 L 775.92896,696.25 L 773.58521,697.1875 L 772.33521,696.71875 L 771.24146,695.78125 L 770.92896,692.96875 L 770.14771,689.6875 L 766.86646,684.6875 L 763.42896,682.5 L 759.67896,682.1875 L 758.89771,683.4375 L 755.92896,679.21875 L 755.30396,675.78125 L 752.80396,671.875 L 751.08521,670.78125 L 749.52271,672.8125 L 747.80396,672.5 L 745.77271,667.65625 L 742.96021,663.90625 L 740.14771,658.75 L 737.64771,655.78125 L 734.21021,652.1875 L 736.24146,649.84375 L 739.36646,644.53125 L 739.21021,642.96875 L 734.83521,642.03125 L 733.27271,642.65625 L 733.58521,643.28125 L 736.08521,644.21875 L 734.67896,648.59375 L 733.89771,649.0625 L 732.17896,645.15625 L 730.92896,640.46875 L 730.61646,637.8125 L 732.02271,633.28125 L 732.02271,624.0625 L 729.05396,620.46875 L 727.80396,617.5 L 722.80396,616.25 L 720.92896,615.625 L 719.36646,613.125 L 716.08521,611.5625 L 714.99146,608.28125 L 712.33521,607.34375 L 709.99146,603.75 L 705.92896,602.34375 L 703.11646,600.9375 L 700.61646,600.9375 L 696.71021,601.71875 L 696.55396,603.59375 L 697.33521,604.53125 L 696.86646,605.625 L 693.89771,605.46875 L 690.30396,608.90625 L 686.86646,610.78125 L 683.11646,610.78125 L 679.99146,612.03125 L 679.67896,609.375 L 678.11646,607.5 L 675.30396,606.40625 L 673.74146,605 L 665.92896,601.25 L 658.58521,599.53125 L 654.36646,600.15625 L 648.58521,600.625 L 642.80396,602.65625 L 639.44116,603.2487 L 639.2112,595.46836 L 636.7112,593.59336 L 634.99245,591.87461 L 635.30495,588.90585 L 645.14871,587.65585 L 669.83625,584.84335 L 676.39876,584.21835 L 681.65283,584.48924 L 684.15283,588.23925 L 685.55908,589.6455 L 693.38621,590.14347 L 703.84384,589.51847 L 724.63625,588.26847 L 729.89971,587.61667 L 734.32377,587.64347 L 734.48002,590.45597 L 738.17604,591.23722 L 738.48854,586.59132 L 736.92604,582.21631 L 737.84893,581.50811 L 742.7905,581.94764 L 747.79051,582.26014 z M 759.91605,710.23387 L 762.25981,709.60887 L 763.50981,709.3745 L 764.91607,707.10886 L 767.1817,705.54636 L 768.43171,706.01511 L 770.07234,706.32761 L 770.46296,707.34324 L 767.10358,708.51512 L 763.04106,709.92137 L 760.77543,711.09325 L 759.91605,710.23387 z M 772.96297,705.39011 L 774.13485,706.40574 L 776.79111,704.37448 L 781.94738,700.31197 L 785.54114,696.56195 L 787.96302,690.15568 L 788.90053,688.51505 L 789.05678,685.23379 L 788.35365,685.70254 L 787.41615,688.43692 L 786.00989,692.89006 L 782.88488,697.96821 L 778.66612,702.03072 L 775.38486,703.90573 L 772.96297,705.39011 z" />

</g>


<path id="?" style="fill:#ccc" d="M 801.75695,253.84384 L 800.67992,252.20717 L 799.66604,251.36463 L 800.7653,249.74841 L 802.99814,251.25941 L 801.75695,253.84384 z" />
<g transform="translate(-18.06808,-130.0723)">
  <path id="Border1" style="fill:none;fill-opacity:0.75;stroke:#a9a9a9;stroke-width:1.875;stroke-dasharray:none;stroke-opacity:1" d="M 229.21212,623.12334 L 229.68087,678.43625 L 264.68114,723.74902 M 18.429285,554.99783 L 161.86786,555.31033 L 229.52462,623.59209 L 314.68151,623.74834 L 368.43191,677.18624 L 368.11941,723.43652" />
</g>



<g font-family="sans-serif" font-weight="bold"  fill="#66f">
  <text id="Feedback" font-size="30" x="470" y="560"> </text>
  <text id="Score" font-size="20" x="470" y="590"> </text>
  <text id="TopScore" font-size="20" x="600" y="590"> </text>
</g>

<g id="Splash" font-family="sans-serif" font-weight="normal" font-size="30" fill="#66f">

<rect id="SplashOutline" x="50" y="50" rx="50" ry="50" width="500" height="400" style="stroke:#000;stroke-width:3;fill:#fff;fill-opacity:0.6" />

<text id="Inst1" x="100" y="100">Click on the state specified</text>
<text id="Inst2" x="100" y="150">at the bottom of the screen.</text>
<text id="Inst3" x="100" y="250">If you select the wrong state</text>
<text id="Inst4" x="100" y="300">the correct answer will be</text>
<text id="Inst5" x="100" y="350">highlighted in green.</text>

<g id="Begin" onmouseover="BgnOn()" onmouseout="BgnOff()" onclick="BgnClick()">
  <rect id="BgnOutline" x="400" y="375" rx="10" ry="10" width="100" height="50" style="stroke:#000;fill:#fff;" />
  <text id="BgnText" x="410" y="410">Begin</text>
</g>

</g>

</svg>
