<svg xmlns="http://www.w3.org/2000/svg" viewBox="0 0 100 100">
  <g stroke="#000" stroke-linejoin="round">
    <path fill="#DDD" d="M27,42c-8-53,55-53,47,0h-8 c10-41-40-41-30,0h-9z"/>
    <path fill="#CB9" d="M23,91v-50c18-3,36-2,55,0v50c-19,3-37,2-55,0z"/>
    <path fill="#EDA" d="M23,91v-50c18-3,36-2,55,0z"/>
    <path fill="#A87" d="M78,41v50c-19,3-37,2-55,0z"/>
  </g>
  <path fill="#EEE" d="M30,21c5-10,7-17,23-16c-10,0-18,14-23,16"/>
  <path fill="#CB9" d="M78,41c-50,4-50,0-55,50c50-5,50,0,55-50z"/>
  <g transform="translate(37,50) scale(0.3)">
    <path d="M57,11c40-22,42-2,35,12c8-27-15-20-30-11z" fill="#47b"/>
    <path d="M36,56h56c4-60-83-60-86-6c13-16,26-26,36-30l-29,53c20,23,64,26,79-12h-30c0,14-26,12-25-5zM37,43c0-17,26-17,26,0zM39,89c-10,7-42,15-26-16l29-52c-15,6-36,40-37,48c-12,35,14,37,37,20" fill="#35F"/>
  </g>
</svg>
