<?xml version="1.0" encoding="UTF-8"?>
<!-- Aspect ratio is 1.75:1 -->
<svg xmlns="http://www.w3.org/2000/svg" xmlns:xlink="http://www.w3.org/1999/xlink" xmlns:drag="http://www.codedread.com/dragsvg" id="svgsvg" version="1.1" viewBox="-50 -30 800 450" onload="loaded();" smiling="fake">
  <title>Interactive Web Statistics via SVG</title>

  <script xlink:href="webstats/smil.user.js"/>
  <script xlink:href="webstats/webstats-data.php"/>
  <script xlink:href="webstats/webstats-points-of-interest.js"/>
  <script xlink:href="webstats/dragsvg.js"/>
  <script xlink:href="webstats/webstats2.js"/>

  <defs>
    <!-- Background Gradients -->
    <linearGradient id="startButt" x1="0.0" y1="0.0" x2="0.0" y2="1.0">
        <stop offset="0.0" stop-color="#040" stop-opacity="1.0"/>
        <stop offset="1.0" stop-color="#0b0" stop-opacity="1.0"/>
    </linearGradient>

    <linearGradient id="stopButt" x1="0.0" y1="0.0" x2="0.0" y2="1.0">
        <stop offset="0.0" stop-color="#600" stop-opacity="1.0"/>
        <stop offset="1.0" stop-color="#d00" stop-opacity="1.0"/>
    </linearGradient>

    <!-- Top Highlight -->
    <linearGradient id="tophigh" x1="0.0" y1="0.0" x2="0.0" y2="1.0">
        <stop offset="0.0" stop-color="#ffffff" stop-opacity="0.7"/>
        <stop offset="0.9" stop-color="#ffffff" stop-opacity="0.0"/>
    </linearGradient>

    <!-- Bottom Gradient -->
    <linearGradient id="bothigh" x1="0.0" y1="0.0" x2="0.0" y2="1.0">
        <stop offset="0.2" stop-color="#ffffff" stop-opacity="0.0"/>
        <stop offset="1.0" stop-color="#ffffff" stop-opacity="0.6"/>
    </linearGradient>
    
    <!-- Scrollbar Gradient -->
    <linearGradient id="scrollbargrad" x1="0%" y1="0%" x2="0%" y2="100%">
      <stop offset="30%" style="stop-color: rgb(187, 187, 187);"/>
      <stop offset="90%" style="stop-color: rgb(219, 219, 219);"/>
    </linearGradient>
    
    <radialGradient id="grippieGlow" cx="50%" cy="50%" fx="50%" fy="50%">
      <stop stop-color="#ff0" offset="0.0" stop-opacity="1.0"/>
      <stop stop-color="#ff0" offset="0.2" stop-opacity="1.0"/>
      <stop stop-color="#ff0" offset="1.0" stop-opacity="0.1"/>
    </radialGradient>

    <rect id="butt" x="-25" y="-10" width="50" height="20" rx="10" ry="10" fill="inherit" stroke="none"/>

    <g id="button">
        <use xlink:href="#butt" fill="inherit"/>
        <use transform="scale(0.8, 0.45) translate(0, -10)" xlink:href="#butt" fill="url(#tophigh)"/>
        <use transform="scale(0.8, 0.45) translate(0, 10)" xlink:href="#butt" fill="url(#bothigh)"/> 
    </g>

    <rect id="grip" x="-6" y="-12" width="12" height="24" rx="8" ry="8" fill="inherit" stroke="none"/>

    <g id="grippie">
        <rect x="-20" y="-20" width="40" height="40" fill="url(#grippieGlow)" style="fill-opacity: 0.0552;">
            <animate attributeName="fill-opacity" repeatCount="indefinite" dur="2" values="0;0.6;0.8;0.25;0"/>
            <set attributeName="visibility" to="hidden" begin="grippie.mouseup"/>
        </rect>
        <use xlink:href="#grip" fill="inherit"/>
        <use transform="scale(0.8, 0.45) translate(0, -12)" xlink:href="#grip" fill="url(#tophigh)"/>
        <use transform="scale(0.8, 0.45) translate(0, 12)" xlink:href="#grip" fill="url(#bothigh)"/> 
    </g>
    <linearGradient id="g1" x1="0" y1="0" x2="1" y2="1">
      <stop offset="0" stop-color="#fff"/>
      <stop offset="1" stop-color="#ccc"/>
    </linearGradient>
    <clipPath id="graphClip">
      <path d="M0,0 L400,0 400,300 0,300 Z"/>
    </clipPath>

        
    
  </defs>

  <style type="text/css" id="theStyle"/>

  <rect id="background" x="-50" y="-30" width="825" height="400" fill="white"/>

  <g id="helpButton" onclick="top.location.href='http://www.codedread.com/displayWebStats.php';" transform="translate(-20, -20)" fill="url(#startButt)" cursor="pointer">
    <use xlink:href="#button" x="0" y="0" width="100" height="50"/>
    <text x="0" y="5" font-size="12" stroke="none" fill="yellow" text-anchor="middle" font-weight="bold">HELP</text>
  </g>
  <g id="modeButton" onclick="toggleDistribution();" transform="translate(700, -20)" fill="url(#stopButt)" cursor="pointer">
    <use xlink:href="#button" x="0" y="0" width="100" height="50"/>
    <text x="0" y="5" font-size="12" stroke="none" fill="yellow" text-anchor="middle" font-weight="bold">MODE</text>
  </g>

  <g id="browser_stat" transform="translate(0)">
    <text id="browser_graphtitle" y="-15" x="362.5" text-anchor="middle" font-size="20">Unique Weekly Visits By Browser</text>
    <g id="browser_timechart">
      <rect id="browser_timechartbkgnd" x="0" y="0" width="400" height="300" fill="url(#g1)" stroke="#000" stroke-width="2px"/>
      <g id="browser_timechartclipper" clip-path="url(#graphClip)">
        <g id="browser_timechartseries" transform="translate(400, 300) scale(-1, -1)">
          <g id="browser_timechartseries_scaled" transform="scale(2.25989, 0.0370142)"><path class="ChromeOther" d="M0,0 L0,1937 1,2621 2,2535 3,3007 4,3137 5,3558 6,3133 7,3260 8,3365 9,3789 10,3472 11,3398 12,3238 13,3032 14,3093 15,3218 16,3555 17,3319 18,3510 19,6141 20,2619 21,2578 22,2836 23,2856 24,2943 25,3138 26,3042 27,2605 28,2437 29,2667 30,2566 31,2727 32,2296 33,2427 34,2350 35,2351 36,2421 37,3388 38,3474 39,3242 40,3888 41,8005 42,2811 43,3027 44,3195 45,4718 46,3825 47,2445 48,2677 49,3071 50,2980 51,3036 52,2869 53,2424 54,2682 55,2836 56,2763 57,2747 58,2527 59,2376 60,2439 61,2746 62,2737 63,2569 64,2487 65,2471 66,2497 67,2396 68,2444 69,2863 70,2440 71,2033 72,2082 73,1958 74,1935 75,1921 76,1889 77,2421 78,2134 79,2052 80,2421 81,2395 82,2551 83,2462 84,3175 85,3918 86,2477 87,2546 88,2388 89,2776 90,2419 91,2283 92,1896 93,2007 94,2290 95,2408 96,2007 97,1932 98,1904 99,2031 100,2028 101,1981 102,2098 103,2265 104,2356 105,2041 106,1455 107,1976 108,2130 109,2314 110,2255 111,2005 112,2310 113,2180 114,2573 115,3419 116,2742 117,1846 118,1833 119,1858 120,1795 121,1848 122,1854 123,2092 124,2131 125,1746 126,2240 127,2349 128,2381 129,2358 130,1973 131,1794 132,2552 133,2705 134,1986 135,2412 136,1985 137,1905 138,1868 139,1779 140,1727 141,2041 142,1682 143,1884 144,1848 145,2134 146,2544 147,2426 148,2374 149,2309 150,2240 151,2581 152,2261 153,2268 154,3430 155,2173 156,2215 157,1895 158,2313 159,2677 160,2767 161,1133 162,1128 163,1104 164,1713 165,956 166,1220 167,279 168,286 169,211 170,232 171,302 172,294 173,462 174,501 175,560 176,643 177,656 177,0 Z" fill="rgb(100,100,100)"><title>Chrome/Other</title></path><path class="Chrome20x" d="M0,0 L0,1937 1,2621 2,2535 3,3007 4,3137 5,3558 6,3132 7,3260 8,3365 9,3789 10,3472 11,3398 12,3238 13,3032 14,3092 15,3217 16,3555 17,3319 18,3510 19,6141 20,2619 21,2578 22,2836 23,2856 24,2943 25,3138 26,3042 27,2605 28,2437 29,2667 30,2566 31,2727 32,2296 33,2427 34,2350 35,2351 36,2421 37,3388 38,3474 39,3242 40,3888 41,8005 42,2811 43,3027 44,3195 45,4718 46,3825 47,2445 48,2677 49,3071 50,2980 51,3036 52,2869 53,2424 54,2682 55,2836 56,2763 57,2747 58,2527 59,2376 60,2439 61,2746 62,2737 63,2569 64,2487 65,2471 66,2497 67,2396 68,2444 69,2863 70,2440 71,2033 72,2082 73,1958 74,1935 75,1921 76,1889 77,2421 78,2134 79,2052 80,2421 81,2395 82,2551 83,2462 84,3175 85,3918 86,2477 87,2546 88,2388 89,2776 90,2419 91,2283 92,1896 93,2007 94,2290 95,2408 96,2007 97,1932 98,1904 99,2031 100,2028 101,1981 102,2098 103,2265 104,2356 105,2041 106,1455 107,1976 108,2130 109,2314 110,2255 111,2005 112,2310 113,2180 114,2573 115,3419 116,2742 117,1846 118,1833 119,1858 120,1795 121,1848 122,1854 123,2092 124,2131 125,1746 126,2240 127,2349 128,2381 129,2358 130,1973 131,1794 132,2552 133,2705 134,1986 135,2412 136,1985 137,1905 138,1868 139,1779 140,1727 141,2041 142,1682 143,1884 144,1848 145,2134 146,2544 147,2426 148,2374 149,2309 150,2240 151,2581 152,2261 153,2268 154,3430 155,2173 156,2215 157,1895 158,2313 159,2677 160,2767 161,1133 162,1128 163,1104 164,1713 165,956 166,1220 167,279 168,286 169,211 170,232 171,302 172,294 173,462 174,501 175,560 176,643 177,656 177,0 Z" fill="rgb(120,120,120)"><title>Chrome/2.0.x</title></path><path class="Chrome10x" d="M0,0 L0,1936 1,2621 2,2535 3,3007 4,3137 5,3558 6,3132 7,3260 8,3365 9,3789 10,3472 11,3398 12,3238 13,3032 14,3092 15,3217 16,3555 17,3319 18,3510 19,6141 20,2619 21,2578 22,2836 23,2856 24,2943 25,3138 26,3042 27,2605 28,2437 29,2667 30,2566 31,2727 32,2296 33,2427 34,2350 35,2351 36,2421 37,3388 38,3474 39,3242 40,3888 41,8005 42,2811 43,3027 44,3195 45,4718 46,3825 47,2445 48,2677 49,3071 50,2980 51,3036 52,2869 53,2424 54,2682 55,2836 56,2763 57,2747 58,2527 59,2376 60,2439 61,2746 62,2737 63,2569 64,2487 65,2471 66,2497 67,2396 68,2444 69,2863 70,2440 71,2033 72,2082 73,1958 74,1935 75,1921 76,1889 77,2421 78,2134 79,2052 80,2421 81,2395 82,2551 83,2462 84,3175 85,3918 86,2477 87,2546 88,2388 89,2776 90,2419 91,2283 92,1896 93,2007 94,2290 95,2408 96,2007 97,1932 98,1904 99,2031 100,2028 101,1981 102,2098 103,2265 104,2356 105,2041 106,1455 107,1976 108,2130 109,2314 110,2255 111,2005 112,2310 113,2180 114,2573 115,3419 116,2742 117,1846 118,1833 119,1858 120,1795 121,1848 122,1854 123,2092 124,2131 125,1746 126,2240 127,2349 128,2381 129,2358 130,1973 131,1794 132,2552 133,2705 134,1986 135,2412 136,1985 137,1905 138,1868 139,1779 140,1727 141,2041 142,1682 143,1884 144,1848 145,2134 146,2544 147,2426 148,2374 149,2309 150,2240 151,2581 152,2261 153,2268 154,3430 155,2173 156,2215 157,1895 158,2313 159,2677 160,2767 161,1133 162,1128 163,1104 164,1713 165,956 166,1220 167,279 168,286 169,211 170,232 171,302 172,294 173,462 174,501 175,560 176,643 177,656 177,0 Z" fill="rgb(140,140,140)"><title>Chrome/1.0.x</title></path><path class="Chrome05" d="M0,0 L0,1907 1,2583 2,2494 3,2974 4,3128 5,3558 6,3132 7,3260 8,3365 9,3789 10,3472 11,3398 12,3238 13,3032 14,3092 15,3217 16,3555 17,3319 18,3510 19,6141 20,2619 21,2578 22,2836 23,2856 24,2943 25,3138 26,3042 27,2605 28,2437 29,2667 30,2566 31,2727 32,2296 33,2427 34,2350 35,2351 36,2421 37,3388 38,3474 39,3242 40,3888 41,8005 42,2811 43,3027 44,3195 45,4718 46,3825 47,2445 48,2677 49,3071 50,2980 51,3036 52,2869 53,2424 54,2682 55,2836 56,2763 57,2747 58,2527 59,2376 60,2439 61,2746 62,2737 63,2569 64,2487 65,2471 66,2497 67,2396 68,2444 69,2863 70,2440 71,2033 72,2082 73,1958 74,1935 75,1921 76,1889 77,2421 78,2134 79,2052 80,2421 81,2395 82,2551 83,2462 84,3175 85,3918 86,2477 87,2546 88,2388 89,2776 90,2419 91,2283 92,1896 93,2007 94,2290 95,2408 96,2007 97,1932 98,1904 99,2031 100,2028 101,1981 102,2098 103,2265 104,2356 105,2041 106,1455 107,1976 108,2130 109,2314 110,2255 111,2005 112,2310 113,2180 114,2573 115,3419 116,2742 117,1846 118,1833 119,1858 120,1795 121,1848 122,1854 123,2092 124,2131 125,1746 126,2240 127,2349 128,2381 129,2358 130,1973 131,1794 132,2552 133,2705 134,1986 135,2412 136,1985 137,1905 138,1868 139,1779 140,1727 141,2041 142,1682 143,1884 144,1848 145,2134 146,2544 147,2426 148,2374 149,2309 150,2240 151,2581 152,2261 153,2268 154,3430 155,2173 156,2215 157,1895 158,2313 159,2677 160,2767 161,1133 162,1128 163,1104 164,1713 165,956 166,1220 167,279 168,286 169,211 170,232 171,302 172,294 173,462 174,501 175,560 176,643 177,656 177,0 Z" fill="rgb(160,160,160)"><title>Chrome/0.5-</title></path><path class="IEOther" d="M0,0 L0,1906 1,2581 2,2492 3,2964 4,3103 5,3509 6,3105 7,3239 8,3312 9,3740 10,3428 11,3385 12,3216 13,3002 14,3052 15,3173 16,3474 17,3242 18,3331 19,6141 20,2619 21,2578 22,2836 23,2856 24,2943 25,3138 26,3042 27,2605 28,2437 29,2667 30,2566 31,2727 32,2296 33,2427 34,2350 35,2351 36,2421 37,3388 38,3474 39,3242 40,3888 41,8005 42,2811 43,3027 44,3195 45,4718 46,3825 47,2445 48,2677 49,3071 50,2980 51,3036 52,2869 53,2424 54,2682 55,2836 56,2763 57,2747 58,2527 59,2376 60,2439 61,2746 62,2737 63,2569 64,2487 65,2471 66,2497 67,2396 68,2444 69,2863 70,2440 71,2033 72,2082 73,1958 74,1935 75,1921 76,1889 77,2421 78,2134 79,2052 80,2421 81,2395 82,2551 83,2462 84,3175 85,3918 86,2477 87,2546 88,2388 89,2776 90,2419 91,2283 92,1896 93,2007 94,2290 95,2408 96,2007 97,1932 98,1904 99,2031 100,2028 101,1981 102,2098 103,2265 104,2356 105,2041 106,1455 107,1976 108,2130 109,2314 110,2255 111,2005 112,2310 113,2180 114,2573 115,3419 116,2742 117,1846 118,1833 119,1858 120,1795 121,1848 122,1854 123,2092 124,2131 125,1746 126,2240 127,2349 128,2381 129,2358 130,1973 131,1794 132,2552 133,2705 134,1986 135,2412 136,1985 137,1905 138,1868 139,1779 140,1727 141,2041 142,1682 143,1884 144,1848 145,2134 146,2544 147,2426 148,2374 149,2309 150,2240 151,2581 152,2261 153,2268 154,3430 155,2173 156,2215 157,1895 158,2313 159,2677 160,2767 161,1133 162,1128 163,1104 164,1713 165,956 166,1220 167,279 168,286 169,211 170,232 171,302 172,294 173,462 174,501 175,560 176,643 177,656 177,0 Z" fill="rgb(0,60,100)"><title>IE/Other</title></path><path class="IE80x" d="M0,0 L0,1900 1,2575 2,2483 3,2956 4,3094 5,3496 6,3095 7,3220 8,3305 9,3728 10,3416 11,3377 12,3201 13,2997 14,3043 15,3165 16,3462 17,3232 18,3326 19,6133 20,2611 21,2570 22,2832 23,2850 24,2940 25,3134 26,3037 27,2602 28,2426 29,2653 30,2561 31,2722 32,2293 33,2421 34,2346 35,2341 36,2408 37,3377 38,3459 39,3222 40,3871 41,7993 42,2799 43,3014 44,3178 45,4702 46,3817 47,2440 48,2665 49,3064 50,2974 51,3035 52,2852 53,2419 54,2678 55,2825 56,2757 57,2735 58,2516 59,2367 60,2429 61,2741 62,2730 63,2562 64,2479 65,2467 66,2491 67,2393 68,2440 69,2857 70,2429 71,2021 72,2074 73,1949 74,1929 75,1916 76,1881 77,2417 78,2131 79,2045 80,2414 81,2392 82,2546 83,2451 84,3165 85,3912 86,2472 87,2542 88,2385 89,2770 90,2415 91,2280 92,1894 93,2001 94,2287 95,2406 96,2005 97,1925 98,1901 99,2026 100,2021 101,1978 102,2095 103,2255 104,2354 105,2029 106,1454 107,1973 108,2127 109,2307 110,2249 111,2001 112,2302 113,2171 114,2561 115,3410 116,2736 117,1841 118,1826 119,1854 120,1792 121,1843 122,1848 123,2081 124,2117 125,1729 126,2221 127,2344 128,2373 129,2350 130,1968 131,1793 132,2540 133,2700 134,1978 135,2403 136,1979 137,1900 138,1861 139,1773 140,1725 141,2028 142,1675 143,1869 144,1838 145,2127 146,2541 147,2423 148,2370 149,2305 150,2240 151,2575 152,2233 153,2222 154,3378 155,2092 156,2150 157,1854 158,2287 159,2603 160,2695 161,1133 162,1127 163,1104 164,1711 165,956 166,1220 167,279 168,285 169,211 170,231 171,302 172,294 173,461 174,501 175,557 176,643 177,656 177,0 Z" fill="rgb(0,79,131)"><title>IE/8.0x</title></path><path class="IE70x" d="M0,0 L0,1897 1,2568 2,2473 3,2945 4,3081 5,3485 6,3085 7,3213 8,3296 9,3718 10,3404 11,3363 12,3194 13,2986 14,3037 15,3161 16,3454 17,3223 18,3321 19,6111 20,2610 21,2570 22,2831 23,2850 24,2939 25,3134 26,3037 27,2600 28,2425 29,2651 30,2559 31,2721 32,2293 33,2420 34,2344 35,2340 36,2406 37,3375 38,3454 39,3218 40,3868 41,7978 42,2792 43,3004 44,3159 45,4701 46,3817 47,2440 48,2665 49,3064 50,2974 51,3035 52,2852 53,2419 54,2678 55,2825 56,2757 57,2735 58,2516 59,2367 60,2429 61,2741 62,2730 63,2562 64,2479 65,2467 66,2491 67,2393 68,2440 69,2857 70,2429 71,2021 72,2074 73,1949 74,1929 75,1916 76,1881 77,2417 78,2131 79,2045 80,2414 81,2392 82,2546 83,2451 84,3165 85,3912 86,2472 87,2542 88,2385 89,2770 90,2415 91,2280 92,1894 93,2001 94,2287 95,2406 96,2005 97,1925 98,1901 99,2026 100,2021 101,1978 102,2095 103,2255 104,2354 105,2029 106,1454 107,1973 108,2127 109,2307 110,2249 111,2001 112,2302 113,2171 114,2561 115,3410 116,2736 117,1841 118,1826 119,1854 120,1792 121,1843 122,1848 123,2081 124,2117 125,1729 126,2221 127,2344 128,2373 129,2350 130,1968 131,1793 132,2540 133,2700 134,1978 135,2403 136,1979 137,1900 138,1861 139,1773 140,1725 141,2028 142,1675 143,1869 144,1838 145,2127 146,2541 147,2423 148,2370 149,2305 150,2240 151,2575 152,2233 153,2222 154,3378 155,2092 156,2150 157,1854 158,2287 159,2603 160,2695 161,1133 162,1127 163,1104 164,1711 165,956 166,1220 167,279 168,285 169,211 170,231 171,302 172,294 173,461 174,501 175,557 176,643 177,656 177,0 Z" fill="rgb(0,90,151)"><title>IE/7.0x</title></path><path class="IE60x" d="M0,0 L0,1705 1,2336 2,2243 3,2691 4,2813 5,3149 6,2828 7,2886 8,2982 9,3403 10,3091 11,3053 12,2909 13,2682 14,2757 15,2853 16,3151 17,2907 18,3018 19,5773 20,2366 21,2252 22,2426 23,2418 24,2557 25,2765 26,2580 27,2226 28,1952 29,2137 30,2033 31,2130 32,1781 33,1914 34,1882 35,1888 36,1967 37,2917 38,2960 39,2715 40,3329 41,7322 42,2365 43,2563 44,2690 45,4149 46,3262 47,1888 48,2072 49,2404 50,2378 51,2407 52,2271 53,1919 54,2140 55,2154 56,2121 57,2165 58,1986 59,1877 60,1867 61,2132 62,2113 63,1943 64,1883 65,1826 66,1889 67,1796 68,1923 69,2476 70,2097 71,1681 72,1721 73,1616 74,1621 75,1626 76,1614 77,2031 78,1820 79,1737 80,2111 81,2085 82,2216 83,2146 84,2625 85,3268 86,2129 87,2158 88,1999 89,2413 90,2079 91,1956 92,1629 93,1730 94,2003 95,2148 96,1752 97,1659 98,1647 99,1786 100,1767 101,1756 102,1862 103,1987 104,2115 105,1838 106,1302 107,1770 108,1963 109,2078 110,2025 111,1810 112,2111 113,2045 114,2454 115,3290 116,2648 117,1781 118,1776 119,1792 120,1750 121,1792 122,1806 123,2030 124,2072 125,1690 126,2160 127,2297 128,2325 129,2298 130,1920 131,1750 132,2503 133,2636 134,1933 135,2359 136,1943 137,1870 138,1843 139,1744 140,1700 141,2017 142,1662 143,1842 144,1824 145,2114 146,2518 147,2404 148,2345 149,2289 150,2217 151,2555 152,2224 153,2213 154,3374 155,2090 156,2145 157,1853 158,2284 159,2602 160,2693 161,1131 162,1126 163,1102 164,1708 165,953 166,1219 167,279 168,285 169,209 170,231 171,301 172,294 173,461 174,501 175,557 176,642 177,655 177,0 Z" fill="rgb(0,115,191)"><title>IE/6.0x</title></path><path class="IE55" d="M0,0 L0,1360 1,1822 2,1789 3,2185 4,2206 5,2598 6,2293 7,2391 8,2339 9,2575 10,2338 11,2192 12,2282 13,2154 14,2181 15,2292 16,2534 17,2373 18,2442 19,5125 20,1874 21,1817 22,1838 23,1841 24,1859 25,2052 26,1760 27,1300 28,1184 29,1372 30,1178 31,1261 32,981 33,1252 34,1181 35,1236 36,1281 37,2071 38,2144 39,1941 40,2505 41,6249 42,1342 43,1455 44,1681 45,3175 46,2627 47,1272 48,1369 49,1550 50,1643 51,1535 52,1373 53,1123 54,1614 55,1367 56,1328 57,1409 58,1299 59,1223 60,1166 61,1262 62,1198 63,1134 64,1146 65,1041 66,1037 67,1089 68,1179 69,1647 70,1403 71,1192 72,1178 73,1063 74,1071 75,1049 76,986 77,1348 78,1012 79,958 80,1199 81,1211 82,1196 83,1063 84,1429 85,1943 86,1202 87,1279 88,1247 89,1633 90,1333 91,1192 92,993 93,1001 94,1063 95,1230 96,956 97,900 98,888 99,971 100,906 101,931 102,929 103,1053 104,1031 105,902 106,652 107,1029 108,985 109,1066 110,1055 111,863 112,1011 113,1131 114,1229 115,1741 116,1317 117,794 118,817 119,816 120,813 121,852 122,778 123,883 124,886 125,718 126,1044 127,1115 128,1041 129,1025 130,880 131,842 132,920 133,1049 134,892 135,1075 136,923 137,920 138,899 139,840 140,840 141,945 142,797 143,899 144,814 145,1077 146,1410 147,1308 148,1304 149,1356 150,1378 151,1617 152,1228 153,1258 154,2198 155,1052 156,1186 157,1086 158,1181 159,1493 160,1476 161,651 162,600 163,554 164,1112 165,554 166,795 167,56 168,64 169,63 170,64 171,96 172,110 173,214 174,246.99999999999997 175,297 176,313 177,328 177,0 Z" fill="rgb(0,133,221)"><title>IE/5.5-</title></path><path class="FirefoxOther" d="M0,0 L0,650 1,742 2,793 3,1060 4,1065 5,1294 6,924 7,1044 8,998 9,1301 10,1080 11,1033 12,1093 13,1040 14,1056 15,1078 16,1221 17,1287 18,1461 19,4220 20,1009 21,918 22,1018 23,1022 24,1096 25,1205 26,1327 27,1239 28,1112 29,1319 30,1123 31,1200 32,934 33,1231 34,1154 35,1216 36,1201 37,1881 38,1938 39,1721 40,2281 41,6072 42,1232 43,1320 44,1585 45,3078 46,2531 47,1201 48,1290 49,1469 50,1574 51,1478 52,1317 53,1066 54,1561 55,1308 56,1281 57,1346 58,1233 59,1174 60,1117 61,1212 62,1171 63,1109 64,1118 65,1018 66,1001 67,1048 68,1134 69,1604 70,1370 71,1170 72,1167 73,1051 74,1062 75,1039 76,955 77,1296 78,970 79,927 80,1164 81,1180 82,1155 83,1029 84,1384 85,1905 86,1176 87,1257 88,1222 89,1608 90,1304 91,1171 92,972 93,977 94,1043 95,1212 96,931 97,869 98,871 99,950 100,886 101,896 102,904 103,1003 104,1007 105,872 106,632 107,1001 108,958 109,1048 110,1035 111,849 112,998 113,1034 114,992 115,1162 116,873 117,768 118,717 119,735 120,791 121,822 122,746 123,858 124,858 125,696 126,836 127,939 128,894 129,829 130,858 131,794 132,896 133,1018 134,859 135,1040 136,862 137,893 138,869 139,814 140,804 141,898 142,764 143,870 144,799 145,994 146,985 147,915 148,933 149,983 150,1030 151,1254 152,891 153,900 154,1766 155,698 156,727 157,680 158,816 159,995.9999999999999 160,954 161,303 162,263 163,254 164,823 165,332 166,618 167,49 168,58 169,54 170,58 171,89 172,101 173,204 174,239.99999999999997 175,286 176,300 177,312 177,0 Z" fill="rgb(232,100,0)"><title>Firefox/Other</title></path><path class="Firefox31x" d="M0,0 L0,639 1,723 2,776 3,1045 4,1044 5,1276 6,909 7,1030 8,979 9,1291 10,1070 11,1021 12,1084 13,1011 14,1039 15,1068 16,1183 17,1265 18,1440 19,4203 20,1006 21,905 22,1007 23,1018 24,1090 25,1176 26,1304 27,1228 28,1107 29,1313 30,1100 31,1188 32,908 33,1214 34,1151 35,1205 36,1193 37,1873 38,1923 39,1708 40,2257 41,6058 42,1222 43,1306 44,1570 45,3070 46,2516 47,1195 48,1284 49,1461 50,1566 51,1469 52,1311 53,1057 54,1554 55,1296 56,1271 57,1338 58,1231 59,1165 60,1106 61,1211 62,1162 63,1105 64,1116 65,1014 66,999 67,1043 68,1131 69,1598 70,1364 71,1164 72,1162 73,1049 74,1058 75,1036 76,953 77,1292 78,968 79,921 80,1159 81,1171 82,1154 83,1024 84,1379 85,1902 86,1169 87,1253 88,1220 89,1600 90,1301 91,1167 92,970 93,969 94,1036 95,1208 96,924 97,861 98,866 99,943 100,883 101,893 102,901 103,1002 104,1001 105,866 106,631 107,1000 108,954 109,1047 110,1032 111,847 112,994 113,1030 114,990 115,1153 116,873 117,767 118,710 119,724 120,789 121,820 122,746 123,855 124,858 125,695 126,834 127,936 128,892 129,827 130,854 131,792 132,894 133,1017 134,855 135,1038 136,860 137,892 138,867 139,813 140,801 141,895 142,763 143,867 144,793 145,989 146,980 147,910 148,931 149,981 150,1024 151,1251 152,886 153,883 154,1759 155,694 156,726 157,674 158,815 159,988.9999999999999 160,946 161,297 162,256 163,250 164,815 165,330 166,614 167,49 168,55 169,49 170,58 171,89 172,100 173,203 174,235.99999999999997 175,286 176,294 177,309 177,0 Z" fill="rgb(244,120,0)"><title>Firefox/3.1.x</title></path><path class="Firefox30x" d="M0,0 L0,624 1,709 2,758 3,1026 4,1015 5,1252 6,881 7,1007 8,943 9,1244 10,1031 11,1000 12,1038 13,987 14,1011 15,1051 16,1164 17,1239 18,1418 19,4155 20,983 21,882 22,974 23,991 24,1064 25,1155 26,1284 27,1220 28,1091 29,1289 30,1084 31,1183 32,907 33,1214 34,1151 35,1205 36,1193 37,1873 38,1923 39,1708 40,2257 41,6058 42,1222 43,1306 44,1570 45,3070 46,2516 47,1195 48,1284 49,1461 50,1566 51,1469 52,1311 53,1057 54,1554 55,1296 56,1271 57,1338 58,1231 59,1165 60,1106 61,1211 62,1162 63,1105 64,1116 65,1014 66,999 67,1043 68,1131 69,1598 70,1364 71,1164 72,1162 73,1049 74,1058 75,1036 76,953 77,1292 78,968 79,921 80,1159 81,1171 82,1154 83,1024 84,1379 85,1902 86,1169 87,1253 88,1220 89,1600 90,1301 91,1167 92,970 93,969 94,1036 95,1208 96,924 97,861 98,866 99,943 100,883 101,893 102,901 103,1002 104,1001 105,866 106,631 107,1000 108,954 109,1047 110,1032 111,847 112,994 113,1030 114,990 115,1153 116,873 117,767 118,710 119,724 120,789 121,820 122,746 123,855 124,858 125,695 126,834 127,936 128,892 129,827 130,854 131,792 132,894 133,1017 134,855 135,1038 136,860 137,892 138,867 139,813 140,801 141,895 142,763 143,867 144,793 145,989 146,980 147,910 148,931 149,981 150,1024 151,1251 152,886 153,883 154,1759 155,694 156,726 157,674 158,815 159,988.9999999999999 160,946 161,297 162,256 163,250 164,815 165,330 166,614 167,49 168,55 169,49 170,58 171,89 172,100 173,203 174,235.99999999999997 175,286 176,294 177,309 177,0 Z" fill="rgb(255,140,20)"><title>Firefox/3.0.x</title></path><path class="Firefox20x" d="M0,0 L0,211 1,245 2,269 3,360 4,372 5,494 6,311 7,365 8,376 9,468 10,373 11,374 12,421 13,379 14,344 15,402 16,473 17,512 18,594 19,1337 20,521 21,419 22,470 23,478 24,520 25,562 26,675 27,730 28,625 29,775 30,852 31,918 32,705 33,925 34,941 35,1001 36,991 37,1651 38,1587 39,1356 40,1847 41,4878 42,1065 43,1135 44,1389 45,2821 46,2248 47,1107 48,1216 49,1389 50,1505 51,1406 52,1260 53,1008 54,1479 55,1218 56,1238 57,1294 58,1195 59,1129 60,1087 61,1199 62,1139 63,1088 64,1096 65,996 66,974 67,1020 68,1113 69,1572 70,1346 71,1143 72,1132 73,1025 74,1038 75,1016 76,911 77,1278 78,953 79,905 80,1138 81,1160 82,1132 83,1015 84,1369 85,1882 86,1153 87,1232 88,1209 89,1569 90,1284 91,1159 92,965 93,953 94,1025 95,1204 96,922 97,856 98,856 99,941 100,881 101,889 102,895 103,992 104,994 105,857 106,628 107,994 108,935 109,1041 110,1024 111,845 112,993 113,1023 114,986 115,1150 116,869 117,762 118,710 119,721 120,787 121,818 122,743 123,848 124,856 125,693 126,831 127,933 128,890 129,823 130,847 131,790 132,890 133,1003 134,847 135,1023 136,853 137,885 138,852 139,812 140,796 141,892 142,760 143,867 144,793 145,989 146,980 147,910 148,931 149,981 150,1024 151,1251 152,886 153,883 154,1759 155,694 156,726 157,674 158,815 159,988.9999999999999 160,946 161,297 162,256 163,250 164,815 165,330 166,614 167,49 168,55 169,49 170,58 171,89 172,100 173,203 174,235.99999999999997 175,286 176,294 177,309 177,0 Z" fill="rgb(255,160,50)"><title>Firefox/2.0.x</title></path><path class="Firefox15" d="M0,0 L0,145 1,157 2,177 3,284 4,281 5,374 6,213 7,238 8,248 9,324 10,237 11,228 12,274 13,231 14,222 15,264 16,310 17,326 18,366 19,797 20,258 21,191 22,172 23,193 24,216 25,235 26,356 27,391 28,300 29,338 30,298 31,353 32,216 33,310 34,351 35,347 36,347 37,751 38,642 39,444 40,629 41,1901 42,318 43,311 44,453 45,973 46,732 47,232 48,278 49,321 50,377 51,283 52,309 53,252 54,203 55,306 56,289 57,310 58,254 59,282 60,249 61,278 62,257 63,232 64,226 65,237 66,234 67,268 68,268 69,661 70,538 71,237 72,250 73,206 74,208 75,216 76,184 77,501 78,234 79,226 80,376 81,411 82,357 83,282 84,382 85,620 86,342 87,388 88,308 89,642 90,494 91,348 92,319 93,318 94,351 95,451 96,350 97,307 98,323 99,360 100,346 101,343 102,365 103,419 104,407 105,412 106,300 107,434 108,449 109,515 110,538 111,472 112,575 113,577 114,663 115,851 116,774 117,713 118,665 119,675 120,756 121,779 122,716 123,819 124,832 125,680 126,811 127,911 128,865 129,791 130,824 131,782 132,881 133,996 134,830 135,1006 136,833 137,865 138,835 139,805 140,789 141,886 142,747 143,854 144,775 145,962 146,963 147,898 148,924 149,962 150,1014 151,1239 152,877 153,879 154,1751 155,690 156,720 157,666 158,809 159,981.9999999999999 160,936 161,294 162,255 163,250 164,803 165,319 166,599 167,49 168,52 169,47 170,52 171,81 172,97 173,195 174,230.99999999999997 175,280 176,294 177,309 177,0 Z" fill="rgb(255,180,85)"><title>Firefox/1.5-</title></path><path class="SafariOther" d="M0,0 L0,136 1,152 2,165 3,272 4,265 5,361 6,204 7,224 8,229 9,298 10,217 11,217 12,264 13,210 14,207 15,246 16,274 17,285 18,351 19,768 20,219 21,164 22,147 23,170 24,196 25,205 26,302 27,270 28,248 29,296 30,258 31,258 32,180 33,229 34,275 35,320 36,266 37,596 38,495 39,360 40,568 41,1798 42,269 43,256 44,357 45,829 46,624 47,206 48,234 49,266 50,293 51,223 52,247 53,221 54,166 55,250 56,242 57,254 58,219 59,233 60,209 61,240 62,221 63,188 64,175 65,204 66,190 67,216 68,228 69,625 70,473 71,186 72,202 73,155 74,166 75,151 76,134 77,431 78,184 79,156 80,277 81,284 82,254 83,146 84,198 85,313 86,153 87,220 88,164 89,443 90,305 91,173.00000000000003 92,140 93,153 94,163 95,223 96,144 97,126 98,135 99,146 100,135 101,147 102,165 103,154 104,142 105,133 106,97 107,169 108,171 109,155 110,154 111,127 112,141 113,143 114,139 115,129 116,116 117,121 118,109 119,106 120,119 121,110 122,115 123,115 124,142 125,108 126,134 127,145 128,119 129,125 130,146 131,123 132,143 133,173 134,110 135,145 136,149 137,129 138,134 139,143 140,123 141,156 142,134 143,171 144,134 145,184 146,152 147,163 148,174 149,230 150,271 151,445 152,162 153,176 154,329 155,127 156,142 157,154 158,175 159,162 160,168 161,78 162,100 163,97 164,195 165,159 166,482 167,23 168,23 169,21 170,25 171,27 172,22 173,33 174,30 175,31 176,46 177,37 177,0 Z" fill="rgb(0,160,240)"><title>Safari/Other</title></path><path class="Safari40x" d="M0,0 L0,95 1,112 2,124 3,205 4,205 5,298 6,157 7,165 8,208 9,287 10,214 11,210 12,256 13,205 14,198 15,234 16,269 17,279 18,348 19,760 20,214 21,160 22,147 23,170 24,196 25,202 26,298 27,263 28,244 29,293 30,255 31,255 32,178 33,228 34,273 35,317 36,258 37,585 38,487 39,354 40,557 41,1787 42,268 43,252 44,353 45,822 46,620 47,205 48,232 49,265 50,293 51,223 52,247 53,220 54,165 55,248 56,240 57,252 58,216 59,232 60,207 61,240 62,221 63,188 64,174 65,204 66,190 67,213 68,228 69,625 70,473 71,185 72,199 73,155 74,166 75,151 76,134 77,428 78,183 79,156 80,277 81,284 82,253 83,146 84,195 85,313 86,153 87,220 88,164 89,443 90,305 91,172.00000000000003 92,140 93,151 94,163 95,222 96,144 97,125 98,135 99,145 100,133 101,146 102,165 103,154 104,140 105,133 106,90 107,163 108,166 109,154 110,154 111,123 112,135 113,143 114,132 115,129 116,110 117,116 118,103 119,106 120,119 121,110 122,102 123,114 124,132 125,107 126,134 127,140 128,108 129,124 130,146 131,121 132,143 133,172 134,110 135,145 136,148 137,128 138,133 139,143 140,123 141,156 142,134 143,171 144,134 145,183 146,151 147,163 148,174 149,230 150,271 151,445 152,162 153,176 154,329 155,126 156,142 157,154 158,175 159,162 160,168 161,78 162,100 163,97 164,195 165,159 166,482 167,23 168,23 169,21 170,25 171,27 172,22 173,33 174,30 175,31 176,46 177,37 177,0 Z" fill="rgb(20,170,241)"><title>Safari/4.0.x</title></path><path class="Safari31x" d="M0,0 L0,91 1,107 2,121 3,202 4,204 5,294 6,150 7,165 8,205 9,281 10,209 11,209 12,244 13,201 14,192 15,219 16,264 17,268 18,333 19,716 20,202 21,153 22,143 23,164 24,192 25,193 26,290 27,258 28,238 29,274 30,242 31,255 32,178 33,228 34,273 35,317 36,258 37,585 38,487 39,354 40,557 41,1787 42,268 43,252 44,353 45,822 46,620 47,205 48,232 49,265 50,293 51,223 52,247 53,220 54,165 55,248 56,240 57,252 58,216 59,232 60,207 61,240 62,221 63,188 64,174 65,204 66,190 67,213 68,228 69,625 70,473 71,185 72,199 73,155 74,166 75,151 76,134 77,428 78,183 79,156 80,277 81,284 82,253 83,146 84,195 85,313 86,153 87,220 88,164 89,443 90,305 91,172.00000000000003 92,140 93,151 94,163 95,222 96,144 97,125 98,135 99,145 100,133 101,146 102,165 103,154 104,140 105,133 106,90 107,163 108,166 109,154 110,154 111,123 112,135 113,143 114,132 115,129 116,110 117,116 118,103 119,106 120,119 121,110 122,102 123,114 124,132 125,107 126,134 127,140 128,108 129,124 130,146 131,121 132,143 133,172 134,110 135,145 136,148 137,128 138,133 139,143 140,123 141,156 142,134 143,171 144,134 145,183 146,151 147,163 148,174 149,230 150,271 151,445 152,162 153,176 154,329 155,126 156,142 157,154 158,175 159,162 160,168 161,78 162,100 163,97 164,195 165,159 166,482 167,23 168,23 169,21 170,25 171,27 172,22 173,33 174,30 175,31 176,46 177,37 177,0 Z" fill="rgb(50,190,243)"><title>Safari/3.1.x</title></path><path class="Safari30x" d="M0,0 L0,81 1,99 2,110 3,185 4,182 5,266 6,118 7,135 8,133 9,180 10,127 11,136 12,162 13,117 14,123 15,137 16,177 17,198 18,245 19,329 20,126 21,88 22,89 23,99 24,101 25,115 26,215 27,182 28,145 29,178 30,149 31,151 32,101 33,130 34,174 35,134 36,132 37,241 38,328 39,216 40,379 41,977 42,210 43,249 44,342 45,820 46,612 47,203 48,230 49,265 50,293 51,223 52,247 53,220 54,165 55,248 56,240 57,252 58,216 59,232 60,207 61,240 62,221 63,188 64,174 65,204 66,190 67,213 68,228 69,625 70,473 71,185 72,199 73,155 74,166 75,151 76,134 77,428 78,183 79,156 80,277 81,284 82,253 83,146 84,195 85,313 86,153 87,220 88,164 89,443 90,305 91,172.00000000000003 92,140 93,151 94,163 95,222 96,144 97,125 98,135 99,145 100,133 101,146 102,165 103,154 104,140 105,133 106,90 107,163 108,166 109,154 110,154 111,123 112,135 113,143 114,132 115,129 116,110 117,116 118,103 119,106 120,119 121,110 122,102 123,114 124,132 125,107 126,134 127,140 128,108 129,124 130,146 131,121 132,143 133,172 134,110 135,145 136,148 137,128 138,133 139,143 140,123 141,156 142,134 143,171 144,134 145,183 146,151 147,163 148,174 149,230 150,271 151,445 152,162 153,176 154,329 155,126 156,142 157,154 158,175 159,162 160,168 161,78 162,100 163,97 164,195 165,159 166,482 167,23 168,23 169,21 170,25 171,27 172,22 173,33 174,30 175,31 176,46 177,37 177,0 Z" fill="rgb(90,202,245)"><title>Safari/3.0.x</title></path><path class="Safari20" d="M0,0 L0,77 1,97 2,106 3,184 4,180 5,265 6,117 7,133 8,131 9,174 10,125 11,132 12,161 13,113 14,121 15,133 16,175 17,194 18,243 19,321 20,125 21,86 22,87 23,94 24,99 25,109 26,209 27,176 28,142 29,173 30,140 31,146 32,92 33,124 34,162 35,118 36,123 37,212 38,307 39,201 40,349 41,879 42,158 43,151 44,209 45,620 46,346 47,118 48,132 49,159 50,165 51,145 52,135 53,157 54,99 55,134 56,162 57,157 58,139 59,155 60,164 61,198 62,182 63,171 64,154 65,187 66,164 67,191 68,202 69,596 70,448 71,164 72,172 73,130 74,139 75,126 76,113 77,408 78,161 79,127 80,241 81,235 82,199 83,146 84,195 85,310 86,153 87,218 88,164 89,434 90,304 91,172.00000000000003 92,139 93,151 94,163 95,222 96,144 97,125 98,135 99,145 100,133 101,146 102,165 103,154 104,140 105,133 106,90 107,163 108,166 109,154 110,154 111,123 112,135 113,143 114,132 115,129 116,110 117,116 118,103 119,106 120,119 121,110 122,102 123,114 124,132 125,107 126,134 127,140 128,108 129,124 130,146 131,121 132,143 133,172 134,110 135,145 136,148 137,128 138,133 139,143 140,123 141,156 142,134 143,171 144,134 145,183 146,151 147,163 148,174 149,230 150,271 151,445 152,162 153,176 154,329 155,126 156,142 157,154 158,175 159,162 160,168 161,78 162,100 163,97 164,195 165,159 166,482 167,23 168,23 169,21 170,25 171,27 172,22 173,33 174,30 175,31 176,46 177,37 177,0 Z" fill="rgb(150,224,255)"><title>Safari/2.0-</title></path><path class="OperaOther" d="M0,0 L0,77 1,96 2,105 3,182 4,179 5,263 6,116 7,131 8,129 9,173 10,123 11,132 12,152 13,109 14,116 15,131 16,173 17,192 18,240 19,315 20,122 21,85 22,82 23,94 24,95 25,105 26,207 27,173 28,138 29,168 30,135 31,141 32,83 33,112 34,154 35,110 36,116 37,197 38,293 39,188 40,335 41,844 42,152 43,141 44,190 45,588 46,319 47,108 48,124 49,139 50,146 51,129 52,113 53,140 54,83 55,117 56,131 57,131 58,109 59,126 60,124 61,159 62,130 63,129 64,109 65,152 66,112 67,148 68,160 69,543 70,401 71,114 72,128 73,81 74,105 75,90 76,76 77,194 78,99 79,95 80,188 81,183 82,142 83,85 84,105 85,140 86,104 87,151 88,103 89,337 90,252 91,117.00000000000001 92,90 93,108 94,122.99999999999999 95,159 96,102 97,81 98,98 99,101 100,98 101,86 102,112 103,101 104,105 105,93 106,62 107,136 108,122.99999999999999 109,115 110,106 111,73 112,85 113,105 114,86 115,87 116,73 117,79 118,65 119,71 120,69 121,74 122,77 123,71 124,83 125,77 126,79 127,99 128,67 129,77 130,106 131,73 132,91 133,114 134,61 135,95 136,102 137,80 138,83 139,93 140,96 141,105 142,81 143,103 144,90 145,122 146,98 147,116 148,135 149,158 150,199 151,386 152,91 153,118 154,127 155,78 156,89 157,89 158,87 159,109 160,121 161,60 162,82 163,72 164,167 165,145 166,459 167,16 168,17 169,11 170,17 171,19 172,13 173,19 174,21 175,22 176,34 177,28.000000000000004 177,0 Z" fill="rgb(135,20,23)"><title>Opera/Other</title></path><path class="Opera100" d="M0,0 L0,77 1,96 2,105 3,182 4,179 5,263 6,116 7,131 8,129 9,172 10,123 11,131 12,150 13,108 14,116 15,130 16,173 17,191 18,239 19,313 20,115 21,83 22,81 23,92 24,93 25,103 26,205 27,171 28,137 29,168 30,135 31,140 32,82 33,112 34,153 35,109 36,113 37,194 38,290 39,188 40,332 41,839 42,151 43,141 44,189 45,587 46,318 47,106 48,123 49,138 50,146 51,127 52,112 53,138 54,82 55,115 56,131 57,130 58,107 59,124 60,122 61,159 62,129 63,127 64,109 65,152 66,111 67,148 68,160 69,543 70,399 71,114 72,128 73,79 74,105 75,90 76,76 77,194 78,99 79,94 80,188 81,183 82,142 83,84 84,105 85,139 86,104 87,151 88,103 89,336 90,251 91,117.00000000000001 92,87 93,108 94,122.99999999999999 95,157 96,102 97,81 98,98 99,101 100,98 101,86 102,112 103,101 104,105 105,92 106,62 107,135 108,122.99999999999999 109,115 110,106 111,73 112,85 113,105 114,86 115,87 116,73 117,79 118,65 119,69 120,69 121,74 122,77 123,71 124,83 125,77 126,79 127,99 128,67 129,76 130,106 131,73 132,91 133,114 134,60 135,94 136,101 137,80 138,83 139,93 140,96 141,105 142,81 143,103 144,90 145,122 146,96 147,110 148,129 149,152 150,196 151,384 152,89 153,117 154,127 155,77 156,88 157,87 158,87 159,107 160,120 161,60 162,82 163,71 164,167 165,143 166,458 167,14.000000000000002 168,17 169,11 170,17 171,18 172,12 173,19 174,18 175,20 176,31 177,28.000000000000004 177,0 Z" fill="rgb(165,20,25)"><title>Opera/10.0</title></path><path class="Opera95x" d="M0,0 L0,61 1,76 2,90 3,151 4,137 5,207 6,114 7,131 8,129 9,169 10,123 11,131 12,150 13,108 14,116 15,130 16,173 17,191 18,239 19,313 20,115 21,83 22,81 23,92 24,93 25,103 26,205 27,171 28,137 29,168 30,135 31,140 32,82 33,112 34,153 35,109 36,113 37,194 38,290 39,188 40,332 41,839 42,151 43,141 44,189 45,587 46,318 47,106 48,123 49,138 50,146 51,127 52,112 53,138 54,82 55,115 56,131 57,130 58,107 59,124 60,122 61,159 62,129 63,127 64,109 65,152 66,111 67,148 68,160 69,543 70,399 71,114 72,128 73,79 74,105 75,90 76,76 77,194 78,99 79,94 80,188 81,183 82,142 83,84 84,105 85,139 86,104 87,151 88,103 89,336 90,251 91,117.00000000000001 92,87 93,108 94,122.99999999999999 95,157 96,102 97,81 98,98 99,101 100,98 101,86 102,112 103,101 104,105 105,92 106,62 107,135 108,122.99999999999999 109,115 110,106 111,73 112,85 113,105 114,86 115,87 116,73 117,79 118,65 119,69 120,69 121,74 122,77 123,71 124,83 125,77 126,79 127,99 128,67 129,76 130,106 131,73 132,91 133,114 134,60 135,94 136,101 137,80 138,83 139,93 140,96 141,105 142,81 143,103 144,90 145,122 146,96 147,110 148,129 149,152 150,196 151,384 152,89 153,117 154,127 155,77 156,88 157,87 158,87 159,107 160,120 161,60 162,82 163,71 164,167 165,143 166,458 167,14.000000000000002 168,17 169,11 170,17 171,18 172,12 173,19 174,18 175,20 176,31 177,28.000000000000004 177,0 Z" fill="rgb(195,23,25)"><title>Opera/9.5x</title></path><path class="Opera90x" d="M0,0 L0,26 1,33 2,34 3,52 4,31 5,39 6,25 7,33 8,33 9,49 10,39 11,46 12,49 13,36 14,25 15,42 16,48 17,36 18,45 19,48 20,27 21,27 22,25 23,22 24,40 25,28 26,30 27,30 28,33 29,40 30,48 31,92 32,46 33,72 34,90 35,69 36,77 37,109 38,173 39,122.00000000000001 40,191 41,444 42,87 43,95 44,122.99999999999999 45,410 46,194 47,79 48,94 49,99 50,113 51,100 52,79 53,90 54,62 55,80 56,104 57,100 58,74 59,88 60,86 61,92 62,84 63,89 64,83 65,118.00000000000001 66,87 67,113 68,125 69,316 70,207 71,113 72,128 73,79 74,104 75,89 76,76 77,194 78,99 79,94 80,187 81,181 82,142 83,84 84,105 85,139 86,104 87,151 88,103 89,334 90,251 91,117.00000000000001 92,87 93,108 94,122.99999999999999 95,157 96,102 97,81 98,98 99,101 100,98 101,86 102,112 103,101 104,105 105,92 106,62 107,135 108,122.99999999999999 109,115 110,106 111,73 112,85 113,105 114,86 115,87 116,73 117,79 118,65 119,69 120,69 121,74 122,77 123,71 124,83 125,77 126,79 127,99 128,67 129,76 130,106 131,73 132,91 133,114 134,60 135,94 136,101 137,80 138,83 139,93 140,96 141,105 142,81 143,103 144,90 145,122 146,96 147,110 148,129 149,152 150,196 151,384 152,89 153,117 154,127 155,77 156,88 157,87 158,87 159,107 160,120 161,60 162,82 163,71 164,167 165,143 166,458 167,14.000000000000002 168,17 169,11 170,17 171,18 172,12 173,19 174,18 175,20 176,31 177,28.000000000000004 177,0 Z" fill="rgb(225,45,48)"><title>Opera/9.0x</title></path><path class="Opera85" d="M0,0 L0,7.000000000000001 1,10 2,19 3,18 4,15 5,17 6,11 7,14.000000000000002 8,12 9,15 10,14.000000000000002 11,20 12,12 13,14.000000000000002 14,12 15,17 16,15 17,9 18,9 19,12 20,11 21,9 22,11 23,9 24,8 25,9 26,9 27,7.000000000000001 28,9 29,10 30,9 31,8 32,9 33,11 34,10 35,9 36,11 37,14.000000000000002 38,16 39,12 40,15 41,18 42,13 43,8 44,9 45,12 46,8 47,5 48,8 49,13 50,12 51,13 52,6 53,10 54,16 55,14.000000000000002 56,12 57,12 58,10 59,15 60,9 61,8 62,9 63,7.000000000000001 64,12 65,7.000000000000001 66,9 67,8 68,17 69,20 70,8 71,8 72,11 73,8 74,7.000000000000001 75,11 76,6 77,124 78,31 79,6 80,15 81,12 82,10 83,13 84,12 85,12 86,15 87,19 88,9 89,22 90,9 91,7.000000000000001 92,13 93,14.000000000000002 94,10 95,10 96,16 97,7.000000000000001 98,15 99,8 100,10 101,12 102,11 103,11 104,10 105,10 106,11 107,12 108,10 109,9 110,10 111,7.000000000000001 112,7.000000000000001 113,10 114,9 115,12 116,10 117,7.000000000000001 118,9 119,9 120,9 121,9 122,15 123,12 124,16 125,15 126,19 127,26 128,13 129,17 130,22 131,22 132,23 133,31 134,27 135,57.99999999999999 136,49 137,38 138,42 139,51 140,59 141,61 142,48 143,59 144,46 145,77 146,56.99999999999999 147,73 148,76 149,61 150,94 151,139 152,63 153,89 154,100 155,52 156,62 157,53 158,63 159,81 160,89 161,41 162,56.00000000000001 163,53 164,108 165,81 166,216 167,14.000000000000002 168,17 169,11 170,17 171,18 172,12 173,19 174,18 175,20 176,31 177,28.000000000000004 177,0 Z" fill="rgb(255,68,72)"><title>Opera/8.5-</title></path></g>
        </g>
        <g id="browser_timechartseries_overlay"><a xlink:href="http://ajaxian.com/archives/the-state-of-svg-browser-support-using-flash-for-svg-in-internet-explorer" xlink:title="SVG Support page linked on Ajaxian" target="_blank"><circle id="pt158" fill="#ffa" stroke="black" stroke-width="1" r="2" cx="357.0621468926554" cy="72.69586674892042" display="inline"><animate attributeName="stroke-width" from="1" to="1.5" dur="350ms" begin="mouseover" fill="freeze"/><animate attributeName="stroke-width" from="1.5" to="1" dur="250ms" begin="mouseout" fill="freeze"/><animate attributeName="r" from="2" to="3" dur="350ms" begin="mouseover" fill="freeze"/><animate attributeName="r" from="3" to="2" dur="250ms" begin="mouseout" fill="freeze"/><animateColor attributeName="fill" from="#ffd" to="#ff8" dur="350ms" begin="mouseover" fill="freeze"/><animateColor attributeName="fill" from="#ff8" to="#ffd" dur="250ms" begin="mouseout" fill="freeze"/></circle></a><a xlink:href="http://blog.codedread.com/archives/2008/03/26/acid3-neck-and-neck/" xlink:title="Reporting on Acid 3 and Mark Pilgrim's The Warts of Flickr" target="_blank"><circle id="pt136" fill="#ffa" stroke="black" stroke-width="1" r="2" cx="307.3446327683616" cy="3.7014188772362786" display="inline"><animate attributeName="stroke-width" from="1" to="1.5" dur="350ms" begin="mouseover" fill="freeze"/><animate attributeName="stroke-width" from="1.5" to="1" dur="250ms" begin="mouseout" fill="freeze"/><animate attributeName="r" from="2" to="3" dur="350ms" begin="mouseover" fill="freeze"/><animate attributeName="r" from="3" to="2" dur="250ms" begin="mouseout" fill="freeze"/><animateColor attributeName="fill" from="#ffd" to="#ff8" dur="350ms" begin="mouseover" fill="freeze"/><animateColor attributeName="fill" from="#ff8" to="#ffd" dur="250ms" begin="mouseout" fill="freeze"/></circle></a><a xlink:href="http://blog.codedread.com/archives/2008/02/18/new-xhtmlsvg-theme/" xlink:title="Debut of New XHTML+SVG Theme" target="_blank"><circle id="pt132" fill="#ffa" stroke="black" stroke-width="1" r="2" cx="298.3050847457627" cy="125.36705737199259" display="inline"><animate attributeName="stroke-width" from="1" to="1.5" dur="350ms" begin="mouseover" fill="freeze"/><animate attributeName="stroke-width" from="1.5" to="1" dur="250ms" begin="mouseout" fill="freeze"/><animate attributeName="r" from="2" to="3" dur="350ms" begin="mouseover" fill="freeze"/><animate attributeName="r" from="3" to="2" dur="250ms" begin="mouseout" fill="freeze"/><animateColor attributeName="fill" from="#ffd" to="#ff8" dur="350ms" begin="mouseover" fill="freeze"/><animateColor attributeName="fill" from="#ff8" to="#ffd" dur="250ms" begin="mouseout" fill="freeze"/></circle></a><a xlink:href="http://www.codedread.com/svg-support.php" xlink:title="Update SVG Support chart for Opera 9.5 Alpha 1" target="_blank"><circle id="pt108" fill="#ffa" stroke="black" stroke-width="1" r="2" cx="244.0677966101695" cy="194.02837754472546" display="inline"><animate attributeName="stroke-width" from="1" to="1.5" dur="350ms" begin="mouseover" fill="freeze"/><animate attributeName="stroke-width" from="1.5" to="1" dur="250ms" begin="mouseout" fill="freeze"/><animate attributeName="r" from="2" to="3" dur="350ms" begin="mouseover" fill="freeze"/><animate attributeName="r" from="3" to="2" dur="250ms" begin="mouseout" fill="freeze"/><animateColor attributeName="fill" from="#ffd" to="#ff8" dur="350ms" begin="mouseover" fill="freeze"/><animateColor attributeName="fill" from="#ff8" to="#ffd" dur="250ms" begin="mouseout" fill="freeze"/></circle></a><a xlink:href="http://blog.codedread.com/archives/2007/05/23/thoughts-on-the-lost-season-3-finale/" xlink:title="Review of Lost Season 3 Finale" target="_blank"><circle id="pt92" fill="#ffa" stroke="black" stroke-width="1" r="2" cx="207.909604519774" cy="154.9784083898828" display="inline"><animate attributeName="stroke-width" from="1" to="1.5" dur="350ms" begin="mouseover" fill="freeze"/><animate attributeName="stroke-width" from="1.5" to="1" dur="250ms" begin="mouseout" fill="freeze"/><animate attributeName="r" from="2" to="3" dur="350ms" begin="mouseover" fill="freeze"/><animate attributeName="r" from="3" to="2" dur="250ms" begin="mouseout" fill="freeze"/><animateColor attributeName="fill" from="#ffd" to="#ff8" dur="350ms" begin="mouseover" fill="freeze"/><animateColor attributeName="fill" from="#ff8" to="#ffd" dur="250ms" begin="mouseout" fill="freeze"/></circle></a><a xlink:href="http://operawatch.com/news/2007/04/how-opera-ranks-with-its-svg-implementation-best-native-implementation.html" xlink:title="SVG Support chart linked to on Opera Watch" target="_blank"><circle id="pt88" fill="#ffa" stroke="black" stroke-width="1" r="2" cx="198.87005649717514" cy="197.24861196792102" display="inline"><animate attributeName="stroke-width" from="1" to="1.5" dur="350ms" begin="mouseover" fill="freeze"/><animate attributeName="stroke-width" from="1.5" to="1" dur="250ms" begin="mouseout" fill="freeze"/><animate attributeName="r" from="2" to="3" dur="350ms" begin="mouseover" fill="freeze"/><animate attributeName="r" from="3" to="2" dur="250ms" begin="mouseout" fill="freeze"/><animateColor attributeName="fill" from="#ffd" to="#ff8" dur="350ms" begin="mouseover" fill="freeze"/><animateColor attributeName="fill" from="#ff8" to="#ffd" dur="250ms" begin="mouseout" fill="freeze"/></circle></a><a xlink:href="http://www.codedread.com/displayWebStats.php" xlink:title="My SVG Web Stats are referenced on stumbleupon" target="_blank"><circle id="pt62" fill="#ffa" stroke="black" stroke-width="1" r="2" cx="140.11299435028246" cy="173.4484885872918" display="inline"><animate attributeName="stroke-width" from="1" to="1.5" dur="350ms" begin="mouseover" fill="freeze"/><animate attributeName="stroke-width" from="1.5" to="1" dur="250ms" begin="mouseout" fill="freeze"/><animate attributeName="r" from="2" to="3" dur="350ms" begin="mouseover" fill="freeze"/><animate attributeName="r" from="3" to="2" dur="250ms" begin="mouseout" fill="freeze"/><animateColor attributeName="fill" from="#ffd" to="#ff8" dur="350ms" begin="mouseover" fill="freeze"/><animateColor attributeName="fill" from="#ff8" to="#ffd" dur="250ms" begin="mouseout" fill="freeze"/></circle></a><a xlink:href="http://blog.codedread.com/archives/2006/02/07/opera-9-tp2-a-long-wait/" xlink:title="My Review of Opera 9 Technical Preview 2" target="_blank"><circle id="pt26" fill="#ffa" stroke="black" stroke-width="1" r="2" cx="58.75706214689268" cy="204.46637877853175" display="inline"><animate attributeName="stroke-width" from="1" to="1.5" dur="350ms" begin="mouseover" fill="freeze"/><animate attributeName="stroke-width" from="1.5" to="1" dur="250ms" begin="mouseout" fill="freeze"/><animate attributeName="r" from="2" to="3" dur="350ms" begin="mouseover" fill="freeze"/><animate attributeName="r" from="3" to="2" dur="250ms" begin="mouseout" fill="freeze"/><animateColor attributeName="fill" from="#ffd" to="#ff8" dur="350ms" begin="mouseover" fill="freeze"/><animateColor attributeName="fill" from="#ff8" to="#ffd" dur="250ms" begin="mouseout" fill="freeze"/></circle></a><a xlink:href="http://blog.codedread.com/archives/2006/01/12/pretty-web-statistics-in-svg/" xlink:title="First published my SVG Web Stats (got on reddit)" target="_blank"><circle id="pt23" fill="#ffa" stroke="black" stroke-width="1" r="2" cx="51.97740112994353" cy="173.0413325107958" display="inline"><animate attributeName="stroke-width" from="1" to="1.5" dur="350ms" begin="mouseover" fill="freeze"/><animate attributeName="stroke-width" from="1.5" to="1" dur="250ms" begin="mouseout" fill="freeze"/><animate attributeName="r" from="2" to="3" dur="350ms" begin="mouseover" fill="freeze"/><animate attributeName="r" from="3" to="2" dur="250ms" begin="mouseout" fill="freeze"/><animateColor attributeName="fill" from="#ffd" to="#ff8" dur="350ms" begin="mouseover" fill="freeze"/><animateColor attributeName="fill" from="#ff8" to="#ffd" dur="250ms" begin="mouseout" fill="freeze"/></circle></a><a xlink:href="http://blog.codedread.com/archives/2007/01/19/guide-to-deploying-svg-with-html/" xlink:title="First published Guide for Deploying SVG in HTML (has since been updated)" target="_blank"><circle id="pt17" fill="#ffa" stroke="black" stroke-width="1" r="2" cx="38.418079096045176" cy="197.5817396668723" display="inline"><animate attributeName="stroke-width" from="1" to="1.5" dur="350ms" begin="mouseover" fill="freeze"/><animate attributeName="stroke-width" from="1.5" to="1" dur="250ms" begin="mouseout" fill="freeze"/><animate attributeName="r" from="2" to="3" dur="350ms" begin="mouseover" fill="freeze"/><animate attributeName="r" from="3" to="2" dur="250ms" begin="mouseout" fill="freeze"/><animateColor attributeName="fill" from="#ffd" to="#ff8" dur="350ms" begin="mouseover" fill="freeze"/><animateColor attributeName="fill" from="#ff8" to="#ffd" dur="250ms" begin="mouseout" fill="freeze"/></circle></a><a xlink:href="http://www.codedread.com/yastframe.php" xlink:title="Yet Another SVG Tetris mentioned on mozilla.org" target="_blank"><circle id="pt13" fill="#ffa" stroke="black" stroke-width="1" r="2" cx="29.37853107344631" cy="236.59469463294263" display="inline"><animate attributeName="stroke-width" from="1" to="1.5" dur="350ms" begin="mouseover" fill="freeze"/><animate attributeName="stroke-width" from="1.5" to="1" dur="250ms" begin="mouseout" fill="freeze"/><animate attributeName="r" from="2" to="3" dur="350ms" begin="mouseover" fill="freeze"/><animate attributeName="r" from="3" to="2" dur="250ms" begin="mouseout" fill="freeze"/><animateColor attributeName="fill" from="#ffd" to="#ff8" dur="350ms" begin="mouseover" fill="freeze"/><animateColor attributeName="fill" from="#ff8" to="#ffd" dur="250ms" begin="mouseout" fill="freeze"/></circle></a><a xlink:href="http://blog.codedread.com/archives/2005/10/26/the-opera-bandwagon/" xlink:title="The Opera Bandwagon" target="_blank"><circle id="pt11" fill="#ffa" stroke="black" stroke-width="1" r="2" cx="24.85875706214688" cy="254.84268969771745" display="inline"><animate attributeName="stroke-width" from="1" to="1.5" dur="350ms" begin="mouseover" fill="freeze"/><animate attributeName="stroke-width" from="1.5" to="1" dur="250ms" begin="mouseout" fill="freeze"/><animate attributeName="r" from="2" to="3" dur="350ms" begin="mouseover" fill="freeze"/><animate attributeName="r" from="3" to="2" dur="250ms" begin="mouseout" fill="freeze"/><animateColor attributeName="fill" from="#ffd" to="#ff8" dur="350ms" begin="mouseover" fill="freeze"/><animateColor attributeName="fill" from="#ff8" to="#ffd" dur="250ms" begin="mouseout" fill="freeze"/></circle></a></g>
      </g>
      <g id="browser_timechartaxes"><g id="yaxis"><line x1="-5" y1="300" x2="5" y2="300" stroke="black" stroke-width="3px"/><line x1="0" y1="300" x2="400" y2="300" stroke="grey" stroke-width="1px" opacity="0.5"/><text x="-10" y="305" text-anchor="end" font-size="12"/><line x1="-5" y1="244.47871684145588" x2="5" y2="244.47871684145588" stroke="black" stroke-width="3px"/><line x1="0" y1="244.47871684145588" x2="400" y2="244.47871684145588" stroke="grey" stroke-width="1px" opacity="0.5"/><text x="-10" y="249.479" text-anchor="end" font-size="12">1500</text><line x1="-5" y1="188.95743368291178" x2="5" y2="188.95743368291178" stroke="black" stroke-width="3px"/><line x1="0" y1="188.95743368291178" x2="400" y2="188.95743368291178" stroke="grey" stroke-width="1px" opacity="0.5"/><text x="-10" y="193.957" text-anchor="end" font-size="12">3000</text><line x1="-5" y1="133.43615052436766" x2="5" y2="133.43615052436766" stroke="black" stroke-width="3px"/><line x1="0" y1="133.43615052436766" x2="400" y2="133.43615052436766" stroke="grey" stroke-width="1px" opacity="0.5"/><text x="-10" y="138.436" text-anchor="end" font-size="12">4500</text><line x1="-5" y1="77.91486736582357" x2="5" y2="77.91486736582357" stroke="black" stroke-width="3px"/><line x1="0" y1="77.91486736582357" x2="400" y2="77.91486736582357" stroke="grey" stroke-width="1px" opacity="0.5"/><text x="-10" y="82.9149" text-anchor="end" font-size="12">6000</text><line x1="-5" y1="22.393584207279446" x2="5" y2="22.393584207279446" stroke="black" stroke-width="3px"/><line x1="0" y1="22.393584207279446" x2="400" y2="22.393584207279446" stroke="grey" stroke-width="1px" opacity="0.5"/><text x="-10" y="27.3936" text-anchor="end" font-size="12">7500</text></g><g id="xaxis"><line x1="0" y1="295" x2="0" y2="305" stroke="black" stroke-width="3px"/><line x1="400" y1="295" x2="400" y2="305" stroke="black" stroke-width="3px"/><line x1="47.45762711864407" y1="295" x2="47.45762711864407" y2="305" stroke="black" stroke-width="3px"/><text x="47.4576" y="320" text-anchor="middle" font-size="12">2006</text><line x1="162.71186440677965" y1="295" x2="162.71186440677965" y2="305" stroke="black" stroke-width="3px"/><text x="162.712" y="320" text-anchor="middle" font-size="12">2007</text><line x1="280.225988700565" y1="295" x2="280.225988700565" y2="305" stroke="black" stroke-width="3px"/><text x="280.226" y="320" text-anchor="middle" font-size="12">2008</text><line x1="397.7401129943503" y1="295" x2="397.7401129943503" y2="305" stroke="black" stroke-width="3px"/><text x="397.74" y="320" text-anchor="middle" font-size="12">2009</text></g></g>
      <g id="browser_timechartglobalaxis"><g id="xaxis" transform="translate(0, 40)"><line x1="0" y1="295" x2="0" y2="305" stroke="black" stroke-width="3px"/><line x1="400" y1="295" x2="400" y2="305" stroke="black" stroke-width="3px"/><line x1="47.45762711864407" y1="295" x2="47.45762711864407" y2="305" stroke="black" stroke-width="3px"/><text x="47.4576" y="320" text-anchor="middle" font-size="12">2006</text><line x1="162.71186440677965" y1="295" x2="162.71186440677965" y2="305" stroke="black" stroke-width="3px"/><text x="162.712" y="320" text-anchor="middle" font-size="12">2007</text><line x1="280.225988700565" y1="295" x2="280.225988700565" y2="305" stroke="black" stroke-width="3px"/><text x="280.226" y="320" text-anchor="middle" font-size="12">2008</text><line x1="397.7401129943503" y1="295" x2="397.7401129943503" y2="305" stroke="black" stroke-width="3px"/><text x="397.74" y="320" text-anchor="middle" font-size="12">2009</text><line x1="0" y1="300" x2="400" y2="300" stroke="black" stroke-width="3px"/><line x1="400" y1="295" x2="400" y2="305" stroke="black" stroke-width="3px"/><rect id="browser_scrollbar" x="0" y="295" width="400" height="10" stroke="#666" stroke-width="1px" fill="url(#scrollbargrad)" fill-opacity="1.0" drag:enable="true" transform="translate(0)" drag:x="0" drag:y="0" drag:oldcursor="" cursor="move" drag:constraintLeft="0" drag:constraintTop="0" drag:constraintRight="0" drag:constraintBottom="0"/><g id="browser_leftgrip" fill="url(#startButt)" drag:enable="true" transform="translate(0)" drag:x="0" drag:y="0" drag:oldcursor="" cursor="w-resize" drag:constraintLeft="0" drag:constraintTop="0" drag:constraintRight="400" drag:constraintBottom="0"><use xlink:href="#grippie" transform="translate(0, 300)"/></g><g id="browser_rightgrip" fill="url(#stopButt)" drag:enable="true" transform="translate(0)" drag:x="0" drag:y="0" drag:oldcursor="" cursor="e-resize" drag:constraintLeft="-400" drag:constraintTop="0" drag:constraintRight="0" drag:constraintBottom="0"><use xlink:href="#grippie" transform="translate(400, 300)"/></g></g></g>
      <g id="browser_horizcurs" transform="translate(400)" drag:enable="true" drag:constraintLeft="0" drag:constraintRight="400" drag:constraintTop="0" drag:constraintBottom="0" drag:x="400" drag:y="0" drag:oldcursor="" cursor="move">
        <path id="horizCursTopArrow" fill="black" stroke="none" d="M0,0 L-5,-5 L5,-5 Z"/>
        <path id="horizCursBottomArrow" fill="black" stroke="none" d="M0,300 L5,305 L-5,305 Z"/>
        <line id="horizCursLine" x1="0" y1="0" x2="0" y2="300" stroke="black" stroke-width="1px" opacity="0.8"/>
      </g>
    </g>
    <g id="browser_piegroup" transform="translate(430)"><circle id="OuterRing" cx="150" cy="150" r="150" fill="#777" stroke="none"/><g id="AllWedges" transform="rotate(90,150,150)"><circle id="WEDGEOpera/8.5-" title="Opera/8.5-" class="wedge Opera85" cx="150" cy="150" r="125" stroke="none" fill="rgb(255,68,72)" display="inline" d="M25,150 A125,125 0 0 1 25.03222240360033,147.16194386651873 L150,150 Z"><title>Opera/8.5-</title></circle><path id="WEDGEOpera/9.0x" title="Opera/9.0x" class="wedge Opera90x" stroke="none" fill="rgb(225,45,48)" display="inline" d="M25.03222240360033,147.16194386651873 A125,125 0 0 1 25.444293304608948,139.47023601348462 L150,150 Z"><title>Opera/9.0x</title></path><path id="WEDGEOpera/9.5x" title="Opera/9.5x" class="wedge Opera95x" stroke="none" fill="rgb(195,23,25)" display="inline" d="M25.444293304608948,139.47023601348462 A125,125 0 0 1 27.43906144728936,125.42732531695646 L150,150 Z"><title>Opera/9.5x</title></path><path id="WEDGEOpera/10.0" title="Opera/10.0" class="wedge Opera100" stroke="none" fill="rgb(165,20,25)" display="inline" d="M27.43906144728936,125.42732531695646 A125,125 0 0 1 28.878850046392714,119.10231345366165 L150,150 Z"><title>Opera/10.0</title></path><path id="WEDGEOpera/Other" title="Opera/Other" class="wedge OperaOther" stroke="none" fill="rgb(135,20,23)" display="none"><title>Opera/Other</title></path><path id="WEDGESafari/2.0-" title="Safari/2.0-" class="wedge Safari20" stroke="none" fill="rgb(150,224,255)" display="none"><title>Safari/2.0-</title></path><path id="WEDGESafari/3.0.x" title="Safari/3.0.x" class="wedge Safari30x" stroke="none" fill="rgb(90,202,245)" display="inline" d="M28.878850046392714,119.10231345366165 A125,125 0 0 1 29.289934334689647,117.5334010546768 L150,150 Z"><title>Safari/3.0.x</title></path><path id="WEDGESafari/3.1.x" title="Safari/3.1.x" class="wedge Safari31x" stroke="none" fill="rgb(50,190,243)" display="inline" d="M29.289934334689647,117.5334010546768 A125,125 0 0 1 30.40639224491275,113.63560829434465 L150,150 Z"><title>Safari/3.1.x</title></path><path id="WEDGESafari/4.0.x" title="Safari/4.0.x" class="wedge Safari40x" stroke="none" fill="rgb(20,170,241)" display="inline" d="M30.40639224491275,113.63560829434465 A125,125 0 0 1 30.888276930330804,112.08697549160136 L150,150 Z"><title>Safari/4.0.x</title></path><path id="WEDGESafari/Other" title="Safari/Other" class="wedge SafariOther" stroke="none" fill="rgb(0,160,240)" display="inline" d="M30.888276930330804,112.08697549160136 A125,125 0 0 1 36.967501396056534,96.62721424405953 L150,150 Z"><title>Safari/Other</title></path><path id="WEDGEFirefox/1.5-" title="Firefox/1.5-" class="wedge Firefox15" stroke="none" fill="rgb(255,180,85)" display="inline" d="M36.967501396056534,96.62721424405953 A125,125 0 0 1 38.57360674678179,93.35056146280735 L150,150 Z"><title>Firefox/1.5-</title></path><path id="WEDGEFirefox/2.0.x" title="Firefox/2.0.x" class="wedge Firefox20x" stroke="none" fill="rgb(255,160,50)" display="inline" d="M38.57360674678179,93.35056146280735 A125,125 0 0 1 53.15301343165359,70.97050428713005 L150,150 Z"><title>Firefox/2.0.x</title></path><path id="WEDGEFirefox/3.0.x" title="Firefox/3.0.x" class="wedge Firefox30x" stroke="none" fill="rgb(255,140,20)" display="inline" d="M53.15301343165359,70.97050428713005 A125,125 0 0 1 204.74374667999743,37.62508198251591 L150,150 Z"><title>Firefox/3.0.x</title></path><path id="WEDGEFirefox/3.1.x" title="Firefox/3.1.x" class="wedge Firefox31x" stroke="none" fill="rgb(244,120,0)" display="inline" d="M204.74374667999743,37.62508198251591 A125,125 0 0 1 210.14457865885683,40.42066956789441 L150,150 Z"><title>Firefox/3.1.x</title></path><path id="WEDGEFirefox/Other" title="Firefox/Other" class="wedge FirefoxOther" stroke="none" fill="rgb(232,100,0)" display="inline" d="M210.14457865885683,40.42066956789441 A125,125 0 0 1 214.01541935686936,42.63601123018876 L150,150 Z"><title>Firefox/Other</title></path><path id="WEDGEIE/5.5-" title="IE/5.5-" class="wedge IE55" stroke="none" fill="rgb(0,133,221)" display="inline" d="M214.01541935686936,42.63601123018876 A125,125 0 0 1 187.04268724115607,269.3852558817624 L150,150 Z"><title>IE/5.5-</title></path><path id="WEDGEIE/6.0x" title="IE/6.0x" class="wedge IE60x" stroke="none" fill="rgb(0,115,191)" display="inline" d="M187.04268724115607,269.3852558817624 A125,125 0 0 1 58.75688613387972,235.43824771151503 L150,150 Z"><title>IE/6.0x</title></path><path id="WEDGEIE/7.0x" title="IE/7.0x" class="wedge IE70x" stroke="none" fill="rgb(0,90,151)" display="inline" d="M58.75688613387972,235.43824771151503 A125,125 0 0 1 26.05072997159496,166.1733873825347 L150,150 Z"><title>IE/7.0x</title></path><path id="WEDGEIE/8.0x" title="IE/8.0x" class="wedge IE80x" stroke="none" fill="rgb(0,79,131)" display="inline" d="M26.05072997159496,166.1733873825347 A125,125 0 0 1 25.899212996090654,164.96645131653875 L150,150 Z"><title>IE/8.0x</title></path><path id="WEDGEIE/Other" title="IE/Other" class="wedge IEOther" stroke="none" fill="rgb(0,60,100)" display="inline" d="M25.899212996090654,164.96645131653875 A125,125 0 0 1 25.6314484696789,162.54844174588482 L150,150 Z"><title>IE/Other</title></path><path id="WEDGEChrome/0.5-" title="Chrome/0.5-" class="wedge Chrome05" stroke="none" fill="rgb(160,160,160)" display="inline" d="M25.6314484696789,162.54844174588482 A125,125 0 0 1 25.59139856961552,162.14495327845006 L150,150 Z"><title>Chrome/0.5-</title></path><path id="WEDGEChrome/1.0.x" title="Chrome/1.0.x" class="wedge Chrome10x" stroke="none" fill="rgb(140,140,140)" display="inline" d="M25.59139856961552,162.14495327845006 A125,125 0 0 1 25.000657627751394,150.40547072073554 L150,150 Z"><title>Chrome/1.0.x</title></path><path id="WEDGEChrome/2.0.x" title="Chrome/2.0.x" class="wedge Chrome20x" stroke="none" fill="rgb(120,120,120)" display="inline" d="M25.000657627751394,150.40547072073554 A125,125 0 0 1 25,150.00000000000003 L150,150 Z"><title>Chrome/2.0.x</title></path><path id="WEDGEChrome/Other" title="Chrome/Other" class="wedge ChromeOther" stroke="none" fill="rgb(100,100,100)" display="none"><title>Chrome/Other</title></path><g id="LabelG"><text class="label pct" fill="#FFF" stroke="none" text-anchor="middle" font-size="9px" text-shadow="#666 1px 1px 1px" display="none">%</text><text class="label version" fill="#FFF" stroke="none" text-anchor="middle" font-size="9px" text-shadow="#666 1px 1px 1px" display="none">8.5-</text><text class="label browser" fill="#FFF" stroke="none" text-anchor="middle" font-size="11px" text-shadow="#000 1px 1px 1px" font-weight="bold" display="inline" transform="translate(18.2342, 133.458) rotate(-82.8446)" title="4%">Opera<title>4%</title></text><text class="label pct" fill="#FFF" stroke="none" text-anchor="middle" font-size="9px" text-shadow="#666 1px 1px 1px" display="none">%</text><text class="label version" fill="#FFF" stroke="none" text-anchor="middle" font-size="9px" text-shadow="#666 1px 1px 1px" display="none">9.0x</text><text class="label pct" fill="#FFF" stroke="none" text-anchor="middle" font-size="9px" text-shadow="#666 1px 1px 1px" display="none">%</text><text class="label version" fill="#FFF" stroke="none" text-anchor="middle" font-size="9px" text-shadow="#666 1px 1px 1px" display="none">9.5x</text><text class="label pct" fill="#FFF" stroke="none" text-anchor="middle" font-size="9px" text-shadow="#666 1px 1px 1px" display="none">%</text><text class="label version" fill="#FFF" stroke="none" text-anchor="middle" font-size="9px" text-shadow="#666 1px 1px 1px" display="none">10.0</text><text class="label pct" fill="#FFF" stroke="none" text-anchor="middle" font-size="9px" text-shadow="#666 1px 1px 1px" display="none">%</text><text class="label version" fill="#FFF" stroke="none" text-anchor="middle" font-size="9px" text-shadow="#666 1px 1px 1px" display="none">X</text><text class="label pct" fill="#FFF" stroke="none" text-anchor="middle" font-size="9px" text-shadow="#666 1px 1px 1px" display="none">%</text><text class="label version" fill="#FFF" stroke="none" text-anchor="middle" font-size="9px" text-shadow="#666 1px 1px 1px" display="none">2.0-</text><text class="label browser" fill="#FFF" stroke="none" text-anchor="middle" font-size="11px" text-shadow="#000 1px 1px 1px" font-weight="bold" display="inline" transform="translate(25.0459, 105.03) rotate(-70.2065)" title="3%">Safari<title>3%</title></text><text class="label pct" fill="#FFF" stroke="none" text-anchor="middle" font-size="9px" text-shadow="#666 1px 1px 1px" display="none">%</text><text class="label version" fill="#FFF" stroke="none" text-anchor="middle" font-size="9px" text-shadow="#666 1px 1px 1px" display="none">3.0.x</text><text class="label pct" fill="#FFF" stroke="none" text-anchor="middle" font-size="9px" text-shadow="#666 1px 1px 1px" display="none">%</text><text class="label version" fill="#FFF" stroke="none" text-anchor="middle" font-size="9px" text-shadow="#666 1px 1px 1px" display="none">3.1.x</text><text class="label pct" fill="#FFF" stroke="none" text-anchor="middle" font-size="9px" text-shadow="#666 1px 1px 1px" display="none">%</text><text class="label version" fill="#FFF" stroke="none" text-anchor="middle" font-size="9px" text-shadow="#666 1px 1px 1px" display="none">4.0.x</text><text class="label pct" fill="#FFF" stroke="none" text-anchor="middle" font-size="9px" text-shadow="#666 1px 1px 1px" display="none">%</text><text class="label version" fill="#FFF" stroke="none" text-anchor="middle" font-size="9px" text-shadow="#666 1px 1px 1px" display="none">X</text><text class="label pct" fill="#FFF" stroke="none" text-anchor="middle" font-size="9px" text-shadow="#666 1px 1px 1px" display="none">%</text><text class="label version" fill="#FFF" stroke="none" text-anchor="middle" font-size="9px" text-shadow="#666 1px 1px 1px" display="none">1.5-</text><text class="label browser" fill="#FFF" stroke="none" text-anchor="middle" font-size="11px" text-shadow="#000 1px 1px 1px" font-weight="bold" display="inline" transform="translate(111.263, 22.9751) rotate(-16.9592)" title="27%">Firefox<title>27%</title></text><text class="label pct" fill="#FFF" stroke="none" text-anchor="middle" font-size="9px" text-shadow="#666 1px 1px 1px" display="inline" transform="translate(67.049, 95.9618) rotate(-56.9179)">3%</text><text class="label version" fill="#FFF" stroke="none" text-anchor="middle" font-size="9px" text-shadow="#666 1px 1px 1px" display="inline" transform="translate(56.1564, 88.8659) rotate(-56.9179)">2.0.x</text><text class="label pct" fill="#FFF" stroke="none" text-anchor="middle" font-size="9px" text-shadow="#666 1px 1px 1px" display="inline" transform="translate(128.731, 53.3116) rotate(-12.4058)">21%</text><text class="label version" fill="#FFF" stroke="none" text-anchor="middle" font-size="9px" text-shadow="#666 1px 1px 1px" display="inline" transform="translate(125.939, 40.6151) rotate(-12.4058)">3.0.x</text><text class="label pct" fill="#FFF" stroke="none" text-anchor="middle" font-size="9px" text-shadow="#666 1px 1px 1px" display="none">%</text><text class="label version" fill="#FFF" stroke="none" text-anchor="middle" font-size="9px" text-shadow="#666 1px 1px 1px" display="none">3.1.x</text><text class="label pct" fill="#FFF" stroke="none" text-anchor="middle" font-size="9px" text-shadow="#666 1px 1px 1px" display="none">%</text><text class="label version" fill="#FFF" stroke="none" text-anchor="middle" font-size="9px" text-shadow="#666 1px 1px 1px" display="none">X</text><text class="label pct" fill="#FFF" stroke="none" text-anchor="middle" font-size="9px" text-shadow="#666 1px 1px 1px" display="inline" transform="translate(248.307, 161.694) rotate(96.7837)">37%</text><text class="label version" fill="#FFF" stroke="none" text-anchor="middle" font-size="9px" text-shadow="#666 1px 1px 1px" display="inline" transform="translate(261.216, 163.23) rotate(96.7837)">5.5-</text><text class="label browser" fill="#FFF" stroke="none" text-anchor="middle" font-size="11px" text-shadow="#000 1px 1px 1px" font-weight="bold" display="inline" transform="translate(221.31, 262.03) rotate(147.522)" title="65%">IE<title>65%</title></text><text class="label pct" fill="#FFF" stroke="none" text-anchor="middle" font-size="9px" text-shadow="#666 1px 1px 1px" display="inline" transform="translate(124.674, 245.706) rotate(194.822)">18%</text><text class="label version" fill="#FFF" stroke="none" text-anchor="middle" font-size="9px" text-shadow="#666 1px 1px 1px" display="inline" transform="translate(121.349, 258.273) rotate(194.822)">6.0x</text><text class="label pct" fill="#FFF" stroke="none" text-anchor="middle" font-size="9px" text-shadow="#666 1px 1px 1px" display="inline" transform="translate(60.4783, 192.271) rotate(244.724)">10%</text><text class="label version" fill="#FFF" stroke="none" text-anchor="middle" font-size="9px" text-shadow="#666 1px 1px 1px" display="inline" transform="translate(48.7229, 197.822) rotate(244.724)">7.0x</text><text class="label pct" fill="#FFF" stroke="none" text-anchor="middle" font-size="9px" text-shadow="#666 1px 1px 1px" display="none">%</text><text class="label version" fill="#FFF" stroke="none" text-anchor="middle" font-size="9px" text-shadow="#666 1px 1px 1px" display="none">8.0x</text><text class="label pct" fill="#FFF" stroke="none" text-anchor="middle" font-size="9px" text-shadow="#666 1px 1px 1px" display="none">%</text><text class="label version" fill="#FFF" stroke="none" text-anchor="middle" font-size="9px" text-shadow="#666 1px 1px 1px" display="none">X</text><text class="label pct" fill="#FFF" stroke="none" text-anchor="middle" font-size="9px" text-shadow="#666 1px 1px 1px" display="none">%</text><text class="label version" fill="#FFF" stroke="none" text-anchor="middle" font-size="9px" text-shadow="#666 1px 1px 1px" display="none">0.5-</text><text class="label browser" fill="#FFF" stroke="none" text-anchor="middle" font-size="11px" text-shadow="#000 1px 1px 1px" font-weight="bold" display="inline" transform="translate(17.3678, 156.674) rotate(267.119)" title="2%">Chrome<title>2%</title></text><text class="label pct" fill="#FFF" stroke="none" text-anchor="middle" font-size="9px" text-shadow="#666 1px 1px 1px" display="none">%</text><text class="label version" fill="#FFF" stroke="none" text-anchor="middle" font-size="9px" text-shadow="#666 1px 1px 1px" display="none">1.0.x</text><text class="label pct" fill="#FFF" stroke="none" text-anchor="middle" font-size="9px" text-shadow="#666 1px 1px 1px" display="none">%</text><text class="label version" fill="#FFF" stroke="none" text-anchor="middle" font-size="9px" text-shadow="#666 1px 1px 1px" display="none">2.0.x</text><text class="label pct" fill="#FFF" stroke="none" text-anchor="middle" font-size="9px" text-shadow="#666 1px 1px 1px" display="none">%</text><text class="label version" fill="#FFF" stroke="none" text-anchor="middle" font-size="9px" text-shadow="#666 1px 1px 1px" display="none">X</text></g></g><circle id="InnerRing" cx="150" cy="150" r="124" pointer-events="none" fill="none" stroke="#FFF" stroke-opacity="0.35" stroke-width="1.4px"/><circle id="BrVerFill" cx="150" cy="150" r="110" pointer-events="none" fill="#FFF" stroke="none" fill-opacity="0.1"/><circle id="BrPctFill" cx="150" cy="150" r="95" pointer-events="none" fill="#FFF" stroke="none" fill-opacity="0.1"/><text id="PieTitle" x="150" y="325" fill="#000" stroke="none" text-anchor="middle" font-size="16px">Distribution for 2009-01-09</text><text id="PieSubTitle" x="150" y="340" fill="#000" stroke="none" text-anchor="middle" font-size="12px">Total Browser Hits: 1937</text></g>
    <g id="browser_legend" transform="translate(10, 10)" display="inline" drag:enable="true" drag:x="10" drag:y="10" drag:oldcursor="" cursor="move">
      <g id="browser_legend_scaler" transform="scale(0.5, 0.5)">
        <rect id="legbordout" x="5" y="5" width="115" height="250" visibility="hidden" stroke-width="10" pointer-events="none" onmouseout="setTimeout('growLegend(false)',500)">
          <animateTransform type="scale" xlink:href="#browser_legend_scaler" attributeName="transform" to="0.5 0.5" dur="350ms" begin="0s;mouseout" fill="freeze"/>
        </rect>
        <rect id="legbordin" rx="10" ry="10" x="0" y="0" width="125" height="260" fill="#777" fill-opacity="0.80" pointer-events="fill" onmouseover="setTimeout('growLegend(true)',500)">
          <animateTransform type="scale" xlink:href="#browser_legend_scaler" attributeName="transform" to="1 1" dur="350ms" begin="mouseover" fill="freeze"/>
        </rect>
        <text id="browser_legendlabel" x="59" y="15" stroke="none" fill="#ddd" font-size="12" text-anchor="middle" pointer-events="none">Browser Legend</text>
      <rect id="Opera/8.5-.cb" x="10" y="20" width="10" height="10" fill="white" stroke="black" cursor="pointer"/><polyline id="Opera/8.5-.check" points="12,24 15,27 18,21" stroke="black" stroke-width="2" fill="none" pointer-events="none"/><rect x="25" y="20" width="30" height="11" class="Opera85" pointer-events="none" fill="rgb(255,68,72)"/><text x="65" y="28" font-size="10" fill="#DEDEDE" pointer-events="none">Opera 8.5-</text><rect id="Opera/9.0x.cb" x="10" y="31" width="10" height="10" fill="white" stroke="black" cursor="pointer"/><polyline id="Opera/9.0x.check" points="12,35 15,38 18,32" stroke="black" stroke-width="2" fill="none" pointer-events="none"/><rect x="25" y="31" width="30" height="11" class="Opera90x" pointer-events="none" fill="rgb(225,45,48)"/><text x="65" y="39" font-size="10" fill="#DEDEDE" pointer-events="none">Opera 9.0x</text><rect id="Opera/9.5x.cb" x="10" y="42" width="10" height="10" fill="white" stroke="black" cursor="pointer"/><polyline id="Opera/9.5x.check" points="12,46 15,49 18,43" stroke="black" stroke-width="2" fill="none" pointer-events="none"/><rect x="25" y="42" width="30" height="11" class="Opera95x" pointer-events="none" fill="rgb(195,23,25)"/><text x="65" y="50" font-size="10" fill="#DEDEDE" pointer-events="none">Opera 9.5x</text><rect id="Opera/10.0.cb" x="10" y="53" width="10" height="10" fill="white" stroke="black" cursor="pointer"/><polyline id="Opera/10.0.check" points="12,57 15,60 18,54" stroke="black" stroke-width="2" fill="none" pointer-events="none"/><rect x="25" y="53" width="30" height="11" class="Opera100" pointer-events="none" fill="rgb(165,20,25)"/><text x="65" y="61" font-size="10" fill="#DEDEDE" pointer-events="none">Opera 10.0</text><rect id="Opera/Other.cb" x="10" y="64" width="10" height="10" fill="white" stroke="black" cursor="pointer"/><polyline id="Opera/Other.check" points="12,68 15,71 18,65" stroke="black" stroke-width="2" fill="none" pointer-events="none"/><rect x="25" y="64" width="30" height="11" class="OperaOther" pointer-events="none" fill="rgb(135,20,23)"/><text x="65" y="72" font-size="10" fill="#DEDEDE" pointer-events="none">Opera Other</text><rect id="Safari/2.0-.cb" x="10" y="75" width="10" height="10" fill="white" stroke="black" cursor="pointer"/><polyline id="Safari/2.0-.check" points="12,79 15,82 18,76" stroke="black" stroke-width="2" fill="none" pointer-events="none"/><rect x="25" y="75" width="30" height="11" class="Safari20" pointer-events="none" fill="rgb(150,224,255)"/><text x="65" y="83" font-size="10" fill="#DEDEDE" pointer-events="none">Safari 2.0-</text><rect id="Safari/3.0.x.cb" x="10" y="86" width="10" height="10" fill="white" stroke="black" cursor="pointer"/><polyline id="Safari/3.0.x.check" points="12,90 15,93 18,87" stroke="black" stroke-width="2" fill="none" pointer-events="none"/><rect x="25" y="86" width="30" height="11" class="Safari30x" pointer-events="none" fill="rgb(90,202,245)"/><text x="65" y="94" font-size="10" fill="#DEDEDE" pointer-events="none">Safari 3.0.x</text><rect id="Safari/3.1.x.cb" x="10" y="97" width="10" height="10" fill="white" stroke="black" cursor="pointer"/><polyline id="Safari/3.1.x.check" points="12,101 15,104 18,98" stroke="black" stroke-width="2" fill="none" pointer-events="none"/><rect x="25" y="97" width="30" height="11" class="Safari31x" pointer-events="none" fill="rgb(50,190,243)"/><text x="65" y="105" font-size="10" fill="#DEDEDE" pointer-events="none">Safari 3.1.x</text><rect id="Safari/4.0.x.cb" x="10" y="108" width="10" height="10" fill="white" stroke="black" cursor="pointer"/><polyline id="Safari/4.0.x.check" points="12,112 15,115 18,109" stroke="black" stroke-width="2" fill="none" pointer-events="none"/><rect x="25" y="108" width="30" height="11" class="Safari40x" pointer-events="none" fill="rgb(20,170,241)"/><text x="65" y="116" font-size="10" fill="#DEDEDE" pointer-events="none">Safari 4.0.x</text><rect id="Safari/Other.cb" x="10" y="119" width="10" height="10" fill="white" stroke="black" cursor="pointer"/><polyline id="Safari/Other.check" points="12,123 15,126 18,120" stroke="black" stroke-width="2" fill="none" pointer-events="none"/><rect x="25" y="119" width="30" height="11" class="SafariOther" pointer-events="none" fill="rgb(0,160,240)"/><text x="65" y="127" font-size="10" fill="#DEDEDE" pointer-events="none">Safari Other</text><rect id="Firefox/1.5-.cb" x="10" y="130" width="10" height="10" fill="white" stroke="black" cursor="pointer"/><polyline id="Firefox/1.5-.check" points="12,134 15,137 18,131" stroke="black" stroke-width="2" fill="none" pointer-events="none"/><rect x="25" y="130" width="30" height="11" class="Firefox15" pointer-events="none" fill="rgb(255,180,85)"/><text x="65" y="138" font-size="10" fill="#DEDEDE" pointer-events="none">Firefox 1.5-</text><rect id="Firefox/2.0.x.cb" x="10" y="141" width="10" height="10" fill="white" stroke="black" cursor="pointer"/><polyline id="Firefox/2.0.x.check" points="12,145 15,148 18,142" stroke="black" stroke-width="2" fill="none" pointer-events="none"/><rect x="25" y="141" width="30" height="11" class="Firefox20x" pointer-events="none" fill="rgb(255,160,50)"/><text x="65" y="149" font-size="10" fill="#DEDEDE" pointer-events="none">Firefox 2.0.x</text><rect id="Firefox/3.0.x.cb" x="10" y="152" width="10" height="10" fill="white" stroke="black" cursor="pointer"/><polyline id="Firefox/3.0.x.check" points="12,156 15,159 18,153" stroke="black" stroke-width="2" fill="none" pointer-events="none"/><rect x="25" y="152" width="30" height="11" class="Firefox30x" pointer-events="none" fill="rgb(255,140,20)"/><text x="65" y="160" font-size="10" fill="#DEDEDE" pointer-events="none">Firefox 3.0.x</text><rect id="Firefox/3.1.x.cb" x="10" y="163" width="10" height="10" fill="white" stroke="black" cursor="pointer"/><polyline id="Firefox/3.1.x.check" points="12,167 15,170 18,164" stroke="black" stroke-width="2" fill="none" pointer-events="none"/><rect x="25" y="163" width="30" height="11" class="Firefox31x" pointer-events="none" fill="rgb(244,120,0)"/><text x="65" y="171" font-size="10" fill="#DEDEDE" pointer-events="none">Firefox 3.1.x</text><rect id="Firefox/Other.cb" x="10" y="174" width="10" height="10" fill="white" stroke="black" cursor="pointer"/><polyline id="Firefox/Other.check" points="12,178 15,181 18,175" stroke="black" stroke-width="2" fill="none" pointer-events="none"/><rect x="25" y="174" width="30" height="11" class="FirefoxOther" pointer-events="none" fill="rgb(232,100,0)"/><text x="65" y="182" font-size="10" fill="#DEDEDE" pointer-events="none">Firefox Other</text><rect id="IE/5.5-.cb" x="10" y="185" width="10" height="10" fill="white" stroke="black" cursor="pointer"/><polyline id="IE/5.5-.check" points="12,189 15,192 18,186" stroke="black" stroke-width="2" fill="none" pointer-events="none"/><rect x="25" y="185" width="30" height="11" class="IE55" pointer-events="none" fill="rgb(0,133,221)"/><text x="65" y="193" font-size="10" fill="#DEDEDE" pointer-events="none">IE 5.5-</text><rect id="IE/6.0x.cb" x="10" y="196" width="10" height="10" fill="white" stroke="black" cursor="pointer"/><polyline id="IE/6.0x.check" points="12,200 15,203 18,197" stroke="black" stroke-width="2" fill="none" pointer-events="none"/><rect x="25" y="196" width="30" height="11" class="IE60x" pointer-events="none" fill="rgb(0,115,191)"/><text x="65" y="204" font-size="10" fill="#DEDEDE" pointer-events="none">IE 6.0x</text><rect id="IE/7.0x.cb" x="10" y="207" width="10" height="10" fill="white" stroke="black" cursor="pointer"/><polyline id="IE/7.0x.check" points="12,211 15,214 18,208" stroke="black" stroke-width="2" fill="none" pointer-events="none"/><rect x="25" y="207" width="30" height="11" class="IE70x" pointer-events="none" fill="rgb(0,90,151)"/><text x="65" y="215" font-size="10" fill="#DEDEDE" pointer-events="none">IE 7.0x</text><rect id="IE/8.0x.cb" x="10" y="218" width="10" height="10" fill="white" stroke="black" cursor="pointer"/><polyline id="IE/8.0x.check" points="12,222 15,225 18,219" stroke="black" stroke-width="2" fill="none" pointer-events="none"/><rect x="25" y="218" width="30" height="11" class="IE80x" pointer-events="none" fill="rgb(0,79,131)"/><text x="65" y="226" font-size="10" fill="#DEDEDE" pointer-events="none">IE 8.0x</text><rect id="IE/Other.cb" x="10" y="229" width="10" height="10" fill="white" stroke="black" cursor="pointer"/><polyline id="IE/Other.check" points="12,233 15,236 18,230" stroke="black" stroke-width="2" fill="none" pointer-events="none"/><rect x="25" y="229" width="30" height="11" class="IEOther" pointer-events="none" fill="rgb(0,60,100)"/><text x="65" y="237" font-size="10" fill="#DEDEDE" pointer-events="none">IE Other</text><rect id="Chrome/0.5-.cb" x="10" y="240" width="10" height="10" fill="white" stroke="black" cursor="pointer"/><polyline id="Chrome/0.5-.check" points="12,244 15,247 18,241" stroke="black" stroke-width="2" fill="none" pointer-events="none"/><rect x="25" y="240" width="30" height="11" class="Chrome05" pointer-events="none" fill="rgb(160,160,160)"/><text x="65" y="248" font-size="10" fill="#DEDEDE" pointer-events="none">Chrome 0.5-</text><rect id="Chrome/1.0.x.cb" x="10" y="251" width="10" height="10" fill="white" stroke="black" cursor="pointer"/><polyline id="Chrome/1.0.x.check" points="12,255 15,258 18,252" stroke="black" stroke-width="2" fill="none" pointer-events="none"/><rect x="25" y="251" width="30" height="11" class="Chrome10x" pointer-events="none" fill="rgb(140,140,140)"/><text x="65" y="259" font-size="10" fill="#DEDEDE" pointer-events="none">Chrome 1.0.x</text><rect id="Chrome/2.0.x.cb" x="10" y="262" width="10" height="10" fill="white" stroke="black" cursor="pointer"/><polyline id="Chrome/2.0.x.check" points="12,266 15,269 18,263" stroke="black" stroke-width="2" fill="none" pointer-events="none"/><rect x="25" y="262" width="30" height="11" class="Chrome20x" pointer-events="none" fill="rgb(120,120,120)"/><text x="65" y="270" font-size="10" fill="#DEDEDE" pointer-events="none">Chrome 2.0.x</text><rect id="Chrome/Other.cb" x="10" y="273" width="10" height="10" fill="white" stroke="black" cursor="pointer"/><polyline id="Chrome/Other.check" points="12,277 15,280 18,274" stroke="black" stroke-width="2" fill="none" pointer-events="none"/><rect x="25" y="273" width="30" height="11" class="ChromeOther" pointer-events="none" fill="rgb(100,100,100)"/><text x="65" y="281" font-size="10" fill="#DEDEDE" pointer-events="none">Chrome Other</text></g>
    </g>
  </g>
  
  <g id="tut1" visibility="visible">
    <text font-size="16" x="200" y="400" text-anchor="middle">Click and drag these red and green grippies!</text>
    <g id="tut1-arrows" style="fill-opacity: 0.804; stroke-opacity: 0.804;">
      <line x1="10" y1="360" x2="40" y2="390" stroke="#000" stroke-dasharray="5,3" visibility="inherit"/>
      <line x1="390" y1="360" x2="360" y2="390" stroke="#000" stroke-dasharray="5,3" visibility="inherit"/>
      <polygon fill="black" points="10,360 20,360 10,370" visibility="inherit"/>
      <polygon fill="black" points="390,360 380,360 390,370" visibility="inherit"/>
      <animate attributeName="fill-opacity" repeatCount="indefinite" dur="3" values="0.2;0.5;1.0;0.5;0.2"/>
      <animate attributeName="stroke-opacity" repeatCount="indefinite" dur="3" values="0.2;0.5;1.0;0.5;0.2"/>
    </g>
    <set id="tut1anim" attributeName="visibility" to="hidden" begin="grippie.mouseup"/>
  </g>

  <g id="tut2" fill-opacity="0" stroke-opacity="0" visibility="hidden">
    <g>
      <text font-size="16" x="200" y="400" text-anchor="middle">This is a scrollbar</text>
      <g id="tut2-arrow" style="fill-opacity: 0.804; stroke-opacity: 0.804;">
        <line x1="200" y1="360" x2="200" y2="390" stroke="#000" stroke-dasharray="5,3" visibility="inherit"/>
        <polygon fill="black" points="200,345 207,355 193,355" visibility="inherit"/>
        <animate attributeName="fill-opacity" repeatCount="indefinite" dur="3" values="0.2;0.5;1.0;0.5;0.2"/>
        <animate attributeName="stroke-opacity" repeatCount="indefinite" dur="3" values="0.2;0.5;1.0;0.5;0.2"/>
      </g>
      <set attributeName="visibility" to="hidden" begin="browser_scrollbar.mouseup"/>
    </g>
    <set attributeName="visibility" to="visible" begin="tut1anim.begin"/>
  </g>

</svg>
