<svg xmlns="http://www.w3.org/2000/svg" viewBox="0 0 148 68">
<g transform="scale(0.1578)">
<polyline fill="#5C7DB8" points="851.165,24.442 713.147,24.442 721.839,0.012 851.165,0.012 851.165,24.442 "/>
<path fill="#5C7DB8" d="M473.454,0.012L601.34,0l8.59,24.487c0.056-0.034-136.431,0.034-136.431,0S473.421,0.012,473.454,0.012"/>
<path fill="#5C7DB8" d="M368.987,0.012c21.684,2.088,40.531,9.811,56.585,24.476c0,0-238.443,0.022-238.443,0
    c0-0.034,0-24.487,0-24.487L368.987,0.012"/>
<rect x="0.024" y="0.006" fill="#5C7DB8" width="165.646" height="24.425"/>
<path fill="#5C7DB8" d="M851.165,70.281H697.104c0,0,8.478-24.301,8.433-24.319h145.628V70.281"/>
<polyline fill="#5C7DB8" points="626.222,70.304 473.454,70.304 473.454,45.962 617.563,45.962 626.222,70.304 "/>
<path fill="#5C7DB8" d="M444.138,45.952c3.142,8.027,6.867,14.895,6.867,24.318H187.174V45.952H444.138"/>
<rect x="0.024" y="45.962" fill="#5C7DB8" width="165.646" height="24.307"/>
<path fill="#5C7DB8" d="M689.382,91.801l-8.546,24.42h123.438c0.057-0.056-0.033-24.38,0-24.38L689.382,91.801"/>
<polyline fill="#5C7DB8" points="633.843,91.791 642.467,116.221 520.11,116.221 520.11,91.791 633.843,91.791 "/>
<path fill="#5C7DB8" d="M453.099,91.791c0,8.381-1.047,17.096-3.489,24.431h-72.246V91.791H453.099"/>

<rect x="46.196" y="91.908" fill="#5C7DB8" width="71.188" height="24.313"/>
<rect x="235.101" y="91.791" fill="#5C7DB8" width="71.075" height="24.431"/>
<path fill="#5C7DB8" d="M673.45,136.813h130.823v24.312h-69.668c0,0.197-0.034-18.526-0.034-18.526s-6.45,18.481-6.462,18.526
    h-62.776L673.45,136.813"/>
<path fill="#5C7DB8" d="M590.002,142.577c0,0,0.012,18.503,0,18.548H520.11v-24.312h129.573l8.703,24.312c0,0-61.889,0.046-61.889,0
    L590.002,142.577"/>
<path fill="#5C7DB8" d="M235.101,136.802h204.038c-4.459,8.14-12.564,18.042-20.242,24.324c0,0-183.795,0.023-183.795,0
    C235.101,161.081,235.101,136.857,235.101,136.802"/>
<rect x="46.196" y="136.802" fill="#5C7DB8" width="71.188" height="24.313"/>
<rect x="734.605" y="182.641" fill="#5C7DB8" width="69.668" height="24.318"/>
<path fill="#5C7DB8" d="M590.002,182.641H520.11v24.318c-0.056-0.022,69.903,0,69.903,0
    C590.014,206.937,590.092,182.641,590.002,182.641"/>
<path fill="#5C7DB8" d="M720.544,182.641c-0.326-0.023-8.162,24.296-8.5,24.318l-99.232,0.044
    c-0.09-0.044-8.736-24.386-8.736-24.362H720.544"/>
<path fill="#5C7DB8" d="M235.09,182.641h183.458c8.376,6.98,15.93,15.582,21.874,24.318c0.327-0.022-205.321,0-205.321,0
    C235.101,206.937,235.09,182.674,235.09,182.641"/>
<path fill="#5C7DB8" d="M117.383,206.959v-24.318H46.309c0,0,0.011,24.296,0,24.296C46.297,206.937,117.337,206.959,117.383,206.959
    "/>
<rect x="734.605" y="228.475" fill="#5C7DB8" width="69.668" height="24.318"/>
<rect x="520.087" y="228.484" fill="#5C7DB8" width="69.915" height="24.309"/>
<path fill="#5C7DB8" d="M695.754,252.905c0.012-0.102,8.59-24.454,8.724-24.431h-84.359c-0.158-0.012,8.646,24.329,8.646,24.329
    S695.742,252.995,695.754,252.905"/>
<path fill="#5C7DB8" d="M235.101,252.781c0,0.101-0.011-24.307-0.011-24.307h72.134c0,0,0.056,24.329,0,24.329
    C307.156,252.804,235.101,252.77,235.101,252.781"/>
<path fill="#5C7DB8" d="M450.544,228.475c3.479,7.329,3.838,16.042,4.526,24.431h-76.423v-24.431H450.544"/>
<rect x="46.309" y="228.463" fill="#5C7DB8" width="71.075" height="24.318"/>

<rect x="734.605" y="273.361" fill="#5C7DB8" width="116.548" height="24.318"/>
<rect x="473.454" y="273.361" fill="#5C7DB8" width="116.548" height="24.318"/>
<polyline fill="#5C7DB8" points="680.082,297.68 644.492,297.68 635.958,273.361 688.311,273.361 680.082,297.68 "/>
<path fill="#5C7DB8" d="M0.013,273.361v24.318h165.522c0.079,0.045-0.068-24.296,0-24.296
    C165.614,273.384-0.189,273.361,0.013,273.361"/>
<path fill="#5C7DB8" d="M452.052,273.361c-1.745,8.038-3.344,17.812-9.197,24.318h-2.195H187.163v-24.318H452.052"/>
<polyline fill="#5C7DB8" points="663.948,343.581 660.672,343.581 652.363,319.205 672.481,319.205 663.948,343.581 "/>
<rect x="734.605" y="319.205" fill="#5C7DB8" width="116.548" height="24.432"/>
<path fill="#5C7DB8" d="M187.129,343.581v-24.342c0,0,239.153,0.035,239.84,0.035c-16.055,15.355-38.088,24.014-61.809,24.362
    l-177.997-0.046"/>
<rect x="473.454" y="319.205" fill="#5C7DB8" width="116.548" height="24.432"/>
<path fill="#5C7DB8" d="M165.536,319.318c0,0-0.068,24.263,0,24.263c0.079,0-165.478,0.1-165.522,0.044
    c-0.045-0.044,0.045-24.386,0-24.386C-0.032,319.239,165.468,319.386,165.536,319.318"/>
</g>
</svg>
