<svg xmlns="http://www.w3.org/2000/svg" viewBox="0 0 90 110">
  <path d="M12,50v-19c0-20,13-29,32-28c20,0,33,8,33,28v19h-12v-14c0-5,1-21-20-21c-22,0-21,16-21,21v14h-12z" fill="#ddd" stroke="#777" stroke-width="6"/>
  <path fill="#FFF" d="M14,32c1-15,5-26,32-26c-18,2-27,7-27,22c0,0-1,19-1,19h-4v-15z"/>
  <rect x="0" y="47" rx="15" height="63" width="90" fill="#a80"/>
  <rect x="8" y="55" rx="9" height="47" width="74" fill="#fd2" stroke="#FE9" stroke-width="6"/>
  <g transform="translate(22,56) scale(0.46)">
    <path fill="#47B" d="M57,11c40-22,42-2,35,12c8-27-15-20-30-11zM36,56h56c4-60-83-60-86-6c13-16,26-26,36-30l-29,53c20,23,64,26,79-12h-30c0,14-26,12-25-5zM37,43c0-17,26-17,26,0zM39,89c-10,7-42,15-26-16l29-52c-15,6-36,40-37,48c-12,35,14,37,37,20"/>
  </g>
</svg>
