<svg xmlns="http://www.w3.org/2000/svg" viewBox="0 0 80 120">
  <path d="M9,15c-1,21,4,11,6,9c10-15,48-6,53,12c14,38-30,30-23,67c1,1,3,2,4-1c-10-29,44-25,22-70c-10-29-52-27-62-17z
M18,80c5,6,13,9,20,6c3-1,3,1,2,3c-5,3-20,2-26-5c-5-5,0-12,4-4z
M18,92c5,3,9,5,18,5c7-2,6,3,2,4c-5,2-20-3-22-6c-10-6-7-11,2-3z
M18,103c5,3,15,7,20,4c5-3,7-1,2,2c-5,5-21,2-26-3c-8-5-3-13,4-3z" fill="#C00"/>
  <path d="M20,64c-1-13,9-15,12-6c5-5,20-8,6,13c-3,5-5,4-4-1c13-15,2-13-3-8c-1-11-9-7-7,2c1,7-2,7-4,0z" fill="#fb0"/>
</svg>
