<?xml version="1.0" encoding="UTF-8" standalone="no"?>
<!-- Created with Inkscape (http://www.inkscape.org/) -->
<!-- Manually cleaned by Jeff Schiller -->
<svg xmlns:dc="http://purl.org/dc/elements/1.1/" xmlns:cc="http://creativecommons.org/ns#" xmlns:rdf="http://www.w3.org/1999/02/22-rdf-syntax-ns#" xmlns="http://www.w3.org/2000/svg" xmlns:xlink="http://www.w3.org/1999/xlink" width="850" height="200" version="1.1">
  <defs>
    <!--<linearGradient id="linearGradient7797">
      <stop stop-color="rgb(158, 199, 240)" offset="0"/>
      <stop stop-color="rgb(255, 255, 255)" offset="1"/>
    </linearGradient>
    <linearGradient id="linearGradient7769">
      <stop stop-color="rgb(31, 50, 70)" offset="0"/>
      <stop offset="0.43495357" stop-color="rgb(72, 100, 131)"/>
      <stop stop-color="rgb(114, 150, 192)" offset="1"/>
    </linearGradient>-->
    <linearGradient id="linearGradient7741">
      <stop stop-color="rgb(0, 0, 0)" offset="0"/>
      <stop offset="0.74615383" stop-color="rgb(242, 149, 0)"/>
      <stop stop-color="rgb(250, 180, 29)" offset="1"/>
    </linearGradient>
          <linearGradient id="linearGradient7757" x1="0" y1="0" x2="100" y2="100" gradientUnits="userSpaceOnUse">
          <stop stop-color="rgb(0, 0, 0)" offset="0"/>
          <stop offset="0.74615383" stop-color="rgb(242, 149, 0)"/>
          <stop stop-color="rgb(250, 180, 29)" offset="1"/>
          </linearGradient>    
<!--<linearGradient xlink:href="#linearGradient7741" id="linearGradient7759" x1="7.1875" y1="401.26562" x2="1201.3438" y2="401.26562" gradientUnits="userSpaceOnUse"/>
    <linearGradient xlink:href="#linearGradient7741" id="linearGradient7767" x1="-0.75" y1="426.69687" x2="1206.7942" y2="426.69687" gradientUnits="userSpaceOnUse"/>
    <linearGradient xlink:href="#linearGradient7797" id="linearGradient7803" x1="332" y1="0" x2="332" y2="200" gradientUnits="userSpaceOnUse"/>
    
    <linearGradient id="linearGradient7797-4">
      <stop stop-color="rgb(158, 199, 240)" offset="0"/>
      <stop stop-color="rgb(255, 255, 255)" offset="1"/>
    </linearGradient>
    <linearGradient xlink:href="#linearGradient7797-4" id="linearGradient6020" gradientUnits="userSpaceOnUse" x1="332" y1="0" x2="332" y2="200" gradientTransform="matrix(0.736586, 0, 0, 0.736586, 1.06257, 74.3338)"/>
    <clipPath clipPathUnits="userSpaceOnUse" id="clipPath6016">
      <rect fill="url(#linearGradient6020)" width="626.09851" height="147.31729" x="1.0625701" y="74.333763"/>
    </clipPath>
    
    <linearGradient xlink:href="#linearGradient7769" id="linearGradient6850" gradientUnits="userSpaceOnUse" x1="0" y1="177.46597" x2="589.28888" y2="180.46597"/>
    <linearGradient xlink:href="#linearGradient7769" id="linearGradient6853" gradientUnits="userSpaceOnUse" x1="0" y1="177.46597" x2="589.28888" y2="180.46597"/>
    <linearGradient xlink:href="#linearGradient7769" id="linearGradient6857" gradientUnits="userSpaceOnUse" x1="0" y1="177.46597" x2="589.28888" y2="180.46597"/>
    <linearGradient id="linearGradient7769-6">
      <stop stop-color="rgb(31, 50, 70)" offset="0"/>
      <stop offset="0.43495357" stop-color="rgb(72, 100, 131)"/>
      <stop stop-color="rgb(114, 150, 192)" offset="1"/>
    </linearGradient>

    <linearGradient xlink:href="#linearGradient7769-6" id="linearGradient6975" gradientUnits="userSpaceOnUse" x1="0" y1="177.46597" x2="589.28888" y2="180.46597"/>
    <linearGradient xlink:href="#linearGradient7769-6" id="linearGradient6977" gradientUnits="userSpaceOnUse" x1="0" y1="177.46597" x2="589.28888" y2="180.46597"/>
    <linearGradient xlink:href="#linearGradient7769-6" id="linearGradient6979" gradientUnits="userSpaceOnUse" x1="0" y1="177.46597" x2="589.28888" y2="180.46597"/>
    <clipPath clipPathUnits="userSpaceOnUse" id="clipPath6965">
      <g>
        <path d="m 0,200 c 130.78582,-56.52514 221.23066,-1.27365 313.48395,0 L 0,200 z" fill="url(#linearGradient6975)"/>
        <path d="m 310.68504,200 c 133.38172,-84.21766 173.33834,4.45637 279.48396,0 l -279.48396,0 z" fill="url(#linearGradient6977)"/>
        <path d="m 613.125,148.96875 c -11.92087,0.0918 -23.80845,1.87228 -35.625,5.875 C 495.33954,152.91947 453.3466,185.31038 413.21875,200 c 140.94166,-0.42593 273.22701,0.46938 393.96875,0.40625 -15.84964,-0.0754 -32.07773,-3.98922 -48.59375,-9.5625 -47.79246,-15.07129 -96.9352,-42.24886 -145.46875,-41.875 z" fill="url(#linearGradient6979)"/>
      </g>
    </clipPath>

    <filter id="drop-shadow" width="1.5" height="1.5" x="-.25" y="-.25">
      <feGaussianBlur in="SourceAlpha" stdDeviation="2.000000" result="blur"/>
      <feColorMatrix result="bluralpha" type="matrix" values="1 0 0 0 0 0 1 0 0 0 0 0 1 0 0 0 0 0 0.5 0"/>
      <feOffset in="bluralpha" dx="2.000000" dy="2.000000" result="offsetBlur"/>
      <feMerge>
        <feMergeNode in="offsetBlur"/>
        <feMergeNode in="SourceGraphic"/>
      </feMerge>
    </filter>
    
    <filter id="drop-shadow-2" width="1.5" height="1.5" x="-.25" y="-.25">
      <feGaussianBlur in="SourceAlpha" stdDeviation="5.000000" result="blur"/>
      <feColorMatrix result="bluralpha" type="matrix" values="1 0 0 0 0 0 1 0 0 0 0 0 1 0 0 0 0 0 0.5 0"/>
      <feOffset in="bluralpha" dx="4.000000" dy="4.000000" result="offsetBlur"/>
      <feMerge result="fbSourceGraphic">
        <feMergeNode in="offsetBlur"/>
        <feMergeNode in="SourceGraphic"/>
      </feMerge>
      <feColorMatrix result="fbSourceGraphicAlpha" in="fbSourceGraphic" values="0 0 0 -1 0 0 0 0 -1 0 0 0 0 -1 0 0 0 0 1 0"/>
      <feGaussianBlur in="fbSourceGraphicAlpha" stdDeviation="5.000000" result="blur"/>
      <feColorMatrix result="bluralpha" type="matrix" values="-1 0 0 0 1 0 -1 0 0 1 0 0 -1 0 1 0 0 0 0.5 0"/>
      <feOffset in="bluralpha" dx="4.000000" dy="4.000000" result="offsetBlur"/>
      <feMerge>
        <feMergeNode in="offsetBlur"/>
        <feMergeNode in="fbSourceGraphic"/>
      </feMerge>
    </filter>-->
  </defs>

  <!--<metadata>
    <rdf:RDF>
      <cc:Work rdf:about="">
        <dc:format>image/svg+xml</dc:format>
        <dc:type rdf:resource="http://purl.org/dc/dcmitype/StillImage"/>
        <dc:title/>
      </cc:Work>
    </rdf:RDF>
  </metadata>-->

  <!--<g id="Sky">
    <rect fill="url(#linearGradient7803)" width="850" height="200" x="0" y="0"/>
  </g>
  
  <g id="Sun" filter="url(#drop-shadow-2)" transform="matrix(1.73543, 0, 0, 1.73543, 615.533, -184.35)" clip-path="url(#clipPath6016)">
      <g transform="translate(-320.213, -42.3181)">
        <path d="m 401.634,206.051 c 0,-9.84433 -7.98625,-17.8306 -17.8306,-17.8306 -9.84433,0 -17.8306,7.98625 -17.8306,17.8306 -6.96405,-6.95901 -18.2536,-6.95901 -25.2176,0 -6.95901,6.96405 -6.95901,18.2536 0,25.2176 -9.84433,0 -17.8306,7.98625 -17.8306,17.8306 0,9.84433 7.98625,17.8306 17.8306,17.8306 -6.95901,6.96405 -6.95901,18.2536 0,25.2176 6.96405,6.95901 18.2536,6.95901 25.2176,0 0,9.84433 7.98625,17.8306 17.8306,17.8306 9.84433,0 17.8306,-7.98625 17.8306,-17.8306 6.96405,6.95901 18.2536,6.95901 25.2176,0 6.95901,-6.96405 6.95901,-18.2536 0,-25.2176 9.84433,0 17.8255,-7.98625 17.8255,-17.8306 0,-9.84433 -7.98121,-17.8306 -17.8255,-17.8306 6.95901,-6.96405 6.95901,-18.2536 0,-25.2176 -6.96405,-6.95901 -18.2536,-6.95901 -25.2176,0 z" fill="rgb(247, 171, 21)"/>
        <path d="m 390.626,212.879 0,19.7441 13.9633,-13.9633 c 0,-2.46738 0.94163,-4.93979 2.8249,-6.82305 3.77156,-3.77156 9.88462,-3.77156 13.6511,0 3.77156,3.76653 3.77156,9.87958 0,13.6511 -1.88326,1.88326 -4.35568,2.8249 -6.82305,2.8249 l -13.9633,13.9633 19.7441,0 c 1.74731,-1.74731 4.15929,-2.82993 6.82809,-2.82993 5.32752,0 9.64795,4.32546 9.64795,9.65298 0,5.32752 -4.32043,9.65298 -9.64795,9.65298 -2.6688,0 -5.08078,-1.08262 -6.82809,-2.82993 l -19.7441,0 13.9633,13.9633 c 2.46738,0 4.93979,0.94163 6.82305,2.8249 3.77156,3.77156 3.77156,9.88462 0,13.6511 -3.76653,3.77156 -9.87958,3.77156 -13.6511,0 -1.88326,-1.88326 -2.8249,-4.35568 -2.8249,-6.82305 l -13.9633,-13.9633 0,19.7441 c 1.74731,1.74731 2.82993,4.15929 2.82993,6.82809 0,5.32752 -4.32546,9.64795 -9.65298,9.64795 -5.32752,0 -9.65298,-4.32043 -9.65298,-9.64795 0,-2.6688 1.08262,-5.08078 2.82993,-6.82809 l 0,-19.7441 -13.9633,13.9633 c 0,2.46738 -0.94163,4.93979 -2.8249,6.82305 -3.77156,3.77156 -9.88462,3.77156 -13.6511,0 -3.77156,-3.76653 -3.77156,-9.87958 0,-13.6511 1.88326,-1.88326 4.35568,-2.8249 6.82305,-2.8249 l 13.9633,-13.9633 -19.7441,0 c -1.74731,1.74731 -4.15929,2.82993 -6.82809,2.82993 -5.32752,0 -9.64795,-4.32546 -9.64795,-9.65298 0,-5.32752 4.32043,-9.65298 9.64795,-9.65298 2.6688,0 5.08078,1.08262 6.82809,2.82993 l 19.7441,0 -13.9633,-13.9633 c -2.46738,0 -4.93979,-0.94163 -6.82305,-2.8249 -3.77156,-3.77156 -3.77156,-9.88462 0,-13.6511 3.76653,-3.77156 9.87958,-3.77156 13.6511,0 1.88326,1.88326 2.8249,4.35568 2.8249,6.82305 l 13.9633,13.9633 0,-19.7441 c -1.74731,-1.74731 -2.82993,-4.15929 -2.82993,-6.82809 0,-5.32752 4.32546,-9.64795 9.65298,-9.64795 5.32752,0 9.65298,4.32043 9.65298,9.64795 0,2.6688 -1.08262,5.08078 -2.82993,6.82809 z" fill="rgb(255, 255, 255)"/>
      </g>
  </g>
  
  <g id="Land">
      <path d="m 0,200 c 130.78582,-56.52514 221.23066,-1.27365 313.48395,0 L 0,200 z" fill="url(#linearGradient6853)"/>
      <path d="m 310.68504,200 c 133.38172,-84.21766 173.33834,4.45637 279.48396,0 l -279.48396,0 z" fill="url(#linearGradient6850)"/>
      <path d="m 613.125,148.96875 c -11.92087,0.0918 -23.80845,1.87228 -35.625,5.875 C 495.33954,152.91947 453.3466,185.31038 413.21875,200 c 140.94166,-0.42593 273.22701,0.46938 393.96875,0.40625 -15.84964,-0.0754 -32.07773,-3.98922 -48.59375,-9.5625 -47.79246,-15.07129 -96.9352,-42.24886 -145.46875,-41.875 z" fill="url(#linearGradient6857)"/>
  </g>
  
  <g id="Clouds" opacity="0.695067" fill="#FFF">
    <g transform="translate(-167, 6)">
      <path d="m 584.75,32.5 a 28,17.5 0 1 1 -56,0 28,17.5 0 1 1 56,0 z"/>
      <path d="m 608.25,50.125 a 21.625,15.375 0 1 1 -43.25,0 21.625,15.375 0 1 1 43.25,0 z"/>
      <path d="m 622,35.75 a 26.375,20.75 0 1 1 -52.75,0 26.375,20.75 0 1 1 52.75,0 z"/>
      <path d="m 591.25,19.5 a 13.5,12 0 1 1 -27,0 13.5,12 0 1 1 27,0 z"/>
    </g>
    <g transform="matrix(0.700535, 0, 0, 0.700535, 38.0588, 38.1176)">
      <path d="m 270,35.5 a 26.375,14 0 1 1 -52.75,0 26.375,14 0 1 1 52.75,0 z"/>
      <path d="M 302,52 A 27.625,19 0 1 1 246.75,52 27.625,19 0 1 1 302,52 z"/>
      <path d="m 303.5,32.375 a 30.375,17.375 0 1 1 -60.75,0 30.375,17.375 0 1 1 60.75,0 z"/>
      <path d="m 357.5,47.5 a 35,20 0 1 1 -70,0 35,20 0 1 1 70,0 z"/>
      <path d="m 330.25,28.5 a 19.875,14.75 0 1 1 -39.75,0 19.875,14.75 0 1 1 39.75,0 z"/>
    </g>
    <g transform="matrix(0.58371, 0, 0, 0.58371, 0.343891, 2.28959)">
      <path d="m 87,99.375 a 25.125,16.625 0 1 1 -50.25,0 25.125,16.625 0 1 1 50.25,0 z"/>
      <path d="m 128.5,95.5 a 24.5,16.5 0 1 1 -49,0 24.5,16.5 0 1 1 49,0 z"/>
      <path d="m 109,87.875 a 20.5,13.125 0 1 1 -41,0 20.5,13.125 0 1 1 41,0 z"/>
      <path d="m 167,78.5 a 34,16.5 0 1 1 -68,0 34,16.5 0 1 1 68,0 z"/>
      <path d="M 119,74 A 20.75,13.25 0 1 1 77.5,74 20.75,13.25 0 1 1 119,74 z"/>
      <path d="m 93.75,81.625 a 22.75,11.625 0 1 1 -45.5,0 22.75,11.625 0 1 1 45.5,0 z"/>
      <path d="M 71,85 A 21.875,11.5 0 1 1 27.25,85 21.875,11.5 0 1 1 71,85 z"/>
    </g>
  </g>
  
  <g id="Shadow" opacity="0.45082" clip-path="url(#clipPath6965)" fill="rgb(0, 0, 0)">
      <path d="m 473.77946,171.38898 132.12619,-49.36198 55.34593,-0.74389 -161.20946,50.08982 -26.26271,0.0161 z"/>
      <path d="m 514.55259,177.18349 144.62753,-49.84924 53.50194,2.45091 -167.33426,47.53398 -30.79521,-0.13565 z"/>
      <path d="m 535.78683,182.55035 80.66268,-25.40177 39.33251,0.56144 -88.94394,24.6111 -31.05125,0.22923 z"/>
      <path d="m 411.89011,170.22464 111.54585,-44.4582 63.699,0.18714 -145.48728,44.87791 -29.75757,-0.60685 z"/>
      <path d="m 453.31939,177.71242 22.06562,0.1016 95.53034,-28.85483 -44.9922,0.15974 -72.60376,28.59349 z"/>
  </g>
  
  <g id="Buildings">
    <path fill="rgb(0, 0, 0)" d="m 474.70608,176.89001 -18.10737,-105.876446 48.10404,-1.595561 -6.2291,107.437577 -23.76757,0.0345 z"/>
    <path fill="rgb(26, 26, 26)" d="m 515.63806,178.70191 -8.13364,-106.921541 55.35766,5.256966 -18.92294,101.955555 -28.30108,-0.29098 z"/>
    <path fill="rgb(51, 51, 51)" d="m 535.03874,182.62994 2.1701,-54.48422 37.23142,1.20423 -11.8877,52.78831 -27.51382,0.49168 z"/>
    <path fill="rgb(26, 26, 26)" d="m 422.57676,175.15095 -23.06753,-95.35834 58.27889,0.401412 -6.5347,96.258558 -28.67666,-1.30163 z"/>
    <path fill="rgb(51, 51, 51)" d="m 462.06333,179.45726 20.2908,0.21792 6.00357,-61.89067 -40.34826,0.34263 14.05389,61.33012 z"/>
  </g>-->
<g id="Bridge">
        <rect fill="url(#linearGradient7757)" x="0" y="0" width="100px" height="100px" />
        </g>
<!-- 
  <g id="Bridge" transform="matrix(0.384174, 0, 0, 0.384174, 0.28813, -64.0511)" fill="url(#linearGradient7757)" stroke="url(#linearGradient7767)" stroke-width="0.5">
      <path d="m 345.72471,687.07229 100.76272,-2.52538 -1.6415,-20.32932 -96.59584,1.6415 -2.52538,21.2132 z"/>
      <path d="m 406.08132,664.34386 0.25254,-16.66752 2.27285,-2.52538 27.77919,-0.50508 3.53553,3.78808 0,15.65736 -33.84011,0.25254 z"/>
      <path d="m 353.30085,665.60655 0.25254,-15.65736 3.15673,-3.40927 27.02158,0.12627 2.14658,3.03045 0.63134,15.65737 -33.20877,0.25254 z"/>
      <path d="m 408.85924,645.02469 3.20068,-472.30533 7.40437,-6.39793 7.99239,10.00897 7.90046,468.74103 -26.4979,-0.0467 0,-4e-5 z"/>
      <path d="m 357.14286,646.5 4.28571,-465.71429 7.32143,-4.64285 7.5,7.85714 c 2.94628,154.17997 7.0596,308.35995 5.96647,462.53992 L 357.14286,646.5 z"/>
      <path d="m 380.57007,413.18111 c 14.29112,0.10109 25.81861,-0.81545 29.78707,-7.75254 L 410,449.53571 c -0.9155,-2.9659 -2.02403,-6.1185 -4.02402,-7.4187 -3.68974,-2.39874 -18.39576,-0.61615 -20.26849,0.98871 -2.89465,2.48059 -4.84858,7.11736 -4.42313,9.48737 l -0.71429,-39.41198 z"/>
      <path d="m 379.12909,324.00263 c 14.29112,0.10109 27.96519,-1.19426 31.93365,-8.13135 l -0.16774,44.044 c -0.9155,-2.9659 -1.71128,-9.77582 -3.70835,-11.0805 -2.99526,-1.9568 -19.45782,0.61035 -21.78371,1.43065 -2.20017,0.77596 -6.11127,4.65511 -5.68582,7.02512 l -0.58803,-33.28792 z"/>
      <path d="m 377.69867,252.10455 c 14.29112,0.10109 32.55968,-1.97617 33.84957,-10.2079 -0.0298,10.49107 -0.2381,9.15369 -0.26786,30.53571 -10.87506,-1.94062 -31.57711,0.24682 -32.82278,7.6556 l -0.75893,-27.98341 z"/>
      <path d="m 376.0355,184.60158 c 14.29112,0.10109 28.94361,-2.55652 35.8585,-8.37754 l -0.13393,25.89285 c -13.83312,-1.61439 -27.66176,2.24787 -34.92099,7.3431 l -0.80358,-24.85841 z"/>
      <path d="m 383.16347,637.49274 26.07458,-37.52085 -0.0884,-13.7002 -26.69328,38.00699 -0.13259,13.16986 0.83968,0.0442 z"/>
      <path d="m 408.70772,637.27177 -25.98617,-35.00178 -0.26517,-13.61181 26.51651,32.70369 -0.26517,15.9099 z"/>
      <path d="m 382.45638,587.55333 26.87006,-1.10486 0,-6.62912 -26.91425,1.85615 0.0442,5.87783 z"/>
      <path d="m 382.36799,581.41034 27.22361,-40.39348 0.17678,-9.45755 -27.48878,34.82501 0.0884,15.02602 z"/>
      <path d="m 409.41483,579.90774 -26.78167,-35.26696 -0.44194,-12.37437 27.13522,34.9134 0.0884,12.72793 z"/>
      <path d="m 1109.1851,669.22657 42.0152,-0.22807 -1.5588,-10.25163 -39.439,0.42638 -1.0174,10.05332 z"/>
      <path d="m 1136.688,652.61861 0.9767,-1.22808 9.3151,-0.14561 1.1614,1.43586 0.1675,6.13906 -11.425,0.22906 -0.1957,-6.43029 z"/>
      <path d="m 1111.0826,653.49263 1.0829,-1.09228 8.759,-0.198 0.7123,1.49868 0.051,5.32657 -10.5413,0.0416 -0.064,-5.57653 0,-4e-5 10e-5,0 z"/>
      <path d="m 1128.8476,458.70341 1.5764,-2.50366 2.7229,2.22381 c 4.4287,64.26105 10.1434,128.33839 13.1037,192.8092 l -8.1689,0.1683 c -1.6597,-64.43517 -6.1024,-128.47276 -9.2341,-192.69765 z"/>
      <path d="m 1103.0366,460.17541 1.9684,-2.47557 2.1254,2.23751 c 3.3564,63.55943 8.4914,127.90239 12.5276,192.27106 l -7.3794,0.17554 -9.242,-192.20854 z"/>
      <path d="m 1112.83,551.73025 c 0.7958,1.40711 2.1879,3.87332 3.7679,4.56129 6.0098,2.61677 16.8559,-0.98454 17.1784,-3.1153 l 0.1493,18.17419 c -0.3949,-1.22209 -2.4612,-2.74209 -3.2893,-3.27782 -1.5278,-0.98839 -12.3245,-0.71056 -13.6448,1.51225 -2.8115,4.73367 -2.3806,9.56181 -2.1904,10.53837 l -1.9711,-28.39298 z"/>
      <path d="m 1131.9622,517.5119 1.1544,18.7227 c -0.395,-1.22209 -2.4461,-5.84005 -3.273,-6.37764 -1.2402,-0.8063 -14.0665,-0.10206 -15.0139,0.23594 -0.8962,0.31973 -3.0028,7.39819 -2.8127,8.37475 l -1.1712,-19.24045 c 2.9906,1.38259 17.7115,1.81322 21.1164,-1.7153 z"/>
      <path d="m 1109.0709,490.17638 c 5.8557,0.0417 20.7067,0.8209 21.18,-2.57096 0.1464,3.70409 0.5817,7.1747 0.5811,12.8915 -0.6236,-4.64452 -20.581,-4.09675 -21.2626,1.25411 l -0.4985,-11.57465 z"/>
      <path d="m 1128.9357,459.92653 0.3838,9.03388 c -5.6781,-0.6652 -18.6099,-0.31121 -21.5499,1.78826 l -0.4959,-9.44732 c 5.1807,0.0594 16.981,0.66321 21.662,-1.37482 z"/>
      <path d="m 1138.0467,651.33934 -18.2659,0.84256 -0.2533,-3.41817 18.3016,-0.45505 0.2176,3.03066 z"/>
      <path d="m 1122.3792,648.39974 14.9389,-18.55393 0,-4.71704 -18.1058,19.10779 0.2899,4.38414 2.8723,-0.22096 z"/>
      <path d="m 1134.5225,648.35289 -16.096,-17.16241 -0.4652,-4.50385 19.8335,18.95553 0.221,2.62234 -3.4933,0.0884 z"/>
      <path d="m 1137.4404,628.03004 -0.1324,-3.26185 -19.3228,1.20677 0.057,2.64291 19.3982,-0.58783 z"/>
      <path d="m 1136.4931,607.80749 -0.1668,-4.82502 -18.7623,16.0289 0.446,7.03111 18.4831,-18.23499 z"/>
      <path d="m 1134.5601,625.06978 -17.7494,-18.15555 -0.5735,-4.61268 21.0298,22.47348 -2.7071,0.29475 2e-4,0 z"/>
      <path d="m 0,485.59737 c 108.54152,8.74003 217.01401,14.61718 325.61465,23.67642 C 625.62214,534.29978 931.79622,550.29488 1206.5,615.625 l 0,6.625 C 1155.5244,613.32184 1103.9614,606.51541 1052.2369,599.10252 896.73905,576.81737 736.54061,564.95775 576.01482,554.7666 534.1247,552.10716 492.67825,550.72622 450.7354,547.92373 303.01261,538.05336 153.53433,525.97786 -0.5,522.25 L 0,485.59737 z"/>
      <path d="M 0.1767767,348.7722 C 48.702655,334.51548 95.216433,317.04978 140.33369,298.85421 c 56.88119,-22.93991 112.42653,-46.55304 166.10183,-72.94688 38.33302,-18.84956 76.6934,-38.48269 113.05558,-59.56868 l 0.17678,3.53554 C 364.9349,200.48545 309.82034,227.83177 253.12777,253.66462 172.4574,290.42331 88.773092,323.39294 0,352.13096 l 0.1767767,-3.35876 z"/>
      <path d="m 423.38019,170.40452 c 88.12817,102.33105 195.29403,214.3405 307.83292,297.25234 46.22574,34.05632 95.55386,64.19473 150.14629,82.26527 16.26699,5.38451 33.0987,9.67982 50.43056,12.04277 27.45747,3.74343 54.90629,2.74563 81.40144,-5.52749 18.2092,-5.6858 34.9704,-15.08745 51.6579,-27.26798 9.1622,-6.68767 19.0614,-14.79786 28.4016,-24.80193 11.9315,-12.77958 23.5036,-28.57068 37.4128,-47.58473 l -0.021,1.14276 c -18.1378,28.24298 -38.5275,52.28228 -59.6783,68.58768 -20.8119,16.04417 -40.6789,26.28661 -57.793,31.47744 -21.87845,6.63589 -43.5558,10.29006 -81.85959,5.77235 -23.48661,-2.77011 -45.3307,-9.52916 -67.09074,-17.81093 C 820.02048,529.1297 777.33929,502.89864 730.15127,469.16635 648.64013,410.89823 566.24896,333.45219 422.14275,173.40972 l 1.23744,-3.0052 z"/>
      <path d="m 1133.125,459.25 c 20.4877,54.33942 45.9279,106.36624 73.4192,156.5013 L 1204.625,615.5 c -29.0904,-50.64838 -49.1355,-102.2489 -72.5,-153.5 l 1,-2.75 z"/>
      <path d="m 1105.5625,458.28125 c 20.9537,52.62178 46.5744,103.11186 75.0625,152.09375 l -1.5947,-0.10983 c -27.3412,-47.59435 -51.7298,-97.83505 -73.874,-149.54642 l 0.4062,-2.4375 z"/>
      <path d="m 370.875,178.5 c 40.61544,46.41298 99.29512,106.23686 162.42715,165.70235 61.82301,58.23249 131.00151,115.48092 206.81749,160.93223 35.80748,21.46641 74.81781,37.85894 115.12601,51.17346 l -5.12652,-0.35355 C 819.49116,545.88642 790.75071,533.55995 763.42622,519.41302 699.16953,486.14488 644.33422,442.36753 588.01473,395.10231 550.47568,363.54875 516.17905,330.43014 480.85844,295.88927 444.4788,260.31275 407.59649,222.89948 369.81685,180.48079 L 370.875,178.5 z"/>
      <path d="m -0.25,338 c 42.143967,-13.48199 83.849358,-29.20162 124.26446,-45.78512 20.06045,-8.23138 39.04938,-16.7698 59.10722,-25.16669 42.73221,-17.88914 85.04079,-38.5336 126.80747,-59.55717 19.78229,-9.95756 41.60918,-20.83859 58.44585,-32.24102 l 0.25,3.875 c -35.41643,20.34056 -71.30293,37.18465 -106.81595,54.62726 -20.52881,10.08295 -41.39245,19.13131 -62.34825,28.28927 -38.39373,16.77855 -78.01733,32.78123 -117.554555,48.78566 C 55.228306,321.62625 28.006046,331.81502 0,341.125 L -0.25,338 z"/>
      <path d="m 1104.6776,456.78277 0.4419,3.0052 c -16.3104,23.45144 -32.0532,41.21055 -45.8468,53.93815 -19.7605,18.23334 -35.9042,28.72865 -49.9114,34.75416 -16.74295,7.20232 -30.2514,13.11232 -43.27783,15.95466 -18.08542,3.94619 -32.8119,1.85439 -56.56737,1.24227 l -0.53033,-2.65165 c 27.28053,4.05753 49.34712,2.6416 67.451,-2.90525 25.12053,-7.69667 47.79993,-18.51191 66.28733,-33.6875 8.2275,-6.75362 16.7406,-14.13684 24.5007,-21.9882 15.0171,-15.1938 27.3891,-32.60523 37.4528,-47.66184 z"/>
  </g>-->
<!--
  <g id="Cables" transform="matrix(0.384174, 0, 0, 0.384174, 0.28813, -64.0511)" fill="url(#linearGradient7759)">
      <path d="m 10.71875,336.03125 -3.53125,152.75 0.5,0 3.53125,-152.71875 -0.5,-0.0312 z"/>
      <path d="m 46.0625,322.96875 -4.25,173.59375 0.5,0 4.25,-173.59375 -0.5,0 z"/>
      <path d="m 78.9375,309.875 -2.8125,187.75 0.5,0 2.8125,-187.75 -0.5,0 z"/>
      <path d="m 110.75,298.5 -3,199.25 0.5,0 3,-199.25 -0.5,0 z"/>
      <path d="m 141.5,286.5 -3.25,224 0.5,0 3.25,-224 -0.5,0 z"/>
      <path d="M 170.5,273.5 168,502 l 0.5,0 2.5,-228.5 -0.5,0 z"/>
      <path d="m 198.75,261 -3,244.5 0.5,0 3,-244.5 -0.5,0 z"/>
      <path d="m 225.5,248.5 -1.25,260.25 0.5,0 1.25,-260.25 -0.5,0 z"/>
      <path d="m 251.75,237.25 -1.5,272 0.5,0 1.5,-272 -0.5,0 z"/>
      <path d="m 277,225.75 -1.75,283.75 0.5,0 1.75,-283.75 -0.5,0 z"/>
      <path d="m 300.25,212.75 -0.75,299.5 0.5,0 0.75,-299.5 -0.5,0 z"/>
      <path d="m 323.5,202.25 0.25,311.75 0.5,0 -0.25,-311.75 -0.5,0 z"/>
      <path d="m 346,190 0,325.5 0.5,0 0,-325.5 -0.5,0 z"/>
      <path d="m 32.75,339.25 -2.5,153.25 0.5,0 2.5,-153.25 -0.5,0 z"/>
      <path d="m 69.25,327.25 -2.75,168.25 0.5,0 2.75,-168.25 -0.5,0 z"/>
      <path d="m 103.5,313.5 -3.25,181.75 0.5,0 3.25,-181.75 -0.5,0 z"/>
      <path d="m 136.25,301.25 -2.75,196.25 0.5,0 2.75,-196.25 -0.5,0 z"/>
      <path d="m 167.5,289 -2,211.75 0.5,0 2,-211.75 -0.5,0 z"/>
      <path d="m 253.75,252.75 c 0,0.0417 -0.0166,1.12148 -0.0312,3.03125 -0.0146,1.90977 -0.0352,4.67725 -0.0625,8.1875 -0.0547,7.0205 -0.125,16.9961 -0.21875,28.9375 -0.1875,23.88281 -0.4375,55.625 -0.6875,87.34375 -0.5,63.4375 -1,126.75 -1,126.75 l 0.5,0 c 0,0 0.5,-63.3125 1,-126.75 0.25,-31.71875 0.5,-63.46093 0.6875,-87.34375 0.0937,-11.94141 0.16406,-21.91698 0.21875,-28.9375 0.0273,-3.51026 0.0479,-6.27769 0.0625,-8.1875 0.0146,-1.90981 0.0312,-2.94792 0.0312,-3.03125 l -0.5,0 z"/>
      <path d="m 280,240 -1,269.25 0.5,0 1,-269.25 -0.5,0 z"/>
      <path d="m 305.5,228.75 -0.5,286.5 0.5,0 0.5,-286.5 -0.5,0 z"/>
      <path d="m 329.75,216 -0.25,296.5 0.5,0 0.25,-296.5 -0.5,0 z"/>
      <path d="m 353.25,204 0.25,309.5 0.5,0 -0.25,-309.5 -0.5,0 z"/>
      <path d="m 390,187 2.25,330.75 0.5,0 L 390.5,187 390,187 z"/>
      <path d="m 397.75,201 0.5,317 0.5,0 -0.5,-317 -0.5,0 z"/>
      <path d="m 449,262.5 2.25,265.25 0.5,0 -2.25,-265.25 -0.5,0 z"/>
      <path d="m 467.5,281.25 2.75,245 0.5,0 -2.75,-245 -0.5,0 z"/>
      <path d="m 485.25,299.5 c 0,0.0859 0.0148,0.99924 0.0312,2.6875 0.0165,1.68826 0.0317,4.12206 0.0625,7.21875 0.0615,6.19337 0.14453,15.00781 0.25,25.53125 0.21094,21.04688 0.5,49 0.78125,76.9375 0.5625,55.875 1.125,111.625 1.125,111.625 l 0.5,0 c 0,0 -0.5625,-55.75 -1.125,-111.625 -0.28125,-27.9375 -0.57031,-55.92188 -0.78125,-76.96875 -0.10547,-10.52343 -0.18848,-19.30666 -0.25,-25.5 -0.0308,-3.09667 -0.046,-5.53055 -0.0625,-7.21875 -0.0165,-1.6882 -0.0312,-2.64844 -0.0312,-2.6875 l -0.5,0 z"/>
      <path d="m 503,317.25 2.25,209.75 0.5,0 -2.25,-209.75 -0.5,0 z"/>
      <path d="m 519.5,332.5 2.75,195.25 0.5,0 -2.75,-195.25 -0.5,0 z"/>
      <path d="m 536,348 2.5,181.5 0.5,0 -2.5,-181.5 -0.5,0 z"/>
      <path d="m 551.75,362.75 2.25,167 0.5,0 -2.25,-167 -0.5,0 z"/>
      <path d="m 567.25,377.5 3.25,154.75 0.5,0 -3.25,-154.75 -0.5,0 z"/>
      <path d="m 583,391 2.5,140 0.5,0 -2.5,-140 -0.5,0 z"/>
      <path d="m 596.75,402.25 2.5,133.5 0.5,0 -2.5,-133.5 -0.5,0 z"/>
      <path d="m 611.5,414 2,120.5 0.5,0 -2,-120.5 -0.5,0 z"/>
      <path d="m 625.5,426.25 2.25,110.75 0.5,0 -2.25,-110.75 -0.5,0 z"/>
      <path d="m 639.5,438 1.5,98.75 0.5,0 -1.5,-98.75 -0.5,0 z"/>
      <path d="m 652,447.25 2.5,90.25 0.5,0 -2.5,-90.25 -0.5,0 z"/>
      <path d="m 665,456.25 2.25,83 0.5,0 -2.25,-83 -0.5,0 z"/>
      <path d="m 677.25,465.75 1.5,73.75 0.5,0 -1.5,-73.75 -0.5,0 z"/>
      <path d="m 690,474.5 1.25,66.75 0.5,0 -1.25,-66.75 -0.5,0 z"/>
      <path d="m 702.25,482 0.75,59 0.5,0 -0.75,-59 -0.5,0 z"/>
      <path d="m 713.5,490.25 1,52.5 0.5,0 -1,-52.5 -0.5,0 z"/>
      <path d="m 725,497 0.5,47.25 0.5,0 -0.5,-47.25 -0.5,0 z"/>
      <path d="m 735.75,503.5 1.25,42.25 0.5,0 -1.25,-42.25 -0.5,0 z"/>
      <path d="m 747,510.5 0.5,35.5 0.5,0 -0.5,-35.5 -0.5,0 z"/>
      <path d="m 757,515.25 0.75,31.25 0.5,0 -0.75,-31.25 -0.5,0 z"/>
      <path d="m 766.25,493.5 2,55.75 0.5,0 -2,-55.75 -0.5,0 z"/>
      <path d="m 777.25,500.75 1.25,49.75 0.5,0 -1.25,-49.75 -0.5,0 z"/>
      <path d="m 787.75,507 0.75,43.5 0.5,0 -0.75,-43.5 -0.5,0 z"/>
      <path d="m 797.75,512.25 0.75,39 0.5,0 -0.75,-39 -0.5,0 z"/>
      <path d="m 807.5,518.5 0.5,33 0.5,0 -0.5,-33 -0.5,0 z"/>
      <path d="m 817.625,524.125 0.375,29.125 0.5,0 -0.375,-29.125 -0.5,0 z"/>
      <path d="m 827.125,528.625 0.5,26.125 0.5,0 -0.5,-26.125 -0.5,0 z"/>
      <path d="m 836.25,532.875 0,22 0.5,0 0,-22 -0.5,0 z"/>
      <path d="m 845.25,537.375 0.625,19.5 0.5,0 -0.625,-19.5 -0.5,0 z"/>
      <path d="m 855.75,541.5 0,15.5 0.5,0 0,-15.5 -0.5,0 z"/>
      <path d="M 863.25,544.75 863,558 l 0.5,0 0.25,-13.25 -0.5,0 z"/>
      <path d="m 871.125,547.625 0,10.875 0.5,0 0,-10.875 -0.5,0 z"/>
      <path d="m 879.25,550.375 0.25,9.5 0.5,0 -0.25,-9.5 -0.5,0 z"/>
      <path d="m 886.875,553.25 0.375,7.5 0.5,0 -0.375,-7.5 -0.5,0 z"/>
      <path d="m 896.625,555.375 0.125,6.875 0.5,0 -0.125,-6.875 -0.5,0 z"/>
      <path d="m 910.375,559.625 0.125,4.375 0.5,0 -0.125,-4.375 -0.5,0 z"/>
      <path d="m 440.28125,192.15625 3.1875,332.6875 0.5,0 -3.1875,-332.6875 -0.5,0 z"/>
      <path d="m 460.4375,215.125 2.46875,307.59375 0.5,0 -2.46875,-307.59375 -0.5,0 z"/>
      <path d="m 479.15625,236 3.90625,286.375 0.5,0 -3.90625,-286.375 -0.5,0 z"/>
      <path d="m 497.90625,255.78125 3.1875,271.1875 0.5,0 -3.1875,-271.1875 -0.5,0 z"/>
      <path d="m 516.28125,275.9375 2.84375,253.15625 0.5,0 -2.84375,-253.15625 -0.5,0 z"/>
      <path d="m 534.125,292.1875 -0.5,0.0312 3.1875,239.34375 0.5,0 -3.1875,-239.375 z"/>
      <path d="m 549.53125,309.875 3.875,220.28125 0.5,0 -3.875,-220.28125 -0.5,0 z"/>
      <path d="m 566.5,326.84375 3.875,205.0625 0.5,0 -3.875,-205.0625 -0.5,0 z"/>
      <path d="m 583.25,341.6875 -0.5,0.0312 2.84375,191.96875 0.5,0 -2.84375,-192 z"/>
      <path d="m 598.3125,357.25 3.1875,180.3125 0.5,0 -3.1875,-180.3125 -0.5,0 z"/>
      <path d="m 614.03125,371.03125 -0.5,0.0312 2.8125,165.09375 0.5,0 -2.8125,-165.125 z"/>
      <path d="m 628,385 3.25,150.75 0.5,0 L 628.5,385 628,385 z"/>
      <path d="m 642.75,397.5 2.25,139 0.5,0 -2.25,-139 -0.5,0 z"/>
      <path d="m 656.25,410.25 2.5,126.75 0.5,0 -2.5,-126.75 -0.5,0 z"/>
      <path d="m 669.5,421.25 3,118.75 0.5,0 -3,-118.75 -0.5,0 z"/>
      <path d="m 683.5,432.5 1.75,106.25 0.5,0 -1.75,-106.25 -0.5,0 z"/>
      <path d="m 696.25,442.75 1.75,100.5 0.5,0 -1.75,-100.5 -0.5,0 z"/>
      <path d="m 708.5,451.75 2,92.25 0.5,0 -2,-92.25 -0.5,0 z"/>
      <path d="m 720.5,461 2,82.25 0.5,0 -2,-82.25 -0.5,0 z"/>
      <path d="m 732.75,470.25 1.75,74.25 0.5,0 -1.75,-74.25 -0.5,0 z"/>
      <path d="m 744.5,478 0.75,67.25 0.5,0 L 745,478 l -0.5,0 z"/>
      <path d="m 755.25,485.75 1.25,65 0.5,0 -1.25,-65 -0.5,0 z"/>
      <path d="m 996,554.1875 0.6875,23.5 0.3125,0 -0.71875,-23.5 -0.28125,0 z"/>
      <path d="m 1001.2812,551.53125 0.7188,26 0.3125,0 -0.7187,-26 -0.3126,0 z"/>
      <path d="m 1006.0625,549.40625 1.0625,30.40625 0.3125,0 -1.0625,-30.40625 -0.3125,0 z"/>
      <path d="m 991.90625,555.59375 0.53125,24.0625 0.3125,-0.0312 -0.53125,-24.03125 -0.3125,0 z"/>
      <path d="m 986.5625,558.0625 -0.3125,0.0312 0.53125,18.90625 0.3125,0 -0.53125,-18.9375 z"/>
      <path d="M 980.96875,559.84375 981.5,575.75 l 0.28125,0 -0.53125,-15.90625 -0.28125,0 z"/>
      <path d="m 1011.5312,547.46875 0.7188,32 0.3125,0 -0.7187,-32 -0.3126,0 z"/>
      <path d="m 1016.7812,544.625 -0.2812,0.0312 0.5312,35 0.2813,-0.0312 -0.5313,-35 z"/>
      <path d="m 1021.2812,542.15625 0.6876,39.4375 0.3124,0 -0.7187,-39.4375 -0.2813,0 z"/>
      <path d="m 1026.2188,538.625 0.3437,41.375 0.3125,0 -0.375,-41.375 -0.2812,0 z"/>
      <path d="m 1030.4688,535.8125 1.0624,45.78125 0.2813,0 -1.0625,-45.78125 -0.2812,0 z"/>
      <path d="m 1035.3438,532.78125 -0.2813,0.0312 1.2187,49.5 0.3126,-0.0312 -1.25,-49.5 z"/>
      <path d="m 1039.8125,529.4375 1.7813,55.34375 0.3124,-0.0312 -1.7812,-55.3125 -0.3125,0 z"/>
      <path d="m 1044.5938,525.90625 1.9374,58.875 0.3126,-0.0312 -1.9376,-58.84375 -0.3124,0 z"/>
      <path d="m 1048.125,523.4375 2.125,61.15625 0.3125,0 -2.125,-61.15625 -0.3125,0 z"/>
      <path d="m 1052.0312,519.1875 1.4063,66.28125 0.3125,0 -1.4375,-66.28125 -0.2813,0 z"/>
      <path d="m 1094.2188,474.09375 -0.3126,0.0312 3.5626,119.125 0.2812,0 -3.5312,-119.15625 z"/>
      <path d="m 1056.8125,514.59375 1.2187,71.9375 0.3126,0 -1.25,-71.9375 -0.2813,0 z"/>
      <path d="m 1060.3438,534.03125 0.6874,52.875 0.3126,-0.0312 -0.7188,-52.84375 -0.2812,0 z"/>
      <path d="m 1061.75,510.15625 1.0625,80.28125 0.2813,0 -1.0313,-80.28125 -0.3125,0 z"/>
      <path d="m 1064.0312,530.6875 1.1563,57.875 0.3125,0 -1.1562,-57.875 -0.3126,0 z"/>
      <path d="m 1065.5938,507.5 -0.3126,0.0312 2.4688,81.65625 0.3125,0 -2.4687,-81.6875 z"/>
      <path d="m 1069.2812,503.4375 -0.2812,0.0312 1.9375,86.25 0.3125,0 -1.9688,-86.28125 z"/>
      <path d="m 1072.5312,500.09375 2.125,90.4375 0.2813,-0.0312 -2.0937,-90.40625 -0.3126,0 z"/>
      <path d="m 1076.5938,496.5625 1.9374,94.21875 0.3126,0 -1.9376,-94.21875 -0.3124,0 z"/>
      <path d="m 1079.9062,491.59375 -0.3124,0.0312 2.3124,99.15625 0.2813,0 -2.2813,-99.1875 z"/>
      <path d="m 1084.1875,486.84375 1.7813,106.0625 0.3124,0 -1.7812,-106.0625 -0.3125,0 z"/>
      <path d="m 1081.7188,517.25 1.5937,74.59375 0.3125,0 -1.5938,-74.59375 -0.3124,0 z"/>
      <path d="m 1087.7188,482.25 2.3124,111 0.3126,0 -2.3126,-111 -0.3124,0 z"/>
      <path d="m 1091.9375,477.625 -0.3125,0.0312 1.9375,116.125 0.3125,0 -1.9375,-116.15625 z"/>
      <path d="m 1093.0312,505.40625 1.9376,87.3125 0.3124,0 -1.9374,-87.3125 -0.3126,0 z"/>
      <path d="m 1097.5938,468.96875 -0.3126,0.0312 3.5313,125.3125 0.3125,0 -3.5312,-125.34375 z"/>
      <path d="m 1101,497.625 2.8125,98.8125 0.3125,0 -2.8438,-98.8125 -0.2812,0 z"/>
      <path d="m 974.0625,560.90625 0,13.78125 0.3125,0 0,-13.78125 -0.3125,0 z"/>
      <path d="m 964.875,563.5625 -0.1875,9.53125 0.3125,0 0.1875,-9.53125 -0.3125,0 z"/>
      <path d="m 956.75,564.96875 0.15625,5.65625 0.3125,0 -0.1875,-5.65625 -0.28125,0 z"/>
      <path d="m 1123.9688,465.625 4.7812,134.71875 0.2812,-0.0312 -4.75,-134.6875 -0.3124,0 z"/>
      <path d="m 1120.4375,471.09375 4.5937,127.46875 0.3126,0 -4.5938,-127.46875 -0.3125,0 z"/>
      <path d="m 1117.1875,475.15625 -0.2813,0.0312 4.5938,123.5625 0.3125,-0.0312 -4.625,-123.5625 z"/>
      <path d="m 1113,481 4.4375,116.15625 0.2813,-0.0312 L 1113.3125,481 1113,481 z"/>
      <path d="m 1138.6562,477.46875 5.2813,127.46875 0.3125,-0.0312 -5.3125,-127.4375 -0.2813,0 z"/>
      <path d="m 1143.9062,487.875 -0.3124,0.0312 4.25,119.3125 0.2812,0 -4.2188,-119.34375 z"/>
      <path d="m 1147.6562,497.09375 3.7188,109.59375 0.3125,0 -3.7187,-109.59375 -0.3126,0 z"/>
      <path d="m 1152.0938,506.46875 c 0,0.083 0.01,0.49912 0.031,1.28125 0.021,0.78213 0.024,1.91069 0.062,3.3125 0.077,2.80362 0.2112,6.73081 0.3437,11.4375 0.2652,9.41339 0.6152,21.89393 0.9688,34.3125 0.7071,24.83714 1.4062,49.53125 1.4062,49.53125 l 0.3126,0 c 0,0 -0.7305,-24.72539 -1.4376,-49.5625 -0.3535,-12.41855 -0.7035,-24.86792 -0.9687,-34.28125 -0.1326,-4.70666 -0.2352,-8.63399 -0.3125,-11.4375 -0.039,-1.40176 -0.073,-2.53058 -0.094,-3.3125 -0.021,-0.78192 -0.031,-1.23163 -0.031,-1.28125 l -0.2812,0 z"/>
      <path d="m 1156.5,514.9375 2.8438,92.28125 0.2812,0 -2.8125,-92.28125 -0.3125,0 z"/>
      <path d="m 1160.875,525 -0.3125,0.0312 3,83.78125 0.3125,0 -3,-83.8125 z"/>
      <path d="m 1165.5,537.75 2.125,70.53125 0.3125,0 -2.125,-70.53125 -0.3125,0 z"/>
      <path d="m 1169.9375,546.59375 2.2813,63.8125 0.3124,0 -2.2812,-63.8125 -0.3125,0 z"/>
      <path d="m 1175.1875,556.46875 -0.3125,0.0312 1.7812,54.25 0.2813,0 -1.75,-54.28125 z"/>
      <path d="m 1179.8438,566.03125 1.4062,46.5 0.3125,0 -1.4375,-46.5 -0.2812,0 z"/>
      <path d="m 1184.5938,575.9375 0.5312,35.53125 0.3125,0 -0.5313,-35.53125 -0.3124,0 z"/>
      <path d="m 1188.6875,583.875 0.3437,30.9375 0.2813,0 -0.3437,-30.9375 -0.2813,0 z"/>
      <path d="m 1192.375,591.84375 0.1875,21.75 0.3125,0 -0.1875,-21.75 -0.3125,0 z"/>
      <path d="m 1196.8125,598.90625 0,15.90625 0.2813,0 0,-15.90625 -0.2813,0 z"/>
      <path d="m 1201.0625,608.46875 0,7.0625 0.2813,0 0,-7.0625 -0.2813,0 z"/>
  </g>

  <g>
    <text style="font-size: 50px; font-weight: bold; text-align: center; line-height: 125%; text-anchor: middle; fill: rgb(255, 255, 255); stroke: rgb(247, 170, 21); stroke-width: 2; filter: url(#drop-shadow); font-family: Myriad Pro;" x="670.933" y="50.1627">SVG Open 2009
    </text>

    <g fill="rgb(47, 69, 91)">
      <text style="font-weight: bold; fill: rgb(42, 64, 87); font-family: Myriad Pro;" transform="translate(0, -2)"><textPath xlink:href="#path6806" font-size="14px">SVG coming of age ...</textPath></text>
      <path fill="none" d="m 577,155 c 76.67782,-26.3894 156.18886,42.30596 230.5,45.5" id="path6806"/>
      <path fill="none" d="m 588,170 c 0,0 47,-16 144,30" id="path6143"/>
      <path fill="none" d="m 0,155.5 c 0,0 241.66667,6.66667 389.16667,27.5" id="path6461"/>
      <text xml:space="preserve" style="font-size: 14px; font-weight: bold; text-align: center; line-height: 125%; text-anchor: middle; font-family: Myriad Pro;"><textPath xlink:href="#path6461" style="font-size: 12px; text-align: start; text-anchor: start;"><tspan font-size="12.3px" dx="5">M</tspan><tspan font-size="12.2px">o</tspan><tspan font-size="12.1px">u</tspan>n<tspan font-size="11.9px">t</tspan><tspan font-size="11.8px">a</tspan><tspan font-size="11.7px">i</tspan><tspan font-size="11.6px">n</tspan><tspan font-size="11.5px"> V</tspan><tspan font-size="11.4px">i</tspan><tspan font-size="11.3px">e</tspan><tspan font-size="11.2px">w,</tspan><tspan font-size="11.1px"> C</tspan><tspan font-size="11px">A, <tspan>U</tspan><tspan>S</tspan><tspan>A</tspan></tspan><tspan font-size="10.7px" dx="45">O</tspan><tspan font-size="10.6px">c</tspan><tspan font-size="10.5px">t</tspan><tspan font-size="10.4px">o</tspan><tspan font-size="10.3px">b</tspan><tspan font-size="10.2px">e</tspan><tspan font-size="10.1px">r</tspan><tspan font-size="10px"> 2-</tspan><tspan font-size="9.9px">4</tspan><tspan font-size="9.8px"> 2</tspan><tspan font-size="9.7px">0</tspan><tspan font-size="10.75px"><tspan font-size="9.6px">0</tspan><tspan style="font-size: 9.5px;">9</tspan></tspan></textPath></text>
    </g>
  </g>-->
</svg>
