<?xml version="1.0" encoding="utf-8"?>
<!-- Generator: Adobe Illustrator 21.1.0, SVG Export Plug-In . SVG Version: 6.00 Build 0)  -->
<svg version="1.1" id="Capa_1" xmlns="http://www.w3.org/2000/svg" xmlns:xlink="http://www.w3.org/1999/xlink" x="0px" y="0px"
	 viewBox="0 0 512 512" style="enable-background:new 0 0 512 512;" xml:space="preserve">
<style type="text/css">
	.st0{fill:url(#SVGID_1_);}
	.st1{fill:url(#SVGID_2_);}
</style>
<g>
	
		<linearGradient id="SVGID_1_" gradientUnits="userSpaceOnUse" x1="249.1192" y1="789.2804" x2="350.5539" y2="672.7161" gradientTransform="matrix(0.8601 0 0 -0.8601 54.265 991.3009)">
		<stop  offset="0" style="stop-color:#5F6DC8"/>
		<stop  offset="1" style="stop-color:#3E49B1"/>
	</linearGradient>
	<path class="st0" d="M442,161.2h-42.1l-77.2,119.3V161.2h-42.1v189.5h42.1l77.2-119.3v182.5l-287.8,0.2v-21.3l-21.3,21.3L70,434.9
		L91,456l21.2,21.2V456H442V161.2z"/>
	
		<linearGradient id="SVGID_2_" gradientUnits="userSpaceOnUse" x1="270.0549" y1="860.6861" x2="179.7385" y2="970.525" gradientTransform="matrix(0.8601 0 0 -0.8601 54.265 991.3009)">
		<stop  offset="0" style="stop-color:#B66D5A"/>
		<stop  offset="1" style="stop-color:#A84739"/>
	</linearGradient>
	<path class="st1" d="M421,56l-0.2-0.2l-21.1-21.1v21.1L70,55.6V98l112.3,0.2v210.3H112v-70.2H70v112.3h154.4V98.2h175.5v21l21-21
		l0.3-0.3L442,77.1L421,56z"/>
</g>
<g>
</g>
<g>
</g>
<g>
</g>
<g>
</g>
<g>
</g>
<g>
</g>
<g>
</g>
<g>
</g>
<g>
</g>
<g>
</g>
<g>
</g>
<g>
</g>
<g>
</g>
<g>
</g>
<g>
</g>
</svg>
