<?xml version="1.0" encoding="UTF-8"?>
<!DOCTYPE svg PUBLIC "-//W3C//DTD SVG 1.1//EN" "http://www.w3.org/Graphics/SVG/1.1/DTD/svg11.dtd">
<svg version="1.1" xmlns="http://www.w3.org/2000/svg" xmlns:xlink="http://www.w3.org/1999/xlink" x="0" y="0" width="256" height="256" viewBox="0, 0, 256, 256">
  <g id="Layer_2">
    <g>
      <path d="M24.4,24.5 L232.6,24.5 L232.6,136.5 L24.4,136.5 L24.4,24.5 z" fill="#9193D0"/>
      <path d="M24.4,24.5 L232.6,24.5 L232.6,136.5 L24.4,136.5 L24.4,24.5 z" fill-opacity="0" stroke="#26263B" stroke-width="2"/>
    </g>
    <g>
      <path d="M80.009,32 C80.009,32 81.105,128 80.009,128 C78.913,128 176,128 176,128 C176,128 128,80 128,80 C128,80 176,32 176,32 C176,32 80.009,32.658 80.009,32 z" fill="#363878"/>
      <path d="M176,32 C176,32 128,80 128,80 C128,80 176,128 176,128 L80.009,128 C81.105,128 80.009,32 80.009,32 C80.009,32.658 176,32 176,32 z M166.282,36.061 C161.233,36.093 156.183,36.119 151.134,36.146 C143.133,36.187 135.353,36.221 128.018,36.247 C114.511,36.293 103.254,36.306 94.994,36.277 C90.29,36.261 86.618,36.232 84.065,36.188 L84.055,36.188 C84.066,37.224 84.056,36.264 84.085,39.07 C84.142,44.628 84.199,50.63 84.252,56.854 C84.321,64.858 84.378,72.64 84.42,79.977 C84.497,93.491 84.519,104.754 84.471,113.023 C84.444,117.738 84.395,121.421 84.322,123.989 L84.322,124 L166.343,124 C166.046,123.703 166.27,123.927 165.672,123.328 C162.847,120.504 160.023,117.679 157.198,114.855 C149.023,106.679 140.847,98.504 132.672,90.328 C128.73,86.386 130.292,87.949 127.983,85.64 C127.045,84.703 126.109,83.765 125.172,82.828 L122.343,80 C123.973,78.369 125.604,76.739 127.234,75.109 C129.484,72.859 129.484,72.859 132.672,69.672 C136.764,65.579 140.857,61.486 144.95,57.394 L155.311,47.033 C158.979,43.387 162.623,39.717 166.282,36.061 z" fill="#C5C5C5"/>
    </g>
    <g>
      <path d="M104.6,152.5 L152.6,152.5 L152.6,168.5 L104.6,168.5 L104.6,152.5 z" fill="#9193D0"/>
      <path d="M104.6,152.5 L152.6,152.5 L152.6,168.5 L104.6,168.5 L104.6,152.5 z" fill-opacity="0" stroke="#26263B" stroke-width="2"/>
    </g>
    <g>
      <path d="M104.6,184.5 L152.6,184.5 L152.6,200.5 L104.6,200.5 L104.6,184.5 z" fill="#9193D0"/>
      <path d="M104.6,184.5 L152.6,184.5 L152.6,200.5 L104.6,200.5 L104.6,184.5 z" fill-opacity="0" stroke="#26263B" stroke-width="2"/>
    </g>
    <g>
      <path d="M104.6,216.5 L152.6,216.5 L152.4,232.5 L104.4,232.5 L104.6,216.5 z" fill="#9193D0"/>
      <path d="M104.6,216.5 L152.6,216.5 L152.4,232.5 L104.4,232.5 L104.6,216.5 z" fill-opacity="0" stroke="#26263B" stroke-width="2"/>
    </g>
    <g>
      <path d="M72.4,232.5 L88.4,232.5 L88.6,152.5 L72.6,152.5 L56.6,168.5 L40.6,152.5 L24.4,152.5 L24.4,232.5 L40.4,232.5 L40.599,176.5 L56.599,192.5 L72.599,176.5 z" fill="#9193D0"/>
      <path d="M72.4,232.5 L88.4,232.5 L88.6,152.5 L72.6,152.5 L56.6,168.5 L40.6,152.5 L24.4,152.5 L24.4,232.5 L40.4,232.5 L40.599,176.5 L56.599,192.5 L72.599,176.5 z" fill-opacity="0" stroke="#26263B" stroke-width="2"/>
    </g>
    <g>
      <path d="M216.4,232.5 L232.4,232.5 L232.6,152.5 L216.6,152.5 L200.6,168.5 L184.6,152.5 L168.4,152.5 L168.4,232.5 L184.4,232.5 L184.599,176.5 L200.599,192.5 L216.599,176.5 z" fill="#9193D0"/>
      <path d="M216.4,232.5 L232.4,232.5 L232.6,152.5 L216.6,152.5 L200.6,168.5 L184.6,152.5 L168.4,152.5 L168.4,232.5 L184.4,232.5 L184.599,176.5 L200.599,192.5 L216.599,176.5 z" fill-opacity="0" stroke="#26263B" stroke-width="2"/>
    </g>
  </g>
</svg>
