<?xml version="1.0" encoding="utf-8"?>
<!-- Generator: Adobe Illustrator 21.1.0, SVG Export Plug-In . SVG Version: 6.00 Build 0)  -->
<svg version="1.1" id="Capa_1" xmlns="http://www.w3.org/2000/svg" xmlns:xlink="http://www.w3.org/1999/xlink" x="0px" y="0px"
	 viewBox="0 0 512 512" style="enable-background:new 0 0 512 512;" xml:space="preserve">
<style type="text/css">
	.st0{clip-path:url(#SVGID_2_);}
	.st1{clip-path:url(#SVGID_4_);fill:#FFFFFF;}
	.st2{clip-path:url(#SVGID_4_);fill:url(#SVGID_5_);}
	.st3{clip-path:url(#SVGID_7_);fill:url(#SVGID_8_);}
	.st4{clip-path:url(#SVGID_10_);fill:url(#SVGID_11_);}
	.st5{clip-path:url(#SVGID_13_);fill:url(#SVGID_14_);}
	.st6{opacity:0.3;}
	.st7{enable-background:new    ;}
	.st8{fill:#DADADA;}
	.st9{fill:#BDBDBD;}
	.st10{fill:#939393;}
</style>
<g>
	<g>
		<defs>
			<rect id="SVGID_1_" y="-10.2" width="512" height="512"/>
		</defs>
		<clipPath id="SVGID_2_">
			<use xlink:href="#SVGID_1_"  style="overflow:visible;"/>
		</clipPath>
		<g class="st0">
			<defs>
				<rect id="SVGID_3_" y="-10.2" width="512" height="512"/>
			</defs>
			<clipPath id="SVGID_4_">
				<use xlink:href="#SVGID_3_"  style="overflow:visible;"/>
			</clipPath>
			<path class="st1" d="M480,457.8c0,6.6-5.4,12-12,12H44c-6.6,0-12-5.4-12-12v-424c0-6.6,5.4-12,12-12H468c6.6,0,12,5.4,12,12
				V457.8z"/>
			
				<linearGradient id="SVGID_5_" gradientUnits="userSpaceOnUse" x1="681.5405" y1="383.7486" x2="682.5408" y2="383.7486" gradientTransform="matrix(468 0 0 -468 -318939.125 179840.1094)">
				<stop  offset="0" style="stop-color:#3A008F"/>
				<stop  offset="1" style="stop-color:#280068"/>
			</linearGradient>
			<path class="st2" d="M480,457.8h9.5c0,11.9-9.6,21.5-21.5,21.5H44c-11.9,0-21.5-9.6-21.5-21.5v-424c0-11.9,9.7-21.5,21.5-21.5
				H468c11.9,0,21.5,9.6,21.5,21.5v424H480h-9.5v-424c0-1.4-1.1-2.5-2.5-2.5H44c-1.4,0-2.5,1.1-2.5,2.5v424c0,1.4,1.1,2.5,2.5,2.5
				H468c1.4,0,2.5-1.1,2.5-2.5H480z"/>
		</g>
		<g class="st0">
			<path d="M68.3,49.7h18.2v36h0.4c1.8-3.1,3.7-6,5.6-8.9l18.5-27h22.6l-26.9,34.7L135,131h-21.5L93.5,95.9l-7,8.6V131H68.3V49.7z"
				/>
			<path d="M213.1,89.5c0,26.7-16.2,42.9-40,42.9c-24.2,0-38.3-18.2-38.3-41.4c0-24.4,15.6-42.6,39.6-42.6
				C199.4,48.3,213.1,67,213.1,89.5z M154.3,90.6c0,15.9,7.5,27.2,19.8,27.2c12.4,0,19.6-11.8,19.6-27.7c0-14.6-7-27.2-19.7-27.2
				C161.5,62.9,154.3,74.8,154.3,90.6z"/>
			<path d="M225.2,50.7c5.9-1,14.7-1.7,24.5-1.7c12.1,0,20.5,1.8,26.3,6.4c4.8,3.9,7.5,9.5,7.5,17c0,10.4-7.4,17.5-14.4,20v0.4
				c5.7,2.3,8.8,7.7,10.9,15.2c2.5,9.2,5.1,19.8,6.6,22.9h-18.8c-1.3-2.3-3.3-8.9-5.7-19c-2.2-10.1-5.7-12.9-13.2-13h-5.6v32h-18.2
				V50.7z M243.4,85.8h7.2c9.2,0,14.6-4.6,14.6-11.7c0-7.5-5.1-11.2-13.5-11.4c-4.5,0-7,0.4-8.3,0.6V85.8z"/>
		</g>
		<g class="st0">
			<defs>
				<path id="SVGID_6_" d="M110.9,49.7L92.5,76.7c-1.8,2.9-3.7,5.8-5.6,8.9h-0.4v-36H68.3V131h18.2v-26.6l7-8.6l19.9,35.1H135
					l-28.4-46.7l26.9-34.7H110.9z"/>
			</defs>
			<clipPath id="SVGID_7_">
				<use xlink:href="#SVGID_6_"  style="overflow:visible;"/>
			</clipPath>
			
				<linearGradient id="SVGID_8_" gradientUnits="userSpaceOnUse" x1="679.8725" y1="383.462" x2="680.8718" y2="383.462" gradientTransform="matrix(218.2192 0 0 -218.2192 -148292.8281 83769.125)">
				<stop  offset="0" style="stop-color:#3A008F"/>
				<stop  offset="1" style="stop-color:#280068"/>
			</linearGradient>
			<rect x="68.3" y="49.7" class="st3" width="66.7" height="81.4"/>
		</g>
		<g class="st0">
			<defs>
				<path id="SVGID_9_" d="M154.2,90.6c0-15.8,7.2-27.7,19.7-27.7c12.7,0,19.7,12.6,19.7,27.2c0,15.8-7.1,27.7-19.6,27.7
					C161.6,117.8,154.2,106.5,154.2,90.6 M134.7,91c0,23.2,14.1,41.4,38.3,41.4c23.8,0,40-16.2,40-42.9c0-22.5-13.6-41.2-38.6-41.2
					C150.3,48.3,134.7,66.6,134.7,91"/>
			</defs>
			<clipPath id="SVGID_10_">
				<use xlink:href="#SVGID_9_"  style="overflow:visible;"/>
			</clipPath>
			
				<linearGradient id="SVGID_11_" gradientUnits="userSpaceOnUse" x1="679.872" y1="383.462" x2="680.8726" y2="383.462" gradientTransform="matrix(218.2192 0 0 -218.2192 -148292.8281 83769.125)">
				<stop  offset="0" style="stop-color:#3A008F"/>
				<stop  offset="1" style="stop-color:#280068"/>
			</linearGradient>
			<rect x="134.7" y="48.3" class="st4" width="78.3" height="84"/>
		</g>
		<g class="st0">
			<defs>
				<path id="SVGID_12_" d="M243.3,63.3c1.3-0.2,3.9-0.6,8.3-0.6c8.5,0.1,13.5,3.9,13.5,11.3c0,7.1-5.4,11.7-14.6,11.7h-7.2V63.3z
					 M225.1,50.7V131h18.2V99h5.6c7.5,0.1,11,2.9,13.2,13c2.4,10,4.3,16.7,5.7,19h18.8c-1.6-3.1-4.1-13.8-6.6-22.9
					c-2.1-7.5-5.2-12.9-10.9-15.2v-0.4c7-2.5,14.4-9.7,14.4-20c0-7.5-2.7-13.2-7.5-17c-5.8-4.6-14.2-6.4-26.3-6.4
					C239.8,49,231,49.8,225.1,50.7"/>
			</defs>
			<clipPath id="SVGID_13_">
				<use xlink:href="#SVGID_12_"  style="overflow:visible;"/>
			</clipPath>
			
				<linearGradient id="SVGID_14_" gradientUnits="userSpaceOnUse" x1="679.871" y1="383.4634" x2="680.8725" y2="383.4634" gradientTransform="matrix(218.2192 0 0 -218.2192 -148292.8281 83769.125)">
				<stop  offset="0" style="stop-color:#3A008F"/>
				<stop  offset="1" style="stop-color:#280068"/>
			</linearGradient>
			<rect x="225.1" y="49" class="st5" width="61.5" height="82"/>
		</g>
	</g>
</g>
<g class="st6">
	<g>
		<g>
			<g class="st7">
				<g>
					<polygon class="st8" points="119.8,206.9 262.1,159.9 261.5,348.7 119.2,395.7 					"/>
				</g>
				<g>
					<polygon class="st9" points="119.2,395.7 261.5,348.7 402.5,397.2 260.2,444.3 					"/>
				</g>
				<g>
					<polygon points="119.8,206.9 262.1,159.9 403.1,208.4 260.8,255.4 					"/>
				</g>
				<g>
					<polygon points="260.8,255.4 403.1,208.4 402.5,397.2 260.2,444.3 					"/>
				</g>
				<g>
					<path class="st10" d="M119.1,205.7l142.3,49l-0.6,190.7l-142.3-49L119.1,205.7z M260.2,444.3l0.6-188.8l-140.9-48.5l-0.6,188.8
						L260.2,444.3"/>
				</g>
				<g>
					<polygon points="260.8,255.4 260.2,444.3 119.2,395.7 119.8,206.9 					"/>
				</g>
				<g>
					<polygon class="st8" points="261.5,254.7 403.8,207.7 403.2,398.4 260.9,445.4 					"/>
				</g>
				<g>
					<polygon class="st9" points="119.1,205.7 261.4,158.7 403.8,207.7 261.5,254.7 					"/>
				</g>
			</g>
		</g>
	</g>
</g>
<g>
	<path d="M265.2,348.9c-12.5-4.7-35.6-21.2-35.6-40.6c0-10.9,6.6-20.9,27.2-35.6c12.5-9.1,31.2-21.2,31.2-33.4
		c0-10-6.6-16.2-17.8-16.2c-20,0-32.8,17.8-36.9,17.8c-4.7,0-13.7-6.9-13.7-15c0-4.7,2.2-7.5,6.6-11.6c9.7-8.4,24-12.2,30.3-12.2
		c25.9,0,50.9,24.7,50.9,50.9c0,11.2-3.7,19.4-15.6,28.4c-10,8.4-34,22.2-34,36.2c0,9.7,4.7,15.9,13.4,24L265.2,348.9z M241.8,394.2
		c0-10.6,7.8-19.1,18.1-19.1c10.6,0,18.4,8.4,18.4,19.1c0,11.6-7.8,19.4-18.4,19.4C249.6,413.5,241.8,405.7,241.8,394.2z"/>
</g>
<g>
</g>
<g>
</g>
<g>
</g>
<g>
</g>
<g>
</g>
<g>
</g>
<g>
</g>
<g>
</g>
<g>
</g>
<g>
</g>
<g>
</g>
<g>
</g>
<g>
</g>
<g>
</g>
<g>
</g>
</svg>
