<?xml version="1.0" encoding="utf-8"?>
<!-- Generator: Adobe Illustrator 21.1.0, SVG Export Plug-In . SVG Version: 6.00 Build 0)  -->
<svg version="1.1" id="Capa_1" xmlns="http://www.w3.org/2000/svg" xmlns:xlink="http://www.w3.org/1999/xlink" x="0px" y="0px"
	 viewBox="0 0 512 512" style="enable-background:new 0 0 512 512;" xml:space="preserve">
<style type="text/css">
	.st0{clip-path:url(#SVGID_2_);}
	.st1{clip-path:url(#SVGID_4_);fill:#FFFFFF;}
	.st2{clip-path:url(#SVGID_4_);fill:url(#SVGID_5_);}
	.st3{clip-path:url(#SVGID_7_);fill:url(#SVGID_8_);}
	.st4{clip-path:url(#SVGID_10_);fill:url(#SVGID_11_);}
	.st5{clip-path:url(#SVGID_13_);fill:url(#SVGID_14_);}
	.st6{fill:url(#SVGID_15_);stroke:url(#SVGID_16_);stroke-width:20;stroke-miterlimit:10;}
	.st7{fill:#2E5244;}
	.st8{fill:#FFFFFF;}
</style>
<g>
	<g>
		<defs>
			<rect id="SVGID_1_" width="512" height="512"/>
		</defs>
		<clipPath id="SVGID_2_">
			<use xlink:href="#SVGID_1_"  style="overflow:visible;"/>
		</clipPath>
		<g class="st0">
			<defs>
				<rect id="SVGID_3_" width="512" height="512"/>
			</defs>
			<clipPath id="SVGID_4_">
				<use xlink:href="#SVGID_3_"  style="overflow:visible;"/>
			</clipPath>
			<path class="st1" d="M480,468c0,6.6-5.4,12-12,12H44c-6.6,0-12-5.4-12-12V44c0-6.6,5.4-12,12-12H468c6.6,0,12,5.4,12,12V468z"/>
			
				<linearGradient id="SVGID_5_" gradientUnits="userSpaceOnUse" x1="681.5405" y1="383.7267" x2="682.5408" y2="383.7267" gradientTransform="matrix(468 0 0 -468 -318939.125 179840.1094)">
				<stop  offset="0" style="stop-color:#3A008F"/>
				<stop  offset="1" style="stop-color:#280068"/>
			</linearGradient>
			<path class="st2" d="M480,468h9.5c0,11.9-9.6,21.5-21.5,21.5H44c-11.9,0-21.5-9.6-21.5-21.5V44c0-11.9,9.7-21.5,21.5-21.5H468
				c11.9,0,21.5,9.6,21.5,21.5v424H480h-9.5V44c0-1.4-1.1-2.5-2.5-2.5H44c-1.4,0-2.5,1.1-2.5,2.5v424c0,1.4,1.1,2.5,2.5,2.5H468
				c1.4,0,2.5-1.1,2.5-2.5H480z"/>
		</g>
		<g class="st0">
			<path d="M68.3,59.9h18.2v36h0.4c1.8-3.1,3.7-6,5.6-8.9l18.5-27h22.6l-26.9,34.7l28.4,46.7h-21.5l-19.9-35.1l-7,8.6v26.6H68.3
				V59.9z"/>
			<path d="M213.1,99.7c0,26.7-16.2,42.9-40,42.9c-24.2,0-38.3-18.2-38.3-41.4c0-24.4,15.6-42.6,39.6-42.6
				C199.4,58.5,213.1,77.3,213.1,99.7z M154.3,100.8c0,15.9,7.5,27.2,19.8,27.2c12.4,0,19.6-11.8,19.6-27.7c0-14.6-7-27.2-19.7-27.2
				C161.5,73.2,154.3,85,154.3,100.8z"/>
			<path d="M225.2,61c5.9-1,14.7-1.7,24.5-1.7c12.1,0,20.5,1.8,26.3,6.4c4.8,3.9,7.5,9.5,7.5,17c0,10.4-7.4,17.5-14.4,20v0.4
				c5.7,2.3,8.8,7.7,10.9,15.2c2.5,9.2,5.1,19.8,6.6,22.9h-18.8c-1.3-2.3-3.3-8.9-5.7-19c-2.2-10.1-5.7-12.9-13.2-13h-5.6v32h-18.2
				V61z M243.4,96h7.2c9.2,0,14.6-4.6,14.6-11.7c0-7.5-5.1-11.2-13.5-11.4c-4.5,0-7,0.4-8.3,0.6V96z"/>
		</g>
		<g class="st0">
			<defs>
				<path id="SVGID_6_" d="M110.9,59.9L92.5,86.9c-1.8,2.9-3.7,5.8-5.6,8.9h-0.4v-36H68.3v81.4h18.2v-26.6l7-8.6l19.9,35.1H135
					l-28.4-46.7l26.9-34.7H110.9z"/>
			</defs>
			<clipPath id="SVGID_7_">
				<use xlink:href="#SVGID_6_"  style="overflow:visible;"/>
			</clipPath>
			
				<linearGradient id="SVGID_8_" gradientUnits="userSpaceOnUse" x1="679.8725" y1="383.4152" x2="680.8718" y2="383.4152" gradientTransform="matrix(218.2192 0 0 -218.2192 -148292.8281 83769.125)">
				<stop  offset="0" style="stop-color:#3A008F"/>
				<stop  offset="1" style="stop-color:#280068"/>
			</linearGradient>
			<rect x="68.3" y="59.9" class="st3" width="66.7" height="81.4"/>
		</g>
		<g class="st0">
			<defs>
				<path id="SVGID_9_" d="M154.2,100.8c0-15.8,7.2-27.7,19.7-27.7c12.7,0,19.7,12.6,19.7,27.2c0,15.8-7.1,27.7-19.6,27.7
					C161.6,128,154.2,116.7,154.2,100.8 M134.7,101.2c0,23.2,14.1,41.4,38.3,41.4c23.8,0,40-16.2,40-42.9
					c0-22.5-13.6-41.2-38.6-41.2C150.3,58.5,134.7,76.8,134.7,101.2"/>
			</defs>
			<clipPath id="SVGID_10_">
				<use xlink:href="#SVGID_9_"  style="overflow:visible;"/>
			</clipPath>
			
				<linearGradient id="SVGID_11_" gradientUnits="userSpaceOnUse" x1="679.872" y1="383.4152" x2="680.8726" y2="383.4152" gradientTransform="matrix(218.2192 0 0 -218.2192 -148292.8281 83769.125)">
				<stop  offset="0" style="stop-color:#3A008F"/>
				<stop  offset="1" style="stop-color:#280068"/>
			</linearGradient>
			<rect x="134.7" y="58.5" class="st4" width="78.3" height="84"/>
		</g>
		<g class="st0">
			<defs>
				<path id="SVGID_12_" d="M243.3,73.5c1.3-0.2,3.9-0.6,8.3-0.6c8.5,0.1,13.5,3.9,13.5,11.3c0,7.1-5.4,11.7-14.6,11.7h-7.2V73.5z
					 M225.1,61v80.3h18.2v-32h5.6c7.5,0.1,11,2.9,13.2,13c2.4,10,4.3,16.7,5.7,19h18.8c-1.6-3.1-4.1-13.8-6.6-22.9
					c-2.1-7.5-5.2-12.9-10.9-15.2v-0.4c7-2.5,14.4-9.7,14.4-20c0-7.5-2.7-13.2-7.5-17c-5.8-4.6-14.2-6.4-26.3-6.4
					C239.8,59.3,231,60,225.1,61"/>
			</defs>
			<clipPath id="SVGID_13_">
				<use xlink:href="#SVGID_12_"  style="overflow:visible;"/>
			</clipPath>
			
				<linearGradient id="SVGID_14_" gradientUnits="userSpaceOnUse" x1="679.871" y1="383.4166" x2="680.8725" y2="383.4166" gradientTransform="matrix(218.2192 0 0 -218.2192 -148292.8281 83769.125)">
				<stop  offset="0" style="stop-color:#3A008F"/>
				<stop  offset="1" style="stop-color:#280068"/>
			</linearGradient>
			<rect x="225.1" y="59.3" class="st5" width="61.5" height="82"/>
		</g>
	</g>
</g>
<g>
	<linearGradient id="SVGID_15_" gradientUnits="userSpaceOnUse" x1="258" y1="438" x2="258" y2="180">
		<stop  offset="0" style="stop-color:#D0DEF2"/>
		<stop  offset="8.615114e-02" style="stop-color:#C7D9F0"/>
		<stop  offset="0.2294" style="stop-color:#ADCAE9"/>
		<stop  offset="0.4109" style="stop-color:#84B2DE"/>
		<stop  offset="0.5674" style="stop-color:#5B9AD3"/>
		<stop  offset="0.8652" style="stop-color:#4274B9"/>
		<stop  offset="0.9944" style="stop-color:#345B93"/>
	</linearGradient>
	<linearGradient id="SVGID_16_" gradientUnits="userSpaceOnUse" x1="258" y1="170" x2="258" y2="448">
		<stop  offset="0" style="stop-color:#D0DEF2"/>
		<stop  offset="8.615114e-02" style="stop-color:#C7D9F0"/>
		<stop  offset="0.2294" style="stop-color:#ADCAE9"/>
		<stop  offset="0.4109" style="stop-color:#84B2DE"/>
		<stop  offset="0.5674" style="stop-color:#5B9AD3"/>
		<stop  offset="0.8652" style="stop-color:#4274B9"/>
		<stop  offset="0.9944" style="stop-color:#345B93"/>
	</linearGradient>
	<rect x="105" y="180" class="st6" width="306" height="258"/>
	<circle cx="190.2" cy="244" r="38.5"/>
	<path d="M237.3,370.2l-44.6-63.7L112,371.3V430h292v-63.1l-20.1-15.7l-23.5,20.5l-39.7-49.5C320.8,322.2,259.9,374.5,237.3,370.2"
		/>
</g>
<g>
	<g>
		<path class="st7" d="M163.5,342.3c0.6-2.5,1.2-5.2,2-8.2c0.8-3,1.6-6.1,2.6-9.3c0.9-3.2,1.8-6.5,2.8-9.7c0.9-3.3,1.9-6.4,2.8-9.5
			c0.9-3,1.7-5.8,2.5-8.5c0.8-2.6,1.4-4.8,2-6.7c1.2-4.1,2.3-8.2,3.4-12.3c1.1-4.1,2.1-8.5,3.1-13c1.3-2.5,3-4.2,5.1-5.2
			c2.1-1,4.5-1.6,7-1.6c2,1.1,3.6,2.5,4.8,4.4c1.2,1.9,1.7,4,1.7,6.3c0,1.6-0.3,3.5-0.8,5.6c-0.5,2.1-1.2,4.4-2,6.8
			c-0.8,2.4-1.7,5-2.7,7.7c-1,2.7-2,5.4-2.9,8.3c-1.8,5.2-3.5,10.3-5.3,15.5c-1.8,5.2-3.5,10.6-5.2,16.4c-0.4,1.5-0.9,3-1.4,4.5
			c-0.5,1.5-1,3.2-1.6,4.9c-0.5,1.8-1.1,3.7-1.7,5.9c-0.6,2.2-1.3,4.7-1.9,7.5c-0.8,3.3-1.4,6.7-2,10.1c-0.6,3.4-1.1,6.8-1.6,10.2
			c-0.5,3.4-1.1,6.8-1.7,10.3c-0.6,3.5-1.4,7-2.3,10.5c-0.3,1.3-0.9,2.4-1.7,3.4c-0.8,1-1.7,1.8-2.7,2.5c-1,0.7-2.1,1.2-3.2,1.6
			c-1.1,0.4-2.2,0.6-3.2,0.6c-1,0-2-0.1-2.9-0.2c-0.9-0.2-1.6-0.5-2.1-1.1c-0.8-0.8-1.4-1.7-1.8-2.7c-0.4-1-0.7-2.1-0.7-3.2
			c0-0.3,0-0.6,0-0.9c0-0.3,0.1-0.6,0.1-0.9L163.5,342.3z"/>
		<path class="st7" d="M197.1,388.3c1.2-4.8,2.9-10.1,5-16c2.1-5.9,4.6-12,7.4-18.3c2.8-6.4,5.9-12.8,9.3-19.4
			c3.4-6.6,6.9-12.9,10.5-19.1c3.6-6.2,7.3-12.1,11.2-17.6c3.8-5.5,7.6-10.4,11.3-14.8c1.1-1.2,2.4-2.7,4-4.4
			c1.6-1.8,3.4-3.6,5.4-5.5c2-1.9,4.1-3.8,6.2-5.6c2.2-1.9,4.4-3.5,6.6-5c2.2-1.5,4.3-2.7,6.4-3.6c2.1-0.9,4-1.4,5.8-1.4
			c2.4,0,4.6,0.4,6.6,1.2c2,0.8,3.7,2,5.1,3.5c1.4,1.5,2.5,3.3,3.3,5.4c0.8,2.1,1.2,4.4,1.2,6.9c0,1.1-0.1,2.1-0.2,3.2
			c-0.2,1.1-0.4,2.2-0.6,3.3l-10.5,52.7c0.9-1.4,2.3-3.4,4-5.9c1.7-2.5,3.6-5.3,5.8-8.3c2.1-3.1,4.4-6.2,6.7-9.5
			c2.3-3.3,4.6-6.5,6.9-9.6c2.2-3.1,4.3-5.9,6.2-8.5c1.9-2.6,3.4-4.6,4.6-6.2l1.7-2.2c1.1-1.4,2.5-3.1,4.2-5.1c1.6-2,3.5-4,5.4-6.1
			c2-2.1,4.1-4.3,6.3-6.3c2.2-2.1,4.4-3.9,6.7-5.6c2.3-1.6,4.5-3,6.7-4c2.2-1,4.3-1.6,6.3-1.6c1.5,0,2.8,0.3,3.8,1
			c1,0.7,1.8,1.6,2.5,2.8c0.6,1.2,1.1,2.5,1.3,4.1c0.3,1.6,0.4,3.2,0.4,4.9c0,2.6-0.2,5.3-0.7,8c-0.4,2.7-0.9,5.2-1.5,7.4
			c-0.3,1.8-0.7,4.3-1.3,7.6c-0.5,3.3-1.2,7-1.9,11.3c-0.7,4.3-1.5,8.9-2.3,13.8c-0.8,4.9-1.7,10-2.5,15.1s-1.7,10.1-2.6,15.1
			c-0.9,5-1.6,9.6-2.4,13.9c-0.7,4.3-1.4,8.2-2,11.6c-0.6,3.4-1.1,6-1.5,7.9c-0.2,0.9-0.5,2.1-0.9,3.6c-0.4,1.5-1,3-1.8,4.4
			c-0.8,1.5-1.8,2.7-3.1,3.8c-1.3,1.1-2.9,1.6-4.8,1.6c-1,0-2-0.3-2.9-1c-0.9-0.7-1.7-1.5-2.5-2.5c-0.7-1-1.3-2.1-1.7-3.3
			c-0.4-1.2-0.6-2.2-0.7-3.2l19.7-93.4c0.2-0.9,0.3-1.7,0.5-2.4c0.1-0.7,0.2-1.4,0.2-2c0-0.7-0.1-1.3-0.2-1.9
			c-0.2-0.6-0.3-1.1-0.4-1.6c-0.2-0.6-0.4-1.1-0.6-1.5c-2.8,2.1-5.9,4.9-9.1,8.2c-3.2,3.3-6.5,7-9.8,11.1c-3.3,4.1-6.6,8.4-9.9,12.9
			c-3.3,4.6-6.4,9.2-9.4,13.8c-2.3,3.6-4.8,7.4-7.5,11.3c-2.7,4-5.4,8-8.1,12c-2.7,4-5.3,8-7.9,12c-2.6,4-4.9,7.8-6.9,11.5
			c-1,1.8-2,4-3.1,6.8c-1.1,2.8-2.3,5.5-3.5,8.1c-1.3,2.6-2.7,4.9-4.2,6.8c-1.5,1.9-3.2,2.8-5.1,2.8c-1.5,0-2.7-0.2-3.6-0.7
			c-1-0.4-1.7-1-2.3-1.7c-0.6-0.7-1-1.6-1.2-2.6c-0.3-1-0.4-2-0.4-3.2c0-1.4,0.1-2.9,0.4-4.3c0.3-1.4,0.6-2.8,0.9-4.2
			c1.3-5.5,2.7-11.1,4.2-16.5c1.4-5.5,2.9-11.1,4.5-16.8c1.5-5.7,3.1-11.7,4.8-17.8c1.6-6.1,3.3-12.7,5-19.6c0.4-2,0.9-4.1,1.5-6.6
			c0.6-2.4,1.1-4.9,1.6-7.4c0.5-2.5,0.9-4.9,1.2-7.2c0.3-2.3,0.5-4.4,0.5-6.2c0-1.6-0.1-2.9-0.4-3.9c-0.3-1-0.7-1.5-1.4-1.5
			c-2.3,0-4.8,0.9-7.4,2.6c-2.6,1.7-5.2,4-7.8,6.9c-2.6,2.8-5.3,6.1-7.8,9.7c-2.6,3.7-5,7.4-7.4,11.3c-2.3,3.9-4.5,7.7-6.5,11.5
			c-2,3.8-3.8,7.2-5.2,10.2c-0.3,0.6-0.8,1.5-1.4,2.6c-0.6,1.1-1.4,2.6-2.4,4.6c-1,2-2.2,4.5-3.6,7.6c-1.4,3.1-3.1,7-5,11.7
			c-1.9,4.7-4.1,10.4-6.7,16.9c-2.5,6.6-5.4,14.2-8.5,23.1c-0.6,1.5-1.6,2.7-3,3.7c-1.4,0.9-2.9,1.4-4.4,1.4c-3.3,0-5.7-0.9-7.2-2.6
			c-1.5-1.8-2.3-3.9-2.3-6.5C196.6,390.9,196.8,389.7,197.1,388.3z"/>
	</g>
	<g>
		<path class="st8" d="M163.5,342.3c0.6-2.5,1.2-5.2,2-8.2c0.8-3,1.6-6.1,2.6-9.3c0.9-3.2,1.8-6.5,2.8-9.7c0.9-3.3,1.9-6.4,2.8-9.5
			c0.9-3,1.7-5.8,2.5-8.5c0.8-2.6,1.4-4.8,2-6.7c1.2-4.1,2.3-8.2,3.4-12.3c1.1-4.1,2.1-8.5,3.1-13c1.3-2.5,3-4.2,5.1-5.2
			c2.1-1,4.5-1.6,7-1.6c2,1.1,3.6,2.5,4.8,4.4c1.2,1.9,1.7,4,1.7,6.3c0,1.6-0.3,3.5-0.8,5.6c-0.5,2.1-1.2,4.4-2,6.8
			c-0.8,2.4-1.7,5-2.7,7.7c-1,2.7-2,5.4-2.9,8.3c-1.8,5.2-3.5,10.3-5.3,15.5c-1.8,5.2-3.5,10.6-5.2,16.4c-0.4,1.5-0.9,3-1.4,4.5
			c-0.5,1.5-1,3.2-1.6,4.9c-0.5,1.8-1.1,3.7-1.7,5.9c-0.6,2.2-1.3,4.7-1.9,7.5c-0.8,3.3-1.4,6.7-2,10.1c-0.6,3.4-1.1,6.8-1.6,10.2
			c-0.5,3.4-1.1,6.8-1.7,10.3c-0.6,3.5-1.4,7-2.3,10.5c-0.3,1.3-0.9,2.4-1.7,3.4c-0.8,1-1.7,1.8-2.7,2.5c-1,0.7-2.1,1.2-3.2,1.6
			c-1.1,0.4-2.2,0.6-3.2,0.6c-1,0-2-0.1-2.9-0.2c-0.9-0.2-1.6-0.5-2.1-1.1c-0.8-0.8-1.4-1.7-1.8-2.7c-0.4-1-0.7-2.1-0.7-3.2
			c0-0.3,0-0.6,0-0.9c0-0.3,0.1-0.6,0.1-0.9L163.5,342.3z"/>
		<path class="st8" d="M197.1,388.3c1.2-4.8,2.9-10.1,5-16c2.1-5.9,4.6-12,7.4-18.3c2.8-6.4,5.9-12.8,9.3-19.4
			c3.4-6.6,6.9-12.9,10.5-19.1c3.6-6.2,7.3-12.1,11.2-17.6c3.8-5.5,7.6-10.4,11.3-14.8c1.1-1.2,2.4-2.7,4-4.4
			c1.6-1.8,3.4-3.6,5.4-5.5c2-1.9,4.1-3.8,6.2-5.6c2.2-1.9,4.4-3.5,6.6-5c2.2-1.5,4.3-2.7,6.4-3.6c2.1-0.9,4-1.4,5.8-1.4
			c2.4,0,4.6,0.4,6.6,1.2c2,0.8,3.7,2,5.1,3.5c1.4,1.5,2.5,3.3,3.3,5.4c0.8,2.1,1.2,4.4,1.2,6.9c0,1.1-0.1,2.1-0.2,3.2
			c-0.2,1.1-0.4,2.2-0.6,3.3l-10.5,52.7c0.9-1.4,2.3-3.4,4-5.9c1.7-2.5,3.6-5.3,5.8-8.3c2.1-3.1,4.4-6.2,6.7-9.5
			c2.3-3.3,4.6-6.5,6.9-9.6c2.2-3.1,4.3-5.9,6.2-8.5c1.9-2.6,3.4-4.6,4.6-6.2l1.7-2.2c1.1-1.4,2.5-3.1,4.2-5.1c1.6-2,3.5-4,5.4-6.1
			c2-2.1,4.1-4.3,6.3-6.3c2.2-2.1,4.4-3.9,6.7-5.6c2.3-1.6,4.5-3,6.7-4c2.2-1,4.3-1.6,6.3-1.6c1.5,0,2.8,0.3,3.8,1
			c1,0.7,1.8,1.6,2.5,2.8c0.6,1.2,1.1,2.5,1.3,4.1c0.3,1.6,0.4,3.2,0.4,4.9c0,2.6-0.2,5.3-0.7,8c-0.4,2.7-0.9,5.2-1.5,7.4
			c-0.3,1.8-0.7,4.3-1.3,7.6c-0.5,3.3-1.2,7-1.9,11.3c-0.7,4.3-1.5,8.9-2.3,13.8c-0.8,4.9-1.7,10-2.5,15.1s-1.7,10.1-2.6,15.1
			c-0.9,5-1.6,9.6-2.4,13.9c-0.7,4.3-1.4,8.2-2,11.6c-0.6,3.4-1.1,6-1.5,7.9c-0.2,0.9-0.5,2.1-0.9,3.6c-0.4,1.5-1,3-1.8,4.4
			c-0.8,1.5-1.8,2.7-3.1,3.8c-1.3,1.1-2.9,1.6-4.8,1.6c-1,0-2-0.3-2.9-1c-0.9-0.7-1.7-1.5-2.5-2.5c-0.7-1-1.3-2.1-1.7-3.3
			c-0.4-1.2-0.6-2.2-0.7-3.2l19.7-93.4c0.2-0.9,0.3-1.7,0.5-2.4c0.1-0.7,0.2-1.4,0.2-2c0-0.7-0.1-1.3-0.2-1.9
			c-0.2-0.6-0.3-1.1-0.4-1.6c-0.2-0.6-0.4-1.1-0.6-1.5c-2.8,2.1-5.9,4.9-9.1,8.2c-3.2,3.3-6.5,7-9.8,11.1c-3.3,4.1-6.6,8.4-9.9,12.9
			c-3.3,4.6-6.4,9.2-9.4,13.8c-2.3,3.6-4.8,7.4-7.5,11.3c-2.7,4-5.4,8-8.1,12c-2.7,4-5.3,8-7.9,12c-2.6,4-4.9,7.8-6.9,11.5
			c-1,1.8-2,4-3.1,6.8c-1.1,2.8-2.3,5.5-3.5,8.1c-1.3,2.6-2.7,4.9-4.2,6.8c-1.5,1.9-3.2,2.8-5.1,2.8c-1.5,0-2.7-0.2-3.6-0.7
			c-1-0.4-1.7-1-2.3-1.7c-0.6-0.7-1-1.6-1.2-2.6c-0.3-1-0.4-2-0.4-3.2c0-1.4,0.1-2.9,0.4-4.3c0.3-1.4,0.6-2.8,0.9-4.2
			c1.3-5.5,2.7-11.1,4.2-16.5c1.4-5.5,2.9-11.1,4.5-16.8c1.5-5.7,3.1-11.7,4.8-17.8c1.6-6.1,3.3-12.7,5-19.6c0.4-2,0.9-4.1,1.5-6.6
			c0.6-2.4,1.1-4.9,1.6-7.4c0.5-2.5,0.9-4.9,1.2-7.2c0.3-2.3,0.5-4.4,0.5-6.2c0-1.6-0.1-2.9-0.4-3.9c-0.3-1-0.7-1.5-1.4-1.5
			c-2.3,0-4.8,0.9-7.4,2.6c-2.6,1.7-5.2,4-7.8,6.9c-2.6,2.8-5.3,6.1-7.8,9.7c-2.6,3.7-5,7.4-7.4,11.3c-2.3,3.9-4.5,7.7-6.5,11.5
			c-2,3.8-3.8,7.2-5.2,10.2c-0.3,0.6-0.8,1.5-1.4,2.6c-0.6,1.1-1.4,2.6-2.4,4.6c-1,2-2.2,4.5-3.6,7.6c-1.4,3.1-3.1,7-5,11.7
			c-1.9,4.7-4.1,10.4-6.7,16.9c-2.5,6.6-5.4,14.2-8.5,23.1c-0.6,1.5-1.6,2.7-3,3.7c-1.4,0.9-2.9,1.4-4.4,1.4c-3.3,0-5.7-0.9-7.2-2.6
			c-1.5-1.8-2.3-3.9-2.3-6.5C196.6,390.9,196.8,389.7,197.1,388.3z"/>
	</g>
</g>
<g>
</g>
<g>
</g>
<g>
</g>
<g>
</g>
<g>
</g>
<g>
</g>
<g>
</g>
<g>
</g>
<g>
</g>
<g>
</g>
<g>
</g>
<g>
</g>
<g>
</g>
<g>
</g>
<g>
</g>
</svg>
