<svg xmlns="http://www.w3.org/2000/svg" xmlns:xlink="http://www.w3.org/1999/xlink" viewBox="0 0 467 467"><defs><style>.cls-1{fill:none;}.cls-2{clip-path:url(#clip-path);}.cls-3{fill:#fff;}.cls-4{fill:url(#linear-gradient);}.cls-5{clip-path:url(#clip-path-3);}.cls-6{fill:url(#linear-gradient-2);}.cls-7{clip-path:url(#clip-path-4);}.cls-8{fill:url(#linear-gradient-3);}.cls-9{clip-path:url(#clip-path-5);}.cls-10{fill:url(#linear-gradient-4);}.cls-11{fill:url(#Sky);}.cls-12{fill:url(#Sky-2);}.cls-13{fill:url(#Sky-3);}.cls-14{fill:url(#Sky-4);}.cls-15{fill:#2c3b90;}</style><clipPath id="clip-path" transform="translate(-22.5 -22.5)"><rect class="cls-1" width="512" height="512"/></clipPath><linearGradient id="linear-gradient" x1="-1077.69" y1="-1624.56" x2="-1076.69" y2="-1624.56" gradientTransform="matrix(468, 0, 0, -468, 504381.89, -760035.89)" gradientUnits="userSpaceOnUse"><stop offset="0" stop-color="#410094"/><stop offset="1" stop-color="#2b006a"/></linearGradient><clipPath id="clip-path-3" transform="translate(-22.5 -22.5)"><path class="cls-1" d="M110.93,59.87,92.45,86.92c-1.81,2.9-3.74,5.79-5.56,8.94h-.36v-36H68.3v81.39H86.53V114.69l7-8.57,19.92,35.14H135L106.58,94.52l26.93-34.66Z"/></clipPath><linearGradient id="linear-gradient-2" x1="-1075.05" y1="-1629.77" x2="-1074.05" y2="-1629.77" gradientTransform="matrix(218.22, 0, 0, -218.22, 234642.12, -355568.65)" xlink:href="#linear-gradient"/><clipPath id="clip-path-4" transform="translate(-22.5 -22.5)"><path class="cls-1" d="M154.16,100.8c0-15.82,7.25-27.65,19.68-27.65,12.68,0,19.68,12.56,19.68,27.17,0,15.82-7.12,27.65-19.56,27.65s-19.8-11.23-19.8-27.17m-19.44.36c0,23.19,14.13,41.42,38.28,41.42,23.79,0,40-16.18,40-42.87,0-22.46-13.64-41.18-38.64-41.18-24,0-39.61,18.23-39.61,42.63"/></clipPath><linearGradient id="linear-gradient-3" x1="-1075.05" y1="-1629.77" x2="-1074.05" y2="-1629.77" gradientTransform="matrix(218.22, 0, 0, -218.22, 234642.12, -355568.65)" xlink:href="#linear-gradient"/><clipPath id="clip-path-5" transform="translate(-22.5 -22.5)"><path class="cls-1" d="M243.29,73.51a45.9,45.9,0,0,1,8.33-.6c8.45.12,13.53,3.86,13.53,11.35,0,7.13-5.43,11.71-14.61,11.71h-7.25ZM225.05,61v80.3h18.23v-32h5.55c7.49.12,11,2.9,13.16,13,2.42,10,4.35,16.67,5.68,19h18.84c-1.57-3.14-4.11-13.77-6.64-22.94-2.05-7.49-5.19-12.92-10.87-15.21v-.36c7-2.54,14.37-9.66,14.37-20,0-7.49-2.66-13.16-7.49-17-5.8-4.59-14.25-6.4-26.32-6.4A161.91,161.91,0,0,0,225.05,61"/></clipPath><linearGradient id="linear-gradient-4" x1="-1075.05" y1="-1629.77" x2="-1074.05" y2="-1629.77" gradientTransform="matrix(218.22, 0, 0, -218.22, 234642.12, -355568.65)" xlink:href="#linear-gradient"/><linearGradient id="Sky" x1="105.44" y1="293.87" x2="388.47" y2="293.87" gradientUnits="userSpaceOnUse"><stop offset="0" stop-color="#cce0f4"/><stop offset="0.06" stop-color="#c3dcf2"/><stop offset="0.17" stop-color="#a9d2ee"/><stop offset="0.31" stop-color="#80c2e7"/><stop offset="0.46" stop-color="#47acde"/><stop offset="0.57" stop-color="#1e9cd7"/><stop offset="0.87" stop-color="#0075be"/><stop offset="0.99" stop-color="#005b97"/></linearGradient><linearGradient id="Sky-2" x1="109.96" y1="216.64" x2="393" y2="216.64" xlink:href="#Sky"/><linearGradient id="Sky-3" x1="108.45" y1="267.56" x2="391.49" y2="267.56" xlink:href="#Sky"/><linearGradient id="Sky-4" x1="106.46" y1="324.26" x2="389.49" y2="324.26" xlink:href="#Sky"/></defs><title>Recurso 2</title><g id="Capa_2" data-name="Capa 2"><g id="Layer_1" data-name="Layer 1"><g class="cls-2"><g class="cls-2"><path class="cls-3" d="M480,468a12,12,0,0,1-12,12H44a12,12,0,0,1-12-12V44A12,12,0,0,1,44,32H468a12,12,0,0,1,12,12Z" transform="translate(-22.5 -22.5)"/><path class="cls-4" d="M480,468h9.5A21.52,21.52,0,0,1,468,489.5H44A21.52,21.52,0,0,1,22.5,468V44A21.52,21.52,0,0,1,44,22.5H468A21.52,21.52,0,0,1,489.5,44V468h-19V44A2.52,2.52,0,0,0,468,41.5H44A2.52,2.52,0,0,0,41.5,44V468A2.52,2.52,0,0,0,44,470.5H468a2.52,2.52,0,0,0,2.53-2.5Z" transform="translate(-22.5 -22.5)"/></g><path d="M68.3,59.87H86.53v36h.36c1.81-3.14,3.74-6,5.55-8.94l18.48-27h22.58L106.58,94.53,135,141.26h-21.5L93.54,106.12l-7,8.57v26.57H68.3Z" transform="translate(-22.5 -22.5)"/><path d="M213.09,99.72c0,26.69-16.18,42.87-40,42.87-24.15,0-38.28-18.23-38.28-41.42,0-24.39,15.58-42.63,39.61-42.63C199.45,58.54,213.09,77.26,213.09,99.72Zm-58.81,1.09c0,15.94,7.49,27.17,19.8,27.17s19.56-11.83,19.56-27.65c0-14.61-7-27.17-19.68-27.17C161.53,73.15,154.28,85,154.28,100.8Z" transform="translate(-22.5 -22.5)"/><path d="M225.17,61a161.75,161.75,0,0,1,24.51-1.69c12.08,0,20.53,1.81,26.33,6.4,4.83,3.86,7.49,9.54,7.49,17,0,10.39-7.37,17.51-14.37,20v.36c5.68,2.29,8.82,7.73,10.87,15.22,2.54,9.18,5.07,19.8,6.64,22.94H267.8c-1.33-2.29-3.26-8.94-5.68-19-2.17-10.14-5.68-12.92-13.16-13h-5.55v32H225.17Zm18.23,35h7.25c9.18,0,14.61-4.59,14.61-11.71,0-7.49-5.07-11.23-13.52-11.35a45.84,45.84,0,0,0-8.33.6Z" transform="translate(-22.5 -22.5)"/><g class="cls-5"><rect class="cls-6" x="45.8" y="37.37" width="66.66" height="81.39"/></g><g class="cls-7"><rect class="cls-8" x="112.22" y="36.04" width="78.25" height="84.05"/></g><g class="cls-9"><rect class="cls-10" x="202.55" y="36.76" width="61.47" height="81.99"/></g></g><path class="cls-11" d="M375.84,262.52,267.93,304.7c-9.42,3.68-24.71,3.69-34.15,0L121.84,261.13l-9.35,3.65c-9.42,3.68-9.41,9.65,0,13.32L230,323.85c9.44,3.68,24.73,3.67,34.15,0L381.42,278c9.42-3.68,9.41-9.65,0-13.32Z" transform="translate(-22.5 -22.5)"/><path class="cls-12" d="M385.94,223.25,268.68,269.09c-9.42,3.68-24.71,3.69-34.15,0L117.05,223.35c-9.44-3.68-9.45-9.64,0-13.32L234.28,164.2c9.42-3.68,24.71-3.69,34.15,0l117.48,45.75C395.35,213.61,395.36,219.57,385.94,223.25Z" transform="translate(-22.5 -22.5)"/><path class="cls-13" d="M384.4,238.49l-9.7-3.78L266.42,277c-9.42,3.68-24.71,3.69-34.15,0l-107.79-42-9,3.51c-9.42,3.68-9.41,9.65,0,13.32L233,297.65c9.44,3.68,24.73,3.67,34.15,0l117.26-45.83C393.86,248.12,393.84,242.16,384.4,238.49Z" transform="translate(-22.5 -22.5)"/><path class="cls-14" d="M376.86,292.92,268.95,335.1c-9.42,3.68-24.71,3.69-34.15,0L122.86,291.52l-9.35,3.65c-9.42,3.68-9.41,9.65,0,13.32L231,354.25c9.44,3.68,24.73,3.67,34.15,0L382.44,308.4c9.42-3.68,9.41-9.65,0-13.32Z" transform="translate(-22.5 -22.5)"/><path class="cls-15" d="M172.91,435.91h-55.2V348.66h11.6V425.6h43.59Z" transform="translate(-22.5 -22.5)"/><path class="cls-15" d="M215.28,435.91H180.82V427h11.43V357.57H180.82v-8.91h34.45v8.91H203.85V427h11.43Z" transform="translate(-22.5 -22.5)"/><path class="cls-15" d="M300.82,409.07a25.6,25.6,0,0,1-2.46,11.48,23.19,23.19,0,0,1-6.62,8.2,30.66,30.66,0,0,1-10.81,5.51,57,57,0,0,1-15,1.64H235V348.66h25.84a106.3,106.3,0,0,1,14.3.7,29.1,29.1,0,0,1,9.08,2.93,16.23,16.23,0,0,1,7,6.47,19.42,19.42,0,0,1,2.17,9.46,17.53,17.53,0,0,1-3.16,10.58,22.77,22.77,0,0,1-8.44,7v.47A24.1,24.1,0,0,1,295.73,394Q300.82,400,300.82,409.07Zm-19.51-39.32a12.12,12.12,0,0,0-1.05-5.33,8.18,8.18,0,0,0-3.4-3.52,16.5,16.5,0,0,0-6.68-2q-3.93-.38-9.73-.38H246.62v25.2h15a53.2,53.2,0,0,0,8.67-.56,16.1,16.1,0,0,0,6-2.31,9.7,9.7,0,0,0,3.9-4.54A17.3,17.3,0,0,0,281.31,369.76Zm7.44,39.79a18.62,18.62,0,0,0-1.58-8.38,12.71,12.71,0,0,0-5.74-5.27,19.28,19.28,0,0,0-6.83-1.9,91.63,91.63,0,0,0-9.76-.44H246.62V426H262a80.34,80.34,0,0,0,12.48-.79,19.68,19.68,0,0,0,8-2.9,14.72,14.72,0,0,0,4.8-5.21A16.36,16.36,0,0,0,288.75,409.54Z" transform="translate(-22.5 -22.5)"/><path class="cls-15" d="M380.69,411a23.22,23.22,0,0,1-2.37,10.08,24,24,0,0,1-6.65,8.44,35.53,35.53,0,0,1-10.93,5.86,47.19,47.19,0,0,1-15,2.11,74.82,74.82,0,0,1-17-1.76,86,86,0,0,1-15.32-5.21V416h.82a48.23,48.23,0,0,0,15.29,8.5,50.11,50.11,0,0,0,16.29,3q10.78,0,16.79-4t6-10.78q0-5.8-2.84-8.55t-8.64-4.28a86.15,86.15,0,0,0-9.52-1.93q-5.13-.76-10.87-1.93-11.6-2.46-17.2-8.41t-5.6-15.5q0-11,9.26-18t23.5-7a75.64,75.64,0,0,1,16.88,1.76,77.37,77.37,0,0,1,13.59,4.34v13.71h-.82a40.33,40.33,0,0,0-13.1-7,50.9,50.9,0,0,0-16.61-2.78q-9.32,0-15,3.87t-5.65,10q0,5.45,2.81,8.55t9.9,4.75q3.75.82,10.66,2t11.72,2.4q9.73,2.58,14.65,7.79T380.69,411Z" transform="translate(-22.5 -22.5)"/></g></g></svg>