<?xml version="1.0" ?><!DOCTYPE svg  PUBLIC '-//W3C//DTD SVG 1.0//EN'  'http://www.w3.org/TR/2001/REC-SVG-20010904/DTD/svg10.dtd'><svg enable-background="new 0 0 32 32" height="32px" id="Layer_1" version="1.0" viewBox="0 0 32 32" width="32px" xml:space="preserve" xmlns="http://www.w3.org/2000/svg" xmlns:xlink="http://www.w3.org/1999/xlink"><g><path clip-rule="evenodd" d="M32,30c0,1.104-0.896,2-2,2H2c-1.104,0-2-0.896-2-2V2   c0-1.104,0.896-2,2-2h28c1.104,0,2,0.896,2,2V30z" fill="#E02F2F" fill-rule="evenodd"/><g><path d="M19,6c0,0-4.592,0-6.164,0c-2.82,0-5.475,1.979-5.475,4.453c0,2.528,1.922,4.494,4.791,4.494    c0.2,0,0.394-0.045,0.584-0.059c-0.188,0.355-0.318,0.737-0.318,1.154c0,0.703,0.377,1.264,0.854,1.729    c-0.358,0-0.709,0.005-1.09,0.005C8.689,17.777,6,20,6,22.307c0,2.272,2.948,3.695,6.441,3.695c3.983,0,6.183-2.262,6.183-4.534    c0-1.821-0.538-2.913-2.199-4.091c-0.569-0.401-1.656-1.38-1.656-1.956c0-0.674,0.192-1.006,1.208-1.8    c1.039-0.812,1.776-1.781,1.776-3.111c0-1.581-0.68-3.51-2.003-3.51H18L19,6z M16.931,21.074c0.048,0.212,0.077,0.429,0.077,0.649    c0,1.836-1.185,3.271-4.58,3.271c-2.415,0-4.158-1.528-4.158-3.364c0-1.799,2.163-3.298,4.579-3.271    c0.562,0.006,1.088,0.097,1.564,0.249C15.724,19.521,16.664,20.036,16.931,21.074z M13.063,14.225    c-1.621-0.047-3.162-1.813-3.441-3.94c-0.279-2.13,0.808-3.759,2.428-3.711c1.62,0.05,3.162,1.758,3.441,3.886    C15.771,12.588,14.684,14.273,13.063,14.225z" fill="#FFFFFF"/><polygon fill="#FFFFFF" points="24,13.993 24,10.993 22,10.993 22,13.993 19,13.993 19,15.993 22,15.993 22,18.993 24,18.993     24,15.993 27,15.993 27,13.993   "/></g></g><g/><g/><g/><g/><g/><g/></svg>