<?xml version="1.0" ?><!DOCTYPE svg  PUBLIC '-//W3C//DTD SVG 1.0//EN'  'http://www.w3.org/TR/2001/REC-SVG-20010904/DTD/svg10.dtd'><svg enable-background="new 0 0 32 32" height="32px" id="Layer_1" version="1.0" viewBox="0 0 32 32" width="32px" xml:space="preserve" xmlns="http://www.w3.org/2000/svg" xmlns:xlink="http://www.w3.org/1999/xlink"><path d="M16,0C7.178,0,0,7.178,0,16s7.178,16.001,16,16.001S32,24.822,32,16S24.822,0,16,0z M1.615,16  c0-2.086,0.447-4.065,1.246-5.854l6.861,18.8C4.924,26.615,1.615,21.694,1.615,16z M16,30.386c-1.412,0-2.775-0.206-4.063-0.585  l4.316-12.542l4.422,12.114c0.029,0.07,0.064,0.136,0.103,0.197C19.282,30.098,17.676,30.386,16,30.386z M17.982,9.255  c0.866-0.045,1.646-0.136,1.646-0.136c0.775-0.092,0.684-1.231-0.092-1.186c0,0-2.329,0.183-3.834,0.183  c-1.414,0-3.789-0.183-3.789-0.183c-0.775-0.046-0.866,1.139-0.091,1.186c0,0,0.734,0.091,1.509,0.136l2.241,6.142l-3.148,9.441  L7.187,9.255C8.054,9.21,8.833,9.119,8.833,9.119c0.773-0.092,0.684-1.231-0.092-1.186c0,0-2.33,0.183-3.835,0.183  c-0.27,0-0.588-0.006-0.926-0.018C6.554,4.193,10.975,1.615,16,1.615c3.745,0,7.155,1.431,9.715,3.777  c-0.062-0.005-0.123-0.013-0.187-0.013c-1.413,0-2.416,1.231-2.416,2.554c0,1.186,0.684,2.188,1.413,3.374  c0.547,0.957,1.187,2.188,1.187,3.968c0,1.23-0.474,2.659-1.095,4.65l-1.436,4.793L17.982,9.255z M28.623,9.099  c1.123,2.05,1.762,4.4,1.762,6.901c0,5.308-2.876,9.94-7.152,12.435l4.394-12.704c0.82-2.052,1.094-3.693,1.094-5.151  C28.72,10.049,28.686,9.558,28.623,9.099z" fill="#21759B"/><g/><g/><g/><g/><g/><g/></svg>